<?xml version="1.0" encoding="UTF-8" standalone="no"?>
<svg
   width="240"
   height="240"
   version="1.1"
   id="svg40"
   sodipodi:docname="biosystem.svg"
   inkscape:version="1.3.2 (091e20e, 2023-11-25, custom)"
   xmlns:inkscape="http://www.inkscape.org/namespaces/inkscape"
   xmlns:sodipodi="http://sodipodi.sourceforge.net/DTD/sodipodi-0.dtd"
   xmlns="http://www.w3.org/2000/svg"
   xmlns:svg="http://www.w3.org/2000/svg">
  <defs
     id="defs40">
    <filter
       style="color-interpolation-filters:sRGB;"
       inkscape:label="Drop Shadow"
       id="filter9"
       x="-0.090103871"
       y="-0.096635048"
       width="1.1802077"
       height="1.1932701">
      <feFlood
         result="flood"
         in="SourceGraphic"
         flood-opacity="1.000000"
         flood-color="rgb(58,63,94)"
         id="feFlood8" />
      <feGaussianBlur
         result="blur"
         in="SourceGraphic"
         stdDeviation="8.000000"
         id="feGaussianBlur8" />
      <feOffset
         result="offset"
         in="blur"
         dx="0.000000"
         dy="0.000000"
         id="feOffset8" />
      <feComposite
         result="comp1"
         operator="out"
         in="flood"
         in2="offset"
         id="feComposite8" />
      <feComposite
         result="comp2"
         operator="atop"
         in="comp1"
         in2="SourceGraphic"
         id="feComposite9" />
    </filter>
    <filter
       style="color-interpolation-filters:sRGB;"
       inkscape:label="Drop Shadow"
       id="filter11"
       x="-0.14658222"
       y="-0.22299048"
       width="1.2931644"
       height="1.445981">
      <feFlood
         result="flood"
         in="SourceGraphic"
         flood-opacity="1.000000"
         flood-color="rgb(58,63,94)"
         id="feFlood9" />
      <feGaussianBlur
         result="blur"
         in="SourceGraphic"
         stdDeviation="8.000000"
         id="feGaussianBlur9" />
      <feOffset
         result="offset"
         in="blur"
         dx="0.000000"
         dy="0.000000"
         id="feOffset9" />
      <feComposite
         result="comp1"
         operator="out"
         in="flood"
         in2="offset"
         id="feComposite10" />
      <feComposite
         result="comp2"
         operator="atop"
         in="comp1"
         in2="SourceGraphic"
         id="feComposite11" />
    </filter>
  </defs>
  <sodipodi:namedview
     id="namedview40"
     pagecolor="#505050"
     bordercolor="#eeeeee"
     borderopacity="1"
     inkscape:showpageshadow="0"
     inkscape:pageopacity="0"
     inkscape:pagecheckerboard="0"
     inkscape:deskcolor="#505050"
     inkscape:zoom="2.3747003"
     inkscape:cx="140.22822"
     inkscape:cy="134.5433"
     inkscape:window-width="1920"
     inkscape:window-height="1017"
     inkscape:window-x="-8"
     inkscape:window-y="-8"
     inkscape:window-maximized="1"
     inkscape:current-layer="svg40" />
  <path
     style="fill:#1b1f21;stroke:none"
     d="M0 0v240h240V0H0z"
     id="path1" />
  <path
     d="m 46.836942,20.657164 c -2.172029,0 -3.972754,0.17742 -5.767536,1.090587 -1.795238,0.913166 -3.330748,3.176191 -3.479818,5.110439 -0.297224,3.868497 1.561574,5.907917 2.974993,8.262853 1.412962,2.355851 2.844214,4.729078 3.396595,6.386221 0.553296,1.656686 0.583018,1.688237 -0.03338,2.304636 l -0.016,0.01555 -0.01555,0.016 c -18.871956,19.284869 -30.43995,47.057109 -30.43995,76.04111 0,38.67857 22.562573,72.64177 53.187715,91.31024 16.836648,10.26295 34.158919,7.91716 53.355989,7.91716 18.93368,0 36.63183,2.09201 53.32672,-7.90024 31.0376,-18.57564 53.21698,-52.39389 53.21698,-91.32716 0,-28.907637 -11.66768,-56.765386 -30.43263,-76.034707 l -0.0183,-0.01921 -0.0201,-0.01829 c -0.6164,-0.617313 -0.58622,-0.649322 -0.0338,-2.30555 0.55193,-1.657144 1.98272,-4.03037 3.39614,-6.385764 1.41296,-2.354936 3.27222,-4.394356 2.97499,-8.262853 -0.14907,-1.934248 -1.68458,-4.196815 -3.47981,-5.109982 -1.79433,-0.913624 -3.59505,-1.091044 -5.76708,-1.091044 z m 0,8.230844 H 193.16306 c 0.12666,0 0.0581,0.01372 0.17376,0.01692 -0.26704,0.615484 -0.49842,1.214507 -0.95889,1.98089 -1.33066,2.21684 -3.10029,4.873574 -4.14835,8.017756 -1.04714,3.14464 -1.01742,7.68578 2.02433,10.727534 l -0.0384,-0.03887 c 17.17594,17.638699 28.09736,43.613871 28.09736,70.292322 0,35.80235 -20.46874,67.06081 -49.2113,84.26418 -14.02307,8.39226 -29.63241,6.73238 -49.10156,6.73238 -19.79975,0 -34.881403,1.93562 -49.072292,-6.71546 -28.366232,-17.29117 -49.240568,-48.81713 -49.240568,-84.2811 0,-26.781794 10.815787,-52.63076 28.090957,-70.284548 l -0.03201,0.03109 c 3.042211,-3.04084 3.072848,-7.582437 2.02433,-10.727534 -1.048518,-3.143725 -2.818607,-5.800458 -4.148802,-8.017756 -0.460013,-0.76684 -0.691849,-1.365863 -0.958437,-1.981347 0.11569,-0.0037 0.0471,-0.01692 0.173763,-0.01692 z m 40.003731,28.23271 c -1.435825,-0.0046 -2.924236,0.02515 -4.451058,0.08505 -9.160015,0.358956 -19.716072,1.802555 -28.93919,3.300111 -0.993189,0.160959 -1.938821,0.322832 -2.895428,0.484705 -2.457364,2.590887 -4.71353,5.703975 -6.767583,9.197968 -0.07956,0.135352 -0.155471,0.274362 -0.235036,0.411543 3.274047,-0.615485 7.081269,-1.298645 11.217726,-1.969916 12.06093,-1.958026 26.657874,-3.714854 35.71729,-3.16796 18.565126,1.121224 36.947346,13.329395 58.530446,14.632612 10.56749,0.638347 25.2344,-1.263435 37.53265,-3.260329 4.49221,-0.728887 8.63781,-1.47515 12.11306,-2.133161 -0.95707,-1.984548 -1.96855,-3.909651 -3.04313,-5.737355 -0.37267,-0.633775 -0.75449,-1.250174 -1.14043,-1.857885 -2.80854,0.5158 -5.91843,1.063151 -9.24964,1.6041 -12.06093,1.958027 -26.65787,3.714855 -35.71729,3.167961 C 130.94794,70.75694 112.56572,58.548769 90.982617,57.245552 89.662023,57.16553 88.277412,57.12529 86.840673,57.12026 Z m -30.232348,19.5574 -13.729962,1.316935 C 35.884703,90.850368 32.215475,105.25 32.20433,119.88456 c 0.03995,24.63977 10.432095,48.1287 28.638765,64.73102 C 49.329827,167.67905 43.157812,147.68013 43.123917,127.20087 43.171974,109.4769 47.818343,92.06869 56.608783,76.678118 Z"
     fill="#f5f8fa"
     fill-opacity="1"
     id="path1-7"
     style="stroke-width:0.457269;fill:#e64539;fill-opacity:1;filter:url(#filter9)"
     sodipodi:nodetypes="scccccccscscscccccccsscscccccscscscccccccccccscccccccccccccccccccc" />
  <path
     d="m 104.11237,89.420086 c -0.19655,0.0029 -0.39846,0.01179 -0.60323,0.02216 h -0.16688 c -3.724393,0 -6.874866,1.215734 -8.263918,2.836712 -1.30293,1.519489 -1.955466,3.609321 -0.03395,7.917632 2.054096,3.14583 3.699375,7.45021 5.125948,12.99892 l -6.477478,1.66386 c -2.413957,-9.38781 -5.421129,-13.16152 -7.45986,-14.05956 -1.019901,-0.44848 -2.020862,-0.48851 -3.518195,-0.0332 -1.497332,0.45527 -3.372749,1.49554 -5.416125,3.00395 -3.150831,2.32498 -5.119876,5.33 -5.00302,7.87261 0.08934,1.95725 1.290064,4.49021 5.449718,7.27046 0.391665,0.21799 0.781543,0.43062 1.182856,0.65897 l -0.03323,0.0665 c 0.999532,0.60179 2.126283,1.21359 3.428498,1.83146 l -2.869589,6.03078 c -1.813595,-0.86051 -3.440648,-1.76678 -4.891524,-2.71378 -5.258531,-2.87566 -9.126937,-4.13714 -11.18961,-3.96418 -1.09995,0.0919 -1.761778,0.38131 -2.59085,1.20573 -0.829071,0.82407 -1.756059,2.31926 -2.60157,4.67926 -1.407992,3.92737 -1.644564,7.14002 -0.569986,8.88893 0.854801,1.39191 3.024682,2.88996 8.163498,3.40634 1.282917,0.0265 2.648741,0.0786 4.142857,0.14509 v 0.0447 c 0.142944,0 0.277311,0.001 0.424185,0 l 0.05575,6.67831 c -1.533783,0.0143 -2.966791,-0.0393 -4.321894,-0.14544 -4.276152,-0.0261 -6.869503,0.31948 -7.939792,0.8598 -0.670405,0.33842 -0.924129,0.59501 -1.295425,1.35153 -0.371653,0.75618 -0.722579,2.07626 -0.961294,4.02029 -0.219776,1.79858 -0.0729,3.12081 0.301968,4.031 0.375226,0.91127 0.915552,1.57953 2.244211,2.2896 2.658748,1.4205 8.691674,2.32283 18.784194,1.46338 l 0.569272,6.65581 c -7.728593,0.65754 -13.513155,0.54818 -17.97978,-0.55855 -0.304826,1.33544 -0.240144,2.37929 0.01072,3.26089 0.04288,0.14723 0.09184,0.29304 0.145445,0.43598 0.0043,0.0107 0.0071,0.0222 0.01144,0.0332 0.611083,1.14284 1.412281,2.14237 2.456482,3.01539 0.0064,0.005 0.01572,0.006 0.02216,0.0107 2.519378,1.86541 6.654731,2.92606 9.101922,2.92606 h 37.097386 c 4.32761,0 8.08345,-3.18621 9.5379,-8.96684 l 2.88031,-11.45799 3.55214,11.27931 c 1.86399,5.93286 5.74883,9.14588 9.59258,9.14588 H 171.304 c 2.23706,0 6.56468,-1.41014 9.14659,-3.66293 0.3227,-0.28124 0.62431,-0.57463 0.8934,-0.87053 0.0507,-0.0561 0.0965,-0.11078 0.14508,-0.16795 0.007,-0.008 0.0164,-0.0136 0.0229,-0.0214 0.53603,-0.68434 0.97058,-1.42943 1.34009,-2.23349 0.045,-0.12364 0.0979,-0.24514 0.13401,-0.36915 0.2187,-0.75295 0.30018,-1.54164 0.15581,-2.45648 -4.51916,1.20251 -10.42058,1.33652 -18.38145,0.65897 l 0.56891,-6.6558 c 10.09288,0.85909 16.11437,-0.0429 18.77276,-1.46303 1.32937,-0.70971 1.8697,-1.37833 2.24421,-2.28888 0.37523,-0.91055 0.53318,-2.23278 0.31305,-4.031 -0.23836,-1.94475 -0.60036,-3.26448 -0.97202,-4.02029 -0.37094,-0.75688 -0.62466,-1.01311 -1.29506,-1.35153 -1.07029,-0.54068 -3.66364,-0.88625 -7.94051,-0.86016 -1.35439,0.10578 -2.7874,0.15974 -4.32118,0.14509 l 0.0668,-6.67796 c 0.14723,0.001 0.28124,0 0.42525,0 v -0.0447 c 1.49376,-0.0661 2.85887,-0.11864 4.1425,-0.14509 5.13882,-0.51638 7.3087,-2.01443 8.1635,-3.40563 1.07458,-1.74998 0.83801,-4.96192 -0.56963,-8.88965 -0.84551,-2.36035 -1.78393,-3.85518 -2.613,-4.67925 -0.82908,-0.82443 -1.4909,-1.11389 -2.59085,-1.20609 -2.06268,-0.17332 -5.92144,1.08816 -11.17818,3.96418 -1.45302,0.94843 -3.08615,1.85112 -4.90296,2.71343 l -2.85887,-6.03043 c 1.30222,-0.61752 2.42897,-1.22931 3.4285,-1.83111 l -0.0447,-0.0668 c 0.42347,-0.24158 0.83729,-0.4635 1.25076,-0.69328 4.11677,-2.76595 5.30427,-5.28747 5.39325,-7.23651 0.1165,-2.5426 -1.8529,-5.54763 -5.00302,-7.87261 -2.04337,-1.50805 -3.91879,-2.54868 -5.41612,-3.00395 -1.49734,-0.45528 -2.49794,-0.41525 -3.51784,0.0332 -0.70757,0.31162 -1.5345,0.98095 -2.41217,2.09984 -0.16189,0.37666 -0.33735,0.75903 -0.5246,1.1389 l -0.21227,-0.10006 c -1.44445,2.2192 -2.97895,5.69773 -4.3219,10.92088 l -6.46604,-1.6635 c 1.59239,-6.19303 3.44958,-10.83654 5.85174,-14.048836 1.37011,-3.603246 0.74438,-5.478306 -0.4467,-6.867716 -1.38905,-1.620979 -4.53952,-2.836712 -8.26391,-2.836712 h -0.16439 c -3.2734,-0.164385 -5.47294,0.623948 -7.29226,1.987985 -1.81967,1.36368 -3.28198,3.440648 -4.38907,6.041146 -2.21384,5.200993 -2.83636,12.285983 -2.83636,17.476973 v 0.0229 l -0.0679,12.16091 v 0.0339 h -6.6776 v -0.0339 l -0.0672,-12.16091 v -0.0229 c 0,-5.19063 -0.61108,-12.27527 -2.82528,-17.476616 -1.10709,-2.600498 -2.56941,-4.677823 -4.38836,-6.041503 -1.70639,-1.279344 -3.74405,-2.054812 -6.68975,-2.010499 z"
     fill="#f5f8fa"
     fill-opacity="1"
     id="path1-6"
     sodipodi:nodetypes="ccscccccscccccccccccccccccccccccccccccccsscccssccccccccccccccccccccccccccccccccsccccccccscccsccccccscccccc"
     style="stroke-width:0.357359;fill:#e64539;fill-opacity:1;filter:url(#filter11)" />
</svg>
