<?xml version="1.0" encoding="UTF-8" standalone="no"?>
<svg
   width="240"
   height="240"
   version="1.1"
   id="svg40"
   sodipodi:docname="FBCalphaclass.svg"
   inkscape:version="1.3.2 (091e20e, 2023-11-25, custom)"
   xml:space="preserve"
   xmlns:inkscape="http://www.inkscape.org/namespaces/inkscape"
   xmlns:sodipodi="http://sodipodi.sourceforge.net/DTD/sodipodi-0.dtd"
   xmlns="http://www.w3.org/2000/svg"
   xmlns:svg="http://www.w3.org/2000/svg"><defs
     id="defs40"><filter
       style="color-interpolation-filters:sRGB;"
       inkscape:label="Drop Shadow"
       id="filter3"
       x="-0.17272412"
       y="-0.16174829"
       width="1.3454482"
       height="1.3234966"><feFlood
         result="flood"
         in="SourceGraphic"
         flood-opacity="1.000000"
         flood-color="rgb(58,63,94)"
         id="feFlood2" /><feGaussianBlur
         result="blur"
         in="SourceGraphic"
         stdDeviation="15.000000"
         id="feGaussianBlur2" /><feOffset
         result="offset"
         in="blur"
         dx="0.000000"
         dy="0.000000"
         id="feOffset2" /><feComposite
         result="comp1"
         operator="out"
         in="flood"
         in2="offset"
         id="feComposite2" /><feComposite
         result="comp2"
         operator="atop"
         in="comp1"
         in2="SourceGraphic"
         id="feComposite3" /></filter><filter
       style="color-interpolation-filters:sRGB;"
       inkscape:label="Drop Shadow"
       id="filter6"
       x="-0.080915145"
       y="-0.084299289"
       width="1.1618303"
       height="1.1685986"><feFlood
         result="flood"
         in="SourceGraphic"
         flood-opacity="1.000000"
         flood-color="rgb(58,63,94)"
         id="feFlood5" /><feGaussianBlur
         result="blur"
         in="SourceGraphic"
         stdDeviation="7.000000"
         id="feGaussianBlur5" /><feOffset
         result="offset"
         in="blur"
         dx="0.000000"
         dy="0.000000"
         id="feOffset5" /><feComposite
         result="comp1"
         operator="out"
         in="flood"
         in2="offset"
         id="feComposite5" /><feComposite
         result="comp2"
         operator="atop"
         in="comp1"
         in2="SourceGraphic"
         id="feComposite6" /></filter></defs><sodipodi:namedview
     id="namedview40"
     pagecolor="#505050"
     bordercolor="#eeeeee"
     borderopacity="1"
     inkscape:showpageshadow="0"
     inkscape:pageopacity="0"
     inkscape:pagecheckerboard="0"
     inkscape:deskcolor="#505050"
     inkscape:zoom="2.3747003"
     inkscape:cx="95.169905"
     inkscape:cy="97.064881"
     inkscape:window-width="1920"
     inkscape:window-height="1017"
     inkscape:window-x="-8"
     inkscape:window-y="-8"
     inkscape:window-maximized="1"
     inkscape:current-layer="svg40" /><path
     style="fill:#1b1f21;stroke:none"
     d="M0 0v240h240V0H0z"
     id="path1" /><path
     style="fill:#e64539;fill-opacity:1;filter:url(#filter6)"
     d="m 16.232643,221.07386 c 0,-1.33617 4.470828,-6.65081 9.935173,-11.81031 8.644426,-8.16218 9.996277,-8.97673 10.405512,-6.26982 0.291788,1.93006 1.548993,3.1111 3.311724,3.1111 1.824088,0 2.841384,-1.01531 2.841384,-2.83583 0,-1.55971 -1.159103,-3.13874 -2.575785,-3.50896 -2.164992,-0.56577 -2.106307,-0.69806 0.367969,-0.82948 1.619065,-0.086 6.255479,1.38255 10.303142,3.26344 4.047663,1.88089 9.015249,3.84597 11.039081,4.36684 2.023831,0.52087 9.309624,4.59505 16.190651,9.05373 l 12.510958,8.1067 -37.164904,-0.10901 c -33.516747,-0.0983 -37.164905,-0.34748 -37.164905,-2.5384 z m 75.880692,1.34945 c -0.456865,-0.73922 -5.584584,-4.47594 -11.39493,-8.30381 -5.810346,-3.82787 -16.845035,-9.51533 -24.521532,-12.63879 -7.676496,-3.12346 -14.687494,-5.67902 -15.579994,-5.67902 -0.8925,0 -4.029428,1.63539 -6.970952,3.63421 l -5.348223,3.63421 1.694826,-4.56197 1.694826,-4.56197 26.493793,1.17349 c 14.571586,0.64542 28.480828,1.34311 30.909426,1.55042 2.428597,0.2073 5.27736,0.42789 6.330583,0.4902 1.053224,0.0623 2.856388,2.2659 4.007031,4.89689 1.150641,2.63098 3.300571,6.31134 4.777631,8.17858 1.47705,1.86723 4.3103,4.20202 6.29611,5.18841 1.98581,0.98639 3.82221,3.26713 4.0809,5.06832 0.45044,3.13631 0.003,3.27488 -10.58425,3.27488 -6.080017,0 -11.428379,-0.60482 -11.885245,-1.34405 z m 25.678845,-2.35946 c 0,-2.7834 -1.27986,-4.31383 -5.15157,-6.16012 -2.83336,-1.35114 -5.15157,-3.04092 -5.15157,-3.75507 0,-0.71415 1.35712,-0.86772 3.01582,-0.34126 1.77547,0.56351 4.49958,-0.015 6.62345,-1.40663 2.16951,-1.42151 3.60763,-3.7714 3.60763,-5.89487 0,-2.31896 -2.0941,-5.32355 -6.10043,-8.75281 l -6.10043,-5.22175 4.26058,-1.6558 c 2.38742,-0.92783 8.06648,-1.32462 12.91724,-0.9025 5.05177,0.4396 9.62688,1.72352 10.98651,3.08316 2.12523,2.12522 2.03084,2.32985 -1.0747,2.32985 -1.91074,0 -5.27823,2.00576 -7.67479,4.57129 -2.34863,2.51422 -4.27023,5.77863 -4.27023,7.25426 0,1.47563 1.09806,3.78102 2.44013,5.12309 1.42103,1.42103 3.8799,2.1649 5.88751,1.78112 1.89606,-0.36246 3.44738,-0.16962 3.44738,0.42853 0,0.59815 -0.82793,1.76753 -1.83984,2.59862 -1.01192,0.83109 -3.49571,1.74012 -5.51954,2.02007 -2.76254,0.38213 -3.79578,1.51787 -4.14543,4.55666 -0.32902,2.85949 -1.30117,4.04767 -3.31173,4.04767 -2.05935,0 -2.84599,-1.02366 -2.84599,-3.70351 z m 8.33015,1.12772 c 0.38234,-1.41668 2.7977,-3.5693 5.36745,-4.7836 2.56976,-1.2143 6.66575,-4.9132 9.10221,-8.21978 l 4.42993,-6.01196 29.43754,-1.02647 c 16.19066,-0.56457 31.54122,-1.40102 34.11237,-1.8588 4.3027,-0.76606 4.78794,-0.44012 6.09586,4.09468 0.78156,2.70985 1.92621,6.25169 2.54366,7.87076 0.94304,2.47283 0.43879,2.31814 -3.1521,-0.967 -2.3511,-2.15092 -6.75559,-4.93086 -9.78775,-6.17765 -4.93118,-2.02765 -6.63996,-2.0345 -16.19066,-0.0649 -5.87269,1.2111 -14.65169,4.24074 -19.50889,6.73253 -4.85719,2.49179 -11.44554,6.43346 -14.64076,8.75926 -5.2054,3.789 -6.98946,4.22873 -17.15677,4.22873 -10.09048,0 -11.27026,-0.28529 -10.65209,-2.57579 z m 29.62469,-0.0798 c 1.85114,-1.42457 8.45702,-5.1761 14.67972,-8.33675 7.55357,-3.83663 13.91608,-5.96242 19.14289,-6.39587 5.67577,-0.47068 7.71051,-0.15521 7.39845,1.14706 -0.23675,0.98796 0.76744,2.56259 2.23154,3.49917 2.16172,1.38285 3.05206,1.17776 4.73759,-1.09131 1.77793,-2.39345 2.45162,-2.5134 4.6974,-0.83634 1.44198,1.07683 5.15634,4.65242 8.25411,7.94576 l 5.63233,5.98791 -12.1297,0.4314 c -8.67956,0.3087 -12.46213,-0.10646 -13.2984,-1.45957 -0.93075,-1.50599 -1.54075,-1.51891 -2.99623,-0.0634 -1.27915,1.27915 -7.81214,1.81773 -21.77148,1.79482 -19.33317,-0.0317 -19.84086,-0.11205 -16.57822,-2.62284 z m 44.4703,-12.06321 c 0,-0.80953 0.70143,-1.47187 1.55874,-1.47187 0.85731,0 1.14939,0.66234 0.64907,1.47187 -0.50031,0.80954 -1.20175,1.47188 -1.55874,1.47188 -0.35699,0 -0.64907,-0.66234 -0.64907,-1.47188 z m 17.71431,-2.84699 c -0.83801,-1.56584 -1.52366,-3.88405 -1.52366,-5.15157 0,-1.26752 0.49676,-2.28351 1.10391,-2.25777 0.60715,0.0258 2.26301,0.9267 3.67969,2.00211 1.41668,1.07542 2.57579,3.37256 2.57579,5.10476 0,1.78465 -0.93431,3.14946 -2.15603,3.14946 -1.18582,0 -2.84168,-1.28114 -3.6797,-2.84699 z m -107.10285,0.35512 c 1.43209,-0.37319 3.41912,-0.34864 4.41563,0.0545 0.99651,0.40318 -0.1752,0.70851 -2.6038,0.67851 -2.42859,-0.03 -3.24392,-0.35987 -1.81183,-0.73305 z m 16.69521,-0.18555 c -0.40979,-0.66306 1.20698,-0.91905 3.59282,-0.56889 2.38585,0.35017 4.3379,0.89267 4.3379,1.20555 0,0.31289 -1.61677,0.56889 -3.59283,0.56889 -1.97605,0 -3.9281,-0.5425 -4.33789,-1.20555 z m -89.213186,-3.21009 c 0,-0.80953 0.701435,-1.47187 1.558743,-1.47187 0.857309,0 1.149392,0.66234 0.649073,1.47187 -0.500318,0.80954 -1.201753,1.47188 -1.558743,1.47188 -0.35699,0 -0.649073,-0.66234 -0.649073,-1.47188 z m 64.363976,0.58262 c -0.59029,-0.59028 -1.07325,-2.08884 -1.07325,-3.33012 0,-1.65674 0.43543,-1.82145 1.63747,-0.61942 0.9006,0.90061 1.38356,2.39916 1.07324,3.33013 -0.31032,0.93096 -1.04718,1.2097 -1.63746,0.61941 z m 5.51238,-2.64158 c -1.27242,-1.94197 -4.10266,-4.22374 -6.28941,-5.07061 -2.186751,-0.84687 -19.541015,-2.20492 -38.56503,-3.01789 -19.024015,-0.81297 -37.098561,-2.29309 -40.165656,-3.28916 -3.755996,-1.2198 -5.424604,-2.56561 -5.111148,-4.12238 0.282229,-1.40168 1.897674,-2.25725 4.10466,-2.17391 2.001598,0.0756 10.017486,0.89755 17.813083,1.82658 7.795597,0.92903 24.023045,2.08113 36.060996,2.56023 16.548947,0.65862 23.691076,1.56823 29.283275,3.72946 4.06786,1.57211 8.24554,4.21854 9.28374,5.88097 1.45649,2.33222 1.49099,3.50053 0.15104,5.11507 -0.95513,1.15087 -2.30258,2.09248 -2.99433,2.09248 -0.69175,0 -2.2988,-1.58888 -3.57122,-3.53084 z m 21.31344,1.24277 c -1.58821,-1.91367 -1.37059,-2.81684 1.32992,-5.51954 3.09837,-3.10088 4.72917,-3.26969 40.35549,-4.17737 20.41965,-0.52024 39.44047,-1.67935 42.26849,-2.57578 2.82802,-0.89644 6.30533,-1.62989 7.72735,-1.62989 1.57805,0 2.58551,1.1132 2.58551,2.85689 0,1.57129 -0.66903,3.27037 -1.48673,3.77574 -0.81771,0.50536 -9.59377,1.56239 -19.50238,2.34895 -9.9086,0.78655 -28.46084,1.64619 -41.22719,1.91032 -18.95988,0.39226 -23.69918,0.92152 -25.87375,2.88948 -1.46421,1.3251 -3.02571,2.40927 -3.46999,2.40927 -0.44429,0 -1.66231,-1.02963 -2.70672,-2.28807 z M 18.356123,201.0736 c -1.570134,-1.14811 -2.524659,-2.36509 -2.121166,-2.7044 0.403494,-0.33931 3.526851,-1.70409 6.940793,-3.03285 l 6.207168,-2.41592 -1.515649,3.98646 c -0.833607,2.19255 -2.302143,4.48655 -3.263413,5.09778 -0.961271,0.61123 -2.117929,1.12147 -2.570353,1.13386 -0.452424,0.0124 -2.107245,-0.91682 -3.67738,-2.06493 z m -0.651602,-8.21567 c 0,-0.80953 0.954427,-1.47188 2.12095,-1.47188 1.166523,0 2.530302,0.66235 3.03062,1.47188 0.500319,0.80953 -0.454109,1.47188 -2.12095,1.47188 -1.666841,0 -3.03062,-0.66235 -3.03062,-1.47188 z m 135.044749,-2.52416 c -1.41668,-0.34949 -2.57578,-1.28211 -2.57578,-2.07249 0,-0.79037 0.93673,-3.24849 2.08163,-5.46248 1.14489,-2.21398 2.55451,-6.65192 3.13249,-9.86207 0.57797,-3.21016 1.64886,-6.83017 2.37975,-8.04447 0.88317,-1.4673 1.25229,0.50742 1.10051,5.88751 -0.12561,4.45243 -0.14619,8.94559 -0.0457,9.98481 0.10045,1.03922 2.50084,3.25726 5.3342,4.92899 2.83337,1.67173 5.15133,3.47084 5.15103,3.99802 -3e-4,0.52719 -3.14644,1.03032 -6.99142,1.11808 -3.84498,0.0877 -8.14998,-0.1264 -9.56666,-0.4759 z m 18.02896,-3.16915 c -2.83421,-1.55777 -6.44771,-4.26281 -8.02999,-6.01122 -2.31522,-2.55828 -2.54779,-3.70588 -1.19123,-5.87808 1.19273,-1.90986 1.28988,-5.43667 0.33223,-12.06065 -0.74438,-5.14882 -1.36674,-10.18942 -1.38302,-11.20134 -0.0163,-1.01191 0.79834,-1.82308 1.81026,-1.80259 1.01191,0.0205 6.94745,2.57912 13.19007,5.68586 6.24263,3.10673 14.7495,8.22314 18.90416,11.36979 4.68339,3.54711 8.93751,8.4336 11.19486,12.85897 2.00251,3.92577 3.29751,7.48119 2.87777,7.90093 -0.41973,0.41973 -7.91564,1.03483 -16.65758,1.36689 -13.6498,0.51847 -16.62214,0.20375 -21.04753,-2.22856 z m -34.58758,-1.18328 c -2.4286,-1.2887 -4.5842,-2.47946 -4.79024,-2.64614 -0.20603,-0.16668 0.40987,-2.55339 1.36866,-5.30379 0.95879,-2.7504 2.89571,-6.00394 4.30427,-7.23009 1.40855,-1.22615 2.9979,-4.38199 3.53189,-7.01297 0.66704,-3.28654 0.41608,-4.7836 -0.80192,-4.7836 -1.21448,0 -1.47201,-1.50401 -0.81771,-4.7755 0.5253,-2.62653 2.59513,-6.29623 4.59962,-8.1549 2.00448,-1.85866 3.64451,-5.02324 3.64451,-7.0324 0,-2.23012 2.34745,-6.19969 6.02664,-10.19114 3.75786,-4.07679 6.75586,-9.18984 7.96371,-13.58198 1.34062,-4.87493 1.97761,-5.88785 2.06869,-3.28959 0.0724,2.06484 -1.09839,9.38284 -2.60173,16.26222 -1.50334,6.87938 -3.39708,13.80045 -4.20831,15.38015 -0.81124,1.5797 -1.91071,5.19039 -2.44327,8.02375 -0.53256,2.83337 -2.2579,8.4633 -3.83409,12.51096 -1.57619,4.04766 -3.90163,11.16787 -5.16765,15.82268 -1.26602,4.65482 -2.78011,8.43678 -3.36465,8.40437 -0.58453,-0.0324 -3.04982,-1.11332 -5.47842,-2.40203 z m -52.819828,-0.4828 -10.135386,-0.73593 5.977903,-3.34418 c 4.219431,-2.36045 6.260211,-4.62953 6.937609,-7.7137 0.527839,-2.40324 0.841324,-6.52829 0.696633,-9.16678 -0.144691,-2.63849 -0.195968,-5.95636 -0.113949,-7.37305 0.08202,-1.41668 0.714281,-2.57578 1.405026,-2.57578 0.690745,0 1.662082,4.80512 2.158526,10.67805 0.496444,5.87292 1.663731,12.86135 2.593972,15.52984 0.930241,2.66849 1.44918,4.98358 1.153199,5.14464 -0.295982,0.16106 -5.099072,-0.0383 -10.673533,-0.44311 z m 14.853137,-6.1184 C 96.799522,175.0547 93.690303,164.56109 91.314583,156.061 88.938864,147.5609 86.008107,137.02228 84.80179,132.64184 l -2.193303,-7.96445 6.552768,6.43106 c 3.604022,3.53708 6.552768,7.56702 6.552768,8.95542 0,1.3884 1.637236,4.47011 3.638302,6.84825 2.001065,2.37813 4.333515,6.15241 5.183205,8.38729 1.12107,2.94862 1.07306,4.63196 -0.175,6.13578 -1.26365,1.52261 -1.29585,3.0031 -0.12136,5.58081 0.8792,1.92964 2.87988,3.91512 4.44596,4.41218 1.88133,0.59711 3.14715,2.75089 3.73089,6.34806 0.48593,2.99438 0.34691,5.98093 -0.30893,6.63676 -0.65583,0.65583 -3.46511,1.56123 -6.24283,2.01199 -4.99456,0.81051 -5.07906,0.73259 -7.640301,-7.04485 z m 111.683391,5.1718 c -0.51043,-1.33017 -0.61933,-2.72721 -0.242,-3.10454 0.37733,-0.37733 2.71113,0.21033 5.18621,1.30591 2.47509,1.09558 4.50016,2.49262 4.50016,3.10454 0,0.61191 -1.91617,1.11257 -4.25815,1.11257 -2.59209,0 -4.62128,-0.94627 -5.18622,-2.41848 z M 48.118923,183.98812 c -6.343758,-0.60428 -12.070074,-1.67074 -12.725147,-2.36992 -0.655073,-0.69917 -0.656804,-2.65996 -0.0038,-4.35731 0.652958,-1.69734 4.723411,-6.09675 9.045453,-9.77645 4.322041,-3.6797 11.169981,-8.53347 15.217643,-10.78616 4.047663,-2.25269 10.339939,-5.22425 13.982836,-6.60347 3.642896,-1.37922 7.80931,-3.00039 9.258696,-3.60261 2.435339,-1.01187 2.559919,-0.32757 1.642237,9.02053 -0.546156,5.56351 -1.647532,10.9434 -2.447502,11.95532 -0.979775,1.23935 -0.856458,2.56043 0.377833,4.04766 1.469591,1.77075 1.432424,2.69125 -0.187746,4.64986 -1.111038,1.34312 -5.331794,3.98603 -9.379457,5.87313 -4.047663,1.8871 -8.684077,3.34492 -10.303142,3.23959 -1.619065,-0.10532 -8.134101,-0.6859 -14.477858,-1.29017 z M 220.85312,183.3263 c -1.16094,-1.39885 -1.2726,-2.24339 -0.29661,-2.24339 0.86088,0 2.00182,0.70641 2.53543,1.56981 0.53361,0.86339 0.66708,1.87291 0.29661,2.24338 -0.37047,0.37047 -1.51141,-0.33594 -2.53543,-1.5698 z M 16.271809,177.94286 c -0.02823,-2.79337 0.885851,-4.1239 3.272558,-4.76351 1.821449,-0.48813 4.762911,-0.89655 6.536583,-0.9076 1.773672,-0.0111 3.548659,0.50382 3.944417,1.14417 0.395757,0.64035 -1.386602,0.92547 -3.960798,0.63361 -3.844321,-0.43587 -5.133462,0.21064 -7.216975,3.61933 l -2.536619,4.14999 z m 9.528037,1.66817 c 0.500319,-0.80953 2.23436,-1.47187 3.853425,-1.47187 1.619065,0 2.534403,0.66234 2.034085,1.47187 -0.500319,0.80954 -2.23436,1.47188 -3.853425,1.47188 -1.619065,0 -2.534403,-0.66234 -2.034085,-1.47188 z m 94.171264,-1.51863 c -0.57162,-0.92489 -0.41296,-2.30796 0.35258,-3.0735 0.76553,-0.76553 2.52415,-0.95739 3.90803,-0.42634 1.38388,0.53104 2.26768,1.71186 1.964,2.62404 -0.30368,0.91217 -1.59461,1.86076 -2.86873,2.10796 -1.27412,0.24721 -2.78427,-0.30726 -3.35588,-1.23216 z m -9.7232,-8.9354 c -2.72132,-2.22104 -4.44702,-4.53909 -3.83488,-5.15123 0.61214,-0.61214 3.44534,-7.5e-4 6.296,1.35863 2.85067,1.35939 6.65083,2.46364 8.44481,2.45389 1.79399,-0.01 6.14437,-1.66562 9.66751,-3.6797 3.52315,-2.01408 6.66928,-3.66196 6.99142,-3.66196 0.32213,0 0.5857,0.99954 0.5857,2.22121 0,1.22167 -1.82145,4.04875 -4.04767,6.28241 -3.33819,3.34937 -5.37165,4.07468 -11.60134,4.1381 -6.12055,0.0623 -8.49243,-0.68927 -12.50155,-3.96135 z m 2.41284,-7.45562 c -2.23111,-1.75499 -5.03329,-5.56347 -6.22709,-8.4633 -1.19379,-2.89982 -3.54474,-6.76007 -5.22432,-8.57833 -1.67959,-1.81826 -2.637595,-3.72212 -2.128905,-4.23081 0.50869,-0.50869 2.990715,0.81339 5.515615,2.93795 2.5249,2.12456 5.11946,3.86284 5.76569,3.86284 0.64623,0 1.56517,1.95102 2.04208,4.33559 0.47692,2.38457 2.25999,5.08102 3.96238,5.99212 2.43861,1.3051 3.87176,1.14775 6.75543,-0.7417 2.01309,-1.31903 4.12129,-3.58785 4.6849,-5.04183 0.5636,-1.45397 4.21116,-5.38943 8.10567,-8.74545 3.89452,-3.35603 7.703,-6.10187 8.4633,-6.10187 0.76029,0 1.38235,0.66234 1.38235,1.47188 0,0.80953 -1.49027,2.96092 -3.31172,4.78087 -1.82145,1.81995 -4.75156,6.41327 -6.51137,10.20739 -2.00057,4.31321 -4.86902,7.76165 -7.65426,9.20196 -2.45004,1.26696 -6.05405,2.30357 -8.00891,2.30357 -1.95486,0 -5.37974,-1.4359 -7.61084,-3.19088 z m 3.95393,-7.40664 c -0.97144,-0.97144 -1.76625,-2.6273 -1.76625,-3.67969 0,-1.20554 1.90589,-1.91344 5.15157,-1.91344 3.24568,0 5.15157,0.7079 5.15157,1.91344 0,1.05239 -0.79481,2.70825 -1.76625,3.67969 -0.97144,0.97144 -2.49483,1.76626 -3.38532,1.76626 -0.89049,0 -2.41388,-0.79482 -3.38532,-1.76626 z m -3.23813,-12.12971 c 0,-1.97606 0.73495,-4.04705 1.63321,-4.60221 0.89826,-0.55516 4.18818,-1.13328 7.31092,-1.28473 4.975,-0.24127 5.85153,0.22327 7.08211,3.75329 1.09714,3.14727 0.9204,4.21436 -0.80786,4.87756 -1.21673,0.4669 -5.13862,0.84891 -8.71531,0.84891 -5.91343,0 -6.50307,-0.32576 -6.50307,-3.59282 z m -13.593767,-5.15942 c -8.206102,-6.21218 -9.676415,-8.04114 -10.473986,-13.02888 -0.510298,-3.19123 -1.922506,-6.62775 -3.13824,-7.63672 -1.215734,-1.00897 -2.925741,-4.49097 -3.800014,-7.73778 -1.119288,-4.15671 -1.128181,-6.36468 -0.03006,-7.46281 1.098124,-1.09812 2.648714,-0.53629 5.240905,1.89894 2.024756,1.90216 4.531306,6.46773 5.570111,10.14571 1.405484,4.97623 3.129143,7.41167 6.736709,9.5186 4.82354,2.8171 4.85884,2.81585 7.00374,-0.24642 1.18567,-1.69278 4.62003,-3.76218 7.63191,-4.59866 3.01187,-0.83647 7.50484,-1.52456 9.98437,-1.52907 3.05527,-0.006 5.81984,1.36083 8.57793,4.23964 2.68835,2.80604 5.04202,3.99359 6.93433,3.49874 1.57554,-0.41201 4.15593,-2.39074 5.73419,-4.39717 1.57826,-2.00643 3.27845,-5.82759 3.77819,-8.49146 0.50278,-2.68005 3.08459,-6.95243 5.78026,-9.56518 4.62294,-4.480725 4.92054,-4.567666 5.82972,-1.70309 0.52695,1.66027 0.26424,5.59544 -0.5838,8.74481 -0.84803,3.14938 -2.86937,6.92749 -4.49185,8.39582 -1.62248,1.46832 -2.94996,3.83899 -2.94996,5.26816 0,1.42916 -4.42584,6.59297 -9.83521,11.47512 l -9.83521,8.87664 -2.60379,-5.81574 c -2.40057,-5.36185 -3.06067,-5.81573 -8.45812,-5.81573 -3.35962,0 -6.83996,0.98562 -8.16729,2.31295 -1.27212,1.27212 -2.31295,3.88241 -2.31295,5.80064 0,1.91824 -0.57953,3.84587 -1.28786,4.28364 -0.70832,0.43777 -5.58363,-2.45605 -10.834027,-6.4307 z M 84.446914,121.4084 c -0.479368,-1.24921 -0.5427,-2.60017 -0.140739,-3.00214 0.401961,-0.40196 1.084123,0.62013 1.515915,2.2713 0.431791,1.65117 0.495124,3.00213 0.140739,3.00213 -0.354386,0 -1.036547,-1.02208 -1.515915,-2.27129 z m 15.382502,-1.77637 c -1.225599,-1.41668 -2.577798,-3.90047 -3.004887,-5.51954 -0.42709,-1.61906 -1.253708,-4.10286 -1.836929,-5.51954 -0.806827,-1.95983 -0.339574,-2.57579 1.95396,-2.57579 1.6579,0 3.42372,-0.66234 3.92403,-1.47187 0.50032,-0.80954 -0.61969,-1.58517 -2.488916,-1.72365 -1.869224,-0.13847 -4.519329,-0.32406 -5.889122,-0.41242 -1.369792,-0.0884 -3.853586,-1.73228 -5.51954,-3.653144 -1.690378,-1.949022 -3.029008,-5.561203 -3.029008,-8.173523 0,-2.574575 0.385194,-5.06624 0.855987,-5.537033 0.470793,-0.470793 3.072913,0.0703 5.78249,1.202437 2.709577,1.132133 8.335398,1.981624 12.501829,1.887756 5.75755,-0.129715 8.66368,0.633994 12.11095,3.182667 3.61657,2.673851 5.01077,3.007268 6.8805,1.64545 1.28968,-0.939338 4.33191,-3.024336 6.7605,-4.63333 2.4286,-1.608994 5.40915,-2.499285 6.62345,-1.978426 1.2143,0.52086 4.00161,1.255631 6.19401,1.632825 2.51503,0.432699 5.90025,-0.497142 9.17239,-2.519438 2.85241,-1.762885 5.86062,-2.788429 6.68492,-2.278986 0.8243,0.509443 1.49872,3.146499 1.49872,5.860125 0,3.741965 -1.13593,5.889686 -4.70217,8.890483 -3.81046,3.206287 -5.69456,3.802097 -9.93518,3.141817 -4.83531,-0.75288 -5.01587,-0.65213 -2.37589,1.32579 1.57141,1.17733 3.48007,2.1406 4.24146,2.1406 0.76627,0 1.03053,2.63801 0.59188,5.9084 -0.50093,3.73471 -2.06136,6.9449 -4.24146,8.72572 -3.42244,2.79564 -3.47792,2.78982 -7.20922,-0.75683 -3.24862,-3.08786 -5.16626,-3.57415 -14.09423,-3.57415 -9.11985,0 -10.74016,0.43233 -13.7909,3.67969 -1.90129,2.02383 -3.90112,3.6797 -4.44408,3.6797 -0.54295,0 -1.98994,-1.15911 -3.215544,-2.57579 z M 75.708066,96.787186 c -2.479066,-5.198657 -2.461667,-5.336935 1.222463,-9.715275 2.055527,-2.442856 4.118856,-4.060023 4.585174,-3.593705 0.466318,0.466318 0.140667,2.169236 -0.723668,3.784262 -1.129999,2.111422 -1.093804,3.984882 0.128833,6.668277 1.369116,3.004883 1.271949,4.160269 -0.498795,5.931013 -1.950943,1.950942 -2.482981,1.603932 -4.714007,-3.074572 z m 86.823744,0.151741 c -0.58427,-0.945367 -1.16556,-5.177775 -1.29176,-9.405351 -0.19589,-6.562196 0.0698,-7.387238 1.81651,-5.640537 1.12528,1.125281 2.59014,2.045965 3.25524,2.045965 0.6651,0 1.57156,0.944108 2.01435,2.098019 0.4428,1.15391 0.15136,4.465634 -0.64765,7.359387 -0.799,2.893752 -2.04485,5.261368 -2.76856,5.261368 -0.7237,0 -1.79386,-0.773483 -2.37813,-1.718851 z m -45.84353,-8.15142 c -1.82145,-1.245092 -3.31173,-3.375238 -3.31173,-4.733656 0,-1.358418 0.79482,-3.264665 1.76625,-4.236104 0.97144,-0.971439 3.26635,-1.766253 5.09979,-1.766253 1.89255,0 4.05715,1.352099 5.00754,3.127923 1.40562,2.626413 1.11893,3.668563 -1.78806,6.499909 -3.20715,3.123697 -3.70592,3.205296 -6.77379,1.108181 z M 74.238219,83.385709 c -0.531314,-1.38458 -0.541988,-2.941455 -0.02372,-3.459722 0.518267,-0.518267 1.726079,-0.158529 2.684025,0.799418 1.327496,1.327495 1.333137,2.150306 0.02372,3.459722 -1.309416,1.309417 -1.947746,1.119295 -2.684025,-0.799418 z m 20.003926,0.609421 -5.15157,-1.016703 4.00442,-1.674657 c 3.133055,-1.31025 5.054744,-1.218275 8.831265,0.422677 2.65476,1.153533 4.05308,2.123258 3.10738,2.154945 -0.94571,0.03169 -2.60157,0.298998 -3.6797,0.594026 -1.07812,0.295029 -4.278431,0.0789 -7.111795,-0.480288 z m 44.971085,0.0877 c -2.65338,-1.038355 -2.59903,-1.192265 0.73594,-2.084266 1.98048,-0.529717 5.5879,-0.948696 8.0165,-0.931064 l 4.41563,0.03206 -3.67969,2.103503 c -2.02383,1.156927 -4.34204,2.08042 -5.15157,2.052208 -0.80953,-0.02821 -2.7611,-0.55581 -4.33681,-1.17244 z m -11.94058,-3.227932 c -0.54803,-0.886724 -0.0904,-3.312631 1.01704,-5.390905 1.18708,-2.227821 5.20217,-5.190685 9.78278,-7.21904 4.27312,-1.892197 9.43919,-3.440359 11.48014,-3.440359 2.04095,0 5.66496,1.010527 8.05336,2.245615 2.38839,1.235087 4.32147,3.387708 4.29573,4.783601 -0.0258,1.395893 -1.00873,3.809279 -2.18441,5.36308 -2.00275,2.646877 -2.30888,2.670089 -4.85269,0.367969 -1.4933,-1.351417 -3.52996,-2.457123 -4.52591,-2.457123 -0.99595,0 -1.40146,0.662345 -0.90114,1.471878 0.52915,0.856184 -0.81983,1.42327 -3.22486,1.355676 -2.27399,-0.06391 -3.3066,-0.450278 -2.29468,-0.858595 1.01191,-0.408317 1.83984,-1.349544 1.83984,-2.091615 0,-0.742072 -0.57126,-1.349221 -1.26948,-1.349221 -0.69822,0 -3.76985,1.987034 -6.82584,4.415632 -3.05599,2.428598 -6.4197,4.415632 -7.47491,4.415632 -1.05521,0 -2.36695,-0.725501 -2.91497,-1.612225 z m 38.17893,-0.525107 c -0.4511,-1.175533 -0.34752,-2.902109 0.23018,-3.836835 0.76645,-1.240145 1.39236,-1.159738 2.3157,0.297485 0.69595,1.098344 1.2755,2.82492 1.28789,3.836835 0.0124,1.011916 -0.66059,1.839847 -1.49553,1.839847 -0.83494,0 -1.88715,-0.961799 -2.33824,-2.137332 z M 81.289624,79.228996 c -0.971439,-0.971439 -1.766253,-2.992271 -1.766253,-4.490737 0,-1.756111 1.95804,-3.542606 5.508873,-5.026239 3.839862,-1.604396 7.964729,-2.048787 13.614866,-1.466792 5.8559,0.603189 8.82099,1.7168 10.68178,4.011796 1.41668,1.74726 2.57578,4.428149 2.57578,5.95753 0,1.529382 -0.26356,2.780695 -0.58569,2.780695 -0.32214,0 -3.40466,-1.601199 -6.85006,-3.55822 -5.552187,-3.153699 -6.51391,-3.308668 -8.459455,-1.363122 -1.764525,1.764524 -2.426649,1.820441 -3.375562,0.285066 -0.910169,-1.472684 -1.978236,-1.160564 -4.664577,1.363122 -1.916262,1.800235 -3.805713,3.273154 -4.198781,3.273154 -0.393067,0 -1.509482,-0.794814 -2.480921,-1.766253 z m 34.867796,-3.628699 c -1.30389,-0.346179 -3.06411,-2.151263 -3.9116,-4.011297 -1.02536,-2.250425 -3.80238,-4.015058 -8.3004,-5.274428 L 97.1859,64.422024 v -8.424066 c 0,-4.633237 0.433531,-12.571861 0.963401,-17.641387 0.925089,-8.850779 1.173849,-9.306798 6.255479,-11.467383 3.00462,-1.277492 10.06363,-2.317311 16.33116,-2.405641 6.07149,-0.08557 14.10906,0.73711 17.86127,1.828173 6.20635,1.804681 6.90243,2.469006 7.71115,7.359387 0.48894,2.9566 0.89626,10.529596 0.90517,16.82888 0.0136,9.618995 -0.39631,11.586239 -2.55958,12.283674 -1.41669,0.456736 -5.72781,2.25097 -9.58028,3.987186 -3.85246,1.736215 -7.37441,4.322286 -7.82654,5.746824 -0.45213,1.424537 -1.71677,2.590068 -2.8103,2.590068 -1.09354,0 -2.87035,0.252445 -3.94848,0.560988 -1.07812,0.308543 -3.02704,0.277749 -4.33093,-0.06843 z m 6.0504,-9.410688 c 0,-4.174876 -0.6188,-5.800644 -2.20782,-5.800644 -1.57854,0 -2.20782,1.608163 -2.20782,5.642197 0,3.103208 0.42356,6.065753 0.94124,6.583433 0.51768,0.51768 1.5112,0.588981 2.20782,0.158447 0.69662,-0.430534 1.26658,-3.393079 1.26658,-6.583433 z m -43.643298,0.454835 c 0.39127,-1.416682 1.134456,-5.692742 1.651525,-9.502356 0.517069,-3.809614 1.989164,-9.108373 3.271322,-11.775019 1.282158,-2.666647 4.331452,-6.975296 6.776209,-9.574777 2.444756,-2.59948 4.916079,-4.435193 5.491828,-4.07936 0.575749,0.355833 0.499645,3.476197 -0.16912,6.934144 -0.668765,3.457947 -1.244783,10.270465 -1.280039,15.138929 l -0.0641,8.851752 -6.991417,3.303849 c -3.84528,1.817118 -7.53281,3.298174 -8.194512,3.291237 -0.661702,-0.0069 -0.882965,-1.171717 -0.491694,-2.588399 z m 78.968348,-2.197139 c -2.83336,-1.419891 -5.60097,-2.748295 -6.15024,-2.95201 -0.54927,-0.203715 -1.46794,-6.828253 -2.0415,-14.721196 -0.59823,-8.232456 -0.48165,-14.350804 0.27345,-14.350804 0.72395,0 3.15854,3.049988 5.41019,6.777752 2.25166,3.727764 5.09298,11.085612 6.31405,16.350772 1.22107,5.265161 2.02337,10.001439 1.78288,10.525062 -0.24049,0.523624 -2.75546,-0.209686 -5.58883,-1.629576 z"
     id="path3" /></svg>
