<?xml version="1.0" encoding="UTF-8" standalone="no"?>
<svg
   width="240"
   height="240"
   version="1.1"
   id="svg40"
   sodipodi:docname="FBCaquarius.svg"
   inkscape:version="1.3.2 (091e20e, 2023-11-25, custom)"
   xml:space="preserve"
   xmlns:inkscape="http://www.inkscape.org/namespaces/inkscape"
   xmlns:sodipodi="http://sodipodi.sourceforge.net/DTD/sodipodi-0.dtd"
   xmlns="http://www.w3.org/2000/svg"
   xmlns:svg="http://www.w3.org/2000/svg"><defs
     id="defs40"><filter
       style="color-interpolation-filters:sRGB"
       inkscape:label="Drop Shadow"
       id="filter23"
       x="-0.17103967"
       y="-0.17099555"
       width="1.3420793"
       height="1.3419911"><feFlood
         result="flood"
         in="SourceGraphic"
         flood-opacity="1.000000"
         flood-color="rgb(58,63,94)"
         id="feFlood21" /><feGaussianBlur
         result="blur"
         in="SourceGraphic"
         stdDeviation="15.000000"
         id="feGaussianBlur21" /><feOffset
         result="offset"
         in="blur"
         dx="0.000000"
         dy="0.000000"
         id="feOffset21" /><feComposite
         result="comp1"
         operator="out"
         in="flood"
         in2="offset"
         id="feComposite22" /><feComposite
         result="comp2"
         operator="atop"
         in="comp1"
         in2="SourceGraphic"
         id="feComposite23" /></filter><filter
       style="color-interpolation-filters:sRGB;"
       inkscape:label="Drop Shadow"
       id="filter4"
       x="-0.060440912"
       y="-0.055853316"
       width="1.1208818"
       height="1.1117066"><feFlood
         result="flood"
         in="SourceGraphic"
         flood-opacity="1.000000"
         flood-color="rgb(58,63,94)"
         id="feFlood3" /><feGaussianBlur
         result="blur"
         in="SourceGraphic"
         stdDeviation="5.000000"
         id="feGaussianBlur3" /><feOffset
         result="offset"
         in="blur"
         dx="0.000000"
         dy="0.000000"
         id="feOffset3" /><feComposite
         result="comp1"
         operator="out"
         in="flood"
         in2="offset"
         id="feComposite3" /><feComposite
         result="comp2"
         operator="atop"
         in="comp1"
         in2="SourceGraphic"
         id="feComposite4" /></filter></defs><sodipodi:namedview
     id="namedview40"
     pagecolor="#505050"
     bordercolor="#eeeeee"
     borderopacity="1"
     inkscape:showpageshadow="0"
     inkscape:pageopacity="0"
     inkscape:pagecheckerboard="0"
     inkscape:deskcolor="#505050"
     inkscape:zoom="2.3747003"
     inkscape:cx="117.90962"
     inkscape:cy="161.49406"
     inkscape:window-width="1920"
     inkscape:window-height="1017"
     inkscape:window-x="-8"
     inkscape:window-y="-8"
     inkscape:window-maximized="1"
     inkscape:current-layer="svg40" /><path
     style="fill:#1b1f21;stroke:none"
     d="M0 0v240h240V0H0z"
     id="path1" /><path
     style="fill:#e64539;fill-opacity:1;filter:url(#filter4)"
     d="m 30.824795,218.35106 c 0,-19.09861 4.215324,-33.91953 11.45526,-40.27628 6.59413,-5.78973 15.360204,-8.1812 21.089398,-5.7534 l 2.368275,1.00358 -2.523827,0.26342 c -5.554151,0.5797 -12.723356,2.16401 -14.910537,3.29504 -4.628307,2.39339 -8.495247,6.65811 -10.958381,12.08562 -2.328998,5.13194 -2.459953,5.9697 -2.040759,13.05532 1.021657,17.26899 8.747866,25.6589 23.629088,25.6589 9.625927,0 15.909599,-3.53653 19.182572,-10.79618 0.903913,-2.00494 1.810244,-3.47857 2.014068,-3.27475 0.203824,0.20382 0.944265,3.16924 1.645425,6.5898 0.701161,3.42057 1.474709,6.88172 1.718997,7.69145 0.416459,1.38041 -1.212099,1.47223 -26.11271,1.47223 H 30.824795 Z m 54.7215,8.18722 c -1.28278,-3.88686 -0.780075,-6.04581 2.242095,-9.62909 2.008559,-2.38147 3.040426,-2.85233 7.167922,-3.27086 5.697988,-0.57776 6.619728,-0.0125 9.613808,5.89605 l 2.10565,4.1553 -3.22287,-0.67455 c -6.84261,-1.43217 -11.271901,-0.10439 -15.092472,4.52432 l -1.77429,2.14959 z m 6.270973,0.69754 c 1.388105,-1.13822 3.830938,-2.31685 5.428518,-2.61919 3.655654,-0.69183 9.591604,1.25778 9.977254,3.27695 0.25407,1.33022 -0.59708,1.46931 -8.824201,1.44198 l -9.105397,-0.0303 z m 33.020062,1.5083 C 122.1768,228.57717 120,228.28799 120,228.1015 c 0,-1.52495 2.24832,-4.61233 3.91028,-5.36957 3.60877,-1.64426 15.38795,2.25365 16.6356,5.50498 0.44374,1.15638 -3.39047,1.28018 -15.70855,0.50721 z m 17.80778,-1.9995 c -2.25951,-3.17318 -9.29695,-6.61336 -13.55175,-6.62462 -4.35823,-0.0115 -4.55263,-1.11065 -0.67207,-3.79987 2.78765,-1.93185 3.96661,-2.24734 7.08474,-1.89588 4.57698,0.51589 9.52452,2.98594 11.63029,5.8064 1.49571,2.00333 1.50388,2.27886 0.16666,5.62088 -0.77337,1.93285 -1.71782,3.51428 -2.09878,3.51428 -0.38095,0 -1.53255,-1.17953 -2.55909,-2.62119 z m 10.37361,-1.17419 c 0.26467,-2.34822 1.12611,-4.64381 2.11293,-5.63063 1.85119,-1.8512 7.7734,-3.05432 7.7734,-1.5792 0,0.50045 -0.90008,0.90991 -2.00018,0.90991 -2.65732,0 -4.11495,1.91762 -4.68314,6.16102 -0.33967,2.53672 -0.90267,3.57525 -2.0587,3.79752 -1.42707,0.27439 -1.54509,-0.10295 -1.14431,-3.65862 z m 7.40779,0.76251 c 4.96544,-5.19441 19.31467,-17.42821 28.88248,-24.62449 5.03679,-3.78834 11.85113,-9.2821 15.14296,-12.20835 6.6992,-5.95519 22.92772,-18.1823 24.13261,-18.1823 0.42969,0 0.78125,0.74489 0.78125,1.6553 0,1.0237 -1.68524,2.89423 -4.41669,4.9023 -14.52023,10.67475 -17.72438,13.32233 -24.28223,20.06425 -11.27905,11.59566 -13.76984,18.53816 -8.52752,23.76851 2.34671,2.34135 12.00443,6.44926 16.61519,7.06727 1.38811,0.18605 -9.57016,0.395 -24.3517,0.46433 l -26.87553,0.12605 z m 53.79634,2.44358 c 3.00967,-0.51539 11.0225,-3.51115 13.25009,-4.95381 1.85245,-1.19971 1.89287,-1.15362 1.89287,2.15861 v 3.38449 l -8.62307,-0.11457 c -4.74269,-0.063 -7.67664,-0.27663 -6.51989,-0.47472 z m -11.40035,-4.41177 c -5.86334,-2.08762 -9.63153,-4.12434 -9.63153,-5.20586 0,-0.50032 0.56301,-0.69363 1.25113,-0.42957 0.68813,0.26406 4.56851,1.47758 8.62308,2.69672 4.05456,1.21913 8.88623,2.71728 10.73703,3.32922 l 3.36511,1.11262 -5.04766,0.005 c -2.77621,0.003 -6.95993,-0.67591 -9.29716,-1.50807 z m -150.755499,0.23752 c -3.118388,-1.25829 -0.0124,-1.95916 8.412755,-1.89834 8.718283,0.0629 9.265398,0.15943 6.940523,1.22397 -2.40884,1.10299 -13.124595,1.57367 -15.353278,0.67437 z m 58.934549,-1.67199 c -1.9255,-0.93254 -3.38475,-2.85533 -5.54033,-7.30022 -1.60949,-3.31882 -4.84748,-8.2135 -7.19553,-10.87706 -3.701365,-4.19872 -6.006888,-8.8248 -6.023092,-12.08547 -0.0026,-0.51924 1.549344,-1.19257 3.448721,-1.4963 1.899377,-0.30372 4.530591,-1.10925 5.847151,-1.79007 2.79436,-1.44502 5.84239,-1.62544 5.84239,-0.34583 0,4.67092 2.91493,29.21691 3.56556,30.02486 1.2415,1.54167 6.52975,1.37134 6.52975,-0.21032 0,-0.83008 -0.8305,-1.26192 -2.42689,-1.26192 -2.30608,0 -2.45071,-0.21987 -2.90533,-4.41669 -1.60621,-14.82783 -2.43319,-25.11444 -2.04985,-25.49778 0.24287,-0.24287 3.23355,-1.2292 6.64597,-2.19184 6.62498,-1.86891 17.96097,-7.21054 22.25854,-10.48846 3.35801,-2.56128 4.92082,-2.59821 4.22966,-0.1 -0.28802,1.04108 -0.92526,6.81433 -1.41609,12.82945 -1.39647,17.11382 -0.97854,15.9119 -6.91649,19.89135 -2.87156,1.92444 -7.57325,5.91581 -10.44818,8.8697 -6.51429,6.69319 -9.74174,8.24057 -13.44596,6.44656 z m 103.2213,-0.42968 c -18.88168,-5.59752 -20.93807,-6.58636 -21.00513,-10.10051 -0.0397,-2.08029 1.49692,-2.23439 6.23403,-0.62519 5.87371,1.99531 22.08907,6.45499 25.918,7.12819 3.87276,0.6809 3.97996,1.47671 0.42064,3.12245 -4.55672,2.1069 -5.87971,2.16123 -11.56754,0.47506 z M 43.208135,219.49545 c -1.484215,-1.66055 -1.408437,-1.68068 8.412755,-2.23573 5.450753,-0.30805 13.033696,-0.79085 16.850983,-1.07289 6.115294,-0.45184 6.940523,-0.34654 6.940523,0.88562 0,2.33534 -4.027742,3.16582 -17.666785,3.6427 -12.272129,0.4291 -13.127939,0.35729 -14.537476,-1.2197 z m 103.595235,-2.65764 c -2.4171,-2.12762 -4.96268,-3.52249 -7.08546,-3.88252 -6.68763,-1.13425 -6.71322,-1.20139 -1.66235,-4.36073 5.59203,-3.49784 7.66333,-3.31337 12.04989,1.07319 2.56526,2.56527 2.85729,3.28634 2.42065,5.97705 -0.2731,1.68292 -0.82364,3.38695 -1.22343,3.78674 -0.40833,0.40832 -2.38014,-0.72837 -4.4993,-2.59373 z m -63.789895,-0.0358 c -1.946922,-3.63786 0.0466,-7.61437 5.113047,-10.19908 4.387232,-2.2382 6.820174,-2.05854 9.263858,0.68408 3.44622,3.86779 3.3935,3.98973 -1.737284,4.01865 -5.434247,0.0306 -8.90613,1.76089 -10.162122,5.0644 -0.944782,2.48496 -1.34172,2.55417 -2.477499,0.43195 z m 133.478105,-2.53647 c -6.84948,-1.7693 -12.55587,-3.35449 -12.68088,-3.52266 -0.74326,-0.99986 -1.98512,-8.82444 -1.4826,-9.34138 0.33303,-0.34258 2.67236,0.1606 5.19853,1.11818 3.6784,1.39435 12.51242,4.07938 20.78759,6.31822 0.66424,0.17971 1.05159,1.84366 1.05159,4.51729 0,2.32803 -0.0946,4.20904 -0.21032,4.18002 -0.11567,-0.029 -5.81443,-1.50038 -12.66391,-3.26967 z M 41.216815,214.08858 c -2.926841,-3.76416 -2.877537,-3.77776 15.885878,-4.38071 9.74179,-0.31305 17.877424,-0.4041 18.079185,-0.20234 0.695257,0.69526 -1.453327,3.76296 -2.923372,4.17393 -0.810219,0.2265 -7.928773,0.66493 -15.819008,0.97429 -11.507777,0.45119 -14.519344,0.33938 -15.222683,-0.56517 z m 128.295745,-1.57176 c 1.08928,-0.90753 2.31964,-1.44045 2.73415,-1.18427 0.4145,0.25618 0.75364,0.10536 0.75364,-0.33514 0,-0.44051 0.66187,-1.0549 1.47082,-1.36532 0.92473,-0.35486 0.55395,0.39258 -0.99867,2.01318 -1.35822,1.41767 -3.25045,2.56499 -4.20496,2.54959 -1.67273,-0.027 -1.66388,-0.0876 0.24502,-1.67804 z m -4.34468,-3.1313 c -0.26411,-1.33663 0.0583,-3.11344 0.76364,-4.20796 1.76317,-2.73618 7.23972,-6.12589 11.41171,-7.06327 3.05513,-0.68645 3.76754,-0.58604 4.67819,0.65935 1.78378,2.43948 1.26743,3.29334 -3.27788,5.42042 -2.39366,1.12017 -6.08354,3.26704 -8.19974,4.77082 -2.1162,1.50378 -4.08864,2.73415 -4.38321,2.73415 -0.29456,0 -0.74128,-1.04108 -0.99271,-2.31351 z m -13.26578,-1.41904 c -1.47078,-1.61628 -3.9504,-3.35989 -5.51027,-3.87469 -2.56973,-0.84809 -2.83612,-1.24129 -2.83612,-4.18621 0,-1.78762 0.28721,-3.42772 0.63824,-3.64467 1.83784,-1.13584 8.16852,1.13784 10.97092,3.94024 2.97664,2.97664 2.98641,3.01064 1.85263,6.44605 -0.62689,1.89949 -1.43263,3.6346 -1.79053,3.85579 -0.3579,0.2212 -1.85409,-0.92023 -3.32487,-2.53651 z m -71.442051,-1.79105 c 0,-3.87943 1.146455,-5.93383 4.189539,-7.50747 3.32943,-1.72171 5.6717,-1.59736 6.717443,0.35663 1.364447,2.54949 1.094145,3.06419 -2.448051,4.6615 -1.82541,0.82314 -4.162844,2.39493 -5.194299,3.49287 -2.563238,2.72844 -3.264632,2.51283 -3.264632,-1.00353 z m -39.119311,1.42885 c -2.688025,-0.5845 -3.655406,-3.58186 -1.261913,-3.90995 5.641055,-0.77326 35.255276,-1.21535 35.677235,-0.5326 0.801257,1.29646 -1.802115,3.38137 -4.787404,3.834 -4.753878,0.72077 -27.009546,1.1779 -29.627918,0.60855 z m 185.501242,-1.5335 c -1.15675,-0.1933 -5.0075,-1.29869 -8.55721,-2.45641 -6.64181,-2.1662 -9.10957,-4.3025 -9.10957,-7.88601 0,-2.01889 0.73523,-1.92723 11.35722,1.41584 3.70161,1.16502 7.20342,2.25455 7.7818,2.42119 0.61727,0.17784 1.05159,1.70371 1.05159,3.69448 0,1.86533 -0.0946,3.33995 -0.21032,3.27694 -0.11567,-0.063 -1.15675,-0.27273 -2.31351,-0.46603 z m -64.01124,-4.13596 c -0.91814,-1.10629 -0.89599,-1.71262 0.13029,-3.56616 2.18028,-3.93773 16.38032,-7.67143 17.39665,-4.5742 0.20564,0.62668 -1.19524,1.40972 -3.60972,2.01769 -2.17018,0.54646 -5.51013,2.18441 -7.42212,3.63988 -5.07144,3.86058 -5.28416,3.94189 -6.4951,2.48279 z M 40.364571,200.29364 c -0.256168,-0.66756 -0.993118,-1.21375 -1.637666,-1.21375 -0.644548,0 -1.171906,-0.76439 -1.171906,-1.69864 0,-1.6599 0.426974,-1.69348 18.718379,-1.47223 17.993448,0.21764 18.71838,0.29067 18.71838,1.88568 0,2.16751 -2.812607,2.61199 -20.445815,3.23112 -11.487843,0.40336 -13.791263,0.28443 -14.181372,-0.73218 z m 115.211889,-2.94782 c -3.03317,-2.83689 -4.085,-3.31358 -7.31151,-3.31358 -2.07276,0 -4.01122,-0.39247 -4.30768,-0.87215 -0.29646,-0.47968 -0.28553,-2.37255 0.0243,-4.20638 0.51774,-3.06446 0.77855,-3.33384 3.22352,-3.32953 4.62592,0.008 8.53275,1.56751 11.43854,4.56553 2.47302,2.55151 2.7531,3.28425 2.30674,6.03486 -0.27943,1.72191 -0.80573,3.42416 -1.16955,3.78278 -0.36383,0.35863 -2.25578,-0.83907 -4.20435,-2.66153 z m -75.957687,-0.2575 c 0,-4.89863 0.604215,-5.58128 4.927342,-5.56702 6.256401,0.0206 8.103399,2.43724 2.862406,3.74516 -1.276801,0.31863 -3.551822,1.51556 -5.055602,2.65983 l -2.734146,2.08051 z m 143.840167,-1.22841 c -5.073,-1.87657 -5.87099,-2.47477 -5.87099,-4.40115 0,-0.89809 -0.37857,-1.6329 -0.84127,-1.6329 -0.4627,0 -0.84128,-0.37857 -0.84128,-0.84127 0,-1.22954 3.72246,-1.02896 8.91424,0.48033 4.50509,1.30967 4.54617,1.35148 4.54617,4.62702 0,3.73639 -0.32366,3.83327 -5.90687,1.76797 z M 43.654246,193.41202 c -2.429183,-0.16994 -4.416696,-0.67714 -4.416696,-1.12712 0,-1.81913 5.036553,-2.45904 19.354453,-2.45904 15.347425,0 18.099038,0.57564 14.684938,3.07209 -1.50423,1.09992 -17.323995,1.37445 -29.622695,0.51407 z m 121.116504,-0.85201 c 0.17785,-0.34703 1.15444,-2.38599 2.1702,-4.53103 1.68268,-3.5534 2.17064,-3.94863 5.48962,-4.44634 3.96076,-0.59396 6.45211,-0.018 6.4702,1.4959 0.006,0.52887 0.22731,1.76579 0.4911,2.74871 0.43723,1.62916 0.0458,1.83966 -4.42818,2.38132 -2.69929,0.32679 -5.74627,1.13153 -6.77107,1.78829 -1.99487,1.27844 -3.95367,1.60081 -3.42187,0.56315 z m -3.80913,-3.87031 c -1.73604,-2.64952 -5.86144,-4.47719 -11.7273,-5.19553 -5.15212,-0.63093 -5.59874,-1.25814 -4.31251,-6.05639 1.16793,-4.35694 12.73853,-3.1568 18.2507,1.89301 3.35274,3.07152 3.40216,3.42634 1.25662,9.02284 -1.0847,2.82938 -1.78911,2.89765 -3.46751,0.33607 z m -76.505512,0.5336 c -1.27243,-0.19276 -2.313508,-0.84365 -2.313508,-1.44643 0,-2.25726 10.486393,-2.37316 11.962952,-0.13223 1.064183,1.61509 -3.971083,2.43886 -9.649444,1.57866 z m -27.972411,-1.68122 c -14.534566,-0.29566 -15.658183,-0.506 -13.6154,-2.54879 1.198364,-1.19836 3.484421,-1.4109 15.502639,-1.44132 l 14.096996,-0.0357 v 2.10319 c 0,2.43279 1.315946,2.27451 -15.984235,1.92259 z m 38.869717,-1.52839 c -1.34847,-1.85275 -2.122281,-2.07676 -7.173972,-2.07676 -3.812968,0 -6.28591,0.43668 -7.571223,1.33695 -4.553267,3.18923 -5.705244,-2.04036 -2.411669,-10.94817 1.730847,-4.68126 3.94605,-7.17661 3.94605,-4.44509 0,2.27007 8.745805,3.13376 9.585103,0.94659 0.917902,-2.39202 2.307351,-0.83547 6.47216,7.2505 3.732147,7.24597 3.974597,8.05703 2.694547,9.01401 -2.107487,1.57557 -3.857437,1.23511 -5.540996,-1.07803 z m 131.518166,0.50238 c -1.20674,-2.25482 -1.088,-3.99835 0.30879,-4.53435 1.67222,-0.64169 2.18544,0.14674 2.18544,3.35734 0,3.1182 -1.1619,3.66649 -2.49423,1.17701 z m -125.69351,-7.83711 c -2.071898,-3.81728 -4.225158,-7.96077 -4.785025,-9.20775 -1.253897,-2.79277 -2.255351,-3.19724 -9.421577,-3.80527 -4.709448,-0.39957 -5.969659,-0.22678 -7.330926,1.00515 -1.706248,1.54413 -3.507046,5.81524 -5.089019,12.07007 -0.78976,3.12257 -1.101459,3.48705 -2.201415,2.57416 -0.704763,-0.5849 -2.377746,-3.23533 -3.717739,-5.88984 -1.339993,-2.65451 -2.823397,-5.06559 -3.296453,-5.35796 -1.510845,-0.93375 -0.922025,-2.9561 0.860689,-2.9561 2.877954,0 6.014825,-3.83116 5.701385,-6.96329 l -0.271334,-2.71137 14.301684,-0.9689 c 7.865926,-0.5329 16.38384,-1.00509 18.9287,-1.04932 4.51564,-0.0785 4.66751,-0.005 6.30956,3.07208 2.37243,4.4451 6.13753,6.09407 13.91827,6.09567 5.6734,0.001 6.82647,-0.28878 10.86801,-2.73284 6.74893,-4.0813 7.95959,-6.17188 8.31502,-14.35847 0.20374,-4.69274 0.71598,-7.35341 1.60937,-8.35938 1.07465,-1.21008 1.13067,-1.87035 0.31123,-3.66881 -1.00946,-2.21553 -2.3577,-2.38115 -6.20821,-0.76265 -0.90235,0.37929 -1.47223,0.24812 -1.47223,-0.33886 0,-0.52672 0.6625,-1.20734 1.47223,-1.51248 0.80973,-0.30514 2.98653,-1.64623 4.83733,-2.9802 3.04972,-2.19809 3.44395,-2.29181 4.20638,-0.99991 3.48327,5.90223 7.07131,9.46864 10.76461,10.69975 1.10689,0.36896 -0.6175,4.27184 -4.54765,10.29284 -13.86737,21.24488 -14.31854,21.72611 -26.40757,28.16739 -6.55589,3.49312 -18.3209,7.53366 -22.03942,7.56916 -1.45708,0.0139 -2.64701,-1.45295 -5.6159,-6.92287 z m 68.45718,1.64049 c 0,-3.1857 5.99953,-4.36739 7.54188,-1.48547 1.32295,2.47195 1.18434,2.57913 -3.3355,2.57913 -2.89054,0 -4.20638,-0.34212 -4.20638,-1.09366 z M 57.745611,179.76016 c 0,-1.15541 3.230609,-2.73585 4.274106,-2.09093 0.538508,0.33281 0.28953,0.98361 -0.648343,1.6947 -1.783579,1.35228 -3.625763,1.5536 -3.625763,0.39623 z m 106.722699,-2.51665 c -4.06855,-3.36377 -6.79385,-4.3199 -13.34112,-4.68051 -3.00756,-0.16565 -5.57063,-0.32429 -5.69571,-0.35255 -0.12508,-0.0283 0.52381,-1.52389 1.44196,-3.32362 5.12739,-10.05052 21.79917,-4.0961 20.9188,7.47126 l -0.26018,3.41845 z m 8.32172,-2.29924 c -1.76415,-0.46102 -1.88304,-1.90179 -0.33197,-4.023 1.65695,-2.26601 3.9074,-1.08378 3.9074,2.05268 0,2.5287 -0.46279,2.78373 -3.57543,1.97032 z m -88.48976,-6.06214 c -0.747334,-1.20921 1.87773,-1.79407 4.159202,-0.92665 1.152735,0.43827 2.095883,0.99551 2.095883,1.23831 0,0.76526 -5.767101,0.47791 -6.255085,-0.31166 z m 83.28284,-1.39023 c -2.44298,-3.72846 -6.2202,-5.42151 -12.10321,-5.42498 l -5.32196,-0.003 1.95686,-2.49178 c 2.23788,-2.84963 6.85946,-4.47775 10.59169,-3.7313 1.40421,0.28084 3.9162,1.6342 5.58221,3.00746 2.37675,1.95912 3.0291,3.10296 3.0291,5.31125 0,3.17837 -0.70311,5.47585 -1.6758,5.47585 -0.35998,0 -1.28648,-0.96451 -2.05889,-2.14335 z m 6.27001,-2.27335 c 0.0202,-1.84975 1.00667,-4.83733 1.59723,-4.83733 0.31417,0 0.66045,1.32501 0.76951,2.94447 0.14611,2.16955 -0.14074,2.94446 -1.08996,2.94446 -0.70855,0 -1.2831,-0.47322 -1.27678,-1.0516 z M 63.333657,163.94009 c -0.220099,-0.35613 -0.400181,-2.42999 -0.400181,-4.60859 0,-4.75051 -3.02636,-11.63845 -6.846445,-15.58237 -2.777022,-2.86704 -3.095077,-5.45226 -0.726893,-5.90833 5.513201,-1.06175 17.050976,20.99181 13.328735,25.47684 -1.101242,1.32691 -4.663908,1.74101 -5.355216,0.62245 z m 56.897733,-1.85187 c -4.05187,-0.96268 -6.87333,-3.12973 -7.43914,-5.7137 -0.27735,-1.26658 -0.65144,-2.77971 -0.83133,-3.36253 -0.17989,-0.58281 0.0463,-3.02832 0.5026,-5.43446 0.95971,-5.06056 3.75534,-8.50477 8.79839,-10.83963 4.15588,-1.92411 12.16992,-2.08797 15.59113,-0.31879 2.18419,1.12949 5.02012,5.02102 5.02012,6.88873 0,0.37232 -2.6782,0.67505 -5.95156,0.67273 -5.80015,-0.004 -6.02487,0.0757 -8.83339,3.13821 -1.97098,2.14921 -2.88184,3.95723 -2.88184,5.72038 0,3.36707 2.06486,7.28301 4.19716,7.95977 5.21495,1.65516 -1.90462,2.77839 -8.17214,1.28929 z m -63.860771,-3.17043 c -2.514521,-2.71321 -4.513937,-7.16309 -4.513937,-10.04618 0,-3.05858 1.374579,-1.62963 2.926246,3.04201 0.754788,2.27245 1.940125,4.60295 2.634081,5.17888 0.693956,0.57593 1.632963,1.74079 2.086682,2.58857 1.276006,2.38424 -0.651165,1.91474 -3.133072,-0.76328 z m 71.642951,-0.52004 c -0.94236,-0.68907 -1.19992,-1.33391 -0.66486,-1.66459 0.48037,-0.29689 1.34881,0.0331 1.92988,0.73319 1.43352,1.72729 0.63124,2.31798 -1.26502,0.9314 z m 42.05357,-1.02424 c -3.0956,-2.86891 -5.53953,-3.71746 -10.79228,-3.74715 l -4.36193,-0.0247 2.74742,-2.49917 c 3.32553,-3.02504 6.7865,-3.24719 11.56672,-0.74244 4.36091,2.28503 5.2545,3.51851 4.79871,6.62399 -0.45714,3.11468 -0.96422,3.16456 -3.95864,0.38943 z m -32.08172,-0.94657 c 2.59602,-5.12455 1.59002,-8.66485 -2.46218,-8.66485 -1.54265,0 -3.05036,-0.39731 -3.35048,-0.88291 -0.58454,-0.94581 7.2165,-0.55293 8.83077,0.44475 0.4783,0.2956 0.86963,1.95858 0.86963,3.69551 0,2.44761 -0.59072,3.71393 -2.62583,5.62896 l -2.62582,2.47091 z m -7.04884,0.0118 c -2.94723,-2.04164 -4.20638,-3.36179 -4.20638,-4.41017 0,-1.02321 1.39614,-1.23033 1.82276,-0.27041 0.15424,0.34702 1.66452,1.3881 3.35619,2.3135 1.69167,0.92541 3.13132,2.06113 3.19922,2.52383 0.21222,1.44612 -1.97667,1.36387 -4.17179,-0.15675 z m -71.863033,-0.89484 c -0.665282,-0.66101 -3.010487,-5.95118 -3.010487,-6.79088 0,-1.1119 1.616298,1.33075 2.823497,4.26705 1.309304,3.18465 1.345636,3.67502 0.18699,2.52383 z m 9.692501,-6.09925 c -2.911286,-5.98954 -4.720199,-8.29595 -9.707744,-12.37758 -1.81655,-1.4866 -3.363877,-3.37947 -3.438506,-4.20638 -0.07463,-0.8269 -0.427234,-4.67 -0.783567,-8.54021 l -0.647878,-7.03674 2.521784,1.86444 c 1.801723,1.33207 3.931036,1.92724 7.457238,2.08441 2.7145,0.12098 5.182574,0.27172 5.484608,0.33497 0.302034,0.0632 1.92951,2.19459 3.616614,4.73632 4.913018,7.40178 9.314194,7.00608 13.478517,-1.21182 1.151532,-2.27244 2.574111,-4.43758 3.161287,-4.81143 0.587175,-0.37384 6.367627,-0.75029 12.845449,-0.83653 7.01404,-0.0934 13.98963,-0.67396 17.24615,-1.43536 8.9227,-2.08622 16.62011,-4.52248 19.31098,-6.11201 5.07045,-2.99519 9.25622,0.7228 9.27998,8.2429 0.0112,3.54714 -0.29158,4.16078 -3.14238,6.36846 -6.75867,5.23397 -8.91205,6.11058 -15.03194,6.11927 -7.04185,0.01 -12.90881,2.44429 -16.9305,7.02474 -2.6803,3.0527 -3.00776,3.86973 -3.9765,9.92164 -0.27059,1.69046 -0.95491,3.2294 -1.5207,3.41986 -0.56579,0.19047 -3.86802,0.45273 -7.33828,0.5828 -3.470261,0.13008 -11.465918,0.48401 -17.768126,0.78652 l -11.458561,0.55002 z m 65.535632,3.52212 c 0,-0.37634 -1.32501,-1.20415 -2.94446,-1.83957 -1.61946,-0.63542 -2.94447,-1.65252 -2.94447,-2.26021 0,-1.47841 0.52885,-1.40623 4.78204,0.65271 3.52822,1.70798 4.91771,4.13133 2.3688,4.13133 -0.69405,0 -1.26191,-0.30792 -1.26191,-0.68426 z m 44.92215,-3.6501 c 0.22437,-1.08637 0.85737,-4.56113 1.40667,-7.72169 0.8793,-5.05926 2.41303,-7.62584 3.75507,-6.2838 0.74814,0.74814 -3.42083,15.28875 -4.48139,15.63026 -0.74989,0.24147 -0.96144,-0.26374 -0.68035,-1.62477 z m -8.32667,-0.7133 c -1.3881,-0.9193 -3.72322,-1.67395 -5.18916,-1.677 -1.46594,-0.003 -3.2548,-0.23174 -3.97525,-0.50821 -1.17451,-0.4507 -1.17888,-0.75603 -0.0423,-2.95385 1.45406,-2.81183 3.07724,-2.74698 9.6274,0.38464 2.95036,1.41057 3.84448,2.32047 4.05194,4.12347 0.32131,2.79246 -0.94011,2.97041 -4.47258,0.63095 z m 1.83007,-6.44248 c -0.75821,-0.75821 1.0525,-2.81155 2.47932,-2.81155 0.6374,0 1.15891,0.75715 1.15891,1.68255 0,1.63679 -2.38908,2.37816 -3.63823,1.129 z m -11.95975,-4.80274 c -4.47932,-2.08584 -8.54369,-6.1676 -9.18127,-9.22055 -0.20997,-1.00541 -0.54048,-4.47804 -0.73447,-7.71696 -0.31615,-5.27864 -0.0828,-6.43312 2.25155,-11.14015 2.32517,-4.6885 2.49761,-5.53375 1.60911,-7.88764 -1.26601,-3.35405 0.0951,-6.256102 4.5919,-9.790194 6.68753,-5.25586 13.43771,-7.143629 18.99069,-5.310979 1.63959,0.541114 5.378,3.258799 8.30757,6.039298 4.88493,4.636364 5.11727,5.010231 2.80267,4.509923 -14.58706,-3.153031 -22.0859,1.043243 -25.6004,14.325712 -2.67732,10.11846 1.48641,19.01546 9.45856,20.21096 1.97844,0.29668 5.56792,0.18123 7.97663,-0.25657 2.4087,-0.4378 4.3697,-0.56374 4.35777,-0.27988 -0.0447,1.06482 -8.12624,5.82917 -12.11634,7.14304 -5.53264,1.8218 -7.6849,1.71583 -12.71397,-0.62601 z m -19.34955,0.25267 c -0.30499,-0.49348 -0.34366,-1.10811 -0.0859,-1.36584 0.69206,-0.69207 3.06499,0.38826 3.06499,1.39541 0,1.14182 -2.26902,1.1193 -2.97906,-0.0296 z m -63.936939,-9.25403 c -0.644036,-1.04207 1.556046,-2.88129 4.871928,-4.07282 2.958943,-1.06327 3.144889,0.53063 0.366416,3.14087 -2.099351,1.97224 -4.348146,2.37232 -5.238344,0.93195 z m 94.695389,-0.0416 c -5.05608,-2.01731 -7.29716,-7.15012 -6.3682,-14.58526 0.74924,-5.99671 1.45268,-6.929 3.92271,-5.19892 2.82503,1.97873 9.15839,1.67937 9.15839,-0.43288 0,-1.62226 -3.74091,-5.76486 -5.20586,-5.76486 -0.83839,0 -1.52434,-0.33222 -1.52434,-0.73826 0,-2.259371 7.23492,-4.517617 12.02134,-3.752239 1.9752,0.315848 4.33696,1.547139 6.01561,3.136209 2.39469,2.26691 2.84291,3.36213 3.35708,8.20306 1.00834,9.4935 -1.67372,15.47259 -8.28814,18.47671 -3.71181,1.68582 -9.74965,1.98864 -13.08859,0.65644 z m 16.70414,-4.9892 c 2.30545,-3.11828 2.08555,-4.71408 -0.96295,-6.98797 l -2.32893,-1.73717 -2.17686,2.17687 c -2.41155,2.41154 -2.26937,4.23533 0.56755,7.28041 2.2212,2.38418 2.64388,2.32104 4.90119,-0.73214 z m -4.39069,-2.02272 c -0.73753,-1.92197 0.29963,-3.94825 1.86647,-3.6465 0.82163,0.15823 1.36637,1.09245 1.36637,2.34329 0,2.36758 -2.44602,3.35362 -3.23284,1.30321 z m -133.252186,5.21667 c -2.477813,-3.15815 -4.798697,-15.77391 -2.901878,-15.77391 1.362335,0 3.480697,5.95373 4.031614,11.33099 0.569203,5.55575 0.367064,6.3507 -1.129736,4.44292 z m 25.092427,-3.77636 c 1.668542,-4.3886 4.170668,-7.61815 8.556966,-11.04466 2.423523,-1.89322 6.358892,-5.45291 8.745266,-7.91042 2.386374,-2.45751 6.172113,-5.463293 8.412757,-6.67952 6.77591,-3.677983 30.08091,-10.606122 30.9076,-9.188246 0.86971,1.491665 1.20161,5.95999 0.66438,8.944213 -0.5288,2.937348 -1.18738,3.712593 -5.18134,6.099243 -2.72552,1.62868 -5.71396,2.73418 -7.39114,2.73418 -5.64782,0 -14.5723,2.66726 -19.80517,5.91916 -4.824248,2.99797 -24.563708,13.43018 -25.412118,13.43018 -0.205277,0 0.02098,-1.03686 0.502799,-2.30413 z m -6.806603,-3.68048 c -5.439371,-4.84822 -11.910437,-8.31673 -15.518458,-8.31793 -2.199316,-7.3e-4 -2.901857,-0.59357 -4.882473,-4.12004 -2.50296,-4.45651 -3.100572,-9.339511 -1.143028,-9.339511 1.12523,0 12.009619,10.648571 13.374195,13.084431 1.267894,2.26328 7.992221,5.52664 11.487318,5.57488 3.436743,0.0474 4.065415,0.52297 2.636108,1.994 -0.427098,0.43957 -0.900316,1.80026 -1.051595,3.02377 -0.274918,2.22347 -0.27731,2.22255 -4.902067,-1.8996 z m -12.007571,-2.18011 c -2.2085,-1.22917 -3.876893,-2.63961 -3.707541,-3.13431 0.648784,-1.8952 7.857682,0.63835 10.910549,3.83447 1.454912,1.52319 1.426911,1.57495 -0.841275,1.55517 -1.290454,-0.0113 -4.153234,-1.02615 -6.361733,-2.25533 z m 45.027633,-0.33924 c -1.50378,-0.439 -2.734145,-1.14221 -2.734145,-1.56268 0,-1.81404 10.809385,-5.85797 19.349335,-7.23884 7.83113,-1.26625 9.16748,-1.28917 11.77786,-0.20201 l 2.94446,1.22629 -4.64834,3.08657 c -4.73762,3.14586 -8.78355,4.23083 -18.90737,5.0703 -2.77621,0.23021 -6.27802,0.0594 -7.7818,-0.37963 z m -25.448583,-0.75007 c 0,-0.4627 0.400916,-0.84128 0.890925,-0.84128 0.490009,0 0.656953,0.37858 0.370988,0.84128 -0.285965,0.4627 -0.686881,0.84128 -0.890925,0.84128 -0.204043,0 -0.370988,-0.37858 -0.370988,-0.84128 z M 62.96056,108.43246 C 56.220401,101.66593 49.332856,94.154588 49.332856,93.570501 c 0,-1.327939 2.407363,-0.132305 5.021411,2.49392 4.357311,4.377609 9.667547,6.694539 15.26841,6.661819 3.888032,-0.0227 5.932761,-0.65723 11.529387,-3.577816 14.015411,-7.313903 28.472226,-17.293317 46.673606,-32.218397 7.16044,-5.871538 9.68691,-13.171026 7.62213,-22.021924 -1.64353,-7.045215 -4.64682,-12.191058 -10.70591,-18.343569 l -5.16253,-5.242118 7.15084,0.476044 c 3.93296,0.261824 9.38691,1.264137 12.11988,2.227363 5.8322,2.055537 7.34271,2.184054 6.72414,0.5721 -0.24888,-0.648571 -1.73801,-1.420382 -3.30919,-1.715136 -1.57117,-0.294754 -3.0776,-0.893387 -3.34763,-1.330297 -0.76346,-1.235303 0.50643,-6.71193 1.55632,-6.71193 0.51543,0 3.50189,1.006245 6.63658,2.236099 6.22955,2.444081 6.64472,3.213941 4.71637,8.74563 -0.92249,2.64624 -0.83512,2.926194 1.4175,4.542235 12.61287,9.048519 22.02744,25.785177 24.81227,44.109725 0.46516,3.060839 1.03935,6.416954 1.27596,7.458032 0.57345,2.523095 -1.01762,2.426416 -3.46126,-0.210319 -2.36348,-2.550236 -4.55186,-2.711205 -5.16157,-0.379666 -0.2863,1.094807 -2.32904,2.593612 -5.59985,4.108729 -5.20369,2.410479 -8.81954,5.303289 -11.88477,9.508246 l -1.67712,2.300728 -5.88893,-4.747461 c -8.05968,-6.497449 -11.87485,-8.120134 -16.56147,-7.043998 -6.14782,1.411656 -23.88147,7.393335 -27.71154,9.347292 -1.995995,1.018282 -6.863877,4.963326 -10.817513,8.766768 -8.801857,8.46748 -11.026561,9.68719 -17.668965,9.68719 -5.113974,0 -5.126382,-0.006 -9.938852,-4.83733 z m 81.3897,-43.479706 c 1.8763,-2.260802 -2.63861,-7.207143 -6.57852,-7.207143 -2.98556,0 -2.83454,1.646373 0.46248,5.041839 3.50908,3.613853 4.59483,3.998251 6.11604,2.165304 z m 4.27986,46.172536 c -0.0298,-0.98427 -4.72528,-2.88695 -7.23733,-2.93271 -0.89255,-0.0163 -4.08355,-0.73165 -7.09111,-1.58977 -5.2288,-1.49189 -5.36921,-1.59937 -3.20593,-2.454 3.10058,-1.22494 4.282,-3.77131 4.83678,-10.424906 l 0.47234,-5.664843 6.7302,5.330213 c 9.7278,7.704256 10.14425,8.265556 8.99027,12.117176 -0.96862,3.23298 -3.44678,7.21681 -3.49522,5.61884 z m 22.73269,-4.50161 c -0.65539,-1.22459 -0.54784,-1.7165 0.45984,-2.10318 1.76429,-0.67703 1.71354,-0.69 3.22853,0.825 0.73136,0.73135 1.11463,1.67779 0.85172,2.10319 -0.83301,1.34783 -3.65131,0.8357 -4.54009,-0.82501 z m 23.53034,-6.972311 c -0.9362,-1.937715 -1.70218,-3.801226 -1.70218,-4.141135 0,-0.339909 1.41965,-1.075286 3.15478,-1.634172 1.73513,-0.558886 3.5943,-1.363776 4.13148,-1.788645 2.84115,-2.247119 2.14464,6.060531 -0.77083,9.194203 -0.96859,1.04108 -2.06482,1.89287 -2.43607,1.89287 -0.37125,0 -1.44098,-1.58541 -2.37718,-3.523121 z M 62.372626,99.068887 C 56.322856,96.291612 50.148455,89.297896 45.682253,80.163779 l -4.052676,-8.288387 1.748451,-1.86114 C 46.637541,66.544659 44.56582,57.907814 40.13687,56.50212 c -2.950513,-0.936457 -1.599474,-8.481919 2.752354,-15.3717 2.493482,-3.947664 4.526278,-4.929305 2.613185,-1.261914 -1.65603,3.174602 -1.515789,6.019859 0.456124,9.254031 1.426477,2.339592 2.145115,2.734145 4.979961,2.734145 4.542401,0 8.153464,-3.091774 8.921659,-7.638679 0.684759,-4.053057 -0.724626,-6.073805 -5.286212,-7.579264 -3.78685,-1.249773 -3.288377,-1.538427 10.11963,-5.860045 12.377009,-3.989311 18.716556,-5.354265 32.591988,-7.017309 18.849971,-2.25927 17.791251,-2.300164 22.139181,0.855136 2.13092,1.546411 5.75721,5.49267 8.05841,8.769465 6.44824,9.181962 8.03042,19.061926 4.19903,26.220949 -0.83144,1.553555 -0.96609,1.565012 -2.46377,0.209629 -2.48192,-2.246105 -4.34157,-0.97217 -4.07007,2.788155 0.34059,4.717202 -0.43319,5.451592 -3.968,3.765962 -2.57684,-1.22881 -3.06353,-1.252432 -3.73998,-0.18152 -0.42771,0.677115 -0.56567,2.391226 -0.30659,3.809136 0.45788,2.505785 0.11186,2.834165 -12.34909,11.719834 -7.051093,5.027998 -17.017612,11.335823 -22.14782,14.017389 -10.427004,5.45021 -14.27447,6.0831 -20.264234,3.333367 z m -0.01407,-12.714558 c 2.634252,-1.001541 4.897591,-5.841295 4.141162,-8.855149 -0.719946,-2.868491 -4.601731,-5.451886 -8.191954,-5.451886 -6.530839,0 -8.464018,7.995575 -3.10192,12.829451 2.800414,2.524544 3.83621,2.738515 7.152712,1.477584 z m -5.7614,-3.431513 c -3.871897,-3.045635 -2.619793,-8.351696 1.970801,-8.351696 3.292319,0 5.907863,2.229226 5.907863,5.035266 0,4.760785 -3.936109,6.417644 -7.878664,3.31643 z M 83.40962,69.311834 c 1.451631,-1.24864 2.357202,-3.0504 2.657166,-5.286801 0.394064,-2.937966 0.116379,-3.75516 -2.072098,-6.097933 -1.919095,-2.054397 -3.239045,-2.705316 -5.485912,-2.705316 -4.173345,0 -5.343328,0.615316 -7.353041,3.867101 -4.656336,7.534109 5.514898,16.019581 12.253885,10.222949 z m -9.297377,-2.694591 c -2.51453,-2.51453 -2.618023,-4.595611 -0.349626,-7.030449 3.475864,-3.730902 10.062534,-1.573531 10.062534,3.295842 0,5.505887 -5.736101,7.711414 -9.712908,3.734607 z M 95.270688,43.011451 c 3.141528,-3.141528 2.58223,-7.683207 -1.264323,-10.266723 -3.802875,-2.55418 -5.602487,-2.42171 -8.661795,0.637598 -2.138457,2.138457 -2.472627,3.000023 -2.039375,5.257972 1.140945,5.946191 7.915588,8.421058 11.965493,4.371153 z m -9.023514,-2.399463 c -1.346784,-2.955868 -0.306079,-6.287663 2.157088,-6.905879 4.757176,-1.193975 8.101054,2.149412 6.179378,6.178471 -0.858791,1.800571 -1.775685,2.353838 -4.239611,2.55824 -2.660232,0.220688 -3.29044,-0.06094 -4.096855,-1.830832 z M 204.61579,94.569945 c -0.21691,-1.051271 -0.573,-7.02215 -0.79131,-13.268621 -0.42562,-12.178477 -1.90153,-20.908928 -5.30672,-31.390868 -1.17447,-3.615282 -1.96782,-6.740824 -1.763,-6.945648 0.76083,-0.760825 14.60172,10.415358 15.59298,12.590957 1.01793,2.234103 2.15085,8.978006 3.09283,18.410628 l 0.4857,4.863563 -2.07243,-1.357908 c -3.57344,-2.341406 -6.56457,-0.348338 -7.53861,5.023172 -0.60103,3.314501 0.7273,6.082208 3.21926,6.70765 2.66062,0.667774 2.72533,1.599653 0.27167,3.912305 -3.41897,3.222481 -4.74873,3.595189 -5.19037,1.45477 z m -17.61436,-5.228854 c -4.59372,-4.117453 -4.56826,-4.152216 3.75452,-5.127075 l 4.71582,-0.552371 0.54215,2.710739 c 0.83669,4.183468 0.69699,4.68362 -1.60063,5.730484 -2.91628,1.32875 -2.79974,1.372174 -7.41186,-2.761777 z m 11.36938,-2.974516 c -0.58403,-1.675367 -0.59263,-2.677495 -0.026,-3.027707 1.05896,-0.654468 1.21262,-0.464391 1.88172,2.327595 0.75806,3.163227 -0.79309,3.748429 -1.85574,0.700112 z m 11.7334,0.895701 c -1.77269,-1.122457 -0.4332,-3.437125 1.98905,-3.437125 2.38064,0 2.50388,0.252521 1.25872,2.579133 -0.96636,1.805649 -1.52011,1.95194 -3.24777,0.857992 z m -29.13108,-9.536372 c -2.07221,-18.004007 -10.88381,-36.220943 -22.33996,-46.185198 -4.60596,-4.00614 -4.76119,-4.275111 -4.11659,-7.133179 0.36842,-1.633533 0.90441,-3.204612 1.19109,-3.491287 0.57597,-0.575969 9.25926,3.514463 16.45141,7.74975 2.54486,1.498608 8.22347,4.690707 12.61913,7.093554 l 7.99212,4.368813 2.39842,7.170234 c 1.31913,3.943628 2.89156,9.327162 3.49428,11.963409 1.3921,6.088828 3.30611,20.271778 2.80354,20.774351 -0.32354,0.32354 -17.4837,2.947524 -19.27602,2.947524 -0.33673,0 -0.88457,-2.366087 -1.21742,-5.257971 z m 4.22572,-16.615191 c 0.28596,-0.462702 0.11902,-0.841276 -0.37099,-0.841276 -0.49001,0 -0.89093,0.378574 -0.89093,0.841276 0,0.462701 0.16695,0.841275 0.37099,0.841275 0.20405,0 0.60496,-0.378574 0.89093,-0.841275 z m 26.71049,21.005671 c -1.04107,-0.418462 -1.89287,-1.36866 -1.89287,-2.111549 0,-1.98285 2.6252,-1.157159 3.45337,1.086171 0.38434,1.041078 0.61635,1.868873 0.51558,1.839544 -0.10076,-0.02933 -1.035,-0.395704 -2.07608,-0.814166 z M 39.316642,65.319424 c -0.506202,-2.360341 -0.908404,-5.124686 -0.893782,-6.14299 0.02533,-1.764193 0.126521,-1.737814 2.146791,0.55965 1.661683,1.889677 2.065292,3.149094 1.866284,5.823544 -0.369314,4.963196 -2.030802,4.835252 -3.119293,-0.240204 z m 81.103988,3.362768 c 0.28597,-0.462702 0.68689,-0.841275 0.89093,-0.841275 0.20404,0 0.37099,0.378573 0.37099,0.841275 0,0.462702 -0.40092,0.841276 -0.89093,0.841276 -0.49001,0 -0.65695,-0.378574 -0.37099,-0.841276 z m 6.73021,-5.047653 c 0.28596,-0.462701 0.68688,-0.841275 0.89092,-0.841275 0.20405,0 0.37099,0.378574 0.37099,0.841275 0,0.462702 -0.40091,0.841276 -0.89092,0.841276 -0.49001,0 -0.65696,-0.378574 -0.37099,-0.841276 z M 49.227569,49.022816 c -2.597901,-1.28804 -3.239672,-6.642252 -1.081943,-9.026515 1.583548,-1.749801 5.411496,-2.099888 7.97274,-0.729152 1.788198,0.957014 2.208521,4.883817 0.803727,7.508698 -1.221584,2.282551 -5.250035,3.458947 -7.694524,2.246969 z"
     id="path2" /></svg>
