<?xml version="1.0" encoding="UTF-8" standalone="no"?>
<svg
   width="240"
   height="240"
   version="1.1"
   id="svg40"
   sodipodi:docname="FBCbrimstone.svg"
   inkscape:version="1.3.2 (091e20e, 2023-11-25, custom)"
   xml:space="preserve"
   xmlns:inkscape="http://www.inkscape.org/namespaces/inkscape"
   xmlns:sodipodi="http://sodipodi.sourceforge.net/DTD/sodipodi-0.dtd"
   xmlns="http://www.w3.org/2000/svg"
   xmlns:svg="http://www.w3.org/2000/svg"><defs
     id="defs40"><filter
       style="color-interpolation-filters:sRGB;"
       inkscape:label="Drop Shadow"
       id="filter3"
       x="-0.17272412"
       y="-0.16174829"
       width="1.3454482"
       height="1.3234966"><feFlood
         result="flood"
         in="SourceGraphic"
         flood-opacity="1.000000"
         flood-color="rgb(58,63,94)"
         id="feFlood2" /><feGaussianBlur
         result="blur"
         in="SourceGraphic"
         stdDeviation="15.000000"
         id="feGaussianBlur2" /><feOffset
         result="offset"
         in="blur"
         dx="0.000000"
         dy="0.000000"
         id="feOffset2" /><feComposite
         result="comp1"
         operator="out"
         in="flood"
         in2="offset"
         id="feComposite2" /><feComposite
         result="comp2"
         operator="atop"
         in="comp1"
         in2="SourceGraphic"
         id="feComposite3" /></filter><filter
       style="color-interpolation-filters:sRGB;"
       inkscape:label="Drop Shadow"
       id="filter6"
       x="-0.080915145"
       y="-0.084299289"
       width="1.1618303"
       height="1.1685986"><feFlood
         result="flood"
         in="SourceGraphic"
         flood-opacity="1.000000"
         flood-color="rgb(58,63,94)"
         id="feFlood5" /><feGaussianBlur
         result="blur"
         in="SourceGraphic"
         stdDeviation="7.000000"
         id="feGaussianBlur5" /><feOffset
         result="offset"
         in="blur"
         dx="0.000000"
         dy="0.000000"
         id="feOffset5" /><feComposite
         result="comp1"
         operator="out"
         in="flood"
         in2="offset"
         id="feComposite5" /><feComposite
         result="comp2"
         operator="atop"
         in="comp1"
         in2="SourceGraphic"
         id="feComposite6" /></filter><filter
       style="color-interpolation-filters:sRGB;"
       inkscape:label="Drop Shadow"
       id="filter10"
       x="-0.079827625"
       y="-0.08183463"
       width="1.1596552"
       height="1.1636693"><feFlood
         result="flood"
         in="SourceGraphic"
         flood-opacity="1.000000"
         flood-color="rgb(58,63,94)"
         id="feFlood9" /><feGaussianBlur
         result="blur"
         in="SourceGraphic"
         stdDeviation="7.000000"
         id="feGaussianBlur9" /><feOffset
         result="offset"
         in="blur"
         dx="0.000000"
         dy="0.000000"
         id="feOffset9" /><feComposite
         result="comp1"
         operator="out"
         in="flood"
         in2="offset"
         id="feComposite9" /><feComposite
         result="comp2"
         operator="atop"
         in="comp1"
         in2="SourceGraphic"
         id="feComposite10" /></filter><filter
       style="color-interpolation-filters:sRGB;"
       inkscape:label="Drop Shadow"
       id="filter12"
       x="-0.0792567"
       y="-0.08483838"
       width="1.1585134"
       height="1.1696768"><feFlood
         result="flood"
         in="SourceGraphic"
         flood-opacity="1.000000"
         flood-color="rgb(58,63,94)"
         id="feFlood10" /><feGaussianBlur
         result="blur"
         in="SourceGraphic"
         stdDeviation="7.000000"
         id="feGaussianBlur10" /><feOffset
         result="offset"
         in="blur"
         dx="0.000000"
         dy="0.000000"
         id="feOffset10" /><feComposite
         result="comp1"
         operator="out"
         in="flood"
         in2="offset"
         id="feComposite11" /><feComposite
         result="comp2"
         operator="atop"
         in="comp1"
         in2="SourceGraphic"
         id="feComposite12" /></filter><filter
       style="color-interpolation-filters:sRGB;"
       inkscape:label="Drop Shadow"
       id="filter7"
       x="-0.08602059"
       y="-0.077572354"
       width="1.1720412"
       height="1.1551447"><feFlood
         result="flood"
         in="SourceGraphic"
         flood-opacity="1.000000"
         flood-color="rgb(58,63,94)"
         id="feFlood3" /><feGaussianBlur
         result="blur"
         in="SourceGraphic"
         stdDeviation="7.000000"
         id="feGaussianBlur3" /><feOffset
         result="offset"
         in="blur"
         dx="0.000000"
         dy="0.000000"
         id="feOffset3" /><feComposite
         result="comp1"
         operator="out"
         in="flood"
         in2="offset"
         id="feComposite4" /><feComposite
         result="comp2"
         operator="atop"
         in="comp1"
         in2="SourceGraphic"
         id="feComposite7" /></filter><filter
       style="color-interpolation-filters:sRGB;"
       inkscape:label="Drop Shadow"
       id="filter14"
       x="-0.11678852"
       y="-0.11994048"
       width="1.233577"
       height="1.239881"><feFlood
         result="flood"
         in="SourceGraphic"
         flood-opacity="1.000000"
         flood-color="rgb(58,63,94)"
         id="feFlood13" /><feGaussianBlur
         result="blur"
         in="SourceGraphic"
         stdDeviation="10.000000"
         id="feGaussianBlur13" /><feOffset
         result="offset"
         in="blur"
         dx="0.000000"
         dy="0.000000"
         id="feOffset13" /><feComposite
         result="comp1"
         operator="out"
         in="flood"
         in2="offset"
         id="feComposite13" /><feComposite
         result="comp2"
         operator="atop"
         in="comp1"
         in2="SourceGraphic"
         id="feComposite14" /></filter><filter
       style="color-interpolation-filters:sRGB;"
       inkscape:label="Drop Shadow"
       id="filter22"
       x="-0.088949143"
       y="-0.091903855"
       width="1.1778983"
       height="1.1838077"><feFlood
         result="flood"
         in="SourceGraphic"
         flood-opacity="1.000000"
         flood-color="rgb(58,63,94)"
         id="feFlood21" /><feGaussianBlur
         result="blur"
         in="SourceGraphic"
         stdDeviation="8.000000"
         id="feGaussianBlur21" /><feOffset
         result="offset"
         in="blur"
         dx="0.000000"
         dy="0.000000"
         id="feOffset21" /><feComposite
         result="comp1"
         operator="out"
         in="flood"
         in2="offset"
         id="feComposite21" /><feComposite
         result="comp2"
         operator="atop"
         in="comp1"
         in2="SourceGraphic"
         id="feComposite22" /></filter><filter
       style="color-interpolation-filters:sRGB;"
       inkscape:label="Drop Shadow"
       id="filter24"
       x="-0.093525792"
       y="-0.096168423"
       width="1.1870516"
       height="1.1923368"><feFlood
         result="flood"
         in="SourceGraphic"
         flood-opacity="1.000000"
         flood-color="rgb(58,63,94)"
         id="feFlood22" /><feGaussianBlur
         result="blur"
         in="SourceGraphic"
         stdDeviation="8.000000"
         id="feGaussianBlur22" /><feOffset
         result="offset"
         in="blur"
         dx="0.000000"
         dy="0.000000"
         id="feOffset22" /><feComposite
         result="comp1"
         operator="out"
         in="flood"
         in2="offset"
         id="feComposite23" /><feComposite
         result="comp2"
         operator="atop"
         in="comp1"
         in2="SourceGraphic"
         id="feComposite24" /></filter><filter
       style="color-interpolation-filters:sRGB;"
       inkscape:label="Drop Shadow"
       id="filter26"
       x="-0.23353218"
       y="-0.090822994"
       width="1.4670644"
       height="1.181646"><feFlood
         result="flood"
         in="SourceGraphic"
         flood-opacity="1.000000"
         flood-color="rgb(58,63,94)"
         id="feFlood24" /><feGaussianBlur
         result="blur"
         in="SourceGraphic"
         stdDeviation="8.000000"
         id="feGaussianBlur24" /><feOffset
         result="offset"
         in="blur"
         dx="0.000000"
         dy="0.000000"
         id="feOffset24" /><feComposite
         result="comp1"
         operator="out"
         in="flood"
         in2="offset"
         id="feComposite25" /><feComposite
         result="comp2"
         operator="atop"
         in="comp1"
         in2="SourceGraphic"
         id="feComposite26" /></filter><filter
       style="color-interpolation-filters:sRGB;"
       inkscape:label="Drop Shadow"
       id="filter28"
       x="-0.26437483"
       y="-0.089952142"
       width="1.5287497"
       height="1.1799043"><feFlood
         result="flood"
         in="SourceGraphic"
         flood-opacity="1.000000"
         flood-color="rgb(58,63,94)"
         id="feFlood26" /><feGaussianBlur
         result="blur"
         in="SourceGraphic"
         stdDeviation="8.000000"
         id="feGaussianBlur26" /><feOffset
         result="offset"
         in="blur"
         dx="0.000000"
         dy="0.000000"
         id="feOffset26" /><feComposite
         result="comp1"
         operator="out"
         in="flood"
         in2="offset"
         id="feComposite27" /><feComposite
         result="comp2"
         operator="atop"
         in="comp1"
         in2="SourceGraphic"
         id="feComposite28" /></filter><filter
       style="color-interpolation-filters:sRGB;"
       inkscape:label="Drop Shadow"
       id="filter36"
       x="-0.082520754"
       y="-0.056911022"
       width="1.1650415"
       height="1.113822"><feFlood
         result="flood"
         in="SourceGraphic"
         flood-opacity="1.000000"
         flood-color="rgb(58,63,94)"
         id="feFlood35" /><feGaussianBlur
         result="blur"
         in="SourceGraphic"
         stdDeviation="5.000000"
         id="feGaussianBlur35" /><feOffset
         result="offset"
         in="blur"
         dx="0.000000"
         dy="0.000000"
         id="feOffset35" /><feComposite
         result="comp1"
         operator="out"
         in="flood"
         in2="offset"
         id="feComposite35" /><feComposite
         result="comp2"
         operator="atop"
         in="comp1"
         in2="SourceGraphic"
         id="feComposite36" /></filter><filter
       style="color-interpolation-filters:sRGB;"
       inkscape:label="Drop Shadow"
       id="filter38"
       x="-0.13145536"
       y="-0.13157949"
       width="1.2629107"
       height="1.263159"><feFlood
         result="flood"
         in="SourceGraphic"
         flood-opacity="1.000000"
         flood-color="rgb(58,63,94)"
         id="feFlood36" /><feGaussianBlur
         result="blur"
         in="SourceGraphic"
         stdDeviation="5.000000"
         id="feGaussianBlur36" /><feOffset
         result="offset"
         in="blur"
         dx="0.000000"
         dy="0.000000"
         id="feOffset36" /><feComposite
         result="comp1"
         operator="out"
         in="flood"
         in2="offset"
         id="feComposite37" /><feComposite
         result="comp2"
         operator="atop"
         in="comp1"
         in2="SourceGraphic"
         id="feComposite38" /></filter><filter
       style="color-interpolation-filters:sRGB;"
       inkscape:label="Drop Shadow"
       id="filter43"
       x="-0.092714985"
       y="-0.095019355"
       width="1.18543"
       height="1.1900387"><feFlood
         result="flood"
         in="SourceGraphic"
         flood-opacity="1.000000"
         flood-color="rgb(58,63,94)"
         id="feFlood42" /><feGaussianBlur
         result="blur"
         in="SourceGraphic"
         stdDeviation="8.000000"
         id="feGaussianBlur42" /><feOffset
         result="offset"
         in="blur"
         dx="0.000000"
         dy="0.000000"
         id="feOffset42" /><feComposite
         result="comp1"
         operator="out"
         in="flood"
         in2="offset"
         id="feComposite42" /><feComposite
         result="comp2"
         operator="atop"
         in="comp1"
         in2="SourceGraphic"
         id="feComposite43" /></filter></defs><sodipodi:namedview
     id="namedview40"
     pagecolor="#505050"
     bordercolor="#eeeeee"
     borderopacity="1"
     inkscape:showpageshadow="0"
     inkscape:pageopacity="0"
     inkscape:pagecheckerboard="0"
     inkscape:deskcolor="#505050"
     inkscape:zoom="2.8284271"
     inkscape:cx="118.44039"
     inkscape:cy="114.37452"
     inkscape:window-width="1920"
     inkscape:window-height="1017"
     inkscape:window-x="-8"
     inkscape:window-y="-8"
     inkscape:window-maximized="1"
     inkscape:current-layer="svg40" /><path
     style="fill:#1b1f21;stroke:none"
     d="M 0,0 V 240 H 240 V 0 Z"
     id="path1"
     sodipodi:insensitive="true" /><path
     style="fill:#e64539;fill-opacity:1;filter:url(#filter43)"
     d="m 17.846341,223.30629 c 0,-0.10655 0.586691,-1.20466 1.303756,-2.44025 0.717066,-1.23559 1.402518,-2.56734 1.523227,-2.95945 0.120709,-0.39211 0.522915,-0.98754 0.893792,-1.32318 0.654796,-0.59259 0.691092,-0.58656 1.253602,0.20805 0.318605,0.45006 0.682539,1.65134 0.808741,2.66952 0.126203,1.01817 0.332723,2.34347 0.458934,2.94512 l 0.229475,1.0939 h -3.235763 c -1.77967,0 -3.235764,-0.0872 -3.235764,-0.19371 z m 7.80623,-3.42458 c 0.02451,-3.62631 0.364982,-4.89232 1.497225,-5.56724 0.346058,-0.20628 0.359188,-0.40545 0.05847,-0.88697 -0.541148,-0.86652 0.155754,-2.43439 1.674951,-3.76827 1.036296,-0.90988 1.119248,-1.08866 0.631694,-1.36151 -0.927173,-0.51888 -0.621924,-1.35918 1.221278,-3.36198 1.317578,-1.43166 2.669049,-2.3908 5.454053,-3.87073 l 3.702439,-1.96745 4.37561,0.0159 c 5.107499,0.0186 9.402278,0.53594 15.482927,1.86525 2.406585,0.5261 5.435853,1.12894 6.731707,1.33962 1.295853,0.21069 4.476585,0.91393 7.068293,1.56276 2.591707,0.64882 5.562908,1.37205 6.60267,1.60716 2.859579,0.64662 4.162834,1.12815 8.255665,3.05033 3.414083,1.6034 3.832975,1.90149 4.663425,3.31855 0.823786,1.40568 0.899826,1.8097 0.782877,4.15965 -0.09915,1.9923 -0.344272,3.02367 -1.045132,4.39747 -0.503582,0.9871 -0.915603,1.99327 -0.915603,2.23594 0,0.57861 -0.760705,0.84982 -2.383626,0.84982 -1.599425,0 -1.760964,-0.70809 -0.47735,-2.09241 0.462805,-0.49911 0.841464,-1.05803 0.841464,-1.24203 0,-0.184 0.189329,-0.45567 0.420731,-0.60371 1.448696,-0.92681 1.341222,-6.496 -0.125359,-6.496 -0.162455,0 -0.295372,0.58731 -0.295372,1.30513 0,0.74574 -0.215003,1.48357 -0.501625,1.72144 -0.318582,0.2644 -0.427687,0.7109 -0.299,1.22363 0.253191,1.0088 -0.378363,1.80834 -1.428393,1.80834 -0.67341,0 -0.80415,0.17338 -0.824851,1.0939 -0.03245,1.44276 -1.020474,3.0864 -1.936192,3.22097 -0.423613,0.0623 -0.73189,-0.0724 -0.73189,-0.31975 0,-0.33236 -0.08976,-0.33756 -0.403903,-0.0234 -0.307865,0.30786 -7.265765,0.4039 -29.26277,0.4039 H 25.628118 Z m 67.904048,2.31395 c 1.405163,-2.75434 2.040604,-4.93591 2.040772,-7.00628 9.4e-5,-1.14609 0.165625,-2.18605 0.367848,-2.31104 0.202223,-0.12498 1.427404,-0.48181 2.722625,-0.79296 2.041066,-0.49033 2.676206,-0.50933 4.765246,-0.14258 1.32567,0.23274 2.44817,0.42918 2.49445,0.43652 0.28197,0.0448 -0.0266,0.8754 -0.75235,2.02501 -1.41099,2.23515 -2.19792,6.28478 -1.57082,8.08366 l 0.35279,1.01201 h -5.542993 -5.54299 z m 11.582781,-0.37895 c -0.028,-0.92541 0.015,-1.68256 0.0955,-1.68256 0.48412,0 2.15824,2.1679 1.99753,2.5867 -0.10503,0.27369 -0.19096,0.56097 -0.19096,0.63839 0,0.0774 -0.41652,0.1406 -0.92561,0.14039 -0.87948,-3.4e-4 -0.92814,-0.0842 -0.97645,-1.68292 z m 5.25827,0.0845 c -0.27126,-0.87933 -0.50606,-1.75024 -0.52178,-1.93537 -0.0157,-0.18512 -0.22922,-0.75181 -0.47446,-1.25932 -0.31615,-0.65426 -0.34891,-1.14007 -0.11259,-1.66969 0.2234,-0.50065 0.21645,-1.05653 -0.0211,-1.6858 -0.40887,-1.0832 -1.21655,-1.25958 -1.21655,-0.26567 0,0.74507 -0.52025,0.91178 -0.78779,0.25243 -0.12919,-0.31837 -0.25438,-0.30027 -0.51463,0.0744 -0.18915,0.27233 -0.46135,0.37769 -0.6049,0.23414 -0.14354,-0.14354 -0.0994,-0.36635 0.0982,-0.49513 0.19754,-0.12877 0.45543,-0.62808 0.57309,-1.10956 0.15576,-0.63735 0.78274,-1.17858 2.30551,-1.99021 1.15037,-0.61315 2.61023,-1.46677 3.24413,-1.89695 0.6339,-0.43017 2.00529,-1.03658 3.04753,-1.34757 1.04224,-0.31099 2.95523,-1.06326 4.25108,-1.67172 1.29586,-0.60846 3.11342,-1.28312 4.03903,-1.49925 0.92561,-0.21614 2.51597,-0.6914 3.53415,-1.05614 3.41172,-1.2222 8.57455,-2.68328 9.42439,-2.6671 0.83881,0.016 3.74078,-0.73999 7.57317,-1.9728 3.1557,-1.01513 9.38037,-1.93928 14.97805,-2.22374 1.75865,-0.0894 4.10634,-0.29948 5.21707,-0.46691 7.74923,-1.16816 25.88819,-0.46923 40.96268,1.57836 0.82166,0.11161 1.42574,0.4441 1.77484,0.97688 0.29107,0.44423 0.74776,0.8077 1.01487,0.8077 0.26712,0 1.16753,1.17384 2.00092,2.60853 l 1.51526,2.60854 -0.91368,0.11452 c -1.03822,0.13012 -1.40817,0.562 -1.41559,1.65255 -0.006,0.89797 -0.28432,0.96451 -0.84228,0.20145 -0.82186,-1.12395 -0.77526,0.14847 0.0949,2.58999 0.74248,2.08341 0.89432,3.08403 0.89379,5.88999 -5.7e-4,3.05799 -0.0933,3.56333 -0.97258,5.30122 L 207.57041,223.5 h -48.33977 -48.33977 z m 99.12461,0.67505 c 0.32068,-1.27771 0.84687,-1.85471 1.32757,-1.45577 0.60399,0.50127 1.32994,-0.14043 1.11006,-0.98124 -0.14828,-0.56701 0.0327,-0.86603 0.78464,-1.29665 0.75956,-0.43495 1.02578,-0.88172 1.19462,-2.00475 0.12763,-0.84899 0.37413,-1.39336 0.59758,-1.3197 0.5096,0.16798 0.87286,3.47982 0.54322,4.95257 -0.75685,3.3814 -0.3808,3.02927 -3.23507,3.02927 h -2.55446 z m 6.37201,-0.002 c 0.11782,-0.50909 0.30849,-1.50554 0.4237,-2.21434 0.22473,-1.38263 0.98509,-1.90883 2.75823,-1.90883 0.64311,0 1.36263,-0.45328 2.40427,-1.51463 0.81757,-0.83305 1.60643,-1.51464 1.753,-1.51464 0.14658,0 0.26651,1.81756 0.26651,4.03903 V 223.5 h -3.90997 -3.90997 z m -199.365929,-2.84111 0.02836,-2.79669 0.665154,1.44793 c 0.560681,1.22051 0.605236,1.62949 0.283669,2.60385 -0.681434,2.06477 -1.006615,1.64711 -0.977184,-1.25509 z m 1.817783,-2.30003 c -0.285513,-0.46197 0.145583,-2.34788 0.536697,-2.34788 0.170413,0 0.309842,-0.28551 0.309842,-0.63446 0,-0.77591 -1.452515,-1.78893 -2.170169,-1.51354 C 16.574313,213.10936 16.5,212.71137 16.5,210.13901 v -2.99887 l 1.935366,0.2236 c 1.064451,0.12298 2.048963,0.15988 2.187805,0.082 0.405011,-0.22715 0.293376,0.60992 -0.282414,2.1176 -0.488746,1.27977 -0.488746,1.48965 0,2.43478 0.783622,1.51536 0.664867,3.03173 -0.352387,4.49963 -0.916739,1.32286 -1.27625,1.52765 -1.642226,0.93549 z m 87.563846,-0.16008 c -0.10656,-0.27768 -0.047,-0.50488 0.13228,-0.50488 0.17931,0 0.32602,0.2272 0.32602,0.50488 0,0.27768 -0.0595,0.50488 -0.13228,0.50488 -0.0727,0 -0.21946,-0.2272 -0.32602,-0.50488 z m 110.54934,0.0333 c -0.66521,-0.80152 -0.62867,-3.0539 0.0619,-3.81698 0.31984,-0.35342 0.90128,-1.61569 1.29208,-2.80505 1.00006,-3.04354 0.73218,-5.14739 -0.83179,-6.53263 -1.53911,-1.36323 -1.71371,-2.04115 -0.84127,-3.26638 0.85584,-1.20192 1.81221,-1.14558 4.00025,0.23568 1.72613,1.08965 1.92006,1.59978 1.03562,2.72416 -0.38797,0.49321 -0.70539,1.15578 -0.70539,1.47237 0,0.74634 0.93482,1.57655 2.10366,1.86825 0.92237,0.2302 0.92561,0.24139 0.92561,3.20111 0,3.34351 -0.20241,3.59715 -2.52314,3.16178 -1.41825,-0.26607 -2.52564,0.4961 -2.52564,1.7383 0,0.42379 -0.34679,1.17369 -0.77064,1.66644 -0.6964,0.80962 -0.81403,0.84362 -1.22125,0.35295 z M 21.539722,211.87689 c -0.342601,-0.41281 -0.345518,-0.79923 -0.01461,-1.93537 0.75804,-2.60263 1.105625,-3.02487 3.138155,-3.81216 1.762296,-0.68261 1.959637,-0.69991 2.241408,-0.19641 0.417786,0.74654 -0.06589,1.6137 -1.842939,3.30411 -0.802688,0.76355 -1.559237,1.78593 -1.68122,2.27195 -0.249777,0.99519 -1.167898,1.17867 -1.840797,0.36788 z m 72.577411,-1.3205 c -1.340511,-1.7575 -3.391584,-3.14413 -5.56639,-3.76316 -2.27266,-0.64689 -4.060499,-1.4483 -4.060499,-1.82014 0,-0.24489 3.37218,-2.54069 7.509672,-5.11264 1.782934,-1.1083 4.611988,-1.62116 10.161064,-1.84201 6.42738,-0.25581 9.65047,0.76991 14.47317,4.60598 0.74048,0.589 1.55,1.45557 1.79892,1.92572 0.60205,1.1371 0.26983,1.43164 -3.14527,2.78858 -3.25312,1.29259 -4.32675,1.85092 -6.37603,3.3158 -0.86391,0.61754 -1.77464,1.04456 -2.02385,0.94893 -0.25077,-0.0962 -0.71823,-1.40095 -1.04682,-2.92177 -0.39105,-1.80988 -0.77582,-2.81316 -1.12717,-2.93907 -0.29339,-0.10515 -0.92762,-0.46386 -1.4094,-0.79714 -0.72015,-0.49818 -1.1846,-0.55718 -2.61108,-0.33168 -2.494068,0.39426 -4.086133,2.09987 -4.086133,4.37756 0,0.56566 -0.338899,1.40169 -0.772576,1.90587 l -0.772576,0.89817 z m 119.817687,-2.10511 c -1.59466,-4.14765 -1.64173,-4.61051 -0.48244,-4.74473 0.65815,-0.0762 1.25266,0.24046 2.27195,1.21008 1.17334,1.11617 1.37667,1.51055 1.35468,2.6276 -0.0365,1.85386 -0.74068,3.98334 -1.35647,4.10193 -0.37851,0.0729 -0.86698,-0.80006 -1.78772,-3.19488 z m -111.19264,2.24509 c -0.68286,-0.27425 -0.71905,-0.38958 -0.33658,-1.07256 0.60564,-1.08151 1.32968,-1.94332 1.63266,-1.94332 0.14207,0 0.43521,0.53598 0.6514,1.19107 0.30372,0.92026 0.30028,1.30291 -0.0151,1.68293 -0.4611,0.5556 -0.83407,0.58299 -1.93237,0.14188 z m -4.706031,-0.71193 c -0.554081,-0.55408 -0.531975,-1.6843 0.04847,-2.47811 0.446938,-0.61122 0.50998,-0.58897 1.430487,0.50499 0.529616,0.62942 0.962946,1.38046 0.962946,1.66898 0,0.66237 -1.852894,0.89315 -2.441901,0.30414 z m 112.673611,-0.0994 c 0,-0.26849 -0.23677,-0.62066 -0.52615,-0.7826 -0.46173,-0.2584 -0.46545,-0.34482 -0.0303,-0.70594 0.40336,-0.33476 0.59089,-0.27577 1.00563,0.31636 0.50756,0.72465 0.42383,1.66033 -0.14859,1.66033 -0.16532,0 -0.30057,-0.21967 -0.30057,-0.48815 z m -109.86021,-2.06661 c -0.30458,-0.79375 0.0541,-1.14768 1.163,-1.14768 1.17871,0 1.27023,0.43864 0.24183,1.15896 -0.93927,0.6579 -1.14868,0.65621 -1.40483,-0.0113 z m 121.54371,-1.90373 c -0.37819,-0.28213 -0.49722,-0.67841 -0.35912,-1.19561 0.2665,-0.99813 1.25882,-0.83851 1.41021,0.22685 0.14924,1.05023 -0.33885,1.50008 -1.05109,0.96876 z M 20.942927,205.59366 c -0.648063,-0.64806 -0.471448,-1.17183 0.521707,-1.54717 1.164545,-0.44011 4.980711,-0.70625 6.291893,-0.43881 1.068503,0.21795 1.243286,0.82403 0.275831,0.95648 -2.278233,0.3119 -4.436602,0.75 -5.243294,1.06427 -1.19184,0.46431 -1.350033,0.46133 -1.846137,-0.0348 z M 16.5,199.55599 v -5.6755 l 3.281707,0.007 c 6.698641,0.0136 10.397988,1.04093 13.170381,3.65745 0.947937,0.89465 1.723522,1.78758 1.723522,1.98429 0,0.50312 -2.703254,2.76092 -3.342292,2.79155 -0.290642,0.0139 -2.497464,0.0129 -4.90405,-0.002 l -4.375609,-0.0276 -2.77683,1.47046 L 16.5,205.2315 Z m 102.95258,3.70375 c -0.80965,-0.76532 -2.07795,-1.77466 -2.81843,-2.24299 -0.74049,-0.46832 -1.49781,-1.03415 -1.68293,-1.2574 -0.52738,-0.63598 -3.50254,-2.07093 -5.72028,-2.75895 -1.32628,-0.41146 -2.05641,-0.82631 -2.13039,-1.21046 -0.17159,-0.89097 1.79981,-4.82907 2.64342,-5.28056 0.47049,-0.2518 1.381,-0.31932 2.47123,-0.18324 0.94945,0.11849 2.50922,0.26861 3.46617,0.33358 2.35799,0.16009 6.86013,1.70272 8.91075,3.05321 0.9241,0.6086 2.13651,1.72705 2.69424,2.48544 0.92822,1.26218 0.98171,1.47691 0.63191,2.5368 -0.21017,0.63684 -0.82819,1.71919 -1.37337,2.40521 -0.54518,0.68602 -0.99124,1.46108 -0.99124,1.72236 0,0.57467 -2.51504,1.7708 -3.74499,1.78109 -0.58082,0.005 -1.38888,-0.46984 -2.35609,-1.38409 z m -41.446278,0.39009 c -1.437266,-0.33206 -3.027632,-0.76834 -3.534147,-0.96952 -0.506514,-0.20118 -2.965692,-0.75129 -5.464838,-1.22248 -2.499146,-0.47119 -6.134268,-1.28552 -8.078049,-1.80964 l -3.534146,-0.95294 v -3.96974 c 0,-3.51138 0.07225,-4.01281 0.625779,-4.34275 0.344178,-0.20515 1.363361,-0.95133 2.264851,-1.65818 2.595711,-2.03526 4.864395,-2.69854 9.226443,-2.69749 4.263814,0.001 7.096036,0.47423 9.253683,1.5461 l 1.517049,0.75364 0.390078,5.96151 c 0.214542,3.27882 0.555335,6.73207 0.757317,7.67388 0.590821,2.7549 0.783856,2.65976 -3.42402,1.68761 z m 4.78047,-1.57193 c -0.201986,-0.52845 -0.454258,-2.292 -0.560604,-3.91899 l -0.193355,-2.95816 1.649447,-1.58756 c 1.744105,-1.67866 5.847161,-3.88673 7.958023,-4.28263 1.439634,-0.27001 5.553244,0.41473 6.313991,1.05101 0.278022,0.23254 0.907201,0.57552 1.398176,0.76219 0.71894,0.27334 0.96464,0.67495 1.26243,2.06348 0.24215,1.1291 0.25743,1.93396 0.0443,2.33225 -0.33979,0.63489 -1.699806,1.03368 -3.525207,1.03368 -1.993895,0 -7.201961,2.39856 -10.635718,4.89825 -0.839391,0.61106 -1.935224,1.21368 -2.435185,1.33916 -0.783927,0.19675 -0.959557,0.0959 -1.276268,-0.73268 z m 44.786398,0.21239 c 0,-1.04776 8.2222,-13.65621 9.18095,-14.07866 0.14379,-0.0634 0.58162,-0.74494 0.97295,-1.51463 0.72241,-1.42087 1.36921,-2.3501 3.08863,-4.4373 1.07486,-1.30478 3.92493,-2.36008 6.69283,-2.47816 2.64391,-0.1128 10.0461,1.58619 11.03049,2.53177 0.27769,0.26674 1.2622,0.95812 2.18781,1.5364 2.32527,1.45273 6.2272,5.30811 6.22527,6.15102 -8.6e-4,0.37521 -0.45525,1.16624 -1.00976,1.75784 -0.5545,0.59161 -1.01388,1.19747 -1.02083,1.34635 -0.007,0.14888 -0.52068,0.86427 -1.14162,1.58977 l -1.12897,1.31907 -3.31814,0.2525 c -1.82498,0.13888 -4.68132,0.48449 -6.34741,0.76803 -1.6661,0.28354 -4.61964,0.76788 -6.56342,1.07632 -1.94378,0.30844 -3.77647,0.68771 -4.07264,0.84282 -0.96561,0.50572 -6.90087,2.00195 -12.08346,3.04615 -0.83305,0.16784 -1.77969,0.38894 -2.10365,0.49133 -0.32726,0.10343 -0.58903,0.0143 -0.58903,-0.20062 z m 83.99617,-0.31173 c -0.62399,-0.6895 -0.46225,-1.36636 0.32649,-1.36636 0.7355,0 1.25097,1.19673 0.70916,1.64639 -0.33654,0.27931 -0.59196,0.21025 -1.03565,-0.28003 z m 11.27752,-0.26431 c -0.26666,-0.10512 -0.882,-0.62598 -1.36742,-1.15744 -1.0831,-1.18585 -4.18927,-2.38742 -5.4609,-2.11246 -1.15232,0.24915 -2.27952,-0.0915 -2.27952,-0.68889 0,-0.2504 0.83108,-1.196 1.84684,-2.10133 1.89244,-1.68671 5.12237,-3.13026 6.98853,-3.12339 l 0.92561,0.003 v 4.71219 c 0,2.59171 -0.0379,4.70024 -0.0841,4.68562 -0.0463,-0.0146 -0.30232,-0.11258 -0.56899,-0.21771 z m -8.77125,-1.10205 c 0,-0.18513 0.15146,-0.33659 0.33659,-0.33659 0.18512,0 0.33658,0.15146 0.33658,0.33659 0,0.18512 -0.15146,0.33658 -0.33658,0.33658 -0.18513,0 -0.33659,-0.15146 -0.33659,-0.33658 z M 54.168951,198.78846 c -0.07744,-0.0774 -2.612726,-0.39463 -5.633963,-0.70487 -4.508381,-0.46294 -5.865948,-0.49186 -7.57261,-0.16129 -4.436063,0.85924 -3.930671,1.01817 -3.930671,-1.23603 0,-1.21211 0.194994,-2.26122 0.501663,-2.69905 0.798813,-1.14047 4.566827,-3.67426 6.401341,-4.30458 3.456484,-1.1876 10.112004,-0.95369 11.468762,0.40306 0.360455,0.36046 0.477015,1.49921 0.477015,4.66029 0,4.15809 -0.0047,4.18328 -0.785366,4.18328 -0.431951,0 -0.848728,-0.0634 -0.926171,-0.14081 z m 149.135929,-1.44324 c -0.92104,-0.33669 -1.98186,-1.5173 -2.18196,-2.42835 -0.10855,-0.49423 0.0253,-1.43142 0.29737,-2.08265 0.68423,-1.63761 0.1364,-2.70299 -1.57248,-3.05804 -1.0324,-0.21451 -1.385,-0.14143 -1.92551,0.39908 -0.65785,0.65785 -0.66855,0.65763 -1.84794,-0.0382 -0.65245,-0.38495 -1.26059,-0.82017 -1.35143,-0.96716 -0.28316,-0.45816 -4.95616,-2.57979 -6.94482,-3.15308 -2.52952,-0.72921 -6.68001,-1.16602 -9.43383,-0.99285 -2.85999,0.17985 -3.13226,-0.22456 -1.32217,-1.96386 1.80763,-1.73694 3.18752,-2.2858 6.35775,-2.52886 3.4716,-0.26616 5.82171,0.3718 10.89179,2.95668 3.29711,1.68097 4.48404,2.50076 6.41176,4.42848 3.47083,3.47083 4.30439,4.93188 4.30439,7.54464 0,2.2094 -0.19527,2.42802 -1.68292,1.8842 z m 3.36864,-1.83345 c -0.69614,-2.6997 -1.02576,-3.53986 -1.97331,-5.0297 -2.60569,-4.09695 -7.06132,-7.9252 -10.75354,-9.23936 -0.86945,-0.30946 -2.33813,-0.84628 -3.26374,-1.19293 -1.57564,-0.5901 -5.68492,-1.33017 -7.56662,-1.36274 l -0.83492,-0.0144 0.83492,-0.46089 c 0.4592,-0.25349 1.74369,-0.47004 2.85442,-0.48123 1.11073,-0.0112 2.32244,-0.0292 2.69268,-0.04 2.20158,-0.0642 7.16347,1.39273 9.59269,2.81662 5.48634,3.21584 9.45044,8.58963 9.98931,13.54164 0.15348,1.41038 0.0716,1.78358 -0.50575,2.30446 -0.68116,0.61455 -0.69312,0.60511 -1.06614,-0.84147 z m -9.45523,0.93057 c -0.13605,-0.12692 -1.55886,-0.23428 -10.40609,-0.78522 -2.31403,-0.1441 -8.03177,-0.25236 -12.7061,-0.24057 -5.80098,0.0146 -8.495,-0.0922 -8.48686,-0.33659 0.0393,-1.17806 3.93158,-5.62866 5.96606,-6.82177 1.98727,-1.16541 6.82228,-2.18906 9.16836,-1.94108 4.51553,0.4773 9.95079,2.08996 12.67563,3.7609 1.08121,0.66302 2.34565,1.40394 2.80986,1.64648 1.29713,0.67771 4.03646,3.79066 4.03646,4.58699 0,0.26057 -2.79024,0.38 -3.05732,0.13086 z m -68.74756,-0.76673 c -0.12341,-0.12341 -0.22439,-1.10793 -0.22439,-2.18781 0,-2.21038 0.23016,-2.06631 -3.36585,-2.10697 -1.57383,-0.0178 -2.61286,-0.24028 -3.70244,-0.79279 -0.85812,-0.43515 -2.68178,-0.91488 -4.20732,-1.10678 -1.48097,-0.1863 -2.95774,-0.41886 -3.28171,-0.51682 -0.93843,-0.28375 -0.68733,-1.02683 0.62004,-1.83483 1.2674,-0.78329 1.21809,-0.785 5.35435,0.18554 0.37025,0.0869 1.69413,0.38528 2.94196,0.66312 3.5091,0.78134 4.65851,1.39021 6.5529,3.47122 1.82846,2.00857 1.9576,2.5971 0.84731,3.86149 -0.53516,0.60943 -1.14513,0.75435 -1.53485,0.36463 z m -94.95935,-2.89539 c -0.732887,-0.77763 -1.369912,-1.79483 -1.415611,-2.26046 -0.206088,-2.09984 -1.120669,-4.91151 -1.768171,-5.43583 -0.384112,-0.31103 -0.682151,-0.92033 -0.662309,-1.35399 0.04846,-1.05905 -0.640071,-4.33212 -1.008497,-4.79411 -0.469625,-0.5889 -1.275906,-3.68342 -2.365433,-9.07856 -0.556033,-2.75338 -1.089605,-5.08478 -1.185714,-5.18089 -0.09611,-0.0961 -0.388639,0.003 -0.650068,0.21974 -0.364574,0.30257 -0.402962,0.68626 -0.164755,1.64674 0.170813,0.68875 0.527763,2.46397 0.793223,3.94494 0.26546,1.48098 0.794966,4.13159 1.176682,5.89025 0.381715,1.75866 0.914562,4.60979 1.184105,6.33584 0.269542,1.72605 0.562126,3.25486 0.650185,3.39734 0.453142,0.7332 1.550426,6.87552 1.277094,7.14885 -0.187388,0.18739 -0.681287,0.16723 -1.255974,-0.0513 -0.520927,-0.19806 -3.367074,-0.45538 -6.324771,-0.57182 l -5.377631,-0.21171 0.185266,-15.00777 c 0.197625,-16.00902 0.338377,-17.44512 1.84519,-18.8267 0.824952,-0.75639 1.03974,-0.78466 5.096334,-0.67092 5.208419,0.14603 6.01149,0.51642 7.46906,3.4449 0.543201,1.09138 0.914361,2.0576 0.824799,2.14716 -0.08956,0.0896 -0.327824,-0.19927 -0.529473,-0.64184 -0.696543,-1.52874 -3.920373,-2.63947 -4.577043,-1.57695 -0.49687,0.80395 -0.159149,3.90566 0.567159,5.20892 1.058787,1.89984 1.312261,2.1345 2.305698,2.1345 1.193841,0 1.709031,-0.57175 1.709031,-1.89663 0,-1.39178 0.574291,-2.91641 0.999543,-2.65359 0.532073,0.32884 1.626412,2.99154 3.875911,9.4307 1.16409,3.3322 2.454243,6.81586 2.867006,7.74147 0.893588,2.00384 0.915859,4.05807 0.0545,5.02711 -0.715157,0.80457 -1.835185,3.39238 -2.413049,5.57533 -0.739135,2.79216 -1.272036,2.94609 -3.182289,0.91924 z m 177.89236,-0.30845 c -0.37707,-1.54936 -0.99794,-3.71864 -1.88609,-6.5899 -0.68973,-2.22979 -2.93754,-5.22265 -5.26325,-7.00778 -2.45851,-1.88707 -6.47265,-4.17897 -7.31922,-4.17897 -0.38423,0 -0.69859,-0.15146 -0.69859,-0.33658 0,-0.18513 -0.4241,-0.33659 -0.94244,-0.33659 -0.97594,0 -1.75025,-0.52613 -1.75025,-1.18927 0,-0.76798 5.4195,-0.79225 7.0683,-0.0316 3.11009,1.43471 6.4872,4.20922 8.78682,7.21892 2.98399,3.9054 4.5787,9.23626 3.63826,12.16216 -0.63757,1.98358 -1.19713,2.0828 -1.63354,0.28965 z m 2.50211,0.73317 c -0.11522,-0.18643 0.0273,-0.42983 0.31672,-0.54089 0.75188,-0.28852 0.68118,-3.83562 -0.12336,-6.18844 -1.55723,-4.55405 -3.15186,-7.16166 -6.09809,-9.97188 -2.00969,-1.91693 -5.50506,-4.50129 -6.08801,-4.50129 -0.50927,0 -0.31295,-0.92937 0.24125,-1.14204 1.15548,-0.4434 2.12575,-0.13723 4.68348,1.47788 3.43598,2.16968 4.93868,3.66066 6.61221,6.56067 2.11488,3.6648 2.98166,6.63582 2.98166,10.22011 0,2.87207 -0.0461,3.06592 -0.88686,3.72724 -0.99162,0.78001 -1.33248,0.8546 -1.639,0.35864 z m -14.75219,-0.5586 c -0.12342,-0.12341 -0.22439,-0.51469 -0.22439,-0.86951 0,-0.87292 0.81291,-0.56202 0.94902,0.36295 0.10413,0.70766 -0.26529,0.9659 -0.72463,0.50656 z M 81.797561,191.52439 c 0,-0.18512 0.151463,-0.33659 0.336585,-0.33659 0.185122,0 0.336586,0.15147 0.336586,0.33659 0,0.18512 -0.151464,0.33659 -0.336586,0.33659 -0.185122,0 -0.336585,-0.15147 -0.336585,-0.33659 z m 48.076229,-0.92561 c -1.03809,-1.09021 -1.89052,-2.77683 -1.40343,-2.77683 0.3742,0 3.08875,1.73955 3.60538,2.31043 0.6531,0.72166 0.40189,1.7286 -0.43125,1.7286 -0.31286,0 -1.10968,-0.56799 -1.7707,-1.2622 z m 88.44852,0.98934 c -0.10835,-0.17531 0.37881,-1.51095 1.08258,-2.96807 0.70376,-1.45713 1.49268,-3.17944 1.75315,-3.82737 0.26046,-0.64792 0.89122,-1.93536 1.40167,-2.86097 l 0.9281,-1.68293 0.006,5.43962 0.006,5.43961 -1.93537,0.13437 c -1.06445,0.0739 -2.1851,0.24914 -2.49034,0.38942 -0.30524,0.14029 -0.64363,0.11163 -0.75198,-0.0637 z M 83.012193,191.247 c -0.118721,-0.1921 -0.05185,-0.45063 0.148613,-0.57452 0.500199,-0.30914 0.677278,-0.0633 0.343454,0.47686 -0.178842,0.28937 -0.352304,0.3238 -0.492067,0.0977 z m 1.818194,-2.24271 c -0.2285,-0.27533 -0.324907,-0.73656 -0.214238,-1.02496 0.424208,-1.10547 5.219594,-2.52808 8.833249,-2.6205 2.366065,-0.0605 2.419562,-0.0425 4.318906,1.45337 1.057742,0.83304 1.904616,1.66609 1.881943,1.85121 -0.04692,0.38307 -0.217369,0.37124 -3.827666,-0.26582 -2.836396,-0.5005 -5.400502,-0.29774 -7.720856,0.61055 -1.616621,0.63281 -2.744057,0.63148 -3.271338,-0.004 z m 47.286683,-0.46444 c -4.35518,-2.66161 -6.90462,-4.0223 -7.90975,-4.22158 -0.64793,-0.12846 -2.0809,-0.57935 -3.18438,-1.00196 l -2.00633,-0.7684 0.88106,-0.88105 c 0.73999,-0.74 1.08816,-0.85111 2.17462,-0.69402 2.61307,0.37784 9.79121,4.26409 11.2118,6.07008 0.76406,0.97133 0.90787,2.12839 0.26347,2.1197 -0.2314,-0.003 -0.87512,-0.28336 -1.43049,-0.62277 z m 75.81586,0.25417 c -0.32397,-0.18279 -0.58903,-0.68216 -0.58903,-1.1097 0,-1.33114 -3.78768,-5.3671 -7.3729,-7.8562 -2.02059,-1.40283 -3.90532,-2.04479 -10.27343,-3.49927 -2.79503,-0.63838 -2.7633,-1.17348 0.0865,-1.45968 2.98249,-0.29952 5.37572,0.29439 9.42168,2.3381 5.32865,2.69162 8.04787,5.45134 9.30291,9.44144 0.62642,1.99154 0.43246,2.7142 -0.57578,2.14531 z M 53.187805,187.9446 c -1.766617,-0.45433 -3.842544,-0.43499 -7.753545,0.0722 -1.207321,0.15658 -1.694364,0.0623 -2.32808,-0.4509 -0.823615,-0.66692 -0.792211,-1.65423 0.06058,-1.90448 3.81722,-1.12016 11.220357,-1.01582 12.411104,0.17493 0.351567,0.35156 0.639213,1.0936 0.639213,1.64897 0,1.15954 -0.192616,1.18874 -3.029268,0.45923 z m 48.299995,-0.27684 c -1.98953,-1.22296 -3.100562,-2.13565 -5.458892,-4.48436 -2.127196,-2.11853 -3.276832,-4.02081 -4.519613,-7.47852 -1.412612,-3.93023 -1.72451,-4.96912 -2.297743,-7.6535 -0.682306,-3.19516 -0.613532,-3.33772 1.767684,-3.6641 1.791709,-0.24558 3.429726,0.56056 4.66556,2.29613 0.921213,1.29372 4.527244,3.01617 6.764564,3.23115 1.90185,0.18275 4.85718,-0.41332 6.79106,-1.3697 0.72461,-0.35835 2.56913,-1.87172 4.09891,-3.36304 1.52979,-1.49132 3.26413,-2.91445 3.85408,-3.16251 1.51093,-0.6353 7.68259,-0.62201 7.92783,0.0171 0.33966,0.88516 -0.94062,7.10923 -2.11925,10.30265 -2.07735,5.62844 -3.00696,7.26821 -5.5978,9.87419 -1.32713,1.33489 -3.15599,3.02935 -4.06412,3.76547 -0.90813,0.73612 -1.81691,1.49707 -2.01951,1.69101 -0.42369,0.40557 -0.56454,0.4237 -5.08056,0.65401 -3.14381,0.16032 -3.45467,0.11705 -4.7122,-0.65594 z m 65.39037,-0.38058 c -3.15266,-3.45398 -4.66766,-4.7444 -6.95515,-5.92416 -1.36771,-0.70539 -2.69302,-1.28253 -2.94513,-1.28253 -0.25211,0 -0.45838,-0.13427 -0.45838,-0.29839 0,-0.28241 -0.75413,-0.49625 -3.29309,-0.93379 -1.04226,-0.17961 -1.10093,-0.26426 -1.02893,-1.48451 0.0516,-0.87429 -0.12775,-1.51957 -0.55286,-1.98931 -0.98839,-1.09216 -0.30446,-1.31881 3.02366,-1.00205 3.18481,0.30313 7.42826,1.5482 9.49534,2.78603 1.36121,0.81514 8.17539,7.2531 8.17539,7.72402 0,0.52759 -3.44395,3.61263 -4.03292,3.61263 -0.17895,0 -0.82152,-0.54357 -1.42793,-1.20794 z M 57.596965,187.06463 c 0.06145,-2.00355 0.431257,-2.77683 1.327966,-2.77683 0.860918,0 0.900164,0.14851 0.533533,2.0188 -0.183556,0.93637 -0.98584,1.85194 -1.622795,1.85194 -0.14974,0 -0.257156,-0.49226 -0.238704,-1.09391 z m 65.768885,-0.0881 c -1.85122,-0.62701 -3.77344,-1.14769 -4.2716,-1.15707 -1.08714,-0.0205 -1.44901,-0.46923 -0.80762,-1.00154 0.31486,-0.26131 1.19676,-0.31283 2.70672,-0.15813 1.82455,0.18693 2.63995,0.48567 4.39895,1.61165 2.09294,1.33974 2.63032,1.90947 1.76014,1.86609 -0.2314,-0.0115 -1.93537,-0.53398 -3.78659,-1.161 z m 94.61255,0.12598 c -0.0793,-0.25225 -0.46222,-1.55048 -0.85091,-2.88495 -1.48227,-5.08908 -3.7106,-8.55586 -7.37694,-11.47684 -1.64474,-1.31037 -1.81308,-2.08465 -0.45322,-2.08465 4.75123,0 11.18592,9.3738 10.08812,14.69597 -0.31393,1.52194 -1.15135,2.56375 -1.40705,1.75047 z M 82.891463,186.9063 c -0.855214,-0.30531 -0.379657,-1.131 1.009757,-1.7532 3.540309,-1.5854 5.614794,-2.3136 7.219796,-2.53434 1.558892,-0.2144 1.769011,-0.16567 2.120943,0.49192 0.510832,0.9545 0.30868,1.10793 -1.601563,1.21553 -1.47479,0.0831 -2.510167,0.28934 -5.88723,1.1728 -0.693807,0.18151 -1.526856,0.6062 -1.851219,0.94375 -0.324364,0.33756 -0.779081,0.54615 -1.010484,0.46354 z m -4.521687,-1.09932 c -1.916183,-0.57487 -8.295388,-1.09107 -10.959416,-0.88682 -2.492063,0.19106 -2.843829,0.14393 -3.45,-0.46224 -0.371247,-0.37125 -0.674994,-0.82646 -0.674994,-1.01158 0,-0.18512 -0.605854,-0.33658 -1.346342,-0.33658 -1.370523,0 -1.55295,-0.16288 -1.057455,-0.94411 0.320039,-0.50459 4.057423,-1.4082 6.779407,-1.6391 2.583282,-0.21913 8.054155,0.6859 10.265161,1.69813 1.625772,0.7443 1.858077,0.97341 1.9024,1.87621 0.02777,0.56561 0.06563,1.20509 0.08415,1.42106 0.04484,0.52315 -0.446591,0.61394 -1.542907,0.28503 z M 131.577,184.19823 c -1.18393,-0.88295 -3.51578,-2.18922 -5.18188,-2.90282 -4.42006,-1.89313 -4.5439,-1.95989 -4.5439,-2.44985 0,-1.01094 3.95341,0.0314 7.75767,2.04538 4.51519,2.39032 5.72077,3.58475 4.57665,4.53429 -0.35416,0.29392 -0.9364,0.02 -2.60854,-1.227 z m -88.823341,-0.12506 c 0,-0.35638 0.265061,-0.73718 0.589024,-0.84624 0.323963,-0.10906 1.194878,-0.47222 1.935366,-0.80701 1.621177,-0.73299 4.768787,-1.15211 6.380979,-0.84966 1.097029,0.20581 3.211704,1.63952 3.211704,2.17748 0,0.13286 -2.082622,0.233 -4.628049,0.22252 -2.545427,-0.0105 -5.271768,0.15419 -6.058537,0.36591 -1.320853,0.35545 -1.430487,0.3353 -1.430487,-0.263 z m 38.707317,-0.4464 c 0,-0.92716 2.012753,-2.5313 3.191547,-2.54363 0.574931,-0.006 3.710225,-1.0257 5.60042,-1.82143 0.605774,-0.25501 1.642179,0.58591 1.642179,1.33245 0,0.27683 -0.511691,0.54945 -1.262195,0.67247 -1.611689,0.26418 -4.847813,1.39331 -6.888811,2.40361 -1.997805,0.98891 -2.28314,0.98348 -2.28314,-0.0435 z m 89.385554,-2.53481 c -3.07975,-3.64949 -6.72312,-6.20131 -10.07958,-7.05975 -3.16693,-0.80996 -7.78405,-1.45459 -8.58887,-1.19916 -0.33538,0.10645 -0.95501,0.0658 -1.37695,-0.0902 l -0.76716,-0.28379 0.93206,-0.73316 c 0.74626,-0.58701 1.38039,-0.73317 3.18096,-0.73317 4.5102,0 8.60654,1.28206 13.44818,4.20895 3.17611,1.92005 4.23829,2.84978 6.00448,5.25576 1.29168,1.7596 1.35351,1.94156 0.88633,2.60854 -0.27621,0.39435 -0.69714,0.717 -0.9354,0.717 -0.23825,0 -1.45508,-1.21094 -2.70405,-2.69097 z M 133.96829,182.1 c -0.4628,-0.36201 -0.99292,-0.66585 -1.17805,-0.6752 -0.18512,-0.009 -1.23666,-0.61499 -2.33675,-1.34586 -1.10009,-0.73087 -3.10667,-1.65734 -4.45907,-2.05882 -2.63347,-0.78179 -3.26789,-1.23666 -2.93495,-2.10429 0.25638,-0.6681 0.88971,-0.69486 2.09017,-0.0883 0.49989,0.25258 2.14206,0.87403 3.64927,1.38099 3.07532,1.03442 6.85231,3.73903 6.85231,4.90677 0,0.83273 -0.60584,0.82723 -1.68293,-0.0153 z m 4.38271,0.42073 c 0.0433,-1.53947 3.96921,-9.60892 5.78122,-11.88288 1.40175,-1.75913 1.46195,-0.96313 0.11571,1.5302 -0.66754,1.23634 -1.83868,3.71174 -2.60255,5.50089 -1.37001,3.20891 -2.49445,5.10423 -3.02819,5.10423 -0.15031,0 -0.27009,-0.1136 -0.26619,-0.25244 z m -85.163195,-1.48089 c -2.123211,-0.98046 -2.260258,-0.9996 -4.641798,-0.64824 -3.005374,0.44341 -3.099666,0.44418 -3.099666,0.0255 0,-0.18512 0.177403,-0.33658 0.394229,-0.33658 0.216826,0 0.644959,-0.22691 0.951406,-0.50424 0.80402,-0.72763 5.260194,-1.03401 6.588259,-0.45298 1.263327,0.55272 3.173424,2.12875 3.173424,2.61841 0,0.58723 -1.047203,0.36887 -3.365854,-0.70184 z M 81.12439,180.4342 c 0,-1.00427 2.03567,-2.33838 5.45999,-3.57829 3.262404,-1.18129 3.611816,-1.13872 3.622661,0.44134 0.0038,0.54758 -0.245477,0.80578 -0.920456,0.95356 -1.73514,0.37991 -4.2884,1.24358 -6.037348,2.04221 -2.108779,0.96293 -2.124847,0.964 -2.124847,0.14118 z m 93.65758,-0.67073 c -0.87185,-1.52691 -4.4677,-4.57891 -7.15514,-6.07297 -4.1021,-2.28053 -6.03017,-2.99156 -9.65928,-3.56213 -4.76821,-0.74967 -4.57384,-0.68249 -4.1681,-1.44063 2.23647,-4.17888 16.27685,2.39943 22.39791,10.49405 0.80196,1.06052 0.88948,1.3431 0.4936,1.59362 -0.81949,0.51861 -1.12863,0.35473 -1.90899,-1.01194 z m 45.66191,0.23287 c -0.61297,-1.50645 -3.22822,-5.80002 -3.84426,-6.31129 -0.84397,-0.70043 -0.61945,-1.40413 0.40974,-1.28424 1.18183,0.13768 3.15517,2.71165 4.13129,5.38876 0.97734,2.68046 0.33009,4.73041 -0.69677,2.20677 z m -159.851197,0.26828 c 0,-0.0839 0.167877,-0.52091 0.37306,-0.97123 0.458561,-1.00644 2.147856,-1.29138 7.148738,-1.20584 4.490194,0.0768 7.57648,0.48195 9.274222,1.21747 2.616139,1.1334 1.304347,1.47445 -2.38611,0.62037 -1.168499,-0.27042 -3.822412,-0.57991 -5.897583,-0.68775 -3.33963,-0.17355 -3.946459,-0.11707 -5.282753,0.49168 -1.356989,0.61818 -3.229574,0.92856 -3.229574,0.5353 z m 1.767073,-0.74363 c -0.231402,-0.0934 -0.610061,-0.0934 -0.841463,0 -0.231403,0.0934 -0.04207,0.16977 0.420731,0.16977 0.462805,0 0.652135,-0.0764 0.420732,-0.16977 z m 71.271954,-1.14719 c -2.93322,-1.91377 -3.67351,-2.26764 -7.02318,-3.35719 -2.54167,-0.82673 -3.10512,-1.32456 -2.4257,-2.1432 0.54202,-0.6531 2.64453,-0.32995 5.74644,0.8832 3.67579,1.4376 6.61733,3.15747 6.837,3.99748 0.15953,0.61006 -0.24078,2.38589 -0.5177,2.29657 -0.0509,-0.0164 -1.22845,-0.771 -2.61686,-1.67686 z m -78.660107,0.22226 c -0.14804,-0.26107 -0.966088,-0.54661 -1.817884,-0.63454 -1.661594,-0.17151 -2.995182,-0.73196 -2.995182,-1.25873 0,-0.17861 0.373519,-0.32474 0.830044,-0.32474 0.717833,0 2.125771,-0.48366 3.860842,-1.32628 0.628605,-0.30527 3.135038,0.90446 2.960442,1.42886 -0.21161,0.63558 -1.199768,0.67407 -2.42147,0.0943 -1.42272,-0.67513 -2.537175,-0.6877 -2.537175,-0.0286 0,0.31582 0.319059,0.50488 0.852027,0.50488 0.468614,0 0.932687,0.2102 1.031273,0.46711 0.09858,0.25691 0.623954,0.55605 1.167485,0.66475 0.543531,0.10871 0.988239,0.3529 0.988239,0.54265 0,0.52203 -1.610826,0.41316 -1.918641,-0.12967 z m 121.340977,-1.23384 c -1.59594,-1.88155 -7.38563,-6.70421 -9.10793,-7.58665 -0.60085,-0.30786 -1.16819,-0.6538 -1.26075,-0.76875 -0.30385,-0.37737 -3.49141,-1.68102 -5.70725,-2.33416 -1.1952,-0.3523 -2.22724,-0.80297 -2.29342,-1.00149 -0.1683,-0.50491 1.73051,-1.42316 3.03939,-1.46983 1.09537,-0.039 3.88863,1.26529 7.68987,3.59088 3.90688,2.39022 9.72507,8.75799 9.72507,10.6437 0,1.02445 -0.54212,0.74528 -2.08498,-1.0737 z m -100.23697,0.31106 c -3.042771,-0.87217 -12.655681,-0.97792 -14.598422,-0.16061 -0.716816,0.30157 -1.625596,0.53465 -2.019513,0.51795 -0.501273,-0.0213 -0.384028,-0.12616 0.39068,-0.34958 0.608791,-0.17557 1.395985,-0.60831 1.74932,-0.96164 0.353334,-0.35334 1.294136,-0.80705 2.090669,-1.00826 0.796533,-0.20121 1.796161,-0.51212 2.221396,-0.69093 1.192328,-0.50134 4.302867,-0.38087 7.64148,0.29596 2.899366,0.58778 5.222879,1.47767 5.211919,1.99613 -0.01861,0.8804 -0.602017,0.95876 -2.687529,0.36098 z m 69.67317,0.33532 c 0,-0.66587 1.67016,-2.61642 2.69337,-3.14554 2.12513,-1.09895 2.01743,-0.36574 -0.30908,2.10401 -1.29787,1.37779 -2.38429,1.85236 -2.38429,1.04153 z m -64.831411,-0.43206 c -0.434486,-1.13225 0.707891,-2.37078 3.511462,-3.80703 3.284903,-1.68282 3.989285,-1.76666 4.459186,-0.53073 0.455016,1.19679 -0.03756,1.65844 -2.436132,2.28319 -1.037322,0.27018 -2.568736,0.95199 -3.403142,1.51513 -1.730864,1.16814 -1.876022,1.20488 -2.131374,0.53944 z m 97.635881,-1.55583 c -2.31015,-3.8029 -7.11373,-8.32707 -10.83161,-10.20155 -2.11427,-1.06597 -2.17585,-1.93873 -0.11014,-1.56099 1.86091,0.34029 4.09196,1.75218 6.7886,4.29605 2.84463,2.68349 6.82715,8.43124 6.29017,9.07826 -0.58868,0.70932 -0.84402,0.51674 -2.13702,-1.61177 z m 43.29675,0.6437 c -0.47374,-1.35898 -0.46509,-1.63387 0.0512,-1.62755 0.95414,0.0117 1.3356,0.57733 1.10314,1.63573 -0.29418,1.33939 -0.68556,1.33662 -1.15436,-0.008 z m -78.26862,0.0832 c -0.45213,-0.73156 2.29798,-5.45652 4.78668,-8.22396 2.03611,-2.26416 2.41918,-2.87032 2.26307,-3.58108 -0.16007,-0.72878 4.5e-4,-0.95367 1.08316,-1.51748 0.69909,-0.36406 1.87693,-1.14168 2.61742,-1.72806 0.74049,-0.58638 2.40658,-1.78877 3.70244,-2.67198 1.29585,-0.88321 2.749,-1.99761 3.22922,-2.47644 0.48022,-0.47883 1.8279,-1.54359 2.99485,-2.36614 1.16695,-0.82254 2.41724,-1.99638 2.77841,-2.60853 0.36118,-0.61215 0.77426,-1.113 0.91796,-1.113 0.14369,0 0.35411,-0.46423 0.46758,-1.03161 0.22109,-1.10542 2.03392,-3.17076 2.51963,-2.87057 0.16123,0.0996 1.14143,1.44298 2.17822,2.9852 2.05309,3.05396 3.78935,6.51416 4.1335,8.23771 l 0.21843,1.0939 -2.31402,0.0246 c -2.95012,0.0313 -4.8271,0.33405 -9.21403,1.48606 -6.74668,1.77167 -8.57884,3.00426 -16.69647,11.23259 -3.30157,3.3466 -5.52414,5.35843 -5.66605,5.12882 z m 36.9789,-2.30497 c -4.42883,-6.29348 -7.86817,-9.57918 -11.49946,-10.98573 -2.34087,-0.90672 -2.83094,-1.88866 -0.9426,-1.88866 2.84836,0 8.10269,3.82202 11.20775,8.15256 2.43646,3.39805 3.78379,5.68918 3.78379,6.43433 0,1.15827 -1.00372,0.48406 -2.54948,-1.7125 z m -46.42369,-0.16806 c -1.48098,-0.74987 -4.11306,-1.86489 -5.84906,-2.47782 -1.73601,-0.61293 -3.22015,-1.1782 -3.29809,-1.25614 -0.26625,-0.26625 0.28745,-1.85501 0.70193,-2.01406 0.90166,-0.346 6.48665,2.04397 9.8925,4.23327 1.6041,1.03112 2.09587,1.52874 2.01951,2.04351 -0.0555,0.37426 -0.2524,0.71516 -0.43753,0.75756 -0.18512,0.0424 -1.54829,-0.53645 -3.02926,-1.28632 z m -74.008551,0.28956 c 0.422088,-0.5861 0.857188,-0.8294 1.306107,-0.73035 0.370244,0.0817 0.967181,-0.0697 1.326527,-0.33655 0.359346,-0.2668 0.969364,-0.48508 1.355595,-0.48508 0.386232,0 1.001003,-0.20607 1.366157,-0.45792 1.13633,-0.78374 5.175865,-0.98769 7.776927,-0.39264 2.773057,0.6344 6.17154,2.18707 6.177687,2.82241 0.0032,0.33296 -0.24714,0.39199 -0.921185,0.21722 -2.286386,-0.59283 -6.19357,-1.23327 -8.610323,-1.41135 -2.512206,-0.1851 -3.758429,0.003 -6.451872,0.97412 -0.555366,0.20023 -1.673237,0.43492 -2.484157,0.52153 l -1.474401,0.15749 z m 122.124481,-2.63043 c -1.25353,-1.906 -2.7473,-4.00723 -3.31949,-4.66941 -0.57219,-0.66217 -1.26754,-1.54255 -1.54523,-1.95641 -0.27768,-0.41385 -0.95926,-0.9762 -1.51463,-1.24967 -1.57275,-0.77443 -3.65781,-2.69074 -3.39332,-3.11869 0.41602,-0.67314 2.35002,-0.4112 3.73592,0.50601 2.87361,1.90178 6.21894,5.84236 8.04306,9.4742 0.95212,1.89568 1.28772,4.11828 0.65578,4.34315 -0.21062,0.075 -1.40856,-1.42318 -2.66209,-3.32918 z m 4.3016,0.95641 c -0.1822,-0.39568 -0.51434,-1.17382 -0.73808,-1.72918 -0.78592,-1.95077 -4.09662,-6.5544 -5.59884,-7.78536 -2.51229,-2.05863 -2.76154,-3.39254 -0.55132,-2.95049 2.23889,0.44777 5.65576,4.32801 7.69193,8.73505 1.39124,3.01114 1.49123,4.33652 0.33221,4.40315 -0.52314,0.0301 -0.92052,-0.20542 -1.1359,-0.67317 z M 81.460976,172.70363 c 0,-0.7898 5.202205,-4.54594 5.916465,-4.27185 0.263261,0.10102 0.478657,0.56709 0.478657,1.03571 0,0.46861 0.03786,0.94798 0.08415,1.06525 0.08258,0.20927 -5.658616,2.81604 -6.202082,2.81604 -0.152453,0 -0.277186,-0.29032 -0.277186,-0.64515 z m 52.911174,-2.02127 c -2.58319,-1.57013 -4.54687,-2.50126 -6.15402,-2.9181 l -2.36029,-0.61218 0.10035,-1.19311 c 0.0803,-0.95441 0.25618,-1.2152 0.87922,-1.3035 1.14386,-0.1621 5.22621,1.16297 8.30893,2.69696 3.64461,1.81359 3.97894,2.14802 3.76228,3.76329 -0.0963,0.71765 -0.30275,1.43256 -0.45888,1.58869 -0.15613,0.15613 -1.99105,-0.7538 -4.07759,-2.02205 z m 55.94774,1.94667 c -0.18674,-0.25207 -0.62522,-1.29135 -0.9744,-2.30952 -0.61272,-1.78665 -2.41706,-4.77055 -4.57942,-7.57317 -1.01223,-1.31194 -1.02004,-1.3492 -0.30583,-1.45808 2.40875,-0.36724 5.24003,3.39061 6.37698,8.46391 0.37849,1.68889 0.0316,3.61783 -0.51733,2.87686 z M 61.602439,171.67008 c 0,-0.1828 0.64372,-0.74026 1.430488,-1.2388 1.211107,-0.76743 1.965151,-0.94498 4.916809,-1.15772 2.750867,-0.19828 3.638417,-0.38986 4.207317,-0.90817 0.631233,-0.57511 0.987219,-0.62413 2.859375,-0.39374 3.568706,0.43918 3.751303,1.79969 0.192239,1.43236 -1.967677,-0.20308 -3.774889,0.11263 -3.304913,0.57736 0.165618,0.16376 1.049022,0.34471 1.96312,0.40209 1.583449,0.0994 1.634043,0.13215 1.070528,0.6927 -0.417069,0.41488 -0.759649,0.49835 -1.161845,0.2831 -0.313707,-0.16789 -0.946908,-0.32301 -1.407113,-0.34472 -0.460205,-0.0217 -1.669785,-0.0876 -2.687956,-0.14646 -1.982124,-0.11457 -5.347605,0.36975 -5.873415,0.84522 -0.441668,0.39938 -2.204634,0.36482 -2.204634,-0.0432 z m 133.074111,-0.93499 c -0.21009,-0.13601 -0.46814,-0.92887 -0.57343,-1.76192 -0.1053,-0.83305 -0.29136,-2.08764 -0.41346,-2.78797 l -0.22201,-1.27334 1.163,0.68619 c 1.84516,1.08867 2.47214,3.14237 1.41856,4.64657 -0.56156,0.80174 -0.77437,0.87778 -1.37266,0.49047 z M 82.171914,168.99651 c -0.628748,-0.38859 -0.230159,-0.91999 1.245827,-1.66096 0.682437,-0.3426 1.676165,-0.85962 2.208284,-1.14893 1.256422,-0.68313 1.958605,-0.40423 1.827549,0.72589 -0.08978,0.77416 -0.288459,0.90481 -1.616989,1.06331 -0.833048,0.0994 -1.894758,0.43374 -2.359354,0.74302 -0.525557,0.34987 -1.01875,0.45478 -1.305317,0.27767 z m -16.406706,-1.10518 c -0.412348,-0.66719 0.389879,-1.00667 2.023647,-0.85636 0.947837,0.0872 1.534011,0.092 1.302608,0.0106 -0.588064,-0.20685 -0.526668,-0.76506 0.08415,-0.76506 0.277683,0 0.504922,0.1136 0.504977,0.25244 1.35e-4,0.34358 1.992805,0.30596 3.029169,-0.0572 0.795367,-0.2787 0.804587,-0.30927 0.168293,-0.55798 -0.370244,-0.14472 -1.459415,-0.27377 -2.42038,-0.28679 -1.717429,-0.0232 -2.495822,-0.45916 -1.894208,-1.06077 0.376726,-0.37673 1.638011,-0.42384 2.939211,-0.10979 0.823504,0.19875 0.9466,0.14778 0.76788,-0.31795 -0.117061,-0.30506 -0.06138,-0.55466 0.123746,-0.55466 0.185122,0 0.416153,0.20736 0.513403,0.46078 0.102256,0.26648 0.917571,0.54785 1.933447,0.66724 2.301284,0.27047 4.459027,1.32461 4.715002,2.30346 0.331829,1.26892 -0.2783,1.43811 -2.200258,0.61014 -3.23097,-1.39189 -3.596319,-1.42684 -4.518068,-0.43226 -0.765073,0.82553 -1.032294,0.88932 -3.865517,0.92276 -1.673995,0.0197 -3.117189,-0.0831 -3.207099,-0.22859 z m 33.872165,-0.22885 c -1.017737,-0.364 -2.05859,-0.97532 -2.313005,-1.35849 -0.254415,-0.38317 -0.635378,-0.69667 -0.846584,-0.69667 -0.211205,0 -0.533524,-0.28549 -0.716263,-0.63443 -0.182739,-0.34893 -0.958778,-1.45516 -1.724531,-2.45829 -1.773607,-2.32341 -3.260101,-5.27189 -4.508894,-8.94345 -0.542256,-1.59428 -0.950958,-2.91561 -0.908227,-2.93628 1.204005,-0.58252 2.253761,-0.96558 2.854944,-1.04178 0.878677,-0.11137 1.482151,0.7643 1.219337,1.7693 -0.123805,0.47343 0.380282,1.36499 1.695947,2.99954 1.029664,1.27923 1.874032,2.42859 1.876375,2.55413 0.0023,0.12554 0.875174,0.55642 1.939626,0.9575 2.031082,0.76531 3.434132,0.75828 7.136542,-0.0357 1.53152,-0.32845 1.85547,-0.58046 3.67272,-2.85704 2.80419,-3.51298 6.77732,-12.05603 6.77732,-14.57263 0,-0.78594 1.41976,-1.94103 3.93106,-3.19825 0.95879,-0.47999 1.84244,-1.03319 1.96366,-1.22933 0.12122,-0.19615 0.84278,-0.74952 1.60347,-1.22972 0.76068,-0.48019 2.17567,-1.7046 3.14441,-2.72089 1.5338,-1.60908 1.89502,-1.82819 2.79597,-1.69596 0.56903,0.0835 1.0346,0.0266 1.0346,-0.12644 0,-0.15306 0.2243,-0.27829 0.49844,-0.27829 0.39687,0 0.45978,0.3258 0.30873,1.59878 -0.10434,0.87933 -0.31718,1.97744 -0.47298,2.44024 -0.15579,0.46281 -0.38588,1.44732 -0.51131,2.18781 -0.43531,2.56992 -0.53381,3.04284 -1.17047,5.61994 -0.97249,3.93652 -1.6843,5.11004 -3.42474,5.64626 -1.35395,0.41714 -2.18321,0.58551 -3.22369,0.65453 -0.23258,0.0154 -1.44921,2.11067 -2.70364,4.6561 -3.91351,7.94112 -8.11761,13.39811 -11.36843,14.75639 -2.06033,0.86086 -6.39258,0.94849 -8.560387,0.17316 z M 135.694,166.23896 c -2.48171,-1.34818 -3.7743,-1.82072 -6.05854,-2.21486 -3.00228,-0.51803 -3.39475,-0.75271 -3.40348,-2.03508 -0.004,-0.63736 0.17548,-0.75731 1.13525,-0.75731 1.71752,0 6.69621,1.5435 8.87813,2.75242 3.15569,1.74844 3.78147,2.2715 3.78147,3.16074 0,1.20086 -0.73924,1.0463 -4.33283,-0.90591 z M 29.028844,167.0378 c -1.236863,-1.08323 -1.875297,-4.2136 -0.933097,-4.57516 1.018418,-0.3908 1.846993,0.85383 2.037455,3.06053 0.191434,2.21797 -5.78e-4,2.48132 -1.104358,1.51463 z m 161.902866,-1.34634 c -0.22778,-0.98555 -0.24953,-1.72142 -0.0567,-1.91853 0.65928,-0.67394 1.18001,0.71022 1.03832,2.76 -0.0882,1.27593 -0.59207,0.844 -0.98161,-0.84147 z m -109.63738,0.59169 c -0.45765,-0.74049 1.928729,-2.99623 4.253226,-4.02038 2.140605,-0.94313 5.323378,-1.22765 6.179273,-0.5524 l 0.673171,0.53109 -0.673171,0.5313 c -0.46333,0.36568 -1.119082,0.48349 -2.103658,0.37793 -0.786769,-0.0844 -1.430488,-0.0389 -1.430488,0.10104 0,0.13992 -0.459389,0.44469 -1.020864,0.67726 -0.561475,0.23257 -1.867265,0.93253 -2.901754,1.55547 -1.96118,1.18096 -2.628744,1.36014 -2.975735,0.79869 z m -4.629696,-1.92667 c -1.703572,-0.25807 -0.949552,-0.76868 1.135116,-0.76868 1.793593,0 2.006408,0.0655 1.641713,0.50488 -0.41116,0.49542 -0.925379,0.54427 -2.776829,0.2638 z m 61.319886,-0.62785 c -0.76522,-0.92203 -4.0853,-2.38365 -6.74019,-2.96726 -2.04843,-0.45031 -3.45808,-0.51652 -7.10247,-0.33363 -5.0634,0.25411 -5.94821,-0.0364 -3.66228,-1.20264 2.48516,-1.26783 8.27301,-0.76989 13.71271,1.17975 1.45034,0.51982 3.02488,1.21137 3.49897,1.53678 0.4741,0.32541 1.25616,0.69059 1.73791,0.8115 0.86269,0.21652 0.86619,0.22956 0.23191,0.86384 -0.78294,0.78294 -1.10182,0.80418 -1.67656,0.11166 z m 25.95211,0.0422 c -0.46793,-0.56381 -0.19768,-1.19279 0.5125,-1.19279 0.5957,0 0.64097,0.55414 0.0643,0.78684 -0.33658,0.13582 -0.33658,0.17508 0,0.19634 0.47005,0.0297 0.59009,0.69975 0.12536,0.69975 -0.16245,0 -0.47842,-0.22056 -0.70214,-0.49014 z m -16.41443,-0.26718 c -0.45991,-0.58901 -1.08829,-2.9484 -1.63598,-6.14268 -0.12697,-0.74049 -0.38049,-1.53646 -0.56338,-1.76881 -0.18289,-0.23236 -0.31943,-1.06541 -0.30341,-1.85122 0.0353,-1.73491 0.92443,-6.0891 1.44005,-7.05253 0.20571,-0.38438 0.41823,-1.2453 0.47226,-1.91316 0.22271,-2.75278 2.31549,-11.65092 2.81246,-11.95807 0.12689,-0.0784 0.57,0.11334 0.98469,0.42613 0.71621,0.54024 0.76223,0.85501 0.91895,6.28465 0.37191,12.88457 0.39854,13.05529 2.29709,14.72765 l 1.05995,0.93367 -0.78665,0.58097 c -2.53616,1.87302 -3.28047,2.76336 -3.84629,4.60088 -0.32128,1.04334 -0.58414,2.26964 -0.58414,2.72512 0,0.68792 -0.16397,0.82813 -0.96854,0.82813 -0.5327,0 -1.11637,-0.18933 -1.29706,-0.42073 z m -73.914883,-0.14025 c -0.517549,-0.51754 -0.14447,-0.78536 1.094047,-0.78536 0.72514,0 2.03755,-0.30825 2.916467,-0.685 1.141313,-0.48922 1.701612,-0.58141 1.960457,-0.32257 0.466371,0.46637 -0.313341,0.99444 -1.483166,1.00449 -0.462805,0.004 -1.275301,0.23349 -1.805547,0.51003 -1.00967,0.52658 -2.300144,0.66053 -2.682258,0.27841 z m 8.10124,-0.98656 c -0.677275,-0.67728 1.33128,-2.89771 3.410282,-3.77002 2.496409,-1.04746 3.999282,-1.16188 4.796014,-0.36515 1.217068,1.21707 0.729705,1.61274 -3.068512,2.49118 -1.388414,0.32112 -3.025304,0.86765 -3.637532,1.21452 -1.255797,0.71149 -1.22659,0.70313 -1.500252,0.42947 z m 57.669333,-0.61107 c -0.57735,-0.69566 -6.53254,-3.23434 -8.8616,-3.77768 -2.39552,-0.55883 -8.02683,-0.64174 -9.6726,-0.14241 -1.58153,0.47984 -1.68515,0.4608 -1.68515,-0.30958 0,-0.44306 0.47035,-0.90629 1.4037,-1.38245 1.18791,-0.60602 1.98305,-0.71496 5.17223,-0.70858 3.93894,0.008 5.17661,0.28062 8.86677,1.95397 1.04029,0.47173 2.2701,1.02827 2.73291,1.23676 0.4628,0.20848 1.06865,0.55458 1.34634,0.7691 0.27768,0.21452 0.9033,0.48446 1.39027,0.59986 1.4589,0.34573 1.527,2.21191 0.0814,2.23154 -0.20874,0.003 -0.55717,-0.2089 -0.7743,-0.47053 z m 12.95031,-1.96456 c 0.50621,-1.66927 3.50368,-3.76738 4.2772,-2.99387 0.54285,0.54285 0.0677,1.26732 -1.74269,2.65728 -1.723,1.32285 -2.8802,1.47653 -2.53451,0.33659 z m -12.27995,-1.01101 c -2.25676,-1.47519 -2.92901,-1.84987 -3.74234,-2.08579 -0.45264,-0.13131 -2.1647,-0.7776 -3.80458,-1.43621 l -2.9816,-1.19748 -4.53346,0.17299 -4.53347,0.17299 0.21556,-0.88396 c 0.39135,-1.60494 1.30691,-2.18487 3.68878,-2.33654 5.52808,-0.352 16.84767,3.60219 17.47575,6.10468 0.20272,0.80769 -0.0634,2.24871 -0.41483,2.24663 -0.11725,-6.9e-4 -0.73367,-0.34148 -1.36981,-0.75731 z m -57.914104,-0.86138 c 0,-0.62005 1.965549,-2.05431 3.596997,-2.62473 1.694093,-0.59232 1.766301,-0.59182 2.439055,0.017 0.52963,0.4793 0.60438,0.73452 0.316669,1.08119 -0.207136,0.24958 -0.63728,0.45379 -0.955875,0.45379 -0.318596,0 -1.459737,0.30292 -2.53587,0.67317 -2.109002,0.7256 -2.860976,0.83062 -2.860976,0.39956 z m -52.675609,-0.73615 c -0.114412,-0.18512 -0.05656,-0.33658 0.128564,-0.33658 0.185122,0 0.430195,0.15146 0.544606,0.33658 0.114412,0.18512 0.05656,0.33659 -0.128564,0.33659 -0.185122,0 -0.430195,-0.15147 -0.544606,-0.33659 z m 69.504878,-0.50488 c -0.230457,-0.27768 -0.676991,-0.50487 -0.992298,-0.50487 -0.62274,0 -2.036971,-1.33375 -2.036971,-1.92105 0,-0.19967 -0.212411,-0.44454 -0.472025,-0.54416 -0.543525,-0.20857 -1.989912,-3.84179 -1.763897,-4.43077 0.08302,-0.21635 1.566713,-0.8953 3.297093,-1.50878 4.913703,-1.74208 11.697013,-4.73149 13.916883,-6.13318 2.16159,-1.36489 3.53414,-1.64968 3.53414,-0.73327 0,0.98554 -1.66947,5.20499 -3.36683,8.50941 -2.22433,4.33031 -4.2677,6.50762 -6.78253,7.22711 -2.41767,0.69168 -4.777826,0.70919 -5.333565,0.0396 z m 58.397565,-1.37648 -0.67318,-0.51361 0.67318,-0.4013 c 1.55548,-0.92725 3.87073,-1.20238 3.87073,-0.45996 0,0.72128 -1.48927,1.91079 -2.37779,1.89919 -0.45088,-0.006 -1.1227,-0.24183 -1.49294,-0.52432 z m -75.027037,-0.0872 c -0.273296,-0.4422 1.043922,-1.68198 2.380277,-2.24035 1.565341,-0.65404 2.774011,-0.63988 3.033195,0.0356 0.242956,0.63313 -0.416408,1.13166 -1.506357,1.13892 -0.425467,0.003 -1.400563,0.30808 -2.166879,0.67833 -1.611992,0.77883 -1.512159,0.75659 -1.740236,0.38755 z m 59.140097,-0.14217 c -0.27486,-0.43684 -4.23404,-2.35056 -7.43373,-3.59318 -0.98351,-0.38196 -3.50484,-0.87421 -5.63781,-1.1007 -2.12223,-0.22536 -3.85561,-0.49048 -3.85196,-0.58916 0.004,-0.0987 0.84878,-0.67167 1.87807,-1.27332 2.42647,-1.41834 3.99696,-1.42637 7.63469,-0.039 2.9057,1.10815 7.30208,3.60134 7.30699,4.14379 0.002,0.175 0.39808,0.73068 0.88111,1.23485 0.87304,0.91125 0.85525,1.64455 -0.0399,1.64455 -0.25755,0 -0.58941,-0.19251 -0.73745,-0.42779 z m 13.68922,-1.6975 c -1.27757,-0.63015 -2.04894,-3.38708 -2.18351,-7.80398 -0.0944,-3.09863 -0.0415,-3.60544 0.32431,-3.10765 0.24042,0.32714 0.54376,1.53734 0.6741,2.68935 0.13033,1.15201 0.39641,2.28667 0.59127,2.52147 0.19487,0.2348 0.2716,0.93661 0.17051,1.55957 -0.1571,0.96807 -0.0412,1.23811 0.79788,1.85845 0.96988,0.71706 1.21458,1.50109 0.71419,2.28832 -0.20004,0.3147 -0.44201,0.31348 -1.08875,-0.006 z m -13.08824,-2.27129 c -0.44704,-0.37491 -1.02076,-0.60185 -1.27494,-0.50431 -0.25418,0.0975 -0.54614,-0.0415 -0.64879,-0.30905 -0.10266,-0.26751 -0.47469,-0.57781 -0.82673,-0.68954 -0.35205,-0.11174 -0.83031,-0.38651 -1.06281,-0.61061 -0.45098,-0.43468 -6.08643,-2.39598 -7.91175,-2.75352 -1.1508,-0.22542 -1.45579,-1.01061 -0.69,-1.77639 0.56795,-0.56795 3.17981,-0.50206 5.3411,0.13474 1.88372,0.55502 8.04997,3.86125 8.73034,4.68104 0.52175,0.62867 0.2846,2.32877 -0.33876,2.42851 -0.27768,0.0444 -0.87063,-0.22596 -1.31766,-0.60087 z m 17.47376,-0.6522 c 0,-0.7451 -0.34713,-0.86458 -0.90143,-0.31028 -0.1996,0.1996 -0.78913,0.3132 -1.31007,0.25244 -0.7386,-0.0861 -0.99767,-0.3328 -1.17654,-1.12021 -0.41856,-1.84255 -0.9997,-7.35459 -1.16121,-11.014 l -0.15929,-3.60912 1.85593,-1.18722 c 1.02076,-0.65297 1.95098,-1.18722 2.06716,-1.18722 0.26754,0 2.6535,-1.92137 5.57158,-4.48667 1.31821,-1.15885 2.46013,-1.91218 2.73731,-1.80582 0.26156,0.10037 0.61239,0.76103 0.77961,1.46813 0.16723,0.70711 0.53231,1.32961 0.8113,1.38333 0.78019,0.15025 3.6222,-2.23772 4.55254,-3.82524 0.74782,-1.27604 0.80833,-1.64793 0.59963,-3.685 -0.1801,-1.7579 -0.13658,-2.23388 0.1942,-2.12362 0.49614,0.16538 1.04585,1.53289 3.5553,8.84452 2.0322,5.92107 2.04652,6.26671 0.36362,8.77427 -1.05059,1.5654 -9.25667,9.92927 -9.74195,9.92927 -0.18029,0 -0.82425,0.37866 -1.43102,0.84146 -0.60677,0.4628 -1.24131,0.84146 -1.41009,0.84146 -0.16879,0 -0.59542,0.32256 -0.94807,0.71679 -0.71768,0.8023 -3.21423,1.9759 -4.20324,1.9759 -0.42088,0 -0.64527,-0.2341 -0.64527,-0.67317 z M 76.363141,149.7506 c -2.52704,-0.32608 -6.495653,-2.01373 -7.014301,-2.98284 -1.10016,-2.05566 -2.310847,-14.54843 -1.532027,-15.80858 0.13236,-0.21417 1.61583,-0.35674 3.711797,-0.35674 3.059651,0 3.835864,0.12704 6.277967,1.02747 1.532655,0.56511 2.944024,1.15092 3.136376,1.3018 0.192351,0.15089 1.159256,0.53851 2.148676,0.86139 3.981035,1.29913 12.863332,-0.63924 19.574221,-4.27165 1.38842,-0.75151 3.21562,-1.71688 4.06044,-2.14527 1.7476,-0.88616 6.7103,-5.37899 6.7103,-6.07497 0,-0.25286 0.19706,-0.45975 0.43791,-0.45975 0.66784,0 3.125,-4.31567 8.04877,-14.13658 4.0701,-8.118175 4.55351,-8.928938 5.38082,-9.024411 1.854,-0.213957 2.17607,0.242613 3.8426,5.447271 0.34809,1.08709 0.97915,2.35015 1.40237,2.8068 0.6959,0.7509 0.93731,0.80827 2.52484,0.59999 0.96545,-0.12667 2.09083,-0.44308 2.50084,-0.70315 1.52709,-0.96861 1.80443,-0.64837 1.12086,1.29423 -1.78399,5.06989 -5.95093,13.73895 -9.16261,19.06226 -2.78436,4.61502 -8.87233,9.30504 -17.61104,13.56711 -1.11073,0.54173 -2.24671,1.12116 -2.52439,1.28761 -1.29893,0.77865 -4.25239,2.10925 -6.6342,2.98886 -1.44204,0.53256 -3.68214,1.42554 -4.977994,1.98441 -3.472933,1.49779 -5.228742,2.03145 -10.265854,3.12022 -4.675607,1.01063 -7.066158,1.14231 -11.156371,0.61452 z m 67.241679,-2.15771 c -0.11406,-0.29724 -0.36075,-0.44565 -0.5482,-0.3298 -0.18745,0.11585 -0.98371,-0.29694 -1.76945,-0.91731 -1.46552,-1.15708 -3.60001,-2.25698 -4.79449,-2.4706 -1.38952,-0.2485 -6.06928,-1.60527 -6.334,-1.83636 -0.1515,-0.13226 -0.0424,-0.79824 0.24243,-1.47995 0.49624,-1.18768 0.57104,-1.23066 1.79009,-1.02859 0.69972,0.11599 1.65087,0.33775 2.11368,0.4928 0.4628,0.15506 1.53424,0.44199 2.38098,0.63764 3.06837,0.70896 7.93223,3.45023 8.25568,4.65288 0.395,1.46868 -0.83981,3.5742 -1.33672,2.27929 z m 0.34416,-4.87338 c -0.63252,-0.55536 -1.33937,-1.00975 -1.57076,-1.00975 -0.23139,0 -0.89298,-0.28418 -1.4702,-0.6315 -1.2627,-0.75978 -5.07418,-2.04135 -7.58086,-2.54898 -1.88726,-0.38218 -2.64711,-1.04452 -2.28397,-1.99085 0.26684,-0.69538 1.4479,-0.70277 4.08107,-0.0256 1.12288,0.28879 2.64745,0.68017 3.38794,0.86974 2.12868,0.54497 4.88201,1.99946 6.25207,3.30276 1.0198,0.97011 1.22544,1.373 1.0825,2.12076 -0.22361,1.16976 -0.48018,1.15805 -1.89779,-0.0866 z m 1.12716,-3.36209 c -2.16011,-1.7691 -8.91842,-4.36221 -11.44443,-4.39114 -0.46281,-0.005 -1.14366,-0.238 -1.513,-0.5171 -0.57605,-0.43532 -0.59998,-0.5527 -0.16829,-0.82561 0.55872,-0.35321 1.00743,-0.44972 1.51299,-0.3254 0.18513,0.0455 1.04214,0.0566 1.90449,0.0246 3.06719,-0.11373 5.76232,0.60587 8.57047,2.28833 2.50349,1.49992 2.65787,1.66097 2.75898,2.87832 0.14802,1.78205 -0.24691,1.99349 -1.62121,0.86797 z m 8.07752,-2.35986 c 0,-0.92561 0.15146,-1.68293 0.33658,-1.68293 0.18513,0 0.33659,0.75732 0.33659,1.68293 0,0.92561 -0.15146,1.68293 -0.33659,1.68293 -0.18512,0 -0.33658,-0.75732 -0.33658,-1.68293 z m -8.58293,-2.5315 c -3.09407,-1.48041 -6.2804,-2.24363 -9.57961,-2.29462 l -2.67959,-0.0414 0.20175,-0.84794 c 0.31154,-1.30941 0.35191,-1.33016 2.22171,-1.14188 3.34585,0.33693 5.47492,0.87274 8.82599,2.22122 3.74795,1.50818 4.33063,1.90363 4.01538,2.72516 -0.27218,0.70928 -0.1915,0.72593 -3.00563,-0.62052 z m 7.50065,-1.78151 c -0.98059,-1.17288 -1.4489,-2.27944 -1.34138,-3.16953 0.10781,-0.89251 0.13477,-0.90358 0.93076,-0.38202 0.45085,0.29541 0.81973,0.68474 0.81973,0.86517 0,0.74126 1.514,1.56019 2.52439,1.36545 0.98452,-0.18975 2.52439,-1.48591 2.52439,-2.12486 0,-0.57947 -0.99611,-0.33197 -1.42446,0.35392 -0.49347,0.79018 -1.68443,0.88348 -2.27006,0.17784 -0.42387,-0.51073 -0.62397,-1.14989 -1.53097,-4.89003 -0.2918,-1.20329 -0.75007,-2.95844 -1.01838,-3.90032 -0.26831,-0.94188 -0.48784,-1.99776 -0.48784,-2.3464 0,-0.59776 10.26669,-10.91914 10.86129,-10.91914 0.14457,0 0.35481,0.45977 0.4672,1.02171 0.32291,1.61457 1.23838,1.87626 2.65243,0.75822 0.6528,-0.51616 1.48886,-1.44591 1.8579,-2.06611 0.36904,-0.62021 0.94104,-1.19828 1.27112,-1.28459 0.33007,-0.0863 0.88019,-0.67699 1.22248,-1.3126 0.3423,-0.63561 0.74649,-1.15565 0.89819,-1.15565 0.52441,0 1.23649,1.5309 2.61239,5.61643 1.31153,3.89436 1.74375,6.50064 1.07805,6.50064 -0.16683,0 -0.59609,0.49226 -0.9539,1.09391 -1.72521,2.90087 -12.23329,12.95058 -14.95267,14.30042 -0.8342,0.41408 -1.77661,1.04004 -2.09426,1.39104 -0.75164,0.83056 -2.98648,0.89583 -3.6464,0.1065 z m -6.99577,-0.90813 c -2.6581,-1.37685 -9.17959,-2.87235 -14.38902,-3.29966 -1.00745,-0.0826 -0.95988,-0.75535 0.10265,-1.45155 0.7765,-0.50878 1.2397,-0.52291 4.77146,-0.14556 3.64963,0.38994 4.1948,0.54914 8.14368,2.37807 3.58577,1.66075 4.23221,2.07594 4.23221,2.71828 0,1.09611 -0.41553,1.06712 -2.86098,-0.19958 z m -56.882927,0.38187 c 0,-0.25502 0.247049,-0.6687 0.548998,-0.9193 0.686058,-0.56937 3.977165,-4.89119 5.644205,-7.41185 1.144612,-1.73073 1.441419,-1.95663 3.427278,-2.60854 1.195778,-0.39255 2.305466,-0.71372 2.465976,-0.71372 0.16051,0 2.66532,-1.14879 5.56624,-2.55286 2.90093,-1.40407 5.47299,-2.47666 5.71569,-2.38353 0.76902,0.2951 0.87788,3.89817 0.16075,5.32079 -0.71576,1.4199 -3.41374,3.88357 -5.45558,4.98178 -3.68691,1.98301 -9.297541,4.73138 -9.658843,4.73138 -0.221772,0 -0.880503,0.21501 -1.463846,0.4778 -1.267934,0.57119 -5.180351,1.54171 -6.215055,1.54171 -0.404697,0 -0.735813,-0.20865 -0.735813,-0.46366 z m -3.029946,-0.48166 c -0.278056,-0.128 -1.829786,-1.12147 -3.448289,-2.20771 -2.87392,-1.9288 -3.03919,-1.99107 -7.067615,-2.66326 l -4.124882,-0.68828 -2.303534,0.93192 c -1.266944,0.51256 -2.428688,0.80225 -2.581654,0.64375 -0.539924,-0.55944 -3.961506,-10.47074 -4.237269,-12.2741 -0.124263,-0.81262 -0.365021,-1.74827 -0.535018,-2.07922 -0.393654,-0.76638 -0.03742,-1.92266 0.592352,-1.92266 0.265208,0 0.482196,-0.23698 0.482196,-0.52662 0,-0.75667 1.375975,-3.84899 1.712664,-3.84899 0.155884,0 0.793485,0.44784 1.416892,0.9952 0.84018,0.73769 1.822998,1.13812 3.798297,1.54753 4.208087,0.87221 5.02472,0.69388 11.079464,-2.41944 0.92561,-0.47594 3.12183,-2.18912 4.880488,-3.80707 1.758659,-1.61795 3.528397,-3.11709 3.932751,-3.33141 1.248997,-0.662026 2.906053,-0.451641 4.523897,0.57437 1.802076,1.14284 2.661589,2.17394 3.868525,4.64083 0.812627,1.66095 0.878731,2.08553 0.720237,4.62599 -0.142059,2.27703 -0.466464,3.54182 -1.744499,6.80145 -2.425006,6.18498 -2.977397,7.10764 -7.836968,13.08997 -1.640929,2.02005 -2.183388,2.35262 -3.128035,1.91775 z m -8.750542,-1.8308 c -1.672328,-0.60256 -3.525781,-0.74604 -6.395122,-0.49505 -0.683041,0.0598 -0.860918,-0.0945 -0.944799,-0.81917 -0.09309,-0.80427 0.03037,-0.91537 1.245266,-1.12063 2.413174,-0.4077 10.13368,1.6863 10.13368,2.74852 0,0.63019 -1.809486,0.48967 -4.039025,-0.31367 z m 70.307585,-0.2077 c -2.43723,-1.90593 -6.29514,-3.23589 -10.90027,-3.75772 -1.85122,-0.20977 -3.46362,-0.4827 -3.58312,-0.60651 -0.1195,-0.12382 -0.0865,-0.56591 0.0733,-0.98244 0.25547,-0.66583 0.52567,-0.75647 2.23678,-0.7503 5.50594,0.0198 14.23158,3.73818 14.23158,6.06463 0,0.85046 -0.99216,0.86604 -2.05827,0.0323 z m 0.20705,-3.46408 c -2.23841,-1.50018 -5.23453,-2.61576 -8.91951,-3.32108 -2.12891,-0.40748 -4.01105,-0.87172 -4.18254,-1.03165 -0.1875,-0.17486 -0.0533,-0.57828 0.33659,-1.01198 0.58006,-0.6452 0.89667,-0.70244 3.00448,-0.54326 2.42744,0.18333 4.57035,0.88644 8.07805,2.65048 2.51023,1.26241 3.53415,2.18971 3.53415,3.20065 0,0.9436 -0.50497,0.9591 -1.85122,0.0568 z m 21.57747,0.19354 c -0.54543,-1.42138 -0.18499,-2.4892 1.42517,-4.22209 1.8189,-1.95753 2.74614,-2.06786 2.74614,-0.32676 0,1.45085 -0.46409,2.45554 -1.77759,3.84826 -1.2445,1.31955 -2.06414,1.55945 -2.39372,0.70059 z m -22.26558,-4.37995 c -1.95724,-1.32821 -4.20299,-2.06436 -8.6717,-2.84256 -2.31135,-0.4025 -2.68995,-0.79311 -1.93128,-1.99253 0.26541,-0.4196 0.74388,-0.43389 3.27655,-0.0978 3.77188,0.50051 6.45809,1.52128 8.17537,3.10666 1.33191,1.22962 1.81974,2.69958 0.89589,2.69958 -0.25184,0 -1.03702,-0.393 -1.74483,-0.87334 z m -49.631403,-2.31812 c 0,-0.23497 0.394027,-1.31698 0.875616,-2.40447 2.145179,-4.84407 2.433183,-11.47536 0.591356,-13.61594 -0.251469,-0.29226 -0.457216,-0.91174 -0.457216,-1.37662 0,-0.68894 0.251238,-0.92815 1.358699,-1.29364 l 1.358698,-0.44841 1.42336,1.39692 c 0.82823,0.81284 1.89042,1.49034 2.5404,1.62033 1.71476,0.34296 4.28254,3.16132 5.86011,6.432 0.73482,1.52347 1.25259,2.98742 1.15059,3.25322 -0.24486,0.63811 -3.77827,2.59501 -7.68724,4.25741 -1.729,0.73531 -3.40358,1.48528 -3.721291,1.66661 -0.317708,0.18133 -1.188622,0.46697 -1.935366,0.63475 -1.033005,0.2321 -1.357716,0.20288 -1.357716,-0.12216 z m 16.896613,-3.47637 C 113.28177,115.11756 113.1,113.79 113.1,113.24302 c 0,-2.20534 -3.67799,-8.44541 -5.7481,-9.75221 -1.40507,-0.88698 -1.63262,-1.49299 -0.81531,-2.1713 0.73964,-0.61385 0.61819,-1.459129 -0.33886,-2.358225 l -0.84373,-0.792643 -0.94176,0.902265 c -1.04703,1.003123 -2.53529,1.258923 -2.19711,0.377638 0.19198,-0.500299 6.76156,-3.8447 8.52877,-4.341775 0.46281,-0.130176 1.48353,-0.527392 2.26829,-0.882702 1.71893,-0.778281 2.67099,-0.801403 5.80996,-0.141099 2.8618,0.601997 3.70149,1.005214 3.70446,1.778873 0.001,0.31745 0.30315,1.031573 0.67095,1.586938 0.36781,0.555366 0.66973,1.264356 0.67095,1.575533 0.003,0.708801 -8.22328,17.471887 -9.17838,18.703737 -0.56869,0.73346 -0.77203,0.47034 -1.1862,-1.5349 z m 30.39363,0.59083 c -0.37024,-0.14895 -1.09766,-0.28146 -1.61648,-0.29447 -1.78,-0.0446 -5.6201,-1.07851 -5.6201,-1.5131 0,-0.23416 0.27258,-0.67242 0.60575,-0.97393 0.56046,-0.50722 0.80786,-0.49993 3.30907,0.0975 3.42556,0.81817 4.49981,1.31079 4.49981,2.06348 0,0.7758 -0.343,0.95648 -1.17805,0.62055 z m 3.06798,-0.81116 c -0.29897,-0.45629 -0.54591,-1.10001 -0.54874,-1.43049 -0.003,-0.33048 -0.14029,-0.81433 -0.30545,-1.07522 -0.39655,-0.62641 -0.0885,-1.37973 0.47566,-1.16324 0.48497,0.1861 1.85445,3.11931 1.85445,3.97194 0,0.80489 -0.86657,0.62699 -1.47592,-0.30299 z m 4.84178,-1.61881 c 0,-0.83435 -0.64928,-1.04338 -1.32931,-0.42796 -0.57574,0.52104 -0.6582,0.49887 -1.33245,-0.3583 -0.3953,-0.50254 -0.80113,-1.30563 -0.90184,-1.78463 -0.10072,-0.47901 -0.39181,-1.25848 -0.64686,-1.73216 -0.25506,-0.47368 -0.78623,-2.13977 -1.18039,-3.70244 -0.39415,-1.56266 -0.78568,-3.0877 -0.87005,-3.38898 -0.10441,-0.37281 0.3755,-0.88718 1.50241,-1.61032 2.19707,-1.409858 3.22336,-2.391888 4.94792,-4.734541 2.03308,-2.761741 2.36119,-3.504751 3.02603,-6.852422 0.36055,-1.815442 0.89174,-3.383282 1.36746,-4.036153 1.29636,-1.779068 3.08593,-5.400767 3.19345,-6.462841 0.0561,-0.553992 -0.16753,-1.4065 -0.50147,-1.911779 -0.61148,-0.92523 -0.52253,-2.723826 0.15544,-3.142831 0.17064,-0.105462 0.81876,0.915179 1.44026,2.268092 0.62151,1.352912 1.5914,3.444353 2.15532,4.647645 3.14233,6.705146 4.79746,11.412779 4.7903,13.624942 -0.011,3.409598 -5.17389,10.001288 -15.6691,20.005548 -0.0809,0.0771 -0.14712,-0.10326 -0.14712,-0.40087 z m -10.43415,-1.08572 c -0.64793,-0.24951 -1.6703,-0.46518 -2.27195,-0.47927 -1.18694,-0.0278 -1.36637,-0.479 -0.59535,-1.49713 0.41608,-0.54943 0.75636,-0.60016 2.65922,-0.39638 1.78604,0.19127 2.27785,0.37984 2.70972,1.03895 1.17048,1.78639 0.12334,2.34471 -2.50164,1.33383 z m -0.43792,-3.4468 c -1.8316,-0.11441 -1.93882,-0.1678 -1.73095,-0.86197 0.12188,-0.407 0.39754,-0.92679 0.61258,-1.15508 0.83062,-0.88183 4.37045,0.91625 3.7572,1.9085 -0.12162,0.19678 -0.32578,0.32915 -0.4537,0.29415 -0.12792,-0.035 -1.11122,-0.11853 -2.18513,-0.1856 z m -71.923833,-1.53683 c -2.040733,-0.69835 -1.628748,-2.58954 0.564119,-2.58954 0.63743,0 1.458981,0.16057 1.82567,0.35681 0.36669,0.19625 1.302068,0.46528 2.07862,0.59785 2.198971,0.37539 2.027087,1.17565 -0.358336,1.66836 -2.351982,0.48579 -2.598532,0.48378 -4.110073,-0.0335 z m 94.251243,-0.72453 c -0.63928,-0.77029 -0.13034,-2.21699 1.51937,-4.31889 1.9048,-2.42691 3.18138,-2.53385 3.18138,-0.26651 0,0.9171 -3.30991,5.02436 -4.08195,5.06529 -0.11618,0.006 -0.39464,-0.20979 -0.6188,-0.47989 z m -22.15706,-1.27697 c -0.24605,-0.29648 -0.21186,-0.67133 0.11515,-1.2622 0.36083,-0.65198 0.46783,-0.706 0.47708,-0.24088 0.007,0.32977 0.23912,0.68677 0.5168,0.79332 0.27769,0.10656 0.50488,0.40473 0.50488,0.66261 0,0.5835 -1.14111,0.61684 -1.61391,0.0472 z m -7.51507,-1.47912 c -0.66835,-0.80531 -0.0528,-1.35309 2.01323,-1.79153 3.23249,-0.68598 4.16246,0.19256 1.56481,1.47828 -1.58695,0.78548 -3.07781,0.916 -3.57804,0.31325 z m -62.227115,-1.48166 c -2.982196,-0.27488 -4.371931,-0.80844 -6.824104,-2.61997 -2.245144,-1.658586 -3.643062,-3.280817 -3.391678,-3.935914 0.104633,-0.27267 0.211903,-0.512618 0.238378,-0.533216 0.02647,-0.0206 1.638501,-0.161561 3.582282,-0.31325 1.94378,-0.15169 5.881829,-0.463645 8.751219,-0.693233 2.86939,-0.229589 6.883171,-0.429419 8.919512,-0.444067 4.378165,-0.03149 4.402189,0.01002 1.976163,3.414588 -3.013324,4.228752 -6.855398,5.714662 -13.251772,5.125062 z m 69.736555,-1.50726 c -0.61306,-0.4362 -1.97623,-0.97125 -3.02927,-1.18901 -3.57882,-0.740079 -7.19152,-2.370473 -8.00685,-3.613464 -0.4688,-0.714684 -0.7088,-0.76543 -3.19552,-0.675666 -1.92041,0.06932 -2.76537,-0.02709 -2.95716,-0.337404 -0.18139,-0.293501 0.70806,-1.436462 2.74147,-3.52283 l 3.00998,-3.088373 -2.0171,-1.86004 c -1.1094,-1.023022 -2.4004,-2.390162 -2.86888,-3.038089 -1.15885,-1.602743 -3.59859,-7.310804 -3.59859,-8.419326 0,-1.049417 3.14185,-4.226154 5.89024,-5.955653 2.4248,-1.525869 10.22094,-3.343878 10.73974,-2.504438 0.11544,0.186791 1.07843,0.440856 2.13996,0.564588 1.06153,0.123732 2.71242,0.574473 3.66864,1.001648 2.86795,1.281204 6.17117,3.959331 6.17117,5.003343 0,0.09271 -1.33727,0.08192 -2.97171,-0.02397 -2.65403,-0.171947 -3.26324,-0.09347 -5.69865,0.734144 -4.40871,1.498177 -7.39972,4.548661 -8.34732,8.5133 -0.81529,3.411082 -0.64645,5.088718 0.7487,7.439271 1.52627,2.571474 3.66928,4.588862 5.37887,5.063563 2.20426,0.612059 7.62177,0.453955 9.72047,-0.283682 1.65693,-0.582363 1.84282,-0.592676 1.84282,-0.102238 0,1.01222 -1.6658,2.958677 -3.5344,4.129895 -1.02135,0.640167 -2.40659,1.580467 -3.07832,2.089547 -0.67172,0.50909 -1.31408,0.91264 -1.42747,0.89679 -0.11339,-0.0159 -0.70775,-0.38571 -1.32082,-0.82191 z m -8.58711,-0.29441 c -0.23676,-0.61699 0.049,-0.87437 0.97064,-0.87437 0.61981,0 1.15796,0.56029 1.15796,1.20558 0,0.38358 -1.97206,0.0767 -2.1286,-0.33121 z M 92.880882,96.279528 c -1.430634,-0.75734 -2.135232,-1.52994 -1.836336,-2.013564 0.130429,-0.211039 1.76014,-0.35133 4.081267,-0.35133 2.125274,0 5.316837,-0.161986 7.092367,-0.359969 1.77552,-0.197983 3.35472,-0.233476 3.50932,-0.07887 0.1546,0.154601 -0.95693,0.949774 -2.47007,1.76705 -2.63697,1.424283 -2.88445,1.489838 -5.96283,1.579488 -2.625547,0.07646 -3.431045,-0.0226 -4.413718,-0.5428 z M 51.417015,95.251543 c -0.696252,-0.122315 -1.344586,-0.301065 -1.440742,-0.397221 -0.09616,-0.09616 0.511371,-1.653288 1.350059,-3.460293 0.838688,-1.807005 1.524888,-3.502671 1.524888,-3.768147 0,-0.265476 0.146578,-0.392093 0.325729,-0.281372 0.179151,0.110722 0.847818,-0.826986 1.485926,-2.083794 0.638109,-1.256809 1.476043,-2.548685 1.862076,-2.870836 0.386033,-0.322152 0.701878,-0.798859 0.701878,-1.059351 0,-0.481014 1.509539,-0.831227 6.563415,-1.522714 1.295854,-0.177303 6.975732,-0.490266 12.621951,-0.695475 5.64622,-0.205209 12.65363,-0.593764 15.572023,-0.863455 2.918393,-0.269692 8.036822,-0.490348 11.374292,-0.490348 3.33747,0 8.19544,-0.234647 10.79549,-0.521437 3.5539,-0.392002 4.84216,-0.426165 5.18983,-0.137628 0.25435,0.211094 0.77538,1.220181 1.15785,2.242414 0.38247,1.022234 1.1455,2.765808 1.69564,3.874609 0.55013,1.108802 1.00024,2.133547 1.00024,2.277212 0,0.143665 -0.44923,0.447287 -0.99829,0.674716 -0.54907,0.227429 -1.72291,1.075515 -2.60854,1.884635 l -1.61024,1.471128 -2.76099,0.0074 c -2.56129,0.0069 -4.4756,0.449657 -4.4756,1.035192 0,0.493137 0.96758,0.594883 3.06996,0.322823 7.34363,-0.950311 9.42657,-1.137099 11.65565,-1.045224 0.8457,0.03486 1.05802,1.104594 0.33659,1.695796 -2.2269,1.824898 -2.67008,2.086264 -3.19559,1.884606 -3.02531,-1.160919 -15.17325,-1.519862 -27.68612,-0.818059 -3.609878,0.202466 -7.818299,0.340318 -9.352047,0.306338 -2.64464,-0.05859 -7.545027,0.274625 -15.050392,1.023392 -1.851219,0.184686 -4.577561,0.406201 -6.058536,0.492256 -1.480976,0.08606 -3.752927,0.303778 -5.048781,0.483829 -3.335025,0.463383 -6.520874,0.598419 -7.997619,0.338989 z m 89.787865,-0.701997 c -2.0266,-0.462454 -4.75384,-1.736876 -5.08874,-2.377939 -2.11093,-4.040748 -2.2196,-4.390123 -2.08829,-6.71395 0.1448,-2.562661 1.05576,-4.257519 2.17557,-4.047719 2.6519,0.496844 3.43256,0.444764 3.80649,-0.253943 0.20746,-0.387626 0.60291,-0.704775 0.87879,-0.704775 0.3967,0 0.48221,-0.402179 0.40889,-1.923079 l -0.0927,-1.923079 1.51463,-0.583007 c 2.92218,-1.124793 6.82862,-0.465618 8.77926,1.481419 2.06935,2.065534 3.35114,8.721939 2.1331,11.077356 l -0.53154,1.027888 -0.65962,-0.708017 c -0.84839,-0.910638 -1.60521,-0.894116 -3.02386,0.06601 -1.10008,0.744522 -1.14404,0.856795 -1.15315,2.945122 l -0.009,2.171093 -1.16858,0.401734 c -1.36943,0.470783 -3.97598,0.499542 -5.88077,0.06489 z m 9.00366,-2.197941 c -0.59074,-0.24711 -0.52422,-1.651257 0.10818,-2.283661 0.64914,-0.649139 0.85153,-0.656016 1.67105,-0.05678 0.5365,0.3923 0.58892,0.63421 0.30999,1.430488 -0.32612,0.93099 -1.16523,1.296462 -2.08922,0.909948 z M 136.99756,80.082447 c 0,-0.846915 1.43088,-2.359504 2.13643,-2.258429 0.92661,0.132744 1.11459,1.15112 0.3653,1.979074 -0.62387,0.689362 -2.50173,0.899053 -2.50173,0.279355 z m 20.53171,-0.789412 c 0,-0.288608 0.15146,-0.524742 0.33658,-0.524742 0.18513,0 0.33659,0.142524 0.33659,0.316721 0,0.174196 -0.15146,0.41033 -0.33659,0.524742 -0.18512,0.114412 -0.33658,-0.02811 -0.33658,-0.316721 z M 58.418482,79.128031 c -0.809077,-0.157034 -1.04237,-0.4144 -1.242259,-1.370443 -0.13536,-0.647405 -0.192779,-1.755054 -0.127598,-2.461441 0.06518,-0.706387 -0.02006,-1.766631 -0.189418,-2.356098 -0.441776,-1.537619 -0.426419,-9.189181 0.02715,-13.525415 0.519287,-4.964543 1.925824,-13.450047 2.531536,-15.272515 0.269171,-0.809883 0.411289,-1.598905 0.315817,-1.753382 -0.09547,-0.154476 -0.02904,-0.552089 0.147636,-0.883582 0.176672,-0.331494 0.744876,-1.66296 1.262676,-2.958814 0.517799,-1.295853 1.33189,-3.037682 1.80909,-3.870731 0.4772,-0.833049 1.144544,-2.271951 1.482987,-3.197561 1.510597,-4.131348 4.560311,-7.389605 8.005689,-8.553128 1.144885,-0.386633 2.57246,-0.70297 3.17239,-0.70297 0.59993,0 1.517167,-0.164029 2.038304,-0.36451 2.236418,-0.860346 14.736043,-0.301295 23.170801,1.036323 4.7903,0.759667 15.97742,4.026184 19.27385,5.627757 4.32086,2.099296 9.11251,9.020573 13.73117,19.833922 1.70341,3.98806 1.74065,5.139085 0.15877,4.906914 -0.52185,-0.07659 -1.05129,0.02656 -1.17655,0.22922 -0.12525,0.202663 0.0183,1.315331 0.31892,2.472596 0.71247,2.742442 1.8007,9.401389 1.61592,9.888023 -0.0791,0.208463 -1.00582,0.606314 -2.05927,0.884112 -5.53783,1.460345 -10.59542,4.53847 -12.56544,7.647502 -0.46454,0.733126 -0.84504,0.858466 -3.18508,1.04919 -1.46164,0.11913 -4.24789,0.380917 -6.19167,0.581749 -1.94378,0.200832 -6.64168,0.431872 -10.43978,0.513422 l -6.905628,0.148273 1.078162,-1.143184 c 0.92002,-0.975506 1.053719,-1.328128 0.911523,-2.404076 -0.956015,-7.233808 -5.894871,-18.69492 -11.936272,-27.699322 -1.546487,-2.30496 -3.033101,-4.418033 -3.303585,-4.695716 -0.270484,-0.277683 -1.173998,-1.565122 -2.007808,-2.860975 -3.906781,-6.071665 -5.80103,-7.731917 -8.442931,-7.399978 -2.868622,0.360426 -3.975485,1.455606 -6.031061,5.967402 -0.527658,1.15816 -1.153335,2.7116 -1.390391,3.452088 -0.237057,0.740488 -0.560563,1.725 -0.718902,2.187805 -0.71923,2.102213 -2.020071,7.705629 -2.078241,8.952093 -0.03539,0.758407 -0.23944,1.591456 -0.453436,1.851219 C 58.507953,53.512096 57.9,59.783113 57.9,64.493823 c 0,2.103295 -0.14289,3.834062 -0.321683,3.896421 -0.201242,0.07019 -0.207137,0.616282 -0.01575,1.458536 0.168265,0.740488 0.337166,2.301404 0.375333,3.468701 0.05486,1.677813 0.269661,2.438144 1.025502,3.629982 1.359678,2.143989 1.262854,2.531441 -0.544924,2.180568 z M 105.94756,37.466459 c 1.60828,-0.15994 1.76707,-0.250574 1.76707,-1.008606 0,-0.458082 -0.34079,-1.117176 -0.75731,-1.464654 -0.67312,-0.561535 -1.35609,-0.63025 -6.14269,-0.618028 -2.961947,0.0076 -6.066947,0.116122 -6.899996,0.241241 -1.348133,0.202483 -1.526643,0.332366 -1.623881,1.181532 -0.225191,1.966572 -0.251169,1.958461 6.082012,1.898883 3.194245,-0.03005 6.602905,-0.133715 7.574795,-0.230368 z m -1.65932,-4.658713 c 0.6865,-0.229645 0.32414,-1.530684 -0.61263,-2.199656 -0.67793,-0.484125 -1.72456,-0.629275 -5.385366,-0.746863 -2.499146,-0.08027 -5.366649,-0.05225 -6.372229,0.06226 -1.648001,0.18768 -1.853217,0.301774 -2.080693,1.1568 -0.172317,0.647692 -0.09865,1.128135 0.232257,1.514634 0.42949,0.501654 1.240577,0.554413 7.129474,0.463755 3.654667,-0.05626 6.844797,-0.169182 7.089187,-0.250934 z M 92.456098,31.758537 c -0.42672,-0.42672 -0.22178,-0.785366 0.44878,-0.785366 0.373984,0 0.673171,0.22439 0.673171,0.504878 0,0.512421 -0.712014,0.690425 -1.121951,0.280488 z m 2.888867,-0.196342 c 0.07705,-0.231402 0.425641,-0.476067 0.774651,-0.5437 0.549004,-0.106387 0.573724,-0.04966 0.183335,0.420732 -0.533892,0.643301 -1.157906,0.7234 -0.957986,0.122968 z m 58.668985,46.30445 c -0.47316,-0.846581 -0.86029,-1.66382 -0.86029,-1.816088 0,-0.152267 -0.37866,-0.685429 -0.84146,-1.184804 -0.46281,-0.499374 -0.84147,-1.056839 -0.84147,-1.238811 0,-0.308301 -2.63904,-2.955427 -4.41204,-4.425549 -0.42942,-0.356063 -1.31634,-0.76399 -1.97094,-0.906505 -4.16057,-0.905808 -4.38343,-0.999571 -4.5718,-1.923462 -0.10073,-0.494041 -0.32772,-1.44595 -0.50442,-2.115355 -0.17671,-0.669404 -0.32129,-1.625457 -0.32129,-2.124561 0,-0.499104 -0.2352,-1.693239 -0.52267,-2.653632 -1.36454,-4.558754 -2.91704,-9.276218 -3.29611,-10.015613 -0.23075,-0.450099 -0.781,-1.727143 -1.22276,-2.837875 -0.79821,-2.006939 -3.2122,-6.849131 -4.69837,-9.42439 -0.42733,-0.740488 -1.51567,-2.230501 -2.41853,-3.31114 -0.90285,-1.08064 -1.64156,-2.103018 -1.64156,-2.271951 0,-0.738011 2.58872,0.08386 3.36586,1.068596 0.0926,0.117287 0.69841,0.483176 1.34634,0.813087 3.37442,1.718183 11.03759,8.785272 14.05162,12.958611 0.6012,0.832441 1.81322,2.498041 2.69338,3.701334 2.07411,2.835585 3.43558,5.003956 4.94801,7.880543 0.67288,1.279786 2.27722,4.095413 3.5652,6.256948 1.4428,2.421348 2.34409,4.306137 2.34778,4.9097 0.009,1.416028 -2.45619,9.85884 -2.93228,10.043918 -0.22104,0.08593 -0.78903,-0.536421 -1.2622,-1.383001 z M 62.962973,77.063948 c -1.380609,-0.170953 -2.705459,-0.506085 -2.944111,-0.744738 -0.685749,-0.685749 -1.096194,-5.151149 -0.875603,-9.526058 0.111279,-2.206965 0.186093,-4.429189 0.166254,-4.938274 -0.04995,-1.281695 0.56886,-1.174671 2.368782,0.409683 0.834335,0.734411 1.602475,1.249791 1.706978,1.145288 0.267018,-0.267018 1.452634,2.482807 1.724093,3.998728 0.191997,1.072177 0.09703,1.391233 -0.630692,2.118958 -0.471198,0.471197 -0.856723,1.008823 -0.856723,1.194723 0,0.185901 -0.226071,0.775174 -0.50238,1.309498 -0.448713,0.867714 -0.446144,1.027733 0.02404,1.497919 0.744733,0.744733 2.277372,0.654763 3.030943,-0.177924 1.364615,-1.507882 1.72018,-1.476691 3.690104,0.323709 l 1.836829,1.678758 1.503117,-0.840108 C 74.031319,74.052051 75.08145,73.229852 75.538228,72.687001 75.995007,72.144151 76.59375,71.7 76.868768,71.7 c 0.894392,0 6.432584,1.399558 6.828523,1.725637 0.211802,0.174433 1.14238,0.40684 2.067951,0.51646 1.516918,0.179656 1.732116,0.120428 2.182429,-0.600662 0.274765,-0.439984 0.58602,-1.272458 0.691677,-1.849942 l 0.192104,-1.04997 -2.927921,-0.930656 c -1.610357,-0.511861 -3.723104,-1.293387 -4.694994,-1.736724 -1.51668,-0.691849 -1.767074,-0.939096 -1.767074,-1.744869 0,-1.116546 0.912604,-4.327063 1.297627,-4.56502 0.34099,-0.210744 3.448462,0.710615 3.891739,1.153892 0.982003,0.982003 1.561984,-0.06498 0.807977,-1.458566 -0.218778,-0.404354 -0.438699,-1.10467 -0.488713,-1.556258 -0.05001,-0.451587 -0.37984,-1.211833 -0.732947,-1.689436 -0.353107,-0.477603 -0.75662,-1.244099 -0.896695,-1.703323 -0.140074,-0.459224 -0.61576,-1.317103 -1.057078,-1.906398 -0.679961,-0.907955 -0.802397,-1.459085 -0.802397,-3.61188 0,-2.404602 -0.04342,-2.551334 -0.812109,-2.744262 -0.818208,-0.205357 -2.927441,0.974864 -5.46736,3.059259 -0.584317,0.479523 -1.140445,0.745572 -1.235839,0.591221 -0.09539,-0.154351 0.288175,-1.328418 0.852376,-2.609038 0.957052,-2.172309 1.015128,-2.532828 0.866315,-5.377843 -0.104869,-2.004894 -0.36667,-3.45234 -0.7643,-4.225654 -0.734902,-1.429247 -4.176658,-6.0567 -4.504786,-6.0567 -0.129445,0 -0.528938,0.972285 -0.887762,2.160633 -0.358824,1.188348 -0.740076,2.10645 -0.847227,2.040227 -0.107151,-0.06622 -0.716623,0.892651 -1.354381,2.130831 -1.084908,2.1063 -1.159562,2.459332 -1.159562,5.483512 v 3.232276 l 1.282449,1.41916 c 0.705346,0.780538 1.223447,1.597965 1.151334,1.816505 -0.07643,0.231623 -0.982625,0.438756 -2.172762,0.496635 -2.359396,0.114744 -2.436629,0.230204 -2.444229,3.65398 l -0.0046,2.070344 -1.200941,-0.03404 c -0.978239,-0.02773 -1.361392,0.170977 -2.066194,1.071547 -1.010644,1.291364 -1.559606,0.891395 -1.047933,-0.763514 0.178354,-0.576855 0.384532,-1.730412 0.458172,-2.563461 0.353277,-3.996423 3.24171,-15.020231 4.703159,-17.949775 0.275043,-0.551336 0.500078,-1.176701 0.500078,-1.389698 0,-0.212998 0.457261,-1.108295 1.016135,-1.989549 1.247912,-1.967752 3.536881,-3.18357 4.785965,-2.542132 1.578394,0.810547 3.109818,2.669553 6.910109,8.388228 2.152869,3.239634 4.007788,5.965975 4.122043,6.058536 0.541418,0.438616 2.617637,3.760831 3.575934,5.721951 0.587986,1.203293 1.600342,3.066348 2.24968,4.140121 2.28354,3.776161 4.669898,10.506786 5.301298,14.952096 0.558366,3.931115 0.314345,4.101037 -7.092871,4.939052 -3.927284,0.444313 -7.545473,0.712211 -18.512195,1.37068 -1.203293,0.07225 -3.317394,-0.0085 -4.698003,-0.179464 z m 7.306539,-4.506933 c -1.497489,-1.375389 -1.553138,-1.820617 -0.374834,-2.998922 1.10335,-1.103349 1.725186,-1.10987 3.836024,-0.04023 2.214391,1.122117 2.166739,1.837851 -0.231441,3.476285 -1.416121,0.967492 -1.749564,0.922362 -3.229749,-0.437135 z m -5.97439,-0.235081 c 0,-0.792489 0.973223,-2.002111 4.001908,-4.973985 8.26343,-8.108428 12.363604,-11.804047 13.096223,-11.804047 0.970707,0 0.626084,0.846083 -1.002553,2.46137 -0.984885,0.976812 -2.850944,2.906788 -4.146798,4.288835 -5.664973,6.041776 -11.94878,11.315363 -11.94878,10.027827 z m 17.670732,-0.784298 c -4.213204,-1.088164 -9.055974,-3.294898 -9.194935,-4.189911 -0.07416,-0.477626 0.166654,-0.814738 0.782406,-1.095293 0.797549,-0.363388 1.208897,-0.24463 3.977861,1.148427 4.158875,2.092316 5.887332,2.818598 7.33358,3.081503 0.668793,0.121576 1.464306,0.495438 1.767808,0.830804 1.167111,1.289643 -0.274121,1.358967 -4.66672,0.22447 z M 65.978049,66.314634 c 0,-0.506947 0.175748,-0.688684 0.589024,-0.609095 0.323964,0.06239 0.589025,0.336483 0.589025,0.609095 0,0.272613 -0.265061,0.546705 -0.589025,0.609095 -0.413276,0.07959 -0.589024,-0.102147 -0.589024,-0.609095 z m 11.035976,-0.466403 c -0.502042,-0.180241 -0.998752,-0.551687 -1.103799,-0.825436 -0.218737,-0.570019 2.262984,-3.68206 2.727589,-3.420356 0.370563,0.208733 0.1998,2.0727 -0.320854,3.502294 -0.358146,0.983383 -0.464969,1.04434 -1.302936,0.743498 z m -9.255701,-1.134423 c -0.119096,-0.322838 -0.346315,-0.67482 -0.504929,-0.782181 -0.464882,-0.314665 0.08951,-1.319432 0.72801,-1.319432 0.619406,0 1.699083,0.99845 1.699083,1.571257 0,0.187111 -0.383766,0.515057 -0.852812,0.728768 -0.722181,0.329048 -0.885981,0.298656 -1.069352,-0.198412 z m -3.424612,-2.07064 c -0.308672,-0.195485 -0.391834,-0.591948 -0.246026,-1.172895 0.176382,-0.702762 0.422246,-0.87759 1.234168,-0.87759 1.162899,0 1.551377,0.63918 1.006856,1.656626 -0.392262,0.732947 -1.205928,0.893584 -1.994998,0.393859 z m 5.297051,-0.477119 c -0.626055,-0.424853 -1.526074,-1.141993 -2.000041,-1.593644 -0.473968,-0.451652 -1.178767,-1.074137 -1.56622,-1.383299 -0.490332,-0.391253 -0.77558,-1.131337 -0.938437,-2.434796 -0.314635,-2.518255 -0.12438,-2.893334 1.467613,-2.893334 0.72046,0 2.009664,-0.09591 2.864897,-0.213133 1.301045,-0.178328 1.592526,-0.115259 1.784961,0.38622 0.126496,0.329644 0.07059,1.021662 -0.124238,1.537819 -0.427362,1.13221 -0.112935,1.318362 2.226826,1.318362 0.875087,0 1.885077,0.21799 2.244423,0.484423 0.6255,0.46377 0.574429,0.565338 -1.197864,2.382278 -1.018171,1.04382 -2.250014,2.186689 -2.737429,2.539709 -0.878782,0.636475 -0.895747,0.635381 -2.024491,-0.130605 z m 66.272897,-0.249462 c -0.58972,-0.34801 -0.7843,-1.769721 -0.38472,-2.81101 0.53265,-1.388073 2.25627,0.156103 2.09132,1.873597 -0.11538,1.201322 -0.70789,1.526779 -1.7066,0.937413 z M 62.27561,60.42439 c 0,-0.277683 0.227195,-0.504878 0.504878,-0.504878 0.277683,0 0.504878,0.227195 0.504878,0.504878 0,0.277683 -0.227195,0.504878 -0.504878,0.504878 -0.277683,0 -0.504878,-0.227195 -0.504878,-0.504878 z m 19.437805,-0.195253 c -0.757751,-0.441349 -0.748336,-1.070873 0.0265,-1.772092 0.895313,-0.810248 1.291364,-0.691202 1.711675,0.514502 0.506136,1.451902 -0.346022,2.068447 -1.738178,1.25759 z M 75.332439,55.90576 c -1.875302,-0.261975 -2.08334,-0.419718 -1.786597,-1.35467 0.2484,-0.78264 2.446199,-3.046212 2.957698,-3.046212 0.178565,0 0.842186,-0.45439 1.474713,-1.009756 1.74232,-1.529777 2.007566,-1.36152 2.255052,1.430488 0.21603,2.437132 0.214928,2.441424 -0.864078,3.365853 -1.113034,0.953583 -1.349967,0.989638 -4.036788,0.614297 z m -5.62406,-5.427205 c -0.51136,-2.384388 -0.456949,-2.999159 0.398377,-4.501169 0.903806,-1.58714 1.436165,-1.834749 1.714085,-0.797247 0.338731,1.264517 0.243121,4.248579 -0.143787,4.487701 -0.197743,0.122212 -0.27004,0.455415 -0.160661,0.740452 0.310719,0.80972 -0.134616,1.769757 -0.82094,1.769757 -0.475414,0 -0.708762,-0.401767 -0.987074,-1.699494 z m 3.755723,-2.671211 c -0.223765,-0.358305 -0.322776,-0.870545 -0.220024,-1.138312 0.219412,-0.57178 -0.633301,-3.239839 -1.418408,-4.438065 -0.428793,-0.65442 -0.647553,-0.752293 -1.0097,-0.451737 -0.254272,0.211026 -0.462311,0.571907 -0.462311,0.801957 0,0.230051 -0.283189,0.779493 -0.629308,1.220983 -0.346119,0.441489 -0.733363,1.279259 -0.860541,1.861709 -0.272982,1.250199 -1.363956,2.42028 -1.615237,1.732359 -0.08744,-0.239394 -0.05268,-1.419775 0.07726,-2.623067 0.255381,-2.364947 2.593432,-7.595899 3.561064,-7.967214 0.791504,-0.303729 2.077999,1.147993 2.85911,3.226311 0.493094,1.311987 0.722925,2.76414 0.760758,4.806743 0.05676,3.064621 -0.317366,4.129718 -1.042664,2.968333 z"
     id="path38" /></svg>
