<?xml version="1.0" encoding="UTF-8" standalone="no"?>
<svg
   width="240"
   height="240"
   version="1.1"
   id="svg40"
   sodipodi:docname="FBCcopernicus.svg"
   inkscape:version="1.3.2 (091e20e, 2023-11-25, custom)"
   xml:space="preserve"
   xmlns:inkscape="http://www.inkscape.org/namespaces/inkscape"
   xmlns:sodipodi="http://sodipodi.sourceforge.net/DTD/sodipodi-0.dtd"
   xmlns="http://www.w3.org/2000/svg"
   xmlns:svg="http://www.w3.org/2000/svg"><defs
     id="defs40"><filter
       style="color-interpolation-filters:sRGB;"
       inkscape:label="Drop Shadow"
       id="filter3"
       x="-0.17272412"
       y="-0.16174829"
       width="1.3454482"
       height="1.3234966"><feFlood
         result="flood"
         in="SourceGraphic"
         flood-opacity="1.000000"
         flood-color="rgb(58,63,94)"
         id="feFlood2" /><feGaussianBlur
         result="blur"
         in="SourceGraphic"
         stdDeviation="15.000000"
         id="feGaussianBlur2" /><feOffset
         result="offset"
         in="blur"
         dx="0.000000"
         dy="0.000000"
         id="feOffset2" /><feComposite
         result="comp1"
         operator="out"
         in="flood"
         in2="offset"
         id="feComposite2" /><feComposite
         result="comp2"
         operator="atop"
         in="comp1"
         in2="SourceGraphic"
         id="feComposite3" /></filter><filter
       style="color-interpolation-filters:sRGB;"
       inkscape:label="Drop Shadow"
       id="filter6"
       x="-0.080915145"
       y="-0.084299289"
       width="1.1618303"
       height="1.1685986"><feFlood
         result="flood"
         in="SourceGraphic"
         flood-opacity="1.000000"
         flood-color="rgb(58,63,94)"
         id="feFlood5" /><feGaussianBlur
         result="blur"
         in="SourceGraphic"
         stdDeviation="7.000000"
         id="feGaussianBlur5" /><feOffset
         result="offset"
         in="blur"
         dx="0.000000"
         dy="0.000000"
         id="feOffset5" /><feComposite
         result="comp1"
         operator="out"
         in="flood"
         in2="offset"
         id="feComposite5" /><feComposite
         result="comp2"
         operator="atop"
         in="comp1"
         in2="SourceGraphic"
         id="feComposite6" /></filter><filter
       style="color-interpolation-filters:sRGB;"
       inkscape:label="Drop Shadow"
       id="filter10"
       x="-0.079827625"
       y="-0.08183463"
       width="1.1596552"
       height="1.1636693"><feFlood
         result="flood"
         in="SourceGraphic"
         flood-opacity="1.000000"
         flood-color="rgb(58,63,94)"
         id="feFlood9" /><feGaussianBlur
         result="blur"
         in="SourceGraphic"
         stdDeviation="7.000000"
         id="feGaussianBlur9" /><feOffset
         result="offset"
         in="blur"
         dx="0.000000"
         dy="0.000000"
         id="feOffset9" /><feComposite
         result="comp1"
         operator="out"
         in="flood"
         in2="offset"
         id="feComposite9" /><feComposite
         result="comp2"
         operator="atop"
         in="comp1"
         in2="SourceGraphic"
         id="feComposite10" /></filter><filter
       style="color-interpolation-filters:sRGB;"
       inkscape:label="Drop Shadow"
       id="filter12"
       x="-0.0792567"
       y="-0.08483838"
       width="1.1585134"
       height="1.1696768"><feFlood
         result="flood"
         in="SourceGraphic"
         flood-opacity="1.000000"
         flood-color="rgb(58,63,94)"
         id="feFlood10" /><feGaussianBlur
         result="blur"
         in="SourceGraphic"
         stdDeviation="7.000000"
         id="feGaussianBlur10" /><feOffset
         result="offset"
         in="blur"
         dx="0.000000"
         dy="0.000000"
         id="feOffset10" /><feComposite
         result="comp1"
         operator="out"
         in="flood"
         in2="offset"
         id="feComposite11" /><feComposite
         result="comp2"
         operator="atop"
         in="comp1"
         in2="SourceGraphic"
         id="feComposite12" /></filter><filter
       style="color-interpolation-filters:sRGB;"
       inkscape:label="Drop Shadow"
       id="filter7"
       x="-0.08602059"
       y="-0.077572354"
       width="1.1720412"
       height="1.1551447"><feFlood
         result="flood"
         in="SourceGraphic"
         flood-opacity="1.000000"
         flood-color="rgb(58,63,94)"
         id="feFlood3" /><feGaussianBlur
         result="blur"
         in="SourceGraphic"
         stdDeviation="7.000000"
         id="feGaussianBlur3" /><feOffset
         result="offset"
         in="blur"
         dx="0.000000"
         dy="0.000000"
         id="feOffset3" /><feComposite
         result="comp1"
         operator="out"
         in="flood"
         in2="offset"
         id="feComposite4" /><feComposite
         result="comp2"
         operator="atop"
         in="comp1"
         in2="SourceGraphic"
         id="feComposite7" /></filter></defs><sodipodi:namedview
     id="namedview40"
     pagecolor="#505050"
     bordercolor="#eeeeee"
     borderopacity="1"
     inkscape:showpageshadow="0"
     inkscape:pageopacity="0"
     inkscape:pagecheckerboard="0"
     inkscape:deskcolor="#505050"
     inkscape:zoom="2.8284271"
     inkscape:cx="96.166522"
     inkscape:cy="102.70726"
     inkscape:window-width="1920"
     inkscape:window-height="1017"
     inkscape:window-x="-8"
     inkscape:window-y="-8"
     inkscape:window-maximized="1"
     inkscape:current-layer="svg40" /><path
     style="fill:#1b1f21;stroke:none"
     d="M 0,0 V 240 H 240 V 0 Z"
     id="path1"
     sodipodi:insensitive="true" /><path
     style="fill:#e64539;fill-opacity:1;filter:url(#filter7)"
     d="m 55.554931,224.97324 c 1.852248,-1.92506 5.985941,-5.04208 9.185985,-6.9267 l 5.818261,-3.42658 2.976877,1.42945 c 1.637282,0.7862 5.383704,3.24358 8.325383,5.46084 2.941679,2.21726 5.721571,4.03138 6.177537,4.03138 0.455967,0 1.488666,0.65964 2.294887,1.46586 1.302983,1.30298 -0.734839,1.46586 -18.340399,1.46586 H 52.187207 Z m 43.324537,0.32408 C 86.728325,212.15472 74.069836,186.9709 74.069836,175.93907 v -4.1771 l 3.429566,-1.63545 c 5.158696,-2.46001 8.173006,-1.00507 10.539958,5.0874 4.548008,11.70645 7.441715,17.92111 9.239867,19.84396 0.671851,0.71844 1.221547,1.93075 1.221547,2.69403 0,0.76327 0.879514,1.93703 1.954476,2.60836 1.07496,0.67132 1.95447,1.77444 1.95447,2.45137 0,0.67693 0.43976,1.23079 0.97724,1.23079 0.53748,0 0.97724,0.56163 0.97724,1.24807 0,0.68643 1.20933,2.611 2.6874,4.2768 8.67806,9.78029 10.58891,13.04264 7.63945,13.04264 -0.84244,0 -1.53171,0.43976 -1.53171,0.97724 0,0.53748 -0.77373,0.97724 -1.71941,0.97724 -0.94567,0 -2.26867,0.87951 -2.93999,1.95447 -1.90752,3.05442 -6.16715,2.51356 -9.620472,-1.22155 z m 37.307812,2.3005 c -1.4496,-2.34551 4.80451,-8.89685 8.49319,-8.89685 0.99428,0 9.52284,8.30126 9.52284,9.26904 0,0.89404 -17.45634,0.53341 -18.01603,-0.37219 z m 20.25432,-5.71514 -6.06823,-6.58882 2.6479,-1.35047 c 1.45634,-0.74275 3.42315,-2.02835 4.37068,-2.85688 1.00588,-0.87956 3.55613,-1.50642 6.12856,-1.50642 5.46682,0 9.70288,3.5546 10.56466,8.86512 0.33751,2.07984 1.85682,4.83835 3.7283,6.76923 l 3.15866,3.25891 -9.23115,-9.2e-4 -9.23115,-9.2e-4 z m -119.995409,3.0985 c -2.149922,-1.29362 -6.65743,-3.65724 -10.016684,-5.25249 -6.232788,-2.95984 -7.441309,-4.50657 -4.397569,-5.62824 0.940591,-0.34662 3.438409,-2.09185 5.550707,-3.87828 2.112299,-1.78643 4.262603,-3.24805 4.778455,-3.24805 0.515852,0 1.500734,-0.76957 2.188626,-1.71017 1.52856,-2.09007 8.197939,-2.0684 14.37431,0.0467 2.274356,0.77886 5.894221,1.96737 8.044143,2.64114 6.760375,2.11866 8.186018,4.88574 2.51721,4.88574 -1.508238,0 -3.860371,0.87951 -5.226963,1.95447 -1.366592,1.07496 -2.72251,1.95448 -3.013152,1.95448 -1.737461,0 -5.920742,5.35353 -5.959277,7.62636 -0.05985,3.53008 -3.581264,3.7724 -8.839806,0.60832 z m -24.842406,-1.73003 -0.07715,-3.75635 5.130497,0.65101 c 7.124685,0.90405 8.550829,1.40751 8.550829,3.01858 0,1.06973 -1.479319,1.40001 -6.270608,1.40001 -4.102112,0 -6.441063,0.42243 -6.763512,1.22154 -0.271098,0.67185 -0.527623,-0.4688 -0.570056,-2.53479 z m 105.686625,-7.23758 c -5.07082,-5.24044 -10.2347,-11.10693 -11.4753,-13.03665 -1.2406,-1.92972 -2.84521,-4.1285 -3.56579,-4.88619 -0.72059,-0.75768 -2.14308,-3.13663 -3.16108,-5.28655 -1.018002,-2.14993 -2.229465,-4.56859 -2.692139,-5.37481 -0.462674,-0.80622 -1.325109,-2.56525 -1.916522,-3.90895 -0.591413,-1.3437 -1.47459,-3.21768 -1.962616,-4.16439 -0.611137,-1.18554 -0.384972,-2.48798 0.726625,-4.18449 l 1.613944,-2.46319 1.821621,1.64854 c 1.001892,0.9067 1.821621,2.25383 1.821621,2.99362 0,0.73978 0.726449,1.62383 1.614336,1.96454 1.40052,0.53743 4.49492,3.6219 10.14398,10.11141 11.68703,13.4258 17.14775,16.84187 20.90934,13.08029 l 1.53566,-1.53566 0.092,2.75721 c 0.0506,1.51646 0.1736,4.29635 0.27337,6.17753 0.0998,1.88118 -0.13896,4.07997 -0.53052,4.88619 -0.39155,0.80622 -0.98127,3.5547 -1.31048,6.10773 -0.91671,7.10898 -3.05718,6.35861 -13.93802,-4.88618 z m 17.36815,4.26565 c 0,-1.52423 4.74421,-4.97768 5.62632,-4.09557 0.65122,0.65121 -3.59223,5.44903 -4.81943,5.44903 -0.44379,0 -0.80689,-0.60906 -0.80689,-1.35346 z m 0.58612,-6.20405 c -0.32236,-0.32236 -0.58612,-2.54557 -0.58612,-4.94047 0,-3.75973 0.20018,-4.18822 1.46586,-3.1378 0.80622,0.66911 1.46586,1.67778 1.46586,2.2415 0,0.56371 0.66266,1.75717 1.47258,2.65212 1.32834,1.46781 1.24217,1.73217 -0.87974,2.69898 -1.29378,0.58949 -2.61607,0.80804 -2.93844,0.48567 z M 11.526634,199.70434 v -14.17923 l 2.883183,-1.49096 c 3.346704,-1.73064 16.661568,-2.10239 16.661568,-0.46518 0,0.56417 -0.684853,2.35013 -1.521895,3.96879 -1.778567,3.43937 -0.68643,8.24697 2.535921,11.16315 2.755655,2.49384 2.396701,3.73516 -1.754814,6.06844 -2.019875,1.13524 -4.735073,3.19512 -6.033772,4.57752 -1.636091,1.74154 -3.379116,2.51346 -5.675501,2.51346 -1.822826,0 -4.164833,0.45523 -5.20446,1.01162 l -1.89023,1.01162 z m 55.213921,9.97971 c -2.149923,-1.0798 -4.128829,-2.2959 -4.397569,-2.70244 -0.268741,-0.40654 -1.917283,-1.04911 -3.663427,-1.42793 -4.645916,-1.00793 -6.108949,-3.76232 -6.108949,-11.50107 0,-3.76399 0.421872,-6.62322 0.977238,-6.62322 0.537481,0 0.977238,0.39208 0.977238,0.8713 0,0.47921 1.099392,1.14722 2.443093,1.48447 1.343702,0.33725 2.443094,1.01949 2.443094,1.5161 0,0.4966 2.361261,3.45658 5.247246,6.57773 3.023466,3.26983 5.541288,7.02082 5.941072,8.85084 0.381604,1.74681 1.124595,3.17602 1.65109,3.17602 0.526496,0 0.68548,0.43976 0.353299,0.97724 -0.77052,1.24673 -1.147161,1.16971 -5.863425,-1.19904 z m 75.757805,-2.1987 c -1.83536,-1.89361 -2.86484,-3.44292 -2.28773,-3.44292 0.5771,0 1.59673,0.65963 2.26583,1.46585 0.66911,0.80622 1.60247,1.46586 2.07414,1.46586 1.70206,0 0.80526,-2.41169 -1.62161,-4.36086 l -2.47918,-1.99118 4.53099,-0.20544 c 2.49205,-0.11299 5.11344,-0.68881 5.82531,-1.27961 0.97573,-0.80979 1.91776,-0.53209 3.82731,1.12825 l 2.53301,2.20242 -3.19172,1.03166 c -2.43772,0.78795 -3.26478,1.66653 -3.50095,3.71907 -0.17007,1.47807 -0.6838,2.6874 -1.14162,2.6874 -0.45782,0 -1.43188,0.23005 -2.16459,0.51121 -0.7327,0.28116 -2.83384,-1.03811 -4.66919,-2.93171 z m -95.613465,-7.29458 c -0.993778,-1.63414 -1.696834,-3.96463 -1.562345,-5.17887 0.134489,-1.21424 0.282815,-2.86734 0.329614,-3.67356 0.135639,-2.33668 3.651486,4.11343 4.170786,7.65165 0.628437,4.28182 -0.727383,4.83594 -2.938055,1.20078 z m 78.042445,0.20502 c -2.06688,-0.81332 -11.73781,-11.28063 -11.75415,-12.72209 -0.0191,-1.68183 0.21173,-1.61402 5.87783,1.72682 2.75024,1.62161 6.50753,3.57808 8.34952,4.34771 3.48107,1.45448 4.37352,3.99267 2.17639,6.1898 -1.24934,1.24934 -2.36006,1.35869 -4.64959,0.45776 z m 14.61741,-4.16167 c -0.80622,-0.46899 -4.1044,-1.86822 -7.32928,-3.1094 -3.22488,-1.24117 -6.0833,-2.48138 -6.35204,-2.75602 -0.26875,-0.27463 -1.80789,-1.14966 -3.42034,-1.9445 -3.85301,-1.89931 -21.40611,-13.85662 -21.82497,-14.86734 -0.17916,-0.43232 -0.766732,-0.78603 -1.305718,-0.78603 -0.538986,0 -2.466402,-1.40204 -4.283147,-3.11564 -2.482534,-2.34159 -3.043089,-3.42902 -2.256305,-4.37703 0.803092,-0.96767 1.534983,-1.00456 3.143036,-0.1584 1.152893,0.60665 2.316048,1.38817 2.584788,1.73671 1.734446,2.24949 13.100076,8.84607 15.241416,8.84607 0.63076,0 1.92638,-1.18973 2.87915,-2.64384 1.54361,-2.35584 1.60159,-3.2767 0.53228,-8.45377 -0.66001,-3.19546 -2.30967,-8.05239 -3.66591,-10.79318 -2.6368,-5.32863 -3.05441,-9.04487 -1.37007,-12.19209 1.11797,-2.08893 -2.6699,-8.91557 -0.0902,-8.91557 0.4524,0 1.38202,1.86896 2.06582,4.15326 0.6838,2.28429 2.73231,6.39756 4.55225,9.14059 2.93234,4.41966 3.30899,5.73023 3.30899,11.51393 0,7.43505 1.80531,12.62579 5.36504,15.42587 1.34907,1.06118 2.45959,2.88695 2.46782,4.05727 0.008,1.17033 0.33805,2.57012 0.73293,3.11066 1.38561,1.89671 7.93158,6.34648 9.33619,6.34648 0.78065,0 2.67895,0.65693 4.21846,1.45984 1.53951,0.80291 3.98249,1.46254 5.42884,1.46585 4.13312,0.009 4.42632,1.99491 0.74807,5.06565 -3.34494,2.79248 -7.72548,3.52507 -10.70708,1.79063 z M 60.572289,188.4462 c -2.247844,-3.04037 -2.731325,-4.92576 -1.26314,-4.92576 0.481312,0 1.745411,1.75903 2.809108,3.90895 2.275498,4.59919 1.486342,5.11823 -1.545968,1.01681 z m 4.702409,-0.93537 c 0,-1.03018 -0.33374,-2.01963 -0.741645,-2.19879 -1.50933,-0.66293 -6.099017,-10.86042 -6.099017,-13.55096 0,-1.53112 -0.439757,-3.05564 -0.977238,-3.38782 -1.026669,-0.63452 -1.391037,-14.40764 -0.407182,-15.39149 0.641168,-0.64117 4.316132,2.73944 4.316132,3.97042 0,0.43693 1.229114,1.97197 2.731364,3.41122 1.860927,1.78288 2.808409,3.76081 2.973122,6.20658 0.132967,1.97437 0.475223,3.96752 0.760569,4.42922 0.822,1.33002 -0.759574,18.38465 -1.704915,18.38465 -0.468154,0 -0.85119,-0.84286 -0.85119,-1.87303 z m 44.828272,-2.76884 c -1.21555,-1.54996 -1.18099,-1.58452 0.36896,-0.36896 0.9406,0.73766 1.71017,1.50723 1.71017,1.71016 0,0.8043 -0.80249,0.28663 -2.07913,-1.3412 z m 31.17617,-0.604 c -0.73531,-0.73531 -2.31759,-1.64818 -3.51617,-2.0286 -3.43479,-1.09015 -5.30754,-4.64836 -4.10761,-7.80442 1.56942,-4.12788 1.20548,-12.1115 -0.70696,-15.50858 -0.94059,-1.67077 -2.9195,-4.2524 -4.39757,-5.73696 -1.47807,-1.48455 -2.6874,-2.98054 -2.6874,-3.32441 0,-0.34388 -1.08764,-1.48076 -2.41698,-2.52641 -2.88664,-2.27064 -7.3554,-10.79971 -7.3554,-14.03852 0,-1.26782 -0.44693,-2.58135 -0.99318,-2.91895 -0.54625,-0.3376 -0.74017,-1.02319 -0.43094,-1.52353 1.07668,-1.7421 2.25694,-0.88804 3.35008,2.42421 0.65859,1.99556 2.91474,6.60777 10.05355,8.80083 5.89483,1.81092 9.26102,3.86503 14.4059,8.79072 3.80195,3.63997 7.8179,8.15657 7.8179,8.79251 0,0.96012 3.84027,4.48533 4.88619,4.48533 0.53748,0 0.97724,0.57723 0.97724,1.28274 0,0.7055 2.19878,2.24282 4.88619,3.41626 5.10946,2.23102 6.44066,4.84985 2.93171,5.76746 -1.07496,0.28111 -1.95448,1.02145 -1.95448,1.6452 0,0.62375 -1.31698,2.57601 -2.92663,4.33834 -1.60964,1.76234 -3.38414,4.05913 -3.94333,5.10398 -0.83037,1.55157 -2.07219,1.89972 -6.77594,1.89972 -3.5695,0 -6.26756,-0.50831 -7.09617,-1.33692 z m -13.76381,-14.90494 c -1.16577,-1.55519 -1.94055,-4.76791 -2.27349,-9.42738 l -0.50506,-7.06821 2.98013,3.42033 c 2.56149,2.93986 2.98382,4.20157 3.00641,8.98177 0.0304,6.42429 -0.7318,7.39684 -3.20799,4.09349 z m -54.91135,-1.34841 c 1.38054,-1.52548 3.009859,-1.95448 7.423067,-1.95448 3.109861,0 5.932487,0.45013 6.272503,1.00029 0.404396,0.65433 -0.707635,0.78828 -3.215243,0.38729 -2.628803,-0.42036 -4.785811,-0.12051 -6.864052,0.95419 -4.202275,2.17308 -5.780424,2.00407 -3.616275,-0.38729 z m 28.13003,-2.71851 c -5.956054,-5.38889 -7.085468,-8.57579 -4.556455,-12.85707 0.97206,-1.64556 2.112323,-2.99193 2.533919,-2.99193 0.421596,0 0.766538,-0.65964 0.766538,-1.46586 0,-2.03067 -0.994056,-1.83364 -4.36779,0.86571 -2.621829,2.09775 -2.894272,2.85189 -2.822559,7.81305 l 0.07937,5.49118 h -2.188742 c -1.203808,0 -2.822556,-0.95457 -3.597218,-2.12127 -1.513091,-2.27884 -4.250391,-1.65785 -3.324777,0.75427 0.376917,0.98222 -0.292999,1.367 -2.380013,1.367 -1.597522,0 -4.512665,0.86188 -6.478097,1.91529 -1.965432,1.05341 -3.997356,1.65334 -4.515386,1.33318 -1.037971,-0.6415 -0.2294,-11.29458 1.29174,-17.01891 0.512916,-1.9302 1.847602,-4.33754 2.96597,-5.34965 l 2.033396,-1.8402 1.857946,2.41794 c 1.02187,1.32986 1.867724,3.38143 1.879676,4.55905 0.01195,1.17761 0.464592,2.41481 1.005869,2.74934 1.696529,1.04851 2.227239,-2.34239 0.882861,-5.64094 -2.463384,-6.04411 -6.354264,-7.18716 -10.229885,-3.0053 -2.844339,3.0691 -3.355872,2.75963 -4.055059,-2.4532 -1.117678,-8.33291 0.296447,-12.25283 6.877697,-19.06478 l 6.077833,-6.29089 5.605683,-0.70038 c 3.818928,-0.47715 6.614485,-0.29586 8.770654,0.56875 3.815029,1.52981 9.331659,7.31312 10.192939,10.68568 0.34315,1.3437 1.43084,3.88568 2.41709,5.64884 2.28516,4.08529 2.50158,13.68541 0.32732,14.51975 -1.61049,0.61801 -2.04456,4.26235 -0.50767,4.26235 0.527,0 2.28603,2.84008 3.90895,6.31129 2.96051,6.33214 3.87359,10.98743 1.91799,9.7788 -1.93665,-1.19691 -5.80789,0.46682 -5.80789,2.49604 0,2.78225 -0.85649,2.42499 -6.5619,-2.73713 z m 9.57077,3.12569 c 0.0469,-1.13842 0.27845,-1.36999 0.59041,-0.59041 0.28229,0.70544 0.24758,1.54831 -0.0772,1.87304 -0.32473,0.32472 -0.5557,-0.25246 -0.51326,-1.28263 z m 51.92761,-5.76184 c -2.35283,-2.44458 -1.28445,-4.57053 1.24282,-2.47309 1.07821,0.89484 1.63704,0.70546 2.63535,-0.8931 0.69684,-1.11582 1.60096,-2.02876 2.00915,-2.02876 1.58379,0 0.6329,3.6709 -1.46025,5.63731 l -2.20241,2.06906 z m -98.622235,-6.9506 c -0.965683,-1.39309 -2.525363,-3.24985 -3.465954,-4.12613 -1.377836,-1.28364 -1.710165,-3.26017 -1.710165,-10.17121 0,-4.71787 0.363101,-8.57795 0.806891,-8.57795 1.81394,0 5.058602,4.71447 5.087613,7.39226 0.01709,1.5778 0.676729,3.72236 1.465857,4.76568 1.606011,2.12333 2.028541,13.25023 0.503161,13.25023 -0.512388,0 -1.72172,-1.13979 -2.687403,-2.53288 z M 166.9074,152.67823 c -1.88118,-1.32356 -6.71851,-5.91303 -10.74961,-10.19882 l -7.32928,-7.79234 -5.09137,-0.95877 c -2.80026,-0.52733 -5.87856,-1.35854 -6.84067,-1.84712 -0.96211,-0.48859 -4.38783,-1.65167 -7.61271,-2.58463 -9.74538,-2.81932 -15.33439,-5.94485 -21.68871,-12.12891 -6.45264,-6.27976 -11.280713,-8.89449 -16.423557,-8.89449 -3.755743,0 -8.803009,2.89499 -11.191374,4.34111 -2.569876,1.55602 -0.0852,-0.0714 -2.534046,1.52231 -1.510554,0.98309 -9.558354,9.47842 -11.77437,14.38905 -2.114783,4.6863 -2.904941,5.0987 -3.880411,2.02526 -0.375871,-1.18426 -1.285018,-2.75482 -2.020329,-3.49013 -0.73531,-0.73531 -1.350913,-2.29497 -1.368007,-3.46591 -0.01709,-1.17094 -0.676729,-2.98261 -1.465856,-4.02593 -0.789127,-1.04332 -1.434777,-2.73449 -1.434777,-3.75817 0,-1.02367 -0.610224,-3.02847 -1.356054,-4.4551 -3.910761,-7.48054 -5.641917,-31.477344 -3.051414,-42.297838 1.695438,-7.08182 4.342563,-10.638664 6.375792,-13.555479 0.0047,-0.0067 6.066496,-8.452359 13.74966,-9.828993 2.373462,-0.425266 6.074413,-1.235643 8.224336,-1.800839 5.487605,-1.442643 13.377972,-1.318801 15.662668,0.245831 1.060184,0.726047 3.975056,1.591474 6.477489,1.923171 3.69699,0.490034 5.02524,0.229173 7.08572,-1.391599 1.3947,-1.097076 3.23458,-1.852563 4.08861,-1.678862 1.33106,0.270728 1.26522,0.646475 -0.46114,2.63159 -2.60946,3.000574 -1.80433,4.472617 5.45346,9.970693 3.11788,2.361928 6.6431,5.297321 7.83381,6.523095 5.59355,5.758277 14.17056,16.310306 14.97296,18.420759 0.49095,1.291293 1.34327,2.347805 1.89406,2.347805 0.55078,0 1.02049,0.769574 1.04381,1.710166 0.0233,0.940591 1.11993,3.469193 2.43695,5.619115 1.31701,2.149923 2.8742,5.008343 3.46042,6.352044 0.58622,1.343702 1.68838,3.688061 2.44924,5.209691 0.76085,1.52163 1.38338,3.37701 1.38338,4.12307 0,0.74605 1.08642,4.68462 2.41426,8.75237 1.32785,4.06775 2.69766,9.68824 3.04402,12.48998 0.34636,2.80173 1.23885,6.06804 1.9833,7.25846 0.74445,1.19042 1.35355,3.02798 1.35355,4.08346 0,1.05548 0.65964,2.57869 1.46586,3.38491 0.80622,0.80622 1.46586,1.87543 1.46586,2.37601 0,1.04943 3.29217,3.64883 6.84066,5.40118 1.3437,0.66356 2.58362,2.18492 2.75537,3.3808 0.42999,2.99392 -3.13776,2.84079 -7.64156,-0.328 z M 62.835417,114.9583 c 0.375277,-3.55872 2.671355,-11.2293 4.232569,-14.13987 0.539597,-1.00597 1.799186,-3.588064 2.799087,-5.737987 1.823379,-3.920511 4.782425,-8.78595 6.633187,-10.906679 0.544449,-0.623867 2.524893,-3.04253 4.400985,-5.374806 6.812523,-8.46903 14.913596,-15.290344 23.218645,-19.550703 1.20933,-0.620368 2.19878,-1.666413 2.19878,-2.324545 0,-1.385982 -3.74811,-4.064239 -9.146161,-6.5355 -8.563662,-3.920494 -28.213934,-1.048335 -36.149726,5.283782 -5.166514,4.122459 -8.417511,11.291593 -9.093077,20.052151 -0.663227,8.600563 2.642248,31.367737 5.110844,35.202027 0.766417,1.19042 1.393486,3.24702 1.393486,4.57022 0,1.49486 0.647556,2.54986 1.710165,2.78622 2.258477,0.50236 2.292058,0.46087 2.691216,-3.32431 z m -4.370302,-11.37556 c -0.01709,-1.23602 -0.661646,-3.46669 -1.432338,-4.957048 C 56.18292,96.982251 55.579846,92.675187 55.500204,87.6803 55.216747,69.902716 55.450935,66.717345 57.212489,64.3902 c 4.834825,-6.38717 7.474179,-8.888413 9.38499,-8.893897 1.153653,-0.0033 3.416821,-0.722407 5.029263,-1.597991 4.388048,-2.382785 22.548082,-2.457303 25.869927,-0.106155 1.328924,0.940591 1.852834,1.710166 1.164243,1.710166 -0.68859,0 -2.916697,1.337801 -4.951348,2.972891 -2.034651,1.63509 -5.197102,3.776827 -7.027668,4.759415 -2.867099,1.538964 -3.328303,2.288896 -3.328303,5.411912 0,2.101252 -0.627595,4.106024 -1.492828,4.768652 -2.32673,1.781895 -10.722641,12.856911 -10.722641,14.144197 0,0.633846 -0.879514,1.701713 -1.954476,2.373037 -1.074961,0.671324 -1.954475,1.774443 -1.954475,2.451375 0,0.676931 -0.769574,1.234216 -1.710165,1.238409 -1.739333,0.0078 -4.15326,3.98388 -4.15326,6.841089 0,0.86508 -0.645649,2.42649 -1.434777,3.46981 l -1.434776,1.89695 z m 79.082775,-5.814894 c -0.0723,-2.917492 -10.20684,-18.599491 -14.86365,-22.999747 -2.04578,-1.933073 -3.46165,-2.537706 -4.88481,-2.086012 -3.68441,1.169389 0.87148,-0.308728 -2.93682,-5.750582 -1.20191,-1.717465 -2.28197,-3.291149 -2.40013,-3.497077 -0.3886,-0.677217 -10.05276,7.105192 -10.05276,8.09534 0,3.457461 8.63621,6.703351 8.21756,7.794316 -0.41552,1.082821 0.3028,1.195527 3.68163,0.577663 3.93779,-0.720075 7.63394,0.137572 7.6542,1.776063 0.005,0.3842 2.43825,3.337086 5.40777,6.56197 2.96953,3.224884 6.05523,7.072757 6.85712,8.550829 1.6468,3.035417 3.38357,3.546651 3.31989,0.977237 z m 35.22294,49.106184 c -0.66911,-0.80622 -1.64192,-1.46585 -2.1618,-1.46585 -1.07252,0 -4.59688,-3.96489 -4.64635,-5.22712 -0.0179,-0.45625 -0.64993,-2.21528 -1.40455,-3.90895 -2.37743,-5.3359 -3.64174,-12.73735 -4.49139,-15.44918 -6.8059,-21.722541 -0.0348,-0.0173 -6.84066,-21.783682 -0.98788,-3.159396 -2.49348,-6.92005 -4.62319,-9.582913 -2.13362,-2.357631 -1.71237,-8.651411 0.10113,-11.339994 4.50046,-6.672093 0.0621,0.109337 4.52997,-6.733908 1.28422,-1.966987 9.82157,-12.845777 12.21911,-13.073516 3.9416,-0.374408 6.34049,0.15905 6.34049,1.409979 0,0.706672 1.51362,2.006655 3.3636,2.888849 5.49166,2.618792 20.0901,15.671495 20.0901,17.96289 0,0.724406 0.43976,1.317101 0.97724,1.317101 0.53748,0 0.97723,0.4674 0.97723,1.038665 0,0.571266 -0.76957,0.937572 -1.71016,0.814014 -5.91282,-0.776723 -15.01507,6.980729 -19.44477,16.571935 -1.40159,3.03474 -3.04189,6.57313 -3.64511,7.8631 -0.60411,1.29188 -1.09675,7.21783 -1.09675,13.19271 0,12.52733 1.4884,16.85456 7.44968,21.65848 2.5913,2.08821 3.2937,3.20295 2.57819,4.0917 -1.36496,1.69546 -7.08767,1.53217 -8.56201,-0.24431 z m 10.06997,-6.83993 c -6.09351,-4.26806 -8.12351,-13.81155 -3.68115,-17.30591 1.84055,-1.44778 2.21277,-2.27252 1.44381,-3.19906 -0.74786,-0.90111 -0.5542,-2.11013 0.69615,-4.34621 l 1.73221,-3.09782 -1.71017,-1.28078 c -2.52925,-1.89421 -2.08377,-5.59817 1.19437,-9.93068 1.59748,-2.111296 2.91676,-4.164715 2.93171,-4.56315 0.044,-1.173633 5.96154,-6.495657 7.91008,-7.1141 2.04445,-0.648883 6.50431,1.399371 8.87037,4.073839 2.16499,2.44719 3.41076,9.943921 1.63945,9.865791 -5.19961,-0.22937 -7.02887,1.63901 -10.77021,11.00055 -2.39471,5.99202 -2.20985,10.05692 0.72288,15.89587 l 2.48197,4.94149 -3.16229,3.26265 c -3.47915,3.58957 -6.89061,4.18498 -10.29918,1.79752 z m 13.41811,-11.17472 c -1.55041,-2.89697 -1.2607,-14.01994 0.42316,-16.24619 0.78912,-1.04332 1.45219,-2.55658 1.47348,-3.3628 0.0213,-0.80622 1.21421,-2.01172 2.65095,-2.67889 5.70445,-2.64893 7.76948,3.89596 4.3911,13.91712 -3.06341,9.08686 -6.72189,12.5129 -8.93869,8.37076 z M 140.85516,76.024311 c 0,0 -0.007,0.0043 -21.04355,-21.499225 -0.30341,-0.310139 -0.78885,-0.611963 -0.78885,-1.359916 0,-0.747954 -1.09939,-1.635846 -2.44309,-1.973094 -3.32891,-0.835502 -3.11841,-3.618057 0.47467,-6.274531 l 2.91776,-2.157196 3.55363,1.4848 c 1.95449,0.816639 4.59756,1.484799 5.87348,1.484799 1.27592,0 4.85021,0.819642 7.94287,1.821426 3.09265,1.001784 8.92118,2.579018 12.95228,3.504963 8.27525,1.900826 11.72685,3.322632 11.72685,4.830604 0,0.567374 -1.47169,2.362031 -3.27043,3.988126 -3.58665,3.242397 -9.47593,11.475395 -11.53308,16.122827 -1.66598,3.763703 -4.14879,3.774012 -6.36254,0.02642 z M 96.220553,38.237793 c -1.124442,-1.124442 -0.711664,-2.280221 0.814365,-2.280221 0.806221,0 1.465856,-0.659635 1.465856,-1.465856 0,-0.806221 -0.468667,-1.465856 -1.041482,-1.465856 -1.987449,0 -4.821943,2.030792 -4.821943,3.454714 0,1.574418 -1.527332,1.93597 -2.376187,0.562494 -0.295382,-0.477939 -1.611868,-1.13874 -2.925525,-1.468447 -3.887929,-0.975808 -9.194288,-4.84282 -9.531837,-6.94633 -0.290687,-1.811485 -2.377946,-4.053096 -14.878027,-8.938147 -12.053493,-4.710524 -0.02827,0.07035 -12.065328,-4.717887 -2.340327,-0.930963 -4.15326,-2.305324 -4.15326,-2.76505 0,-0.914765 5.464122,0.632902 7.329282,1.259324 28.653677,9.623465 0.0052,-0.08763 27.068406,9.220496 1.547195,0.532143 5.02657,2.070506 7.946582,2.919377 3.725194,1.082943 5.46209,2.128383 5.821871,3.504191 0.282017,1.078434 1.103625,1.974609 1.825794,1.991499 0.72217,0.01689 2.119003,1.137313 3.104074,2.489827 1.424286,1.955568 1.549866,2.749708 0.613266,3.87824 -1.249342,1.505371 -3.116564,1.846975 -4.195907,0.767632 z"
     id="path2"
     sodipodi:nodetypes="sscssssscssscsssssssssssssssscsscsccsssssccscssssssssssssssscssssssssssssscssssscsssssssssssssssssccssssssssscsssssssssssssssssscssscsssssssssssssssssssssssssssssssssssscssscssssssssssssssssssssssssssssssscsssssssssssssscssssssssssssssscsssssssscssssssscssssssssssccssscssssssssssssssssscsssssssssssssssssssssssssssssssssssssssssssssssssssssccssssssssssssssscscsssssssssscssssssssssscssssssssssssssssscssssssssssssssscsssssscsssssscsssssssssssssssssss" /></svg>
