<?xml version="1.0" encoding="UTF-8" standalone="no"?>
<svg
   width="240"
   height="240"
   version="1.1"
   id="svg40"
   sodipodi:docname="FBCdragoon.svg"
   inkscape:version="1.3.2 (091e20e, 2023-11-25, custom)"
   xml:space="preserve"
   xmlns:inkscape="http://www.inkscape.org/namespaces/inkscape"
   xmlns:sodipodi="http://sodipodi.sourceforge.net/DTD/sodipodi-0.dtd"
   xmlns="http://www.w3.org/2000/svg"
   xmlns:svg="http://www.w3.org/2000/svg"><defs
     id="defs40"><filter
       style="color-interpolation-filters:sRGB;"
       inkscape:label="Drop Shadow"
       id="filter3"
       x="-0.17272412"
       y="-0.16174829"
       width="1.3454482"
       height="1.3234966"><feFlood
         result="flood"
         in="SourceGraphic"
         flood-opacity="1.000000"
         flood-color="rgb(58,63,94)"
         id="feFlood2" /><feGaussianBlur
         result="blur"
         in="SourceGraphic"
         stdDeviation="15.000000"
         id="feGaussianBlur2" /><feOffset
         result="offset"
         in="blur"
         dx="0.000000"
         dy="0.000000"
         id="feOffset2" /><feComposite
         result="comp1"
         operator="out"
         in="flood"
         in2="offset"
         id="feComposite2" /><feComposite
         result="comp2"
         operator="atop"
         in="comp1"
         in2="SourceGraphic"
         id="feComposite3" /></filter><filter
       style="color-interpolation-filters:sRGB;"
       inkscape:label="Drop Shadow"
       id="filter6"
       x="-0.080915145"
       y="-0.084299289"
       width="1.1618303"
       height="1.1685986"><feFlood
         result="flood"
         in="SourceGraphic"
         flood-opacity="1.000000"
         flood-color="rgb(58,63,94)"
         id="feFlood5" /><feGaussianBlur
         result="blur"
         in="SourceGraphic"
         stdDeviation="7.000000"
         id="feGaussianBlur5" /><feOffset
         result="offset"
         in="blur"
         dx="0.000000"
         dy="0.000000"
         id="feOffset5" /><feComposite
         result="comp1"
         operator="out"
         in="flood"
         in2="offset"
         id="feComposite5" /><feComposite
         result="comp2"
         operator="atop"
         in="comp1"
         in2="SourceGraphic"
         id="feComposite6" /></filter><filter
       style="color-interpolation-filters:sRGB;"
       inkscape:label="Drop Shadow"
       id="filter10"
       x="-0.079827625"
       y="-0.08183463"
       width="1.1596552"
       height="1.1636693"><feFlood
         result="flood"
         in="SourceGraphic"
         flood-opacity="1.000000"
         flood-color="rgb(58,63,94)"
         id="feFlood9" /><feGaussianBlur
         result="blur"
         in="SourceGraphic"
         stdDeviation="7.000000"
         id="feGaussianBlur9" /><feOffset
         result="offset"
         in="blur"
         dx="0.000000"
         dy="0.000000"
         id="feOffset9" /><feComposite
         result="comp1"
         operator="out"
         in="flood"
         in2="offset"
         id="feComposite9" /><feComposite
         result="comp2"
         operator="atop"
         in="comp1"
         in2="SourceGraphic"
         id="feComposite10" /></filter><filter
       style="color-interpolation-filters:sRGB;"
       inkscape:label="Drop Shadow"
       id="filter12"
       x="-0.0792567"
       y="-0.08483838"
       width="1.1585134"
       height="1.1696768"><feFlood
         result="flood"
         in="SourceGraphic"
         flood-opacity="1.000000"
         flood-color="rgb(58,63,94)"
         id="feFlood10" /><feGaussianBlur
         result="blur"
         in="SourceGraphic"
         stdDeviation="7.000000"
         id="feGaussianBlur10" /><feOffset
         result="offset"
         in="blur"
         dx="0.000000"
         dy="0.000000"
         id="feOffset10" /><feComposite
         result="comp1"
         operator="out"
         in="flood"
         in2="offset"
         id="feComposite11" /><feComposite
         result="comp2"
         operator="atop"
         in="comp1"
         in2="SourceGraphic"
         id="feComposite12" /></filter><filter
       style="color-interpolation-filters:sRGB;"
       inkscape:label="Drop Shadow"
       id="filter7"
       x="-0.08602059"
       y="-0.077572354"
       width="1.1720412"
       height="1.1551447"><feFlood
         result="flood"
         in="SourceGraphic"
         flood-opacity="1.000000"
         flood-color="rgb(58,63,94)"
         id="feFlood3" /><feGaussianBlur
         result="blur"
         in="SourceGraphic"
         stdDeviation="7.000000"
         id="feGaussianBlur3" /><feOffset
         result="offset"
         in="blur"
         dx="0.000000"
         dy="0.000000"
         id="feOffset3" /><feComposite
         result="comp1"
         operator="out"
         in="flood"
         in2="offset"
         id="feComposite4" /><feComposite
         result="comp2"
         operator="atop"
         in="comp1"
         in2="SourceGraphic"
         id="feComposite7" /></filter><filter
       style="color-interpolation-filters:sRGB;"
       inkscape:label="Drop Shadow"
       id="filter14"
       x="-0.11678852"
       y="-0.11994048"
       width="1.233577"
       height="1.239881"><feFlood
         result="flood"
         in="SourceGraphic"
         flood-opacity="1.000000"
         flood-color="rgb(58,63,94)"
         id="feFlood13" /><feGaussianBlur
         result="blur"
         in="SourceGraphic"
         stdDeviation="10.000000"
         id="feGaussianBlur13" /><feOffset
         result="offset"
         in="blur"
         dx="0.000000"
         dy="0.000000"
         id="feOffset13" /><feComposite
         result="comp1"
         operator="out"
         in="flood"
         in2="offset"
         id="feComposite13" /><feComposite
         result="comp2"
         operator="atop"
         in="comp1"
         in2="SourceGraphic"
         id="feComposite14" /></filter><filter
       style="color-interpolation-filters:sRGB;"
       inkscape:label="Drop Shadow"
       id="filter22"
       x="-0.088949143"
       y="-0.091903855"
       width="1.1778983"
       height="1.1838077"><feFlood
         result="flood"
         in="SourceGraphic"
         flood-opacity="1.000000"
         flood-color="rgb(58,63,94)"
         id="feFlood21" /><feGaussianBlur
         result="blur"
         in="SourceGraphic"
         stdDeviation="8.000000"
         id="feGaussianBlur21" /><feOffset
         result="offset"
         in="blur"
         dx="0.000000"
         dy="0.000000"
         id="feOffset21" /><feComposite
         result="comp1"
         operator="out"
         in="flood"
         in2="offset"
         id="feComposite21" /><feComposite
         result="comp2"
         operator="atop"
         in="comp1"
         in2="SourceGraphic"
         id="feComposite22" /></filter><filter
       style="color-interpolation-filters:sRGB;"
       inkscape:label="Drop Shadow"
       id="filter24"
       x="-0.093525792"
       y="-0.096168423"
       width="1.1870516"
       height="1.1923368"><feFlood
         result="flood"
         in="SourceGraphic"
         flood-opacity="1.000000"
         flood-color="rgb(58,63,94)"
         id="feFlood22" /><feGaussianBlur
         result="blur"
         in="SourceGraphic"
         stdDeviation="8.000000"
         id="feGaussianBlur22" /><feOffset
         result="offset"
         in="blur"
         dx="0.000000"
         dy="0.000000"
         id="feOffset22" /><feComposite
         result="comp1"
         operator="out"
         in="flood"
         in2="offset"
         id="feComposite23" /><feComposite
         result="comp2"
         operator="atop"
         in="comp1"
         in2="SourceGraphic"
         id="feComposite24" /></filter><filter
       style="color-interpolation-filters:sRGB;"
       inkscape:label="Drop Shadow"
       id="filter26"
       x="-0.23353218"
       y="-0.090822994"
       width="1.4670644"
       height="1.181646"><feFlood
         result="flood"
         in="SourceGraphic"
         flood-opacity="1.000000"
         flood-color="rgb(58,63,94)"
         id="feFlood24" /><feGaussianBlur
         result="blur"
         in="SourceGraphic"
         stdDeviation="8.000000"
         id="feGaussianBlur24" /><feOffset
         result="offset"
         in="blur"
         dx="0.000000"
         dy="0.000000"
         id="feOffset24" /><feComposite
         result="comp1"
         operator="out"
         in="flood"
         in2="offset"
         id="feComposite25" /><feComposite
         result="comp2"
         operator="atop"
         in="comp1"
         in2="SourceGraphic"
         id="feComposite26" /></filter><filter
       style="color-interpolation-filters:sRGB;"
       inkscape:label="Drop Shadow"
       id="filter28"
       x="-0.26437483"
       y="-0.089952142"
       width="1.5287497"
       height="1.1799043"><feFlood
         result="flood"
         in="SourceGraphic"
         flood-opacity="1.000000"
         flood-color="rgb(58,63,94)"
         id="feFlood26" /><feGaussianBlur
         result="blur"
         in="SourceGraphic"
         stdDeviation="8.000000"
         id="feGaussianBlur26" /><feOffset
         result="offset"
         in="blur"
         dx="0.000000"
         dy="0.000000"
         id="feOffset26" /><feComposite
         result="comp1"
         operator="out"
         in="flood"
         in2="offset"
         id="feComposite27" /><feComposite
         result="comp2"
         operator="atop"
         in="comp1"
         in2="SourceGraphic"
         id="feComposite28" /></filter><filter
       style="color-interpolation-filters:sRGB;"
       inkscape:label="Drop Shadow"
       id="filter36"
       x="-0.082520754"
       y="-0.056911022"
       width="1.1650415"
       height="1.113822"><feFlood
         result="flood"
         in="SourceGraphic"
         flood-opacity="1.000000"
         flood-color="rgb(58,63,94)"
         id="feFlood35" /><feGaussianBlur
         result="blur"
         in="SourceGraphic"
         stdDeviation="5.000000"
         id="feGaussianBlur35" /><feOffset
         result="offset"
         in="blur"
         dx="0.000000"
         dy="0.000000"
         id="feOffset35" /><feComposite
         result="comp1"
         operator="out"
         in="flood"
         in2="offset"
         id="feComposite35" /><feComposite
         result="comp2"
         operator="atop"
         in="comp1"
         in2="SourceGraphic"
         id="feComposite36" /></filter><filter
       style="color-interpolation-filters:sRGB;"
       inkscape:label="Drop Shadow"
       id="filter38"
       x="-0.13145536"
       y="-0.13157949"
       width="1.2629107"
       height="1.263159"><feFlood
         result="flood"
         in="SourceGraphic"
         flood-opacity="1.000000"
         flood-color="rgb(58,63,94)"
         id="feFlood36" /><feGaussianBlur
         result="blur"
         in="SourceGraphic"
         stdDeviation="5.000000"
         id="feGaussianBlur36" /><feOffset
         result="offset"
         in="blur"
         dx="0.000000"
         dy="0.000000"
         id="feOffset36" /><feComposite
         result="comp1"
         operator="out"
         in="flood"
         in2="offset"
         id="feComposite37" /><feComposite
         result="comp2"
         operator="atop"
         in="comp1"
         in2="SourceGraphic"
         id="feComposite38" /></filter><filter
       style="color-interpolation-filters:sRGB;"
       inkscape:label="Drop Shadow"
       id="filter43"
       x="-0.092714985"
       y="-0.095019355"
       width="1.18543"
       height="1.1900387"><feFlood
         result="flood"
         in="SourceGraphic"
         flood-opacity="1.000000"
         flood-color="rgb(58,63,94)"
         id="feFlood42" /><feGaussianBlur
         result="blur"
         in="SourceGraphic"
         stdDeviation="8.000000"
         id="feGaussianBlur42" /><feOffset
         result="offset"
         in="blur"
         dx="0.000000"
         dy="0.000000"
         id="feOffset42" /><feComposite
         result="comp1"
         operator="out"
         in="flood"
         in2="offset"
         id="feComposite42" /><feComposite
         result="comp2"
         operator="atop"
         in="comp1"
         in2="SourceGraphic"
         id="feComposite43" /></filter><filter
       style="color-interpolation-filters:sRGB;"
       inkscape:label="Drop Shadow"
       id="filter47"
       x="-0.09378705"
       y="-0.093777424"
       width="1.1875741"
       height="1.1875548"><feFlood
         result="flood"
         in="SourceGraphic"
         flood-opacity="1.000000"
         flood-color="rgb(58,63,94)"
         id="feFlood46" /><feGaussianBlur
         result="blur"
         in="SourceGraphic"
         stdDeviation="8.000000"
         id="feGaussianBlur46" /><feOffset
         result="offset"
         in="blur"
         dx="0.000000"
         dy="0.000000"
         id="feOffset46" /><feComposite
         result="comp1"
         operator="out"
         in="flood"
         in2="offset"
         id="feComposite46" /><feComposite
         result="comp2"
         operator="atop"
         in="comp1"
         in2="SourceGraphic"
         id="feComposite47" /></filter></defs><sodipodi:namedview
     id="namedview40"
     pagecolor="#505050"
     bordercolor="#eeeeee"
     borderopacity="1"
     inkscape:showpageshadow="0"
     inkscape:pageopacity="0"
     inkscape:pagecheckerboard="0"
     inkscape:deskcolor="#505050"
     inkscape:zoom="2"
     inkscape:cx="159"
     inkscape:cy="129.25"
     inkscape:window-width="1920"
     inkscape:window-height="1017"
     inkscape:window-x="-8"
     inkscape:window-y="-8"
     inkscape:window-maximized="1"
     inkscape:current-layer="svg40" /><path
     style="fill:#1b1f21;stroke:none"
     d="M 0,0 V 240 H 240 V 0 Z"
     id="path1" /><path
     style="fill:#e64539;fill-opacity:1;filter:url(#filter47)"
     d="m 48.864653,216.90799 c -3.328817,-2.9618 -6.576153,-5.38509 -7.216301,-5.38509 -1.096019,0 -11.491688,-9.20551 -17.991555,-15.93177 -1.621445,-1.67792 -3.640805,-3.05076 -4.487468,-3.05076 -0.982372,0 -1.539387,-3.02924 -1.539387,-8.37172 v -8.37172 l 3.138152,2.94814 c 3.449918,3.24103 4.997217,3.70926 4.997217,1.51223 0,-0.78976 -0.713842,-0.99474 -1.586314,-0.45552 -1.06431,0.65778 -1.303458,0.24328 -0.726744,-1.25961 0.529983,-1.38112 0.228412,-2.11627 -0.786502,-1.9173 -1.011265,0.19826 -1.472795,-0.91098 -1.19676,-2.87627 0.247122,-1.75944 -0.07975,-2.872 -0.726372,-2.47236 -0.646627,0.39963 -1.373691,-0.29636 -1.615699,-1.54666 -1.142453,-5.90229 -1.454261,-77.525425 -0.337504,-77.525425 0.683795,0 3.849521,-4.38698 7.034946,-9.748844 C 29.334056,76.54762 36.34003,68.076006 43.605519,60.954359 53.47356,51.281686 55.594996,48.473962 55.594996,45.086267 c 0,-4.348391 1.86128,-5.762009 7.586714,-5.762009 1.813482,0 4.356728,-0.565612 5.651658,-1.256917 1.29493,-0.691304 3.420035,-1.586559 4.722455,-1.989454 1.30242,-0.402895 4.193647,-4.718503 6.424949,-9.590241 l 4.056911,-8.857704 h 42.726237 c 37.63346,0 42.72624,0.249771 42.72624,2.095474 0,1.15251 1.52538,3.620855 3.38973,5.48521 2.04041,2.040408 3.38974,4.938255 3.38974,7.279868 0,3.230919 1.09139,4.50108 6.4405,7.49545 3.54228,1.982926 9.49127,3.949699 13.21998,4.370608 9.62952,1.087011 11.5251,2.371882 11.5251,7.811988 0,4.089202 10.70315,26.823184 10.86932,23.08693 0.10029,-2.255104 3.17453,3.841548 3.41283,6.768146 0.12196,1.497715 -0.44848,3.171389 -1.26765,3.719276 -1.04243,0.697216 -0.99827,1.00239 0.14715,1.016921 2.05287,0.02605 2.17208,86.064027 0.12466,89.968757 -0.71889,1.37102 -3.35189,4.75615 -5.85112,7.52249 -3.33257,3.68877 -4.1996,5.55461 -3.25206,6.99849 1.09043,1.66164 1.62017,1.54573 3.39576,-0.74302 1.15708,-1.49149 2.77415,-2.52483 3.59349,-2.29631 1.01576,0.28329 0.98905,-0.18778 -0.0839,-1.48065 -0.86551,-1.04287 -1.20123,-2.26855 -0.74605,-2.72373 1.27971,-1.27971 4.575,2.62061 4.55127,5.38692 -0.0214,2.49347 -9.24262,14.00881 -11.21065,13.99969 -0.58444,-0.003 -2.86213,1.673 -5.06154,3.72379 -7.50286,6.99588 -9.24265,8.24835 -10.20202,7.34443 -0.52766,-0.49716 -0.51321,0.54509 0.0321,2.31611 0.65945,2.14167 0.37529,3.61048 -0.84848,4.38589 -2.6551,1.68235 -55.39781,1.54095 -55.39781,-0.14851 0,-0.74574 -0.64616,-1.3559 -1.43591,-1.3559 -0.78976,0 -1.05882,0.61016 -0.59793,1.3559 0.46089,0.74574 -0.11325,1.35589 -1.27587,1.35589 -1.16263,0 -2.11387,-0.73218 -2.11387,-1.62707 0,-1.2655 -0.36157,-1.2655 -1.62707,0 -1.07982,1.07982 -6.95525,1.62707 -17.46849,1.62707 l -39.64119,-0.0385 -20.583092,-0.0385 z m 15.543659,-4.0292 c 0.460894,-0.74574 -0.149259,-1.35589 -1.355895,-1.35589 -1.206636,0 -1.816789,0.61015 -1.355895,1.35589 0.460894,0.74574 1.071047,1.3559 1.355895,1.3559 0.284848,0 0.895001,-0.61016 1.355895,-1.3559 z m 73.466598,-2.96602 c -0.43283,-1.08164 -0.75412,-0.76035 -0.81918,0.81919 -0.0589,1.42934 0.26159,2.23016 0.71214,1.77961 0.45055,-0.45055 0.49872,-1.62001 0.10704,-2.5988 z m -86.66732,-1.59721 c 2.90168,-0.1724 2.827334,-0.38766 -1.355895,-3.92585 -2.434251,-2.05889 -5.850586,-4.95712 -7.591858,-6.4405 -1.741271,-1.48338 -3.724267,-2.69705 -4.406658,-2.69705 -0.68239,0 -1.24071,-0.56904 -1.24071,-1.26453 0,-0.69548 -1.133056,-1.62414 -2.517901,-2.06367 -1.384846,-0.43953 -3.159996,-2.15857 -3.944779,-3.82008 -1.411399,-2.98816 -1.42356,-2.98416 -1.121007,0.3688 0.340169,3.76986 10.582468,15.74874 14.539463,17.00465 1.394518,0.4426 2.535487,1.38783 2.535487,2.10051 0,0.71268 -1.525381,0.29631 -3.389737,-0.92526 -3.522576,-2.30808 -4.652771,-1.00359 -1.694868,1.95625 0.96048,0.96111 2.869891,1.30452 4.406658,0.79255 1.491484,-0.49688 4.093296,-0.9855 5.781805,-1.08582 z m 8.087869,1.03225 c -0.450553,-0.45055 -1.620012,-0.49872 -2.598799,-0.10704 -1.081641,0.43284 -0.760353,0.75413 0.819187,0.81919 1.429339,0.0589 2.230164,-0.26159 1.779612,-0.71215 z m 41.082581,-6.89284 c 5.41329,-0.41606 7.8899,-0.4389 14.91524,-0.82638 3.60468,-0.19881 21.6554,1.73 21.6554,3.15169 0,0.58584 1.06777,0.84022 2.37282,0.5653 1.30505,-0.27493 4.81343,-0.77097 7.79639,-1.10231 15.71766,-1.74587 33.83439,-9.81816 48.23958,-21.49414 8.8731,-7.192 17.52132,-26.30115 17.52132,-38.71519 0,-3.02686 0.66224,-5.72413 1.47164,-5.99393 0.92351,-0.30783 0.16597,-3.44293 -2.03384,-8.41707 -2.90532,-6.56944 -3.50548,-9.9725 -3.50548,-19.87673 0,-20.381793 -4.04474,-32.674685 -14.8,-44.980586 -1.80119,-2.060877 -3.94458,-3.747049 -4.76308,-3.747049 -0.81851,0 -2.0905,-1.357856 -2.82664,-3.017457 -0.73614,-1.659601 -3.47398,-4.437632 -6.08407,-6.173401 -7.79882,-5.186372 -13.43834,-10.245769 -12.71864,-11.41028 0.3716,-0.601248 0.0164,-1.093179 -0.78936,-1.093179 -0.80574,0 -2.1673,-1.541409 -3.02568,-3.425353 l -1.5607,-3.425353 -38.40913,0.113514 c -35.132717,0.103831 -38.409561,0.309277 -38.414197,2.408432 -0.01151,5.21299 -14.074361,21.762851 -24.992833,29.412814 -9.175268,6.428596 -11.593794,8.599707 -18.816961,16.89198 -5.795228,6.652985 -7.834252,10.134412 -8.487695,14.491882 -1.152331,7.684296 0.252194,49.514356 1.962179,58.438306 1.814225,9.46795 8.992231,22.70782 16.147788,29.78468 5.786383,5.72274 20.956557,12.01277 24.974112,13.94879 11.830587,5.70105 9.172211,5.87333 11.930268,5.76384 4.481722,-0.17791 6.040182,-0.79619 12.241569,-1.27282 z m 18.94401,-8.74178 c 0,-0.87469 1.32486,-1.13428 3.28199,-0.64307 4.279,1.07396 8.58605,-0.40413 5.98399,-2.05357 -1.38502,-0.87797 -1.25288,-1.15131 0.56426,-1.16721 1.30505,-0.0114 2.37281,0.58939 2.37281,1.33513 0,0.74575 2.44061,1.3559 5.42358,1.3559 2.98297,0 5.42358,0.47728 5.42358,1.06063 0,0.58334 -5.1863,1.17726 -11.5251,1.31981 -7.52015,0.16912 -11.52511,-0.25053 -11.52511,-1.20762 z m 34.57532,0.18307 c -0.4609,-0.74574 -0.19183,-1.35589 0.59792,-1.35589 0.78976,0 1.43592,0.61015 1.43592,1.35589 0,0.74575 -0.26907,1.3559 -0.59793,1.3559 -0.32886,0 -0.97502,-0.61015 -1.43591,-1.3559 z m -7.27187,-1.21252 c -1.56046,-0.98864 -1.56046,-1.28547 0,-1.90604 1.01656,-0.40427 -0.64317,-0.7832 -3.68828,-0.84208 -6.69669,-0.12947 -7.52555,-0.81003 -5.96988,-4.90174 0.82488,-2.16961 0.69151,-3.3672 -0.42554,-3.82122 -0.89483,-0.36369 0.0149,-0.70943 2.02173,-0.7683 4.94903,-0.14519 6.37332,-2.81312 1.51594,-2.8396 -6.01406,-0.0328 -8.19836,-2.15207 -3.24015,-3.14371 4.51607,-0.90322 5.38766,-3.56658 2.20777,-6.74647 -1.0831,-1.0831 -1.64727,-2.29128 -1.25371,-2.68484 0.39356,-0.39356 -0.55073,-1.11746 -2.09841,-1.60868 -4.38112,-1.39051 -3.5951,-4.8529 0.91474,-4.02943 4.26013,0.77788 7.91581,-1.07332 6.53419,-3.30883 -0.51242,-0.82912 -2.11598,-1.50748 -3.56345,-1.50748 -1.44747,0 -3.96215,-1.33039 -5.58817,-2.95641 -2.65719,-2.65719 -3.34236,-4.56743 -3.71008,-10.34359 -0.0621,-0.97619 -0.6965,-1.41426 -1.40967,-0.9735 -0.71317,0.44077 -0.95622,1.6886 -0.54011,2.77297 0.48265,1.25776 -0.47291,2.43901 -2.6393,3.26268 -4.73329,1.79959 -5.57371,3.77583 -2.34136,5.50573 2.89949,1.55176 3.91069,8.15569 1.2488,8.15569 -0.82552,0 -1.15989,-0.8888 -0.74303,-1.97511 0.6347,-1.654 0.16228,-1.7216 -2.9057,-0.41577 -5.36852,2.285 -8.40925,5.18665 -8.40925,8.02461 0,1.3759 -0.89171,2.50164 -1.98158,2.50164 -1.17812,0 -2.59917,2.29355 -3.50473,5.65652 -0.83773,3.11109 -1.92901,5.09409 -2.42507,4.40666 -0.49607,-0.68742 -3.34255,-1.34024 -6.325518,-1.45071 -8.601033,-0.31851 -9.016821,-0.40677 -8.193273,-1.7393 0.429047,-0.69422 0.15998,-1.64545 -0.597926,-2.11387 -0.757907,-0.46841 -1.378012,0.0996 -1.378012,1.26221 0,1.82011 -0.344425,1.78413 -2.478523,-0.25895 -1.363187,-1.30505 -2.210155,-3.14328 -1.88215,-4.08496 0.328004,-0.94167 -0.150304,-2.61182 -1.062906,-3.71144 -0.912603,-1.09962 -1.342392,-2.8251 -0.955087,-3.8344 0.387305,-1.0093 0.159833,-2.69499 -0.505493,-3.74598 -0.856111,-1.35236 -1.215754,-1.4155 -1.230448,-0.21601 -0.01142,0.93217 -1.241067,1.69486 -2.732552,1.69486 -1.491484,0 -2.711789,-0.87922 -2.711789,-1.95382 0,-2.5246 2.639812,-4.19027 2.939726,-1.85491 0.125365,0.97619 0.587636,-1.88602 1.02727,-6.36048 0.505679,-5.14665 0.23788,-8.88255 -0.728957,-10.16921 -0.840559,-1.11861 -1.270622,-2.74062 -0.955696,-3.60445 0.314925,-0.86384 -0.06977,-1.96762 -0.854876,-2.45284 -0.895323,-0.55334 -1.427467,0.88382 -1.427467,3.85516 0,6.29004 -2.16172,11.6934 -4.678175,11.6934 -1.531609,0 -1.834778,-0.99364 -1.228335,-4.02585 0.442844,-2.21422 0.381984,-5.11244 -0.135244,-6.4405 -0.782351,-2.00881 -1.254221,-1.67399 -2.807454,1.992 -1.124203,2.65339 -2.840332,4.40666 -4.313296,4.40666 -2.308326,0 -6.097525,-6.08662 -6.752852,-10.84716 -0.837789,-6.08601 -0.838536,-7.77242 -0.0049,-11.03618 0.926255,-3.6263 6.130962,-6.12448 9.474414,-4.54755 0.897882,0.42348 0.480463,-0.0155 -0.927597,-0.97544 -7.718513,-5.26225 -12.144477,-12.04828 -11.925057,-18.283878 0.276555,-7.859321 1.943494,-15.274628 3.775473,-16.795035 1.043008,-0.86562 1.896378,-2.485774 1.896378,-3.600343 0,-2.645588 10.231386,-12.55631 12.962573,-12.55631 1.161771,0 1.770383,-0.55325 1.352472,-1.229446 -0.417912,-0.676195 0.436978,-0.916471 1.899754,-0.533946 1.462777,0.382525 4.66692,-0.523787 7.120319,-2.014026 2.453399,-1.490239 6.386594,-3.116354 8.740434,-3.613588 2.821977,-0.596126 4.549314,-1.916001 5.071231,-3.874976 2.449694,-9.194723 35.553799,-13.043185 58.456579,-6.79577 5.51552,1.504523 7.85629,5.733876 10.68477,8.085118 5.63938,4.687871 8.35152,4.474585 9.63808,5.042311 1.24214,0.476652 3.34655,0.866639 4.67647,0.866639 1.32992,0 4.0257,1.26459 5.99063,2.8102 1.96492,1.545611 3.57259,2.378555 3.57259,1.850988 0,-3.091013 7.64734,9.834726 8.87413,14.999286 1.70958,7.197043 1.79798,11.285114 0.30552,14.129822 -2.15955,4.116224 -5.09857,5.208364 -5.1532,1.914933 -0.04,-2.408961 -0.0859,-2.409037 -1.48513,-0.0025 -0.79414,1.365844 -1.13756,3.654761 -0.76316,5.086481 0.3744,1.43172 0.23831,2.32969 -0.30243,1.99549 -1.2405,-0.76666 -3.52542,5.77816 -5.53623,15.85771 -1.02316,5.12874 -2.21836,7.79639 -3.49305,7.79639 -1.06574,0 -1.93771,0.61016 -1.93771,1.3559 0,0.74574 1.15502,1.35588 2.56672,1.35588 2.66725,0 4.78669,-3.39797 3.45918,-5.54592 -0.4193,-0.67845 0.20802,-1.23354 1.39405,-1.23354 1.18603,0 2.50767,-1.06777 2.93698,-2.37282 0.4293,-1.30505 1.6926,-4.42644 2.80733,-6.93643 1.15344,-2.59717 1.68975,-6.24873 1.24462,-8.47434 -0.59998,-2.99994 -0.27954,-3.91073 1.37594,-3.91073 1.49018,0 1.93872,0.83885 1.44929,2.71044 -0.38984,1.49074 -0.0778,3.10041 0.69339,3.57704 3.09026,1.90988 -0.35258,19.57892 -8.81439,45.23652 -2.58242,7.83029 -5.14559,16.30165 -5.69595,18.82525 -0.55036,2.52359 -2.00198,6.79466 -3.22583,9.49127 -2.02366,4.4589 -2.77773,4.93831 -8.3267,5.29389 -4.16475,0.26688 -6.85472,1.28294 -8.47434,3.20098 -2.37146,2.80838 -2.37282,2.80796 -2.37282,-0.72996 0,-3.02935 -0.58672,-3.53996 -4.06768,-3.53996 -3.43494,0 -4.06769,0.52729 -4.06769,3.38974 0,3.58859 -0.87759,4.08076 -3.88213,2.17721 z m 2.39199,-6.42143 4.27241,-0.85448 -3.6748,-1.90651 c -4.17859,-2.16788 -7.24284,-1.51674 -7.24284,1.53907 0,2.3278 0.58133,2.4347 6.64523,1.22192 z m 7.52411,-7.17158 c 1.23312,-1.99523 -3.389,-5.71589 -6.54195,-5.26607 -1.79284,0.25578 -3.04548,1.56391 -3.31503,3.46189 -0.37873,2.66668 0.16598,3.05077 4.32663,3.05077 2.61796,0 5.10661,-0.56097 5.53035,-1.24659 z m -54.16823,-6.88878 c 0.46089,-0.74574 -0.14926,-1.3559 -1.3559,-1.3559 -1.206635,0 -1.816788,0.61016 -1.355894,1.3559 0.460894,0.74574 1.071044,1.35589 1.355894,1.35589 0.28485,0 0.895,-0.61015 1.3559,-1.35589 z m 55.68537,-6.93107 c 1.15386,-1.86698 -1.81282,-3.86763 -5.77622,-3.89533 -3.27065,-0.0229 -5.11369,1.93545 -3.80873,4.04692 1.13686,1.83949 8.42564,1.72421 9.58495,-0.15159 z m 0.58426,-13.50166 c 0,-2.13126 -0.73034,-2.70189 -3.03691,-2.37281 -4.50665,0.64296 -4.90275,5.17891 -0.45225,5.17891 2.62432,0 3.48916,-0.69554 3.48916,-2.8061 z M 62.37447,137.70665 c 0,-0.32886 -0.610153,-0.97502 -1.355895,-1.43591 -0.745742,-0.4609 -1.355895,-0.19183 -1.355895,0.59792 0,0.78976 0.610153,1.43592 1.355895,1.43592 0.745742,0 1.355895,-0.26907 1.355895,-0.59793 z m 102.37006,-3.46976 c -0.4609,-0.74574 -2.29136,-1.35589 -4.06769,-1.35589 -1.77633,0 -3.57064,-0.55167 -3.98735,-1.22592 -0.41672,-0.67426 -5.18141,-3.49237 -10.58821,-6.26248 -5.4068,-2.7701 -11.72078,-6.4498 -14.03107,-8.17712 -2.31028,-1.72731 -7.07866,-4.74741 -10.59639,-6.71134 -5.42044,-3.0262 -6.73326,-3.29814 -8.60814,-1.78309 -2.80906,2.26994 -11.72026,11.95434 -12.24298,13.30527 -0.21712,0.56114 4.35902,2.07842 10.16921,3.37173 5.81019,1.29331 14.2249,3.27113 18.69935,4.39514 21.43151,5.38375 37.05107,7.35261 35.25327,4.4437 z M 81.763345,109.79911 c 2.19644,-0.0233 1.195121,-1.03323 -3.796085,-3.82868 -4.589476,-2.57045 -7.326974,-3.38259 -8.474343,-2.5141 -3.035246,2.29751 -1.818936,5.97566 2.699759,8.16413 3.80467,1.84265 4.541805,1.86539 5.490954,0.16935 0.60298,-1.07746 2.438851,-1.97328 4.079715,-1.9907 z m 6.652705,-8.63809 c 1.355639,0.81523 1.341313,0.54559 -0.06305,-1.18666 -0.999522,-1.232885 -3.135056,-2.642483 -4.745631,-3.132441 -1.610576,-0.489957 -4.033336,-1.862168 -5.383912,-3.049357 -2.133774,-1.875638 -2.619721,-1.899044 -3.707948,-0.178597 -2.180727,3.447648 -1.413985,5.127819 2.758255,6.044196 2.228674,0.489499 4.418529,1.482839 4.866343,2.207419 0.510134,0.82541 1.506507,0.74286 2.667944,-0.22105 1.019554,-0.84616 2.643154,-1.06374 3.607999,-0.48351 z m 2.792808,-8.833459 c 0.538112,-2.057742 -0.572805,-3.065641 -5.41887,-4.91637 -5.108002,-1.950764 -6.287228,-2.025687 -7.277449,-0.46238 -1.899533,2.998881 -1.457448,3.464163 2.710261,2.852473 2.738851,-0.401978 4.694889,0.252722 6.4405,2.155683 1.378857,1.503147 2.588388,2.783841 2.687847,2.845986 0.09946,0.06215 0.485428,-1.051781 0.857711,-2.475392 z M 192.54037,84.601668 c 0,-2.64849 -1.01335,-2.350554 -2.69546,0.792498 -1.17073,2.187526 -1.05467,2.535339 0.63024,1.888777 1.13587,-0.435874 2.06522,-1.642448 2.06522,-2.681275 z M 94.375361,81.018023 c 0.536444,-0.932178 0.468621,-1.235114 -0.150718,-0.673191 -0.619338,0.561922 -2.491664,0.126905 -4.160723,-0.966705 -2.663086,-1.744921 -3.236223,-1.745503 -4.680915,-0.0048 -1.012446,1.219922 -1.103822,1.983625 -0.237337,1.983625 0.774909,0 1.693811,-0.762691 2.042004,-1.694869 0.429662,-1.150283 0.948247,-0.93245 1.613951,0.677948 1.140608,2.759226 4.164364,3.127013 5.573738,0.677947 z m 92.005579,-4.990915 c 0.42905,-0.694213 0.15998,-1.645451 -0.59793,-2.113863 -0.7579,-0.468412 -1.37801,0.09958 -1.37801,1.262204 0,2.381665 0.81361,2.732343 1.97594,0.851659 z m -71.04809,-6.726522 c -1.23769,-2.312631 -1.13924,-2.660067 0.56809,-2.004904 1.3404,0.514361 2.06522,-3.01e-4 2.06522,-1.466431 0,-1.24241 0.56799,-1.90789 1.2622,-1.478843 0.69421,0.429047 1.64545,0.15998 2.11386,-0.597926 0.46842,-0.757907 0.10381,-1.378012 -0.81024,-1.378012 -4.1293,0 0.5508,-1.625572 6.46101,-2.244144 13.80828,-1.445198 23.82769,-1.22955 24.50187,0.527355 0.8092,2.108731 7.14814,2.300127 7.14814,0.215828 0,-0.825528 -0.89569,-1.157252 -1.99042,-0.737164 -1.09473,0.420087 -2.35105,0.180291 -2.79181,-0.532882 -0.44077,-0.713173 0.27188,-1.296678 1.58365,-1.296678 1.66707,0 1.95609,-0.428951 0.96011,-1.424935 -1.66828,-1.668275 -3.2088,-1.737534 -16.68006,-0.749901 -14.28616,1.047374 -23.62463,3.219442 -26.87976,6.25205 -4.74935,4.424692 -5.84317,12.161845 -1.17119,8.284448 1.49733,-1.242676 2.09522,-1.096502 2.77647,0.678798 0.47751,1.244384 1.20836,1.922367 1.62409,1.50663 0.41574,-0.415738 0.0822,-2.014718 -0.74123,-3.553289 z m 63.49069,-2.112387 c -0.35117,-0.351168 -1.92264,-0.302675 -3.49215,0.107762 -2.45587,0.642225 -2.87061,1.888114 -1.87729,5.639512 0.0571,0.215486 1.43218,-0.845837 3.05583,-2.358497 1.62365,-1.51266 2.66477,-3.03761 2.31361,-3.388777 z M 115.35455,179.78008 c -1.00938,-1.21623 -1.10022,-2.21445 -0.24936,-2.74031 0.73612,-0.45494 1.83352,0.0114 2.43866,1.03637 0.60514,1.02494 2.01548,2.20991 3.1341,2.63326 1.40907,0.53327 1.14769,0.8026 -0.8509,0.87677 -1.58661,0.0589 -3.59924,-0.75387 -4.4725,-1.80609 z m 0.76538,-13.67966 c -0.42925,-1.11861 -0.39168,-3.04698 0.0835,-4.28526 0.73707,-1.92079 1.02482,-1.81654 1.95939,0.70984 0.60249,1.62869 2.48264,3.51839 4.1781,4.19932 2.85152,1.14522 2.76312,1.2445 -1.17894,1.324 -2.59933,0.0524 -4.56601,-0.70737 -5.04205,-1.9479 z m 104.32584,-24.74851 c -1.47705,-1.47705 -2.03767,0.45433 -1.1005,3.79135 l 0.93533,3.33053 0.47634,-3.16719 c 0.26199,-1.74195 0.12196,-3.52156 -0.31117,-3.95469 z m -12.51384,79.33666 c -0.72056,-1.1659 9.83466,-0.66215 11.02288,0.52607 0.33122,0.33122 -1.84768,0.61653 -4.84201,0.63402 -2.99433,0.0175 -5.77572,-0.50455 -6.18087,-1.16009 z m -8.61209,-1.70825 c -2.2555,-2.71771 0.88545,-7.17598 3.26448,-4.63361 1.0764,1.15029 1.01799,1.75267 -0.21371,2.2043 -0.93218,0.34179 -1.69487,1.21676 -1.69487,1.94437 0,0.72761 0.61015,0.94583 1.35589,0.48494 0.74574,-0.4609 1.3559,-0.19183 1.3559,0.59792 0,2.07363 -2.10761,1.76383 -4.06769,-0.59792 z"
     id="path43"
     sodipodi:nodetypes="ssssscsssssssssssssssscssssssssssssssssssscsssssssssscccssssssssssssssssssssssssssssssssssssssssssssscsssssssssssssssssssssssscsssssssssssssscssssssssssssssssssssssssssssssssssssscsssssssssssssssssssssssssssssssssssssssssccscssssssssssssssssssssssssssssssssssssssssssssssssssssssssssssssscssssssccssssssssssssssssssssssssscsssssssssssssssscsssssssssssss" /></svg>
