<?xml version="1.0" encoding="UTF-8" standalone="no"?>
<svg
   width="240"
   height="240"
   version="1.1"
   id="svg40"
   sodipodi:docname="FBCeclipse.svg"
   inkscape:version="1.3.2 (091e20e, 2023-11-25, custom)"
   xml:space="preserve"
   xmlns:inkscape="http://www.inkscape.org/namespaces/inkscape"
   xmlns:sodipodi="http://sodipodi.sourceforge.net/DTD/sodipodi-0.dtd"
   xmlns="http://www.w3.org/2000/svg"
   xmlns:svg="http://www.w3.org/2000/svg"><defs
     id="defs40"><filter
       style="color-interpolation-filters:sRGB;"
       inkscape:label="Drop Shadow"
       id="filter3"
       x="-0.17272412"
       y="-0.16174829"
       width="1.3454482"
       height="1.3234966"><feFlood
         result="flood"
         in="SourceGraphic"
         flood-opacity="1.000000"
         flood-color="rgb(58,63,94)"
         id="feFlood2" /><feGaussianBlur
         result="blur"
         in="SourceGraphic"
         stdDeviation="15.000000"
         id="feGaussianBlur2" /><feOffset
         result="offset"
         in="blur"
         dx="0.000000"
         dy="0.000000"
         id="feOffset2" /><feComposite
         result="comp1"
         operator="out"
         in="flood"
         in2="offset"
         id="feComposite2" /><feComposite
         result="comp2"
         operator="atop"
         in="comp1"
         in2="SourceGraphic"
         id="feComposite3" /></filter><filter
       style="color-interpolation-filters:sRGB;"
       inkscape:label="Drop Shadow"
       id="filter6"
       x="-0.080915145"
       y="-0.084299289"
       width="1.1618303"
       height="1.1685986"><feFlood
         result="flood"
         in="SourceGraphic"
         flood-opacity="1.000000"
         flood-color="rgb(58,63,94)"
         id="feFlood5" /><feGaussianBlur
         result="blur"
         in="SourceGraphic"
         stdDeviation="7.000000"
         id="feGaussianBlur5" /><feOffset
         result="offset"
         in="blur"
         dx="0.000000"
         dy="0.000000"
         id="feOffset5" /><feComposite
         result="comp1"
         operator="out"
         in="flood"
         in2="offset"
         id="feComposite5" /><feComposite
         result="comp2"
         operator="atop"
         in="comp1"
         in2="SourceGraphic"
         id="feComposite6" /></filter><filter
       style="color-interpolation-filters:sRGB;"
       inkscape:label="Drop Shadow"
       id="filter10"
       x="-0.079827625"
       y="-0.08183463"
       width="1.1596552"
       height="1.1636693"><feFlood
         result="flood"
         in="SourceGraphic"
         flood-opacity="1.000000"
         flood-color="rgb(58,63,94)"
         id="feFlood9" /><feGaussianBlur
         result="blur"
         in="SourceGraphic"
         stdDeviation="7.000000"
         id="feGaussianBlur9" /><feOffset
         result="offset"
         in="blur"
         dx="0.000000"
         dy="0.000000"
         id="feOffset9" /><feComposite
         result="comp1"
         operator="out"
         in="flood"
         in2="offset"
         id="feComposite9" /><feComposite
         result="comp2"
         operator="atop"
         in="comp1"
         in2="SourceGraphic"
         id="feComposite10" /></filter><filter
       style="color-interpolation-filters:sRGB;"
       inkscape:label="Drop Shadow"
       id="filter12"
       x="-0.0792567"
       y="-0.08483838"
       width="1.1585134"
       height="1.1696768"><feFlood
         result="flood"
         in="SourceGraphic"
         flood-opacity="1.000000"
         flood-color="rgb(58,63,94)"
         id="feFlood10" /><feGaussianBlur
         result="blur"
         in="SourceGraphic"
         stdDeviation="7.000000"
         id="feGaussianBlur10" /><feOffset
         result="offset"
         in="blur"
         dx="0.000000"
         dy="0.000000"
         id="feOffset10" /><feComposite
         result="comp1"
         operator="out"
         in="flood"
         in2="offset"
         id="feComposite11" /><feComposite
         result="comp2"
         operator="atop"
         in="comp1"
         in2="SourceGraphic"
         id="feComposite12" /></filter></defs><sodipodi:namedview
     id="namedview40"
     pagecolor="#505050"
     bordercolor="#eeeeee"
     borderopacity="1"
     inkscape:showpageshadow="0"
     inkscape:pageopacity="0"
     inkscape:pagecheckerboard="0"
     inkscape:deskcolor="#505050"
     inkscape:zoom="2.3747003"
     inkscape:cx="144.43928"
     inkscape:cy="99.170409"
     inkscape:window-width="1920"
     inkscape:window-height="1017"
     inkscape:window-x="-8"
     inkscape:window-y="-8"
     inkscape:window-maximized="1"
     inkscape:current-layer="svg40" /><path
     style="fill:#1b1f21;stroke:none"
     d="M 0,0 V 240 H 240 V 0 Z"
     id="path1"
     sodipodi:insensitive="true" /><path
     style="fill:#e64539;fill-opacity:1;stroke-width:1.01615;filter:url(#filter12)"
     d="m 14.01527,215.3541 c 0,-1.90383 1.606935,-2.4495 5.194087,-1.76377 2.856748,0.5461 9.771304,-0.61901 15.36568,-2.58914 5.594376,-1.97013 10.470549,-3.28309 10.835941,-2.9177 0.365392,0.36538 -0.88273,3.02548 -2.773604,5.91133 -3.199265,4.88269 -4.312186,5.20771 -16.030028,4.68147 C 17.453383,218.2652 14.01527,217.35811 14.01527,215.3541 Z m 55.054287,2.34377 c 1.363957,-0.55037 3.595888,-0.55037 4.959846,0 1.363957,0.55037 0.247992,1.00067 -2.479923,1.00067 -2.727916,0 -3.843881,-0.4503 -2.479923,-1.00067 z m 9.093079,-1.57434 c -3.455343,-1.50312 -6.744369,-2.27103 -7.308945,-1.70645 -0.564576,0.56458 -4.601658,1.20904 -8.971295,1.43214 -4.369636,0.2231 -7.538648,-0.25152 -7.042246,-1.05471 0.496401,-0.8032 -0.01935,-2.03012 -1.146115,-2.7265 -1.126763,-0.69637 -1.559122,-2.05824 -0.960795,-3.02634 0.598327,-0.96812 2.329406,-1.28379 3.846843,-0.70149 1.517436,0.58229 4.613548,-0.79586 6.880248,-3.06256 2.2667,-2.2667 5.965509,-4.12127 8.219576,-4.12127 2.254067,0 5.921003,-0.97548 8.148747,-2.16773 2.54778,-1.36353 4.747112,-1.47107 5.928318,-0.28985 1.03283,1.03282 3.126211,6.02577 4.651957,11.09545 2.715482,9.02286 2.681791,9.21594 -1.594883,9.13992 -2.402932,-0.0427 -7.196066,-1.30748 -10.65141,-2.81061 z m 16.532791,1.56564 c -0.727445,-0.72744 -1.322626,-2.65136 -1.322626,-4.27537 0,-2.3626 0.867978,-2.19739 4.342964,0.82665 4.098335,3.56649 4.074765,3.38824 -0.418472,-3.16441 -2.61879,-3.81908 -3.457159,-5.98977 -1.863041,-4.82376 1.657928,1.2127 5.445668,1.52543 8.850208,0.73072 l 5.95181,-1.38931 -6.37799,-0.23473 c -3.878229,-0.14273 -7.092635,-1.5955 -8.201345,-3.70662 -1.00284,-1.90954 -2.474579,-7.40052 -3.27053,-12.20216 -1.326573,-8.00268 -1.139094,-8.60581 2.249529,-7.23685 2.033193,0.82139 6.375036,2.42441 9.648526,3.56229 3.2735,1.13788 7.08935,2.95933 8.47968,4.04767 1.39033,1.08833 2.18373,2.32294 1.7631,2.74356 -0.42061,0.42062 -3.24432,-0.17797 -6.27491,-1.33019 -3.03057,-1.15222 -5.97748,-1.62762 -6.54866,-1.05642 -0.5712,0.57119 1.69093,1.99003 5.02694,3.15297 3.86294,1.34662 6.38271,3.77392 6.93909,6.68442 0.48048,2.51348 -0.27597,6.14211 -1.681,8.06361 -1.70801,2.33585 -4.23552,3.17232 -7.6267,2.52406 -4.00168,-0.76498 -4.619128,-0.42382 -2.92574,1.61658 1.18049,1.42241 3.64341,2.1312 5.47317,1.57511 1.82977,-0.55609 1.09491,0.35811 -1.633,2.03157 -2.72792,1.67345 -5.927015,3.07427 -7.109111,3.11293 -1.182097,0.0386 -2.744448,-0.52488 -3.471892,-1.25232 z m 14.548883,-18.30936 c -1.63675,-0.91074 -5.65422,-2.28592 -8.92773,-3.05597 -3.918855,-0.92186 -5.274158,-0.73186 -3.967872,0.55625 1.091166,1.07599 4.215862,2.35674 6.943782,2.84612 2.72791,0.48938 5.85262,0.98422 6.94378,1.09963 1.09117,0.11543 0.64478,-0.5353 -0.99196,-1.44603 z m 0,17.64805 c 1.63674,-1.05775 6.10061,-1.92318 9.91968,-1.92318 3.81909,0 8.28294,0.86543 9.9197,1.92318 2.08833,1.34958 -0.87024,1.92318 -9.9197,1.92318 -9.04944,0 -12.00802,-0.5736 -9.91968,-1.92318 z m 41.54451,-10.41568 c 6.9999,-6.81978 16.04347,-17.5229 20.09682,-23.78469 7.25552,-11.20865 7.4137,-11.31625 10.20638,-6.94379 1.56016,2.44272 3.42708,5.44831 4.14872,6.67912 0.76091,1.29778 -2.21616,4.53545 -7.08712,7.70749 -4.61956,3.00831 -13.65849,10.70583 -20.08651,17.10558 -6.80477,6.77482 -13.42482,11.6359 -15.84634,11.6359 -3.30882,0 -1.5573,-2.53478 8.56805,-12.39961 z m 2.33305,9.06006 c 1.50974,-2.07637 6.76246,-7.36863 11.6727,-11.76059 4.91025,-4.39196 11.60605,-9.81508 14.87955,-12.05137 4.1137,-2.81029 7.17721,-3.57751 9.91969,-2.48425 2.18232,0.86996 5.75342,1.57657 7.93575,1.57025 2.53961,-0.007 1.60511,-0.86751 -2.59612,-2.38961 -3.61019,-1.30797 -5.91653,-3.02559 -5.12517,-3.81695 0.79134,-0.79134 3.01744,-1.43881 4.94689,-1.43881 1.92943,0 5.93026,0.92091 8.89072,2.04648 5.17984,1.96937 5.24077,2.15746 1.6171,4.99208 -3.45083,2.69942 -3.3131,2.7521 1.64792,0.63028 3.68097,-1.57434 7.47899,-1.72295 11.86755,-0.46431 5.62061,1.61196 6.52691,2.79985 7.01792,9.19834 0.55105,7.18097 0.38136,7.37651 -7.49402,8.63584 -7.49486,1.19848 -7.75059,1.44304 -3.66033,3.50041 2.41864,1.21656 4.7816,3.37584 5.25103,4.79842 0.59527,1.80391 -0.85801,2.40418 -4.80318,1.98394 -3.11118,-0.33141 -6.67385,-1.49533 -7.91706,-2.5865 -1.69119,-1.48438 -1.69119,-2.35096 0,-3.44151 1.25203,-0.80736 -0.31061,-1.47113 -3.50294,-1.48796 -5.36457,-0.0283 -5.54577,0.20984 -2.61903,3.44152 2.94405,3.25079 2.67937,3.44944 -4.15638,3.1194 -4.01536,-0.19386 -7.74705,-0.50604 -8.29263,-0.69374 -0.54558,-0.18769 1.23997,-1.00726 3.96789,-1.82126 3.59257,-1.07201 1.6784,-1.54697 -6.94379,-1.72297 -6.54699,-0.13362 -15.47472,0.6745 -19.83938,1.79584 -4.36467,1.12135 -9.61739,2.53008 -11.67272,3.13052 -3.34762,0.97797 -3.45097,0.69839 -0.99196,-2.68349 z m 15.64059,1.35562 c 2.72791,-0.87363 6.57488,-1.67742 8.54882,-1.78619 1.97393,-0.10876 3.03721,0.69502 2.36284,1.78619 -0.67438,1.09116 -4.52135,1.89495 -8.54883,1.78618 -6.5775,-0.17763 -6.81795,-0.3594 -2.36283,-1.78618 z m -35.71089,-0.74506 c 0,-0.46582 3.23722,-2.75696 7.19382,-5.09141 3.9566,-2.33445 6.75874,-4.67955 6.22696,-5.21132 -0.53177,-0.53177 -3.15751,-0.13397 -5.83496,0.88399 -2.67745,1.01797 -10.16664,2.43213 -16.64264,3.14258 -10.24522,1.12396 -11.33256,0.93334 -8.37168,-1.46759 2.5902,-2.10035 2.8508,-3.31138 1.09117,-5.07101 -1.75964,-1.75962 -0.44022,-2.323 5.52486,-2.35902 4.31011,-0.026 10.96126,-0.85853 14.78034,-1.85 3.81908,-0.99147 9.17571,-2.46415 11.90363,-3.27262 4.46207,-1.32243 4.68658,-1.13676 2.237,1.85 -1.49756,1.82597 -4.17588,3.33362 -5.95181,3.35033 -2.77087,0.0261 -2.8132,0.2933 -0.29838,1.88357 2.01809,1.27616 4.08298,0.8103 6.63156,-1.49614 2.03553,-1.84212 4.60012,-5.0294 5.69908,-7.08282 1.54806,-2.8926 1.41753,-3.37469 -0.57956,-2.14042 -1.41772,0.87619 -4.4083,1.84278 -6.64574,2.14796 -2.23743,0.30517 -9.51231,1.62911 -16.16639,2.94207 -6.99777,1.38078 -13.68906,1.68767 -15.8715,0.72791 -3.17878,-1.3979 -2.6793,-1.87721 3.1706,-3.04261 6.41668,-1.27831 6.51708,-1.40314 1.32263,-1.64449 -3.52883,-0.16394 -5.31865,-1.18425 -4.80847,-2.74108 0.44698,-1.36396 6.70615,-4.39278 13.90928,-6.7307 7.20314,-2.33793 15.14542,-5.68583 17.64953,-7.43978 2.50411,-1.75394 3.93539,-3.18899 3.18061,-3.18899 -0.75478,0 -4.74771,1.73385 -8.87317,3.85299 -4.12548,2.11914 -10.08915,4.48127 -13.25261,5.24918 -3.91757,0.95098 -5.32864,0.71162 -4.42494,-0.75058 0.72972,-1.18073 7.44981,-6.21737 14.9335,-11.19252 7.48369,-4.97514 15.89687,-12.04828 18.69596,-15.71808 3.17938,-4.16838 4.69436,-8.18242 4.03698,-10.69624 -0.57875,-2.21314 -0.009,-4.66862 1.26595,-5.45663 1.48579,-0.91826 2.17822,-0.10816 1.92832,2.25602 -0.21445,2.02882 -0.28709,7.03665 -0.16145,11.12852 0.12566,4.09188 1.23284,7.43978 2.4604,7.43978 1.45553,0 1.78766,-2.22137 0.95477,-6.3858 -0.98462,-4.9231 -0.73847,-5.84711 1.07463,-4.03402 1.29349,1.29349 2.3518,4.98949 2.3518,8.21334 0,3.22384 -1.50854,8.16385 -3.35231,10.97779 -1.84376,2.81394 -4.36286,5.11625 -5.59798,5.11625 -1.23513,0 -0.54497,-1.93901 1.53368,-4.3089 2.41768,-2.75642 2.70717,-3.71733 0.80347,-2.66701 -1.63674,0.90305 -4.13413,2.54005 -5.54974,3.6378 -2.06436,1.60083 -2.07755,2.30261 -0.0667,3.54544 1.66379,1.02827 -0.7203,2.933 -7.08702,5.66209 -5.27683,2.26192 -13.50499,5.09732 -18.2848,6.30089 -4.77982,1.20357 -8.69058,2.83923 -8.69058,3.63481 0,0.79558 2.82979,1.52695 6.28843,1.62529 3.45863,0.0984 8.81526,-1.12788 11.90362,-2.72493 3.08837,-1.59707 5.61521,-3.77359 5.61521,-4.83673 0,-1.06315 0.88665,-1.93299 1.97033,-1.93299 1.08367,0 5.52185,-1.53864 9.86261,-3.4192 5.00481,-2.16824 8.74543,-5.47885 10.22416,-9.04883 1.28254,-3.09631 2.42419,-8.16571 2.537,-11.26532 0.11283,-3.09961 0.96052,-5.17132 1.88377,-4.60379 0.92327,0.56754 1.308,3.55733 0.85497,6.64398 -0.45302,3.08665 -0.0925,5.16018 0.80127,4.60782 0.89373,-0.55235 1.65707,-2.96033 1.69631,-5.35106 0.0667,-4.06326 0.3973,-3.95856 5.06869,1.60504 2.74853,3.27351 6.70206,9.20172 8.78561,13.17383 l 3.78826,7.22202 -5.09508,0.97398 c -4.17339,0.7978 -5.81103,-0.23947 -9.05292,-5.73406 -2.1768,-3.68943 -4.73499,-6.70804 -5.68485,-6.70804 -0.94985,0 -4.7428,4.68705 -8.42878,10.41568 -3.68597,5.72861 -10.97167,15.13984 -16.19045,20.91381 -5.21879,5.77398 -12.05093,11.82312 -15.18253,13.44253 -3.1316,1.61942 -5.69381,2.56326 -5.69381,2.09744 z m -5.45584,-10.48856 c -1.36396,-0.55036 -3.59588,-0.55036 -4.95984,0 -1.36396,0.55037 -0.24799,1.00067 2.47993,1.00067 2.72791,0 3.84388,-0.4503 2.47991,-1.00067 z m 11.90363,-1.98394 c -1.36395,-0.55036 -3.59588,-0.55036 -4.95984,0 -1.36396,0.55037 -0.24799,1.00068 2.47992,1.00068 2.72792,0 3.84388,-0.45031 2.47992,-1.00068 z m 26.46318,-21.13119 3.12368,-6.32199 -5.05039,5.95182 c -2.7777,3.2735 -5.08248,6.67408 -5.12172,7.55685 -0.0392,0.88277 0.82777,1.04935 1.9267,0.37018 1.09892,-0.67917 3.4037,-4.07975 5.12173,-7.55686 z m -39.85476,30.38087 c -0.67438,-1.09116 0.66478,-1.98394 2.97591,-1.98394 2.31113,0 3.65028,0.89278 2.9759,1.98394 -0.67437,1.09117 -2.01353,1.98394 -2.9759,1.98394 -0.96238,0 -2.30153,-0.89277 -2.97591,-1.98394 z m 95.84902,-3.33919 c 1.43216,-0.57311 3.1433,-0.50262 3.80255,0.15662 0.65925,0.65925 -0.51252,1.12815 -2.60392,1.04201 -2.31117,-0.0952 -2.78129,-0.56531 -1.19863,-1.19863 z M 75.517356,198.32005 c 0,-0.54558 1.785545,-1.94757 3.967877,-3.11552 2.182332,-1.16794 3.967877,-1.67715 3.967877,-1.13157 0,0.54559 -1.785545,1.94757 -3.967877,3.11551 -2.182332,1.16795 -3.967877,1.67716 -3.967877,1.13158 z m 8.09238,-9.62704 c -0.08615,-0.85342 1.194251,-4.78477 2.845324,-8.73634 1.651071,-3.95158 3.442816,-6.74381 3.981654,-6.20498 0.538836,0.53883 0.41842,3.78612 -0.267595,7.2162 -0.686014,3.43007 -1.95512,5.79903 -2.820237,5.26436 -0.865115,-0.53467 -2.025093,0.1494 -2.577728,1.52015 -0.552635,1.37076 -1.075273,1.79404 -1.161418,0.94061 z m 49.607164,-0.15316 c 0.45464,-0.39208 3.50495,-1.31198 6.77845,-2.04421 4.34664,-0.97227 5.14922,-0.78821 2.9759,0.6825 -1.63674,1.1076 -4.68705,2.02749 -6.77845,2.04421 -2.09141,0.0167 -3.43056,-0.29042 -2.9759,-0.6825 z m -24.76086,-4.24652 c -2.07029,-1.56709 -4.48909,-2.40122 -5.37513,-1.85363 -0.88603,0.54759 -3.432814,-0.14214 -5.659532,-1.53275 -2.226717,-1.39061 -4.048577,-3.38495 -4.048577,-4.43188 0,-1.04692 1.071327,-0.83216 2.380726,0.47724 1.309399,1.3094 3.147633,2.38072 4.084965,2.38072 0.937328,0 1.097418,-0.98184 0.355768,-2.18187 -0.980539,-1.58654 -0.236086,-1.58654 2.72839,0 2.24228,1.20003 6.21991,2.18187 8.83919,2.18187 2.7904,0 6.95819,-2.46447 10.06543,-5.95182 2.9167,-3.27349 6.68583,-5.95181 8.37586,-5.95181 2.6646,0 2.59669,0.81816 -0.5113,6.1594 -1.97123,3.38768 -5.71319,7.85154 -8.31547,9.9197 -2.60227,2.06815 -5.72697,3.73189 -6.94377,3.69718 -1.21681,-0.0346 -3.90626,-1.34526 -5.97655,-2.91235 z m -5.06627,-9.80293 c -1.96833,-2.37169 -1.19855,-3.07891 4.5188,-4.1515 3.79022,-0.71105 8.47906,-0.98699 10.41965,-0.61321 3.36035,0.64726 3.36303,0.84493 0.0564,4.1515 -1.90957,1.90955 -5.53078,3.4719 -8.04716,3.4719 -2.51636,0 -5.64283,-1.28641 -6.94771,-2.85869 z m 29.6618,-3.06987 c 0,-1.22697 2.9015,-4.90282 6.44779,-8.16855 3.73329,-3.43792 4.90567,-5.3587 2.78478,-4.5624 -2.01466,0.7564 0.88685,-3.1746 6.4478,-8.73555 5.56095,-5.56095 10.11082,-11.22198 10.11082,-12.58007 0,-1.35809 -2.80623,1.34663 -6.23607,6.01048 -3.49155,4.74779 -6.80035,7.5667 -7.51824,6.40513 -0.7052,-1.14103 -3.02227,1.15656 -5.14906,5.10576 -2.33384,4.33369 -6.51708,8.2877 -10.55163,9.97344 -3.67662,1.53619 -7.18345,2.29439 -7.79294,1.68488 -0.60951,-0.60951 0.15656,-1.17094 1.70238,-1.24763 1.63196,-0.081 1.14665,-0.82632 -1.1573,-1.77739 -3.58081,-1.47817 -3.29052,-1.94081 2.97592,-4.74275 4.93715,-2.20757 5.78444,-3.12724 2.93194,-3.18245 -2.2065,-0.0427 -7.11675,2.454 -10.91166,5.54825 -3.7949,3.09425 -9.93456,6.66534 -13.64368,7.93575 -3.709105,1.27042 -9.179621,2.30985 -12.156684,2.30985 -2.977064,0 -6.524246,-1.33916 -7.882626,-2.97592 -2.082538,-2.5093 -1.697718,-2.9759 2.454311,-2.9759 2.708252,0 10.602549,-2.90151 17.542879,-6.4478 6.94034,-3.54629 18.55714,-12.02762 25.81514,-18.84741 7.25798,-6.81979 14.32509,-12.39962 15.70468,-12.39962 1.84512,0 2.1725,2.45026 1.23817,9.26692 -0.69859,5.09681 -1.03363,8.89109 -0.7445,8.43174 0.28911,-0.45935 2.30169,-2.99738 4.47239,-5.64007 2.17071,-2.64269 2.83077,-4.15235 1.46681,-3.35481 -1.36396,0.79755 -2.47992,0.50463 -2.47992,-0.65093 0,-1.15557 1.2598,-2.10104 2.79955,-2.10104 1.53975,0 5.25186,-2.9015 8.24912,-6.44779 l 5.44958,-6.4478 -1.49496,8.92772 c -0.82222,4.91025 -1.63283,11.60604 -1.80132,14.87954 -0.1685,3.2735 -1.25365,5.95182 -2.41143,5.95182 -1.15778,0 -5.0564,3.3614 -8.6636,7.46977 -3.60721,4.10839 -9.13253,9.30262 -12.2785,11.54274 -3.14597,2.24014 -5.71994,3.06907 -5.71994,1.84209 z M 76.651036,160.34391 c -1.71469,-1.71469 -3.114774,-3.72343 -3.111297,-4.46387 0.0035,-0.74043 3.892924,-1.36607 8.643217,-1.39031 6.115282,-0.0312 11.122782,-1.68915 17.151419,-5.67871 4.682985,-3.09906 10.940855,-6.33052 13.906375,-7.18101 2.96553,-0.8505 6.49478,-0.86473 7.84278,-0.0316 1.71396,1.05929 0.44731,3.04298 -4.21257,6.59725 -3.66492,2.79536 -11.56726,7.36502 -17.560745,10.1548 -5.993493,2.78977 -12.842228,5.08103 -15.21941,5.09169 -2.377184,0.0107 -5.72508,-1.38354 -7.439769,-3.09823 z m -3.589273,-8.93131 c -1.896159,-1.10471 -4.427907,-3.84037 -5.626106,-6.07922 -1.969628,-3.68029 -1.734145,-3.93831 2.455593,-2.69062 2.548776,0.75903 5.750103,2.79968 7.11406,4.53481 1.363958,1.73512 2.479923,3.8769 2.479923,4.75951 0,0.88262 -0.669579,1.5776 -1.487953,1.54442 -0.818375,-0.0331 -3.039357,-0.96419 -4.935517,-2.0689 z m 8.460945,-1.73861 c -1.807874,-3.37805 -1.000199,-4.37313 6.377997,-7.85798 4.646401,-2.19456 11.572706,-5.76815 15.391785,-7.94128 3.81908,-2.17314 8.72933,-4.55488 10.91166,-5.29275 2.18233,-0.73787 5.9741,-1.47935 8.42615,-1.64772 2.45205,-0.16837 5.99125,-1.83911 7.8649,-3.71276 1.87364,-1.87364 2.4623,-3.40662 1.30814,-3.40662 -1.15416,0 -7.37169,1.80586 -13.81671,4.01302 -6.44503,2.20716 -15.52839,6.73789 -20.185245,10.06829 -4.656858,3.33041 -11.272223,6.85982 -14.700811,7.84311 -4.739945,1.35941 -8.256528,0.89309 -14.674586,-1.94592 -4.642434,-2.05357 -9.513234,-5.73765 -10.824001,-8.18684 l -2.383213,-4.45307 5.80644,4.13454 c 3.193543,2.27401 8.202989,4.73605 11.132105,5.47122 3.982074,0.99943 9.457261,-0.64616 21.70231,-6.52276 9.007151,-4.32267 21.082651,-8.97588 26.834421,-10.34044 8.26696,-1.96128 11.07239,-1.97097 13.39158,-0.0462 1.6136,1.33917 2.93381,4.40184 2.93381,6.80594 0,2.4041 -2.00873,6.24303 -4.46386,8.53095 -3.20473,2.98648 -6.98214,4.13498 -13.39159,4.07166 -6.86612,-0.0679 -11.64955,1.57115 -20.714631,7.09764 -6.482805,3.9522 -12.477606,7.18582 -13.321781,7.18582 -0.844174,0 -2.466367,-1.74053 -3.60487,-3.86784 z m 66.682912,-20.93138 c -0.62807,-1.63676 -2.95552,-2.97591 -5.1721,-2.97591 -2.21657,0 -4.03014,-0.6602 -4.03014,-1.46712 0,-0.8069 1.55699,-5.23153 3.45996,-9.83251 1.90299,-4.60096 5.25088,-9.3021 7.43977,-10.44697 3.95658,-2.06943 3.95631,-2.07576 -0.0479,-1.08392 -2.67159,0.66177 -7.58132,-1.67255 -14.58275,-6.933326 -5.80534,-4.36204 -11.35828,-7.930983 -12.33988,-7.930983 -0.9816,0 -1.78474,-1.254206 -1.78474,-2.787123 0,-2.10642 -1.93816,-2.527161 -7.93575,-1.722715 -6.5178,0.87422 -7.93575,0.471878 -7.93575,-2.25176 0,-1.823891 1.70378,-6.628496 3.78618,-10.676898 2.0824,-4.048404 6.33572,-9.781176 9.45183,-12.739495 3.11609,-2.95832 9.51308,-6.736221 14.21552,-8.395338 8.19611,-2.891757 9.05504,-2.803959 20.75824,2.121852 6.71461,2.826135 16.0095,7.753682 20.65535,10.950103 4.64583,3.196422 9.40663,7.604792 10.57953,9.796379 1.1729,2.191587 1.85586,6.833319 1.5177,10.31496 -0.4601,4.736987 -2.29629,7.335447 -7.2954,10.324006 -3.67429,2.19656 -10.0651,7.118448 -14.2018,10.937528 -4.13669,3.81909 -8.94221,8.09495 -10.67892,9.50194 -1.73671,1.40697 -3.15765,4.19916 -3.15765,6.20487 0,2.0057 1.32932,4.74997 2.95407,6.09838 1.62473,1.34841 2.46481,3.24328 1.86685,4.2108 -0.59797,0.96753 -2.27817,1.75915 -3.73378,1.75915 -1.45561,0 -3.16044,-1.33916 -3.78853,-2.9759 z m 11.62912,-22.8153 c -0.67438,-1.09116 -2.28943,-1.97026 -3.58898,-1.95356 -1.41975,0.0183 -1.17504,0.798 0.61306,1.95356 1.63675,1.05775 3.25179,1.93685 3.58898,1.95356 0.33719,0.0168 0.0613,-0.86239 -0.61306,-1.95356 z m 14.87953,-16.951351 c 0,-1.685085 -3.29822,-8.79833 -7.32938,-15.807213 -4.03115,-7.008882 -8.46642,-13.17975 -9.85615,-13.71304 -1.38973,-0.53329 -2.92082,-0.332047 -3.40243,0.447204 -0.4816,0.779251 3.27882,8.328824 8.35649,16.776829 5.07767,8.448005 9.90697,15.360008 10.73179,15.360008 0.82482,0 1.49968,-1.378705 1.49968,-3.063788 z m 7.93575,-6.701674 c 0,-2.097505 -2.90151,-7.607241 -6.44779,-12.243857 -3.5463,-4.636615 -7.56378,-8.797892 -8.92773,-9.24728 -1.36396,-0.449389 -2.47993,0.02573 -2.47993,1.055815 0,1.030088 3.31557,6.907505 7.36792,13.060928 4.05235,6.153422 8.06983,11.188041 8.92772,11.188041 0.8579,0 1.55981,-1.716141 1.55981,-3.813647 z m -28.83731,39.303305 c -0.84763,-2.67061 -0.18209,-5.33658 1.83607,-7.35474 2.19996,-2.19996 3.79766,-2.53362 5.23748,-1.09381 1.41686,1.41687 1.43686,3.74193 0.0633,7.35475 -1.1047,2.9056 -2.86326,5.28291 -3.9079,5.28291 -1.04465,0 -2.49766,-1.8851 -3.22892,-4.18911 z M 62.125773,120.1968 c -7.431168,-0.53767 -8.431738,-1.18033 -8.431738,-5.41568 0,-2.6431 1.436095,-8.39479 3.191323,-12.78153 1.755227,-4.386749 3.609447,-7.975901 4.120488,-7.975901 0.51104,0 3.607481,2.678316 6.880978,5.95181 3.793956,3.793961 7.976551,5.951811 11.53645,5.951811 3.795251,0 8.672851,-2.77078 15.222911,-8.647593 5.301055,-4.756173 11.529095,-9.24277 13.840095,-9.970211 2.311,-0.727443 6.745,-0.355706 9.85333,0.826081 3.10834,1.181786 9.96464,5.437927 15.23622,9.45809 8.16114,6.223763 9.40247,8.048453 8.35771,12.285373 -0.67485,2.73679 -2.09378,5.86129 -3.15316,6.94334 -1.27054,1.29771 -2.41984,1.16857 -3.37655,-0.37941 -1.09744,-1.7757 -6.99125,-1.40375 -24.22063,1.52852 -12.523631,2.13141 -26.787719,3.64129 -31.697967,3.35532 -4.910247,-0.28599 -12.722004,-0.7945 -17.35946,-1.13002 z M 164.8549,112.7719 c 0.0529,-5.13069 0.32298,-5.40077 2.18953,-2.18952 1.52595,2.62527 1.50886,4.28343 -0.0604,5.85261 -1.59674,1.59675 -2.17319,0.60501 -2.1292,-3.66309 z M 69.91137,99.351646 C 66.807665,96.04791 65.597665,92.26693 65.597665,85.872302 c 0,-6.484144 1.743675,-11.814719 6.447799,-19.711516 4.880462,-8.192813 8.745183,-11.963351 15.898895,-15.511442 7.660287,-3.799341 13.299081,-4.814872 29.759071,-5.359524 13.67195,-0.452398 18.8486,-0.07578 15.84191,1.152538 -2.45634,1.003486 -5.95069,1.254818 -7.76523,0.558517 -2.11166,-0.810324 -2.81656,-0.485165 -1.95839,0.903377 0.73741,1.193159 -1.34462,4.081533 -4.62674,6.418607 -3.28212,2.337075 -8.11534,7.985168 -10.74048,12.551319 -2.62515,4.566152 -5.36454,11.14302 -6.08753,14.615265 -0.80085,3.846087 -4.735986,9.466945 -10.069875,14.383557 -5.056182,4.66062 -10.723494,8.07037 -13.413676,8.07037 -2.562089,0 -6.599511,-2.06627 -8.972049,-4.591724 z M 46.254267,83.946539 c -2.455124,-5.539558 -4.463862,-12.601118 -4.463862,-15.692356 0,-3.091237 -1.916335,-10.628127 -4.258523,-16.748641 -2.342187,-6.120515 -3.757809,-11.628924 -3.145825,-12.240908 0.611985,-0.611984 3.003923,-0.100548 5.315419,1.136528 2.374848,1.27098 7.654447,9.72048 12.139085,19.42746 6.101228,13.206082 7.638865,18.572211 6.649768,23.206725 -0.707629,3.315671 -2.185596,7.144457 -3.284368,8.508415 -1.098774,1.36396 -2.558035,2.478748 -3.242803,2.477315 -0.684767,-0.001 -3.253768,-4.534981 -5.708891,-10.074538 z m 14.658078,1.149424 c 0.628079,-1.636749 1.492831,-2.975908 1.921672,-2.975908 0.42884,0 0.77971,1.339159 0.77971,2.975908 0,1.63675 -0.864753,2.975908 -1.921673,2.975908 -1.05692,0 -1.40779,-1.339158 -0.779709,-2.975908 z M 28.119263,29.39716 c -1.410539,-3.900773 -2.057287,-7.599642 -1.437219,-8.21971 0.620068,-0.620068 1.688345,0.334416 2.37395,2.121074 0.685606,1.786659 1.822586,2.894974 2.526622,2.462925 0.704037,-0.43205 1.37513,1.805009 1.491319,4.97124 0.116188,3.166232 -0.374044,5.756786 -1.089403,5.756786 -0.715361,0 -2.454732,-3.191541 -3.865269,-7.092315 z m 7.719328,3.124438 c -1.167949,-2.182332 -1.677158,-3.967876 -1.131575,-3.967876 0.545584,0 1.947564,1.785544 3.115513,3.967876 1.167949,2.182332 1.677157,3.967877 1.131574,3.967877 -0.545583,0 -1.947563,-1.785545 -3.115512,-3.967877 z"
     id="path10" /></svg>
