<?xml version="1.0" encoding="UTF-8" standalone="no"?>
<svg
   width="240"
   height="240"
   version="1.1"
   id="svg40"
   sodipodi:docname="FBCenforcer.svg"
   inkscape:version="1.3.2 (091e20e, 2023-11-25, custom)"
   xml:space="preserve"
   xmlns:inkscape="http://www.inkscape.org/namespaces/inkscape"
   xmlns:sodipodi="http://sodipodi.sourceforge.net/DTD/sodipodi-0.dtd"
   xmlns="http://www.w3.org/2000/svg"
   xmlns:svg="http://www.w3.org/2000/svg"><defs
     id="defs40"><filter
       style="color-interpolation-filters:sRGB"
       inkscape:label="Drop Shadow"
       id="filter23"
       x="-0.17103967"
       y="-0.17099555"
       width="1.3420793"
       height="1.3419911"><feFlood
         result="flood"
         in="SourceGraphic"
         flood-opacity="1.000000"
         flood-color="rgb(58,63,94)"
         id="feFlood21" /><feGaussianBlur
         result="blur"
         in="SourceGraphic"
         stdDeviation="15.000000"
         id="feGaussianBlur21" /><feOffset
         result="offset"
         in="blur"
         dx="0.000000"
         dy="0.000000"
         id="feOffset21" /><feComposite
         result="comp1"
         operator="out"
         in="flood"
         in2="offset"
         id="feComposite22" /><feComposite
         result="comp2"
         operator="atop"
         in="comp1"
         in2="SourceGraphic"
         id="feComposite23" /></filter><filter
       style="color-interpolation-filters:sRGB;"
       inkscape:label="Drop Shadow"
       id="filter4"
       x="-0.060440912"
       y="-0.055853316"
       width="1.1208818"
       height="1.1117066"><feFlood
         result="flood"
         in="SourceGraphic"
         flood-opacity="1.000000"
         flood-color="rgb(58,63,94)"
         id="feFlood3" /><feGaussianBlur
         result="blur"
         in="SourceGraphic"
         stdDeviation="5.000000"
         id="feGaussianBlur3" /><feOffset
         result="offset"
         in="blur"
         dx="0.000000"
         dy="0.000000"
         id="feOffset3" /><feComposite
         result="comp1"
         operator="out"
         in="flood"
         in2="offset"
         id="feComposite3" /><feComposite
         result="comp2"
         operator="atop"
         in="comp1"
         in2="SourceGraphic"
         id="feComposite4" /></filter><filter
       style="color-interpolation-filters:sRGB;"
       inkscape:label="Drop Shadow"
       id="filter6"
       x="-0.065464587"
       y="-0.061485704"
       width="1.1309292"
       height="1.1229714"><feFlood
         result="flood"
         in="SourceGraphic"
         flood-opacity="1.000000"
         flood-color="rgb(58,63,94)"
         id="feFlood4" /><feGaussianBlur
         result="blur"
         in="SourceGraphic"
         stdDeviation="5.000000"
         id="feGaussianBlur4" /><feOffset
         result="offset"
         in="blur"
         dx="0.000000"
         dy="0.000000"
         id="feOffset4" /><feComposite
         result="comp1"
         operator="out"
         in="flood"
         in2="offset"
         id="feComposite5" /><feComposite
         result="comp2"
         operator="atop"
         in="comp1"
         in2="SourceGraphic"
         id="feComposite6" /></filter></defs><sodipodi:namedview
     id="namedview40"
     pagecolor="#505050"
     bordercolor="#eeeeee"
     borderopacity="1"
     inkscape:showpageshadow="0"
     inkscape:pageopacity="0"
     inkscape:pagecheckerboard="0"
     inkscape:deskcolor="#505050"
     inkscape:zoom="2.3747003"
     inkscape:cx="126.33173"
     inkscape:cy="116.43575"
     inkscape:window-width="1920"
     inkscape:window-height="1017"
     inkscape:window-x="-8"
     inkscape:window-y="-8"
     inkscape:window-maximized="1"
     inkscape:current-layer="svg40" /><path
     style="fill:#1b1f21;stroke:none"
     d="M0 0v240h240V0H0z"
     id="path1" /><path
     style="fill:#e64539;fill-opacity:1;filter:url(#filter6)"
     d="m 27.141439,224.38079 c 0,-0.54424 8.307251,-4.3539 14.576955,-6.68493 1.882028,-0.69972 4.459758,-1.98044 5.728288,-2.84604 2.77866,-1.89607 7.543497,-4.06205 10.959191,-4.98181 4.874969,-1.31269 7.984439,0.45997 18.782712,10.7077 l 4.522332,4.29177 -27.284739,0.0253 c -15.584368,0.0145 -27.284739,-0.2051 -27.284739,-0.512 z m 32.148201,-3.75887 c 3.702765,-1.90704 5.232849,-5.41185 3.125992,-7.16038 -0.624903,-0.51863 -0.904466,-0.54145 -0.904466,-0.0738 0,0.83924 -2.195705,3.08872 -3.014889,3.08872 -1.060596,0 -0.646615,-1.72131 0.720247,-2.99473 0.880778,-0.82057 1.12192,-1.43408 0.721182,-1.83481 -0.644781,-0.64478 -5.082263,1.17708 -7.018972,2.88172 -1.073006,0.94443 -1.398052,3.52442 -0.593745,4.71275 1.292609,1.90976 4.646357,2.57455 6.964651,1.38056 z m 21.215322,-0.58058 c -2.653102,-2.67596 -6.948311,-6.66847 -9.544909,-8.87223 -2.596599,-2.20376 -4.428143,-4.10448 -4.070099,-4.22383 0.953984,-0.31799 0.793747,-2.65924 -0.28767,-4.20317 -0.929751,-1.32741 -3.885163,-1.90411 -3.885163,-0.75813 0,0.3201 -0.864883,1.56704 -1.921962,2.77099 -1.81154,2.06323 -6.05189,4.39164 -9.624109,5.28468 l -1.596939,0.39923 2.92907,-7.01431 c 3.383374,-8.10225 4.620601,-10.11903 9.324672,-15.19999 3.152754,-3.40535 3.63631,-3.70597 5.961136,-3.70597 1.487117,0 3.759521,0.61542 5.512594,1.49294 6.343244,3.17517 18.102607,15.31842 25.417961,26.24773 l 3.029426,4.52603 -3.234441,3.61417 c -1.77894,1.98779 -3.234927,3.81767 -3.235526,4.0664 -5.98e-4,0.24873 -2.239643,0.44967 -4.975654,0.44654 l -4.974566,-0.006 z m 19.596778,2.46486 c 1.05064,-1.32655 2.17265,-2.41191 2.49334,-2.41191 0.49657,0 2.33048,3.5435 2.33048,4.50297 0,0.17647 -1.51517,0.32085 -3.36705,0.32085 h -3.367042 z m 7.32942,1.62033 c -0.35408,-0.42663 -0.79794,-1.84759 -0.98637,-3.15769 -0.32912,-2.28829 -0.22998,-2.46382 2.52013,-4.4623 3.54166,-2.57367 11.027,-5.70619 11.79651,-4.93668 0.30462,0.30463 0.59709,1.44939 0.64993,2.54392 0.0907,1.87848 -0.12369,2.0978 -3.82327,3.91125 -2.15565,1.05666 -5.17796,3.03629 -6.71626,4.3992 -2.19332,1.94323 -2.93583,2.3106 -3.44067,1.7023 z m 5.35464,-0.0763 c 0.48561,-0.47735 2.49501,-1.83405 4.46533,-3.01489 3.49072,-2.09204 6.52897,-2.74495 7.26107,-1.56038 0.1994,0.32262 1.50428,0.86856 2.89973,1.21318 6.47426,1.59891 7.05953,1.85163 7.05953,3.04825 0,1.13159 -0.47902,1.18175 -11.28429,1.18175 -9.82623,0 -11.17021,-0.11214 -10.40137,-0.86791 z m 30.12735,0.28615 c 0,-2.71723 11.30774,-2.98801 14.79158,-0.35421 1.07101,0.80968 0.40463,0.8995 -6.80213,0.9168 -4.74333,0.0114 -7.98945,-0.2172 -7.98945,-0.56259 z m 18.27004,-0.19365 c -1.24918,-2.00878 -4.11008,-3.40803 -8.37463,-4.09598 -2.4814,-0.40029 -4.43412,-0.94744 -4.33938,-1.21589 0.44963,-1.27399 6.13974,-6.57525 7.05755,-6.57525 4.60685,0 10.30772,4.50185 10.29134,8.12684 -0.0156,3.45213 -0.59947,4.53569 -2.44404,4.53569 -0.93976,0 -1.92564,-0.34893 -2.19084,-0.77541 z m 6.6985,-1.72973 c 0.22033,-1.37783 0.56026,-2.7635 0.75542,-3.07926 0.59637,-0.96496 1.39099,0.92017 1.4008,3.32324 0.008,1.90734 -0.19153,2.26116 -1.27379,2.26116 -1.16711,0 -1.24683,-0.22632 -0.88243,-2.50514 z m 4.36436,-2.10817 c -0.21449,-2.53732 -0.38997,-6.50566 -0.38997,-8.81854 v -4.20524 l 1.95968,0.38201 c 1.07782,0.21011 6.57245,2.66527 12.21029,5.4559 5.63784,2.79064 13.43887,6.49138 17.33561,8.22386 3.89674,1.73248 7.08499,3.24567 7.08499,3.36265 0,0.11697 -8.50739,0.21267 -18.90532,0.21267 h -18.90532 z m 12.60146,1.92732 c 1.13478,-1.13478 1.48003,-2.11578 1.48003,-4.20536 0,-2.40808 -0.20708,-2.83241 -1.77899,-3.64527 -2.78332,-1.43931 -4.99899,-1.16224 -6.94449,0.86843 -1.51374,1.58 -1.64757,2.01784 -1.14859,3.75769 0.60208,2.09932 3.7961,4.70455 5.76781,4.70455 0.6293,0 1.81021,-0.66602 2.62423,-1.48004 z m -3.49453,-3.39208 c -1.21703,-0.70886 -1.41385,-2.74543 -0.30149,-3.11969 1.46831,-0.49403 2.79608,0.29628 3.39782,2.02244 0.55285,1.58588 0.48627,1.74682 -0.71579,1.73019 -0.72893,-0.0101 -1.80018,-0.29491 -2.38054,-0.63294 z m -47.48449,0.47961 c -0.24188,-0.22893 -5.50618,-0.95716 -7.371,-1.01965 -1.49051,-0.05 -3.40553,-7.54785 -5.58384,-21.86243 -0.54167,-3.55952 -1.51151,-8.37237 -2.15521,-10.69522 -1.191,-4.29789 -1.47171,-6.65054 -0.79352,-6.65054 0.20726,0 1.90314,0.64945 3.76861,1.44322 1.86548,0.79378 4.68116,1.90177 6.25706,2.46222 2.0132,0.71596 2.94337,1.40749 3.12787,2.32539 0.14442,0.71851 0.956,4.83381 1.80351,9.1451 0.89441,4.5499 2.0082,8.47117 2.65466,9.34615 2.16501,2.93032 10.51767,4.4859 15.9649,2.97326 1.26341,-0.35083 2.57943,-0.54377 2.9245,-0.42875 0.57625,0.19209 -7.1771,10.07127 -9.22395,11.753 -0.87186,0.71634 -10.7811,1.76902 -11.37359,1.20825 z m -29.87069,-4.30159 c -0.54437,-0.83082 -1.12909,-2.54932 -1.29938,-3.8189 -0.28195,-2.10213 -0.0913,-2.50559 2.13457,-4.51651 2.78866,-2.51938 6.47747,-4.34678 10.672,-5.28679 3.59039,-0.80462 4.22225,-0.27426 4.78654,4.01765 l 0.4085,3.10707 -2.0082,0.43056 c -2.76514,0.59286 -8.6033,3.53747 -11.39084,5.74524 l -2.31342,1.83226 z m 60.32471,-1.69473 c -1.32455,-0.96472 -3.59666,-2.07188 -5.04914,-2.46036 -3.1424,-0.84047 -3.50258,-1.49641 -2.20235,-4.01079 1.32208,-2.55661 1.98334,-2.69606 5.8767,-1.23937 3.03964,1.13727 3.39845,1.46646 3.94486,3.61916 0.3306,1.30245 0.42944,3.15049 0.21964,4.10674 l -0.38145,1.73865 z M 63.451366,205.52967 c 0.148585,-0.44622 0.753764,-0.90506 1.344842,-1.01964 0.687405,-0.13325 0.977333,0.084 0.804534,0.60298 -0.148585,0.44622 -0.753764,0.90506 -1.344843,1.01964 -0.687404,0.13325 -0.977333,-0.084 -0.804533,-0.60298 z m 36.104041,-1.56503 c -1.487125,-5.67236 -1.542782,-5.30028 1.246013,-8.32979 3.17039,-3.44403 6.71727,-5.06587 12.06546,-5.51701 l 4.02197,-0.33927 0.95259,3.20775 c 1.46347,4.92803 1.40503,5.06481 -2.51452,5.8851 -4.40952,0.92284 -8.97641,3.05166 -11.72635,5.46614 -1.18283,1.03854 -2.44349,1.88825 -2.80147,1.88825 -0.35799,0 -0.917647,-1.01753 -1.243693,-2.26117 z m 43.056253,0.79561 c -0.33164,-0.13084 -1.3689,-0.40742 -2.30502,-0.61462 -2.07833,-0.46001 -3.62242,-3.61268 -4.59232,-9.3764 -0.36274,-2.15565 -0.96389,-5.08033 -1.33589,-6.4993 -0.37199,-1.41897 -0.54557,-2.71073 -0.38572,-2.87058 0.15985,-0.15985 1.48616,0.13398 2.94735,0.65297 5.34809,1.89953 18.40245,5.09527 20.82142,5.09713 3.50586,0.003 6.26057,0.63684 6.22917,1.43399 -0.0629,1.59646 -7.06136,9.12762 -9.78408,10.52878 -2.63114,1.35404 -9.76869,2.36852 -11.59491,1.64803 z m 21.45983,-0.98654 c -1.79423,-0.63691 -3.34725,-1.24302 -3.45115,-1.34691 -0.33887,-0.33888 2.82153,-4.64268 3.40925,-4.64268 1.25106,0 4.23346,3.43043 4.58698,5.27605 0.44481,2.32225 0.12723,2.3721 -4.54508,0.71354 z m -73.566151,-6.37597 c -1.669067,-1.89616 -2.463156,-3.36035 -2.463156,-4.5417 0,-2.66961 -1.414619,-5.40792 -3.992959,-7.72928 l -2.338307,-2.10524 1.631868,-0.19343 c 3.438499,-0.40759 6.51742,3.42895 8.615281,10.73518 0.937285,3.2643 1.569865,6.63276 1.245598,6.63276 -0.129344,0 -1.34359,-1.25923 -2.698325,-2.79829 z m 74.954121,-1.67693 c -0.46518,-1.21223 0.74017,-3.20934 2.22058,-3.6792 1.70349,-0.54067 1.9773,-0.10518 1.5077,2.39801 -0.33175,1.76835 -0.66069,2.13854 -1.90024,2.13854 -0.82448,0 -1.6471,-0.3858 -1.82804,-0.85735 z m -68.925625,-3.99615 c -1.081561,-5.04315 -0.882691,-6.11824 1.480558,-8.00388 3.494877,-2.78857 7.097187,-4.07424 11.787187,-4.20688 l 4.26431,-0.1206 1.15763,3.01489 c 0.6367,1.65819 1.15785,3.32742 1.15812,3.7094 2.9e-4,0.40592 -1.56552,0.86645 -3.76812,1.10826 -4.68278,0.5141 -9.39927,2.58407 -12.29435,5.39573 -1.21625,1.18121 -2.418593,2.14765 -2.671877,2.14765 -0.253283,0 -0.754339,-1.37006 -1.113458,-3.04457 z m -14.138623,-1.82302 c -1.634375,-1.2856 -2.175442,-3.58902 -0.835039,-3.55492 1.41094,0.0359 4.070099,2.95209 4.070099,4.46351 0,0.75637 -1.739502,0.26782 -3.23506,-0.90859 z m 78.360298,-1.07398 c -0.42857,-0.69344 2.65759,-5.40241 4.9439,-7.54359 2.17727,-2.03905 6.081,-2.70876 9.40154,-1.61288 1.83441,0.60541 2.18193,0.99624 2.18193,2.4539 0,2.55714 -1.15304,4.64417 -2.94236,5.32576 -3.75436,1.43011 -12.97455,2.36456 -13.58501,1.37681 z m -13.923,-2.59395 c -13.6336,-4.13404 -29.02818,-9.23292 -30.2902,-10.03251 -0.741,-0.46947 -2.85268,-3.87774 -4.69262,-7.57392 -4.21849,-8.47433 -6.85546,-12.08091 -10.4807,-14.33449 -1.576518,-0.98001 -3.847838,-3.0688 -5.047381,-4.64174 -2.441008,-3.20086 -6.470493,-9.72168 -6.470493,-10.47104 0,-1.00626 1.151493,-0.42157 3.195781,1.62272 2.649863,2.64986 4.995215,2.84829 5.88871,0.49822 0.337126,-0.8867 0.442968,-2.38614 0.235205,-3.33208 l -0.377751,-1.71989 3.819969,2.65389 c 6.24644,4.33964 7.27201,4.75328 21.11127,8.51471 2.61063,0.70955 3.98725,1.53743 5.80156,3.48899 1.30832,1.40728 3.90406,4.20924 5.76831,6.22658 l 3.38956,3.66788 -0.63133,5.03494 c -0.34723,2.76921 -0.75673,5.23785 -0.91001,5.48586 -0.45001,0.72812 0.85922,1.24633 2.1299,0.84303 1.72524,-0.54756 3.02087,-3.56426 2.61226,-6.08225 -0.34139,-2.10372 -0.32385,-2.12452 1.39665,-1.65643 0.9583,0.26073 9.69969,0.47891 19.42531,0.48485 l 17.68293,0.0108 -0.35273,1.80893 c -0.19401,0.99491 -0.66152,3.84997 -1.03892,6.34458 l -0.68619,4.53564 -5.81694,0.009 c -7.26461,0.0117 -8.92544,0.86223 -12.64226,6.47409 -2.49059,3.76044 -2.82731,4.03942 -4.8336,4.00482 -1.18608,-0.0204 -4.86992,-0.85996 -8.18629,-1.86557 z m -73.864769,-3.22254 c -1.160732,-0.447 -2.865122,-0.83337 -3.787535,-0.8586 -1.783209,-0.0488 -2.816677,-1.52156 -1.788897,-2.54934 0.415981,-0.41598 2.140257,-0.19761 5.35612,0.67832 6.486436,1.76676 6.272481,1.66816 5.873923,2.70679 -0.431465,1.12438 -2.768661,1.13381 -5.653611,0.0228 z m 20.575976,-0.76483 c -1.327313,-2.4801 -1.39733,-5.25552 -0.171886,-6.81342 2.58986,-3.29248 12.058769,-7.02225 15.033729,-5.92175 0.7391,0.27341 1.34382,0.74675 1.34382,1.05186 0,0.30511 0.94618,1.93026 2.10263,3.61144 l 2.10263,3.05668 -1.95189,0.29523 c -1.07353,0.16237 -3.71559,0.42975 -5.87124,0.59417 -4.61063,0.35168 -7.581175,1.47531 -9.602003,3.63201 -1.725859,1.8419 -2.220519,1.92371 -2.98579,0.49378 z m -18.465554,-3.17721 c -0.994913,-0.27622 -2.847954,-0.7674 -4.117869,-1.09151 -1.269915,-0.32411 -2.446992,-0.72735 -2.615727,-0.89608 -0.482791,-0.48279 0.486194,-8.24035 1.02929,-8.24035 0.267558,0 1.259582,0.65053 2.204499,1.44563 3.240998,2.72712 6.421716,3.9632 11.247973,4.37117 4.593944,0.38833 4.672222,0.42252 4.49339,1.96229 -0.13719,1.18122 -0.701625,1.74426 -2.292425,2.28675 -2.41121,0.82227 -7.285257,0.90167 -9.949131,0.1621 z m 15.636299,-6.19831 c -0.189107,-0.49281 -0.392886,-2.58506 -0.452844,-4.64945 l -0.109013,-3.75344 5.100574,-2.93868 c 2.805316,-1.61628 5.577761,-2.93868 6.160991,-2.93868 1.07172,0 5.9233,5.84795 5.9233,7.13978 0,0.38441 -0.53034,0.69893 -1.17853,0.69893 -2.25598,0 -8.965777,2.83414 -12.023086,5.07841 -2.428647,1.78279 -3.15006,2.07021 -3.421392,1.36313 z m -11.477983,-1.24374 c -3.398158,-1.09539 -8.0287,-4.38751 -8.71676,-6.19725 -0.587569,-1.54542 -0.181943,-4.42735 0.62314,-4.42735 0.250961,0 1.155377,0.5499 2.009812,1.222 2.632338,2.0706 5.637693,2.99884 9.709249,2.99884 2.146725,0 4.069083,0.26851 4.271908,0.59669 0.445819,0.72135 0.672517,5.26945 0.281702,5.6516 -0.782875,0.76553 -5.980047,0.86432 -8.179051,0.15547 z m -1.827147,-10.32604 c -3.342391,-1.66558 -5.906416,-4.04428 -5.541008,-5.14051 0.14063,-0.42189 1.305561,0.18648 2.886861,1.50762 1.4581,1.21821 3.68747,2.74364 4.954156,3.38986 1.266686,0.64621 2.303065,1.30509 2.303065,1.46417 0,0.66306 -1.757728,0.19676 -4.603074,-1.22114 z m 11.838806,-0.46532 c 0,-1.05918 4.612209,-3.95974 7.012424,-4.41002 3.068515,-0.57566 3.487604,-0.0486 0.992657,1.24852 -1.252236,0.65101 -3.288926,1.80186 -4.525977,2.55744 -2.548699,1.55674 -3.479104,1.71828 -3.479104,0.60406 z m -9.177846,-2.00779 c -2.059891,-1.24173 -4.212257,-3.18799 -5.342799,-4.83118 -1.866223,-2.71246 -1.88723,-2.82389 -1.472044,-7.80815 0.468181,-5.62045 1.481658,-7.54711 4.528752,-8.60933 1.501716,-0.5235 1.90076,-0.45695 2.350272,0.39198 0.775625,1.46481 4.892821,19.48426 4.892821,21.41407 0,2.07575 -0.723983,1.99434 -4.957002,-0.55739 z m 69.777098,1.5912 c -8.70282,-0.99726 -10.88709,-2.2412 -16.22574,-9.24053 l -1.6745,-2.19538 1.76552,-3.18578 c 0.97104,-1.75218 2.28519,-4.0728 2.92035,-5.15694 1.00964,-1.72336 1.04112,-2.04436 0.25035,-2.55342 -1.27087,-0.81814 -3.80762,-0.74017 -4.97803,0.15299 -0.54323,0.41455 -1.70815,2.20499 -2.58872,3.97876 -1.83268,3.69163 -0.98762,3.60664 -10.72119,1.07821 -9.39916,-2.44156 -18.49155,-8.31566 -19.420855,-12.54677 -0.221116,-1.00674 -0.04932,-4.00236 0.381779,-6.65693 0.813096,-5.00686 0.419843,-8.23038 -1.964438,-16.10248 -0.675178,-2.22921 -0.674267,-2.70711 0.0056,-2.93387 2.657354,-0.88633 5.024314,-4.32031 10.234994,-14.848905 3.03488,-6.13223 6.37297,-12.1233 7.41798,-13.3135 2.68798,-3.06143 6.23673,-4.94851 10.78244,-5.73365 5.18833,-0.89613 7.89541,-0.23577 13.96737,3.40714 6.78247,4.06918 12.091,9.54373 15.10107,15.57334 3.39468,6.80003 4.96884,8.66476 8.8515,10.485395 3.17986,1.49109 3.91863,1.58535 12.42554,1.58535 8.13849,0 9.29052,-0.1316 11.4986,-1.31349 3.60945,-1.931985 6.17644,-6.202555 7.46805,-12.424245 0.39119,-1.88435 0.95279,-3.57537 1.24799,-3.75782 0.2952,-0.18244 0.98772,0.54041 1.53894,1.60634 1.21033,2.34053 0.94658,5.87013 -1.27155,17.015915 -1.91431,9.61918 -3.25863,12.87404 -5.5288,13.38633 -0.92825,0.20947 -2.63824,0.6174 -3.79999,0.90651 -4.74072,1.17977 -19.53,1.85127 -26.83066,1.21823 -3.97965,-0.34507 -8.99427,-0.75011 -11.14361,-0.90007 -4.14109,-0.28894 -4.62948,-0.61492 -6.76693,-4.51658 -0.8859,-1.6171 -1.36082,-1.87497 -3.45322,-1.87497 -1.93276,0 -2.63015,0.31149 -3.42981,1.53193 -1.67128,2.55069 -2.52839,2.6796 -9.60231,1.44425 -8.9138,-1.55666 -9.97827,-1.51255 -11.84691,0.49094 -2.59161,2.77864 -2.99257,3.99999 -2.14457,6.53254 0.41367,1.23541 1.43048,2.73819 2.25957,3.33951 2.00326,1.4529 15.88573,5.19232 21.98024,5.92065 18.62784,2.22613 36.48329,2.61461 47.66368,1.03701 3.31638,-0.46795 6.13208,-0.75982 6.25711,-0.6486 0.51145,0.45496 -1.1849,12.94655 -2.36741,17.4331 -2.1168,8.03135 -3.38054,10.42699 -5.9198,11.22204 -2.66018,0.8329 -26.36936,1.24159 -32.33963,0.55745 z M 130.00374,91.374605 c 8.15904,-3.40906 10.00295,-11.03895 3.90733,-16.16808 -3.93146,-3.3081 -9.9998,-2.55387 -14.34265,1.78264 -3.15183,3.14723 -3.66845,4.96314 -2.28489,8.03132 1.35721,3.00976 3.7948,5.317 6.71859,6.3593 2.98722,1.06491 3.44148,1.06452 6.00162,-0.005 z m -6.27901,-3.14122 c -1.98959,-0.98042 -4.93069,-4.59482 -4.93069,-6.05946 0,-1.17461 0.4219,-0.94438 2.57526,1.40534 1.57456,1.71815 2.56242,2.23452 4.74555,2.48059 2.42335,0.27315 2.99541,0.0978 4.72637,-1.44882 1.91546,-1.71147 1.95281,-1.83702 1.36544,-4.59102 -0.34423,-1.61395 -0.37224,-2.83143 -0.0651,-2.83143 0.82517,0 2.92814,3.75276 2.93068,5.2298 0.005,2.72233 -5.01235,6.85764 -8.26933,6.81603 -0.59101,-0.008 -1.97617,-0.45802 -3.07813,-1.00103 z m 1.55132,-4.46034 c -1.19125,-0.69384 -1.3874,-2.3932 -0.39122,-3.38938 0.43924,-0.43924 1.29288,-0.48362 2.52198,-0.13112 2.81958,0.80864 3.11269,1.46083 1.29805,2.88823 -1.84896,1.4544 -1.97682,1.47797 -3.42881,0.63227 z m 0.0377,-6.39338 c 0.43527,-0.17418 0.95534,-0.15276 1.15571,0.0476 0.20036,0.20036 -0.15577,0.34288 -0.79141,0.3167 -0.70244,-0.0289 -0.84532,-0.17182 -0.3643,-0.3643 z M 87.637815,157.2355 c -0.506145,-0.80057 -3.756721,-16.29897 -3.79433,-18.09096 -0.01541,-0.73401 0.444387,-1.05521 1.510517,-1.05521 1.308629,0 1.797488,0.59024 3.344381,4.03798 0.996445,2.22088 2.918418,5.65929 4.271051,7.6409 2.315099,3.39162 2.395106,3.64989 1.364194,4.40371 -0.602327,0.44043 -1.417065,0.80078 -1.810528,0.80078 -0.393464,0 -1.065471,0.42183 -1.49335,0.93739 -1.301305,1.56798 -2.854795,2.17501 -3.391935,1.32541 z m -15.72505,-20.25882 c -0.375196,-0.23188 -1.374025,-1.90794 -2.21962,-3.72458 -1.172435,-2.5188 -1.538843,-4.28119 -1.543335,-7.42332 -0.004,-2.81662 0.211447,-4.0479 0.680994,-3.89138 0.676014,0.22534 7.151826,12.16438 7.151826,13.18537 0,0.8179 -3.308005,2.32477 -4.069865,1.85391 z m 21.857706,-0.43952 c 0.663275,-0.50462 1.66779,-0.79763 2.232255,-0.65114 0.564465,0.1465 1.153558,-0.044 1.309096,-0.42336 0.204158,-0.49792 0.296034,-0.49001 0.3304,0.0284 0.06422,0.9688 -0.955791,1.53123 -3.204768,1.76711 -1.791858,0.18794 -1.820732,0.15672 -0.666983,-0.72104 z M 79.45486,133.88714 c -1.196148,-1.39743 -3.199442,-4.4832 -4.451766,-6.85726 -1.996132,-3.78412 -2.279117,-4.83704 -2.29451,-8.53733 -0.02429,-5.8378 1.902282,-11.27988 5.193736,-14.67102 3.661454,-3.77235 5.388301,-4.497045 10.013896,-4.202515 4.966341,0.31623 6.382428,1.708665 6.989346,6.872585 0.227582,1.93637 0.837456,4.75039 1.355276,6.25337 1.144907,3.32312 1.253616,10.50905 0.196412,12.98332 -0.425107,0.99491 -0.796529,2.84041 -0.825384,4.1011 -0.05519,2.41133 -0.317626,2.66255 -5.177773,4.95631 -1.160732,0.54781 -3.621071,1.14141 -5.46742,1.31912 -3.343247,0.32177 -3.365908,0.31269 -5.531813,-2.21768 z m 11.648594,-24.09138 c 2.151084,-2.15108 2.233844,-3.85075 0.282514,-5.80208 -3.382636,-3.38263 -10.004125,-0.38033 -8.039553,3.64528 0.832862,1.70662 3.589167,3.91281 4.892895,3.91636 0.605877,0.002 1.894741,-0.79016 2.864144,-1.75956 z m -3.061271,-1.68239 c -2.622111,-0.97075 -2.838273,-3.18781 -0.310809,-3.18781 1.649738,0 2.990677,1.44687 2.507613,2.70572 -0.367164,0.95681 -0.71081,1.03223 -2.196804,0.48209 z m 50.047147,19.9682 c -0.49746,-0.0756 -3.34653,-0.46478 -6.33127,-0.86472 -6.52352,-0.87413 -9.1491,-2.05277 -3.31637,-1.48875 7.68558,0.7432 11.39975,1.24982 11.75306,1.60313 0.45064,0.45064 -0.90328,0.93315 -2.10542,0.75034 z m 17.60695,-1.56941 c -0.86459,-0.86459 -0.9223,-2.2931 -0.17234,-4.26565 0.44956,-1.18242 0.88124,-1.40142 2.34029,-1.18728 1.58289,0.23232 1.82758,0.54986 2.12344,2.75565 0.21459,1.59991 0.0782,2.65596 -0.38061,2.94773 -1.08503,0.68995 -3.09938,0.56095 -3.91078,-0.25045 z m 6.51216,-2.29132 c 0,-0.99491 0.27134,-1.80893 0.60297,-1.80893 0.33164,0 0.60298,0.81402 0.60298,1.80893 0,0.99492 -0.27134,1.80894 -0.60298,1.80894 -0.33163,0 -0.60297,-0.81402 -0.60297,-1.80894 z m 15.37606,1.20617 c -0.66809,-1.08099 0.21346,-3.52861 1.52338,-4.22965 1.43977,-0.77055 1.99257,0.15405 1.68709,2.8218 -0.13891,1.21307 -0.57297,1.76289 -1.49552,1.89435 -0.71489,0.10188 -1.48662,-0.11705 -1.71495,-0.4865 z m -39.53746,-2.22186 c -0.33848,-0.89026 -0.5351,-2.17913 -0.43694,-2.86414 0.14684,-1.02469 0.55253,-1.21717 2.28853,-1.08582 3.30284,0.2499 3.6175,0.52284 3.6175,3.1378 v 2.43083 h -2.42684 c -2.07827,0 -2.51522,-0.23249 -3.04225,-1.61867 z m 48.39485,-0.6425 c 0.16247,-1.9631 0.40572,-2.28631 1.84533,-2.45196 1.41684,-0.16302 1.65819,0.0282 1.65819,1.31363 0,1.67516 -1.41664,3.3995 -2.79287,3.3995 -0.66874,0 -0.85005,-0.5769 -0.71065,-2.26117 z m -68.27836,0.83795 c -2.72971,-1.42914 -4.16796,-2.46482 -4.45244,-3.20618 -0.48411,-1.26156 2.50596,0.28436 6.23866,3.22548 0.81734,0.64401 -0.54744,0.62927 -1.78622,-0.0193 z m 11.62916,-0.98051 c -1.04728,-1.67695 -0.9598,-4.22902 0.14495,-4.22902 0.80053,0 1.06042,0.63106 1.80029,4.37158 0.28341,1.4328 -1.02112,1.3372 -1.94524,-0.14256 z m -61.54745,-4.1664 c -1.294775,-0.80022 -2.019729,-5.25548 -1.293823,-7.95129 1.046641,-3.88693 2.917565,-6.5828 4.56844,-6.5828 1.670201,0 1.763417,0.48951 0.61611,3.23541 -0.457476,1.09489 -1.177106,4.00308 -1.599177,6.46264 -0.850254,4.95473 -1.133229,5.55192 -2.29155,4.83604 z m -3.867173,-10.76548 c -1.705279,-1.91863 -5.911186,-13.420085 -5.850053,-15.997535 0.02792,-1.17692 0.263926,-1.05197 1.959678,1.03746 1.060367,1.30653 3.358047,4.08617 5.105954,6.17696 3.405706,4.073785 3.619308,5.365895 1.398987,8.462685 -1.169324,1.63091 -1.422262,1.66191 -2.614566,0.32043 z m 9.685364,-6.46021 c -0.88974,-0.77097 -1.958274,-1.515275 -2.374521,-1.654025 -0.551675,-0.18389 -0.440068,-0.68635 0.411754,-1.85373 1.481496,-2.0303 2.073033,-2.05251 2.073033,-0.0778 0,0.88878 0.584511,2.03936 1.356699,2.670605 0.904859,0.73969 1.155882,1.31016 0.753722,1.71289 -0.402404,0.40298 -1.141089,0.13756 -2.220687,-0.79792 z m 21.518873,-0.92396 c -1.27239,-1.011165 -2.961954,-2.001245 -3.754588,-2.200185 -1.281701,-0.32169 -9.400514,0.004 -12.498325,0.50166 -0.858984,0.13794 -1.322914,-0.29837 -1.722692,-1.62015 -0.300916,-0.99491 -0.992939,-2.73981 -1.537828,-3.87756 -1.145744,-2.39234 -1.052104,-3.21767 0.621979,-5.48199 0.926716,-1.25344 1.342191,-3.14448 1.736175,-7.90217 0.730708,-8.82394 0.707424,-9.57079 -0.298388,-9.57079 -1.32655,0 -1.460836,0.50506 -2.175132,8.18076 -0.647328,6.95608 -1.246583,9.30559 -2.373439,9.30559 -0.7966,0 -4.139271,-3.62132 -5.22978,-5.66574 -1.066449,-1.99932 -0.655869,-4.99331 1.984199,-14.469 2.416533,-8.67337 5.624096,-13.77392 11.008509,-17.50532 2.358114,-1.63417 2.522137,-1.66349 3.976401,-0.71062 0.834258,0.54663 1.516832,1.21094 1.516832,1.47624 0,0.26531 -1.257386,2.44769 -2.794192,4.84973 -2.01912,3.1559 -2.611612,4.54993 -2.135977,5.02556 0.901632,0.90163 1.937989,-0.0411 5.243862,-4.77021 2.620328,-3.74841 2.674636,-3.91757 1.800487,-5.60798 -0.495735,-0.95865 -1.42764,-2.11163 -2.0709,-2.56219 -0.643261,-0.45056 -0.983985,-1.09545 -0.757166,-1.4331 0.756476,-1.12611 5.995129,-4.42202 10.99047,-6.91469 4.663209,-2.32693 5.146249,-2.44276 8.637259,-2.07116 5.56163,0.59202 10.17886,1.87439 14.3854,3.99534 12.47192,6.28838 20.63414,15.21336 24.87601,27.20069 1.08902,3.0775 2.18277,6.08588 2.43056,6.68529 0.36639,0.88631 0.0174,0.79591 -1.86874,-0.48406 -1.27559,-0.86564 -4.27847,-2.54219 -6.67306,-3.72566 -3.97493,-1.96452 -4.81629,-2.15393 -9.66864,-2.17669 -11.11576,-0.0521 -15.60697,3.24225 -21.60637,15.84869 -5.70786,11.9938 -8.379389,17.087695 -9.078726,17.310695 -0.357921,0.11413 -1.691811,-0.61981 -2.9642,-1.63098 z m 1.124521,-13.290215 c 2.980524,-1.11515 4.412325,-2.37705 3.608805,-3.18058 -0.1683,-0.16829 -1.745896,0.35321 -3.505769,1.15891 -3.674401,1.6822 -5.362165,1.38703 -7.482538,-1.30859 -2.156264,-2.74124 -1.704227,-5.37039 2.292764,-13.33523 5.387208,-10.73514 11.424533,-16.72923 18.454383,-18.3222 3.69139,-0.83648 6.06597,-0.0738 6.94168,2.22945 0.74318,1.95471 0.0198,3.09405 -6.89543,10.85996 -5.75514,6.46313 -7.8637,9.52861 -7.39475,10.75066 0.59472,1.54982 1.46153,1.05059 3.90012,-2.24623 1.28786,-1.74109 4.62033,-5.76691 7.4055,-8.94626 2.78517,-3.17934 5.43778,-6.48235 5.89469,-7.34002 1.00025,-1.87755 0.59087,-3.75829 -1.33665,-6.14069 -1.27504,-1.57595 -1.86814,-1.79727 -5.28891,-1.97361 -2.98856,-0.15406 -4.56528,0.10885 -7.02885,1.17201 -3.60163,1.55431 -8.619759,5.58273 -11.625861,9.33294 -2.945435,3.67453 -9.13511,16.20311 -9.469135,19.16656 -0.443157,3.93168 1.948156,7.61756 5.664663,8.7313 2.427029,0.72731 2.244831,0.74621 5.865288,-0.60838 z m 71.531385,12.47124 c -1.16073,-0.45433 -2.82994,-1.11794 -3.70936,-1.47468 -3.79788,-1.54066 -8.02313,-10.12919 -10.73847,-21.82775 -2.30395,-9.92614 -2.70651,-11.26291 -4.96464,-16.48583 -0.98085,-2.26864 -1.69491,-4.20295 -1.58681,-4.29847 0.1081,-0.0955 2.82053,-0.47792 6.02761,-0.84978 10.46033,-1.21285 32.63668,-0.47039 34.59922,1.15838 2.29248,1.90259 5.74659,17.18474 5.74644,25.42421 -1.5e-4,8.64284 -2.77432,15.28342 -7.42351,17.76982 -2.6328,1.408015 -14.83139,1.804955 -17.95048,0.5841 z m 14.66213,-1.86586 c 3.12128,-1.11319 4.34814,-2.34356 6.28912,-6.30707 1.52759,-3.11937 1.64538,-3.88987 1.57551,-10.30568 -0.0495,-4.54045 -0.5208,-9.0158 -1.3654,-12.96402 -1.68502,-7.87691 -2.28029,-9.26554 -4.20357,-9.80606 -2.12865,-0.59823 -28.26721,-0.5696 -30.43051,0.0333 -1.63025,0.45437 -1.70114,0.61761 -1.44021,3.31638 0.74812,7.73756 4.45772,22.81884 6.80004,27.64534 2.13434,4.39794 3.61015,6.07511 6.81396,7.74366 2.36193,1.2301 3.66582,1.46183 8.23318,1.46318 3.05269,9.1e-4 6.43347,-0.35741 7.72788,-0.81906 z m -11.16386,-1.62302 c -5.02126,-0.7256 -8.02574,-3.84693 -10.94613,-11.37186 -1.33364,-3.43639 -3.68873,-13.24152 -3.26116,-13.57745 0.0863,-0.0678 3.20949,-0.29034 6.94041,-0.49453 l 6.7835,-0.37125 v 1.82222 c 0,2.39622 -2.23438,4.58891 -5.20868,5.1115 -2.53249,0.44497 -5.04194,1.77654 -5.04194,2.67538 0,0.31068 1.1532,0.90173 2.56266,1.31344 1.40946,0.41172 2.75048,1.02378 2.98006,1.36015 0.22957,0.33636 0.28256,2.24895 0.11776,4.2502 -0.43925,5.33375 0.34612,6.02498 3.25972,2.86897 3.22964,-3.49832 5.08761,-3.45829 9.20477,0.19833 1.69994,1.50979 3.40487,2.63833 3.78874,2.50788 0.77817,-0.26445 0.85857,-4.50538 0.14063,-7.41771 -0.4176,-1.69399 -0.28988,-1.93348 1.40569,-2.63581 3.02505,-1.25301 2.23609,-3.09975 -1.68262,-3.93856 -1.26368,-0.27049 -3.27183,-1.62963 -5.27606,-3.57088 -3.26584,-3.16322 -4.13788,-4.90668 -2.18063,-4.35974 0.58037,0.16218 3.41546,0.475 6.30021,0.69515 3.64433,0.27812 5.4845,0.68872 6.02978,1.34543 0.54905,0.66125 0.78477,3.13617 0.78477,8.2394 0,6.90093 -0.0909,7.44894 -1.68622,10.16287 -0.92743,1.57774 -2.35891,3.30937 -3.18107,3.84807 -1.82596,1.19641 -7.99215,1.894 -11.83419,1.3388 z m -10.734,-27.52255 c -1.45423,-0.49929 -1.77082,-1.44543 -1.39677,-4.1744 0.2874,-2.09684 0.1574,-2.63874 -0.7132,-2.97282 -0.58556,-0.2247 -1.55882,-0.0999 -2.16279,0.27724 -0.60397,0.37719 -1.23787,0.45969 -1.40867,0.18334 -0.17079,-0.27635 0.42715,-0.86275 1.32875,-1.3031 2.07,-1.01101 19.41352,-1.58961 21.002,-0.70065 0.89859,0.50287 0.59445,0.68446 -1.73035,1.03308 -3.08839,0.46313 -3.84354,1.05506 -4.15834,3.25953 -0.31641,2.2157 -1.38085,2.12579 -2.64603,-0.2235 -1.08835,-2.02094 -2.50955,-3.1234 -3.1722,-2.46075 -0.64602,0.64602 1.17642,5.13737 2.44517,6.02604 1.27866,0.8956 1.23813,0.92628 -1.22363,0.92628 h -2.54607 v -3.31638 c 0,-3.13548 -0.0822,-3.31637 -1.50745,-3.31637 -1.3261,0 -1.50744,0.25864 -1.50744,2.15006 0,1.18253 0.27207,2.65843 0.60461,3.27978 0.67134,1.25442 0.17144,1.80608 -1.20759,1.33262 z m 17.87805,0.0304 c -2.1368,-0.22101 -2.23284,-0.30745 -1.20595,-1.08542 0.61366,-0.46491 2.13327,-0.85391 3.37691,-0.86446 1.98855,-0.0169 2.26116,-0.19618 2.26116,-1.48737 0,-0.8075 0.27584,-2.19369 0.61297,-3.08042 0.50328,-1.32371 0.7702,-1.48175 1.49149,-0.88313 0.48319,0.401 1.037,1.71936 1.23071,2.92968 0.1937,1.21032 0.47739,2.81109 0.63042,3.55728 0.26247,1.27985 0.0983,1.35095 -2.89889,1.25533 -1.74741,-0.0558 -4.22188,-0.20942 -5.49882,-0.34149 z m -6.57222,-0.8114 c -1.49502,-0.87077 -1.30755,-1.76063 0.37092,-1.76063 0.78437,0 2.10473,-0.5338 2.93414,-1.18621 0.82941,-0.65241 1.68002,-1.0142 1.89025,-0.80397 0.21023,0.21023 0.38223,-0.17446 0.38223,-0.85487 0,-0.6804 0.67258,-1.67779 1.49461,-2.2164 l 1.49461,-0.97931 -0.62409,1.66368 c -0.34324,0.91502 -1.21932,2.26145 -1.94684,2.99207 -2.18016,2.18945 -2.77723,3.04592 -2.39196,3.43118 0.61494,0.61494 -2.47867,0.36983 -3.60387,-0.28554 z M 66.264905,94.825685 c -3.101914,-3.30261 -6.471846,-7.61108 -10.493705,-13.41625 -1.952965,-2.81892 -4.943793,-6.88902 -6.646283,-9.04467 -3.498143,-4.42925 -8.71797,-11.74983 -8.71797,-12.22657 0,-0.41819 4.248891,-4.6568 4.668095,-4.6568 1.066152,0 6.553636,7.05556 15.230168,19.58226 2.487283,3.59101 6.353877,8.82804 8.592432,11.63785 2.238555,2.80981 4.062145,5.41413 4.052424,5.78737 -0.02114,0.81174 -3.374508,4.59798 -4.072296,4.59798 -0.269007,0 -1.444796,-1.01753 -2.612865,-2.26117 z m 134.687715,-9.34615 c -0.32836,-0.41455 -1.05931,-2.24609 -1.62433,-4.0701 -0.56502,-1.82401 -1.26037,-3.85906 -1.54522,-4.52233 -1.0807,-2.51642 -1.8941,-5.76743 -1.62311,-6.48727 0.15497,-0.41166 0.99795,0.7439 1.87328,2.56791 0.87534,1.82401 2.11032,4.1304 2.74441,5.12531 1.30788,2.05213 2.33911,8.1402 1.37882,8.1402 -0.33375,0 -0.87548,-0.33918 -1.20385,-0.75372 z m -50.3989,-7.16108 c -0.46905,-1.11888 -1.27122,-3.79804 -1.78261,-5.95369 -2.03143,-8.56305 -5.4456,-15.21898 -11.07747,-21.59559 -3.39953,-3.84907 -12.0278,-10.06691 -16.78917,-12.09888 -4.03241,-1.72087 -11.04916,-3.69014 -13.14844,-3.69014 -2.51664,0 -1.38784,-1.07714 1.59804,-1.5249 5.81905,-0.87262 16.86116,4.31375 26.30464,12.35504 6.10182,5.19579 10.47978,11.94125 13.24728,20.41106 2.72735,8.34691 4.00362,17.71696 1.64773,12.0971 z m -87.323076,-3.19582 c -0.366618,-0.80464 -0.5065,-2.10078 -0.31085,-2.88032 0.376438,-1.49984 4.576168,-6.75627 5.033038,-6.2994 0.443187,0.44318 -2.921386,10.6427 -3.510771,10.6427 -0.299661,0 -0.844799,-0.65834 -1.211417,-1.46298 z m 131.663486,-8.6369 c -1.25918,-3.34401 -1.93258,-5.77979 -1.67039,-6.04198 0.14789,-0.14789 0.7094,0.77797 1.24779,2.05745 1.08738,2.58412 1.81951,5.64272 1.35069,5.64272 -0.16704,0 -0.58468,-0.74619 -0.92809,-1.65819 z M 38.335353,57.484265 c -0.310674,-0.80325 0.106998,-1.54399 1.554325,-2.75659 1.92648,-1.61406 3.532158,-2.14937 3.532158,-1.17759 0,0.26434 -1.048871,1.5048 -2.330824,2.7566 -2.062921,2.01438 -2.379654,2.14973 -2.755659,1.17758 z m -3.941671,-4.78959 c -1.055413,-1.20205 -2.226645,-2.8609 -2.602739,-3.68633 -0.617038,-1.35426 -0.464923,-1.70139 1.557869,-3.55514 2.16055,-1.97999 2.295402,-2.01914 3.726203,-1.08164 0.816489,0.53498 2.309694,2.21847 3.318232,3.74109 1.879003,2.83677 1.714719,3.71963 -0.696258,3.74164 -0.556295,0.005 -1.545355,0.68799 -2.197911,1.51758 l -1.186464,1.50834 z m 107.764748,-3.50164 c -4.36319,-4.98884 -11.92168,-10.71766 -18.59595,-14.09444 -3.30523,-1.67226 -5.76632,-3.19075 -5.4691,-3.37445 0.29722,-0.18369 3.22202,-0.7674 6.49956,-1.29713 5.13416,-0.82981 7.42004,-0.86709 16.51128,-0.26928 16.56579,1.08932 23.73876,3.02463 31.87876,8.60109 3.13256,2.14602 10.52362,9.02772 12.15193,11.31449 l 1.15259,1.61865 -17.0141,-0.065 c -9.35775,-0.0357 -18.64214,0.13911 -20.63196,0.38852 l -3.61787,0.45349 z M 29.662156,43.283225 c 0.201392,-1.40534 3.094287,-2.89227 3.949527,-2.03002 0.457078,0.46082 -2.686046,3.36576 -3.648038,3.3716 -0.271794,0.002 -0.407464,-0.60206 -0.301489,-1.34158 z"
     id="path4"
     sodipodi:nodetypes="sssssccsssssssssssscsssssscssssscsscccsssscssssssssssssssssssssssssssssscsssscssssscsssssssssssssscssssssssssssssssscsscssssssscssssssssscssssssssssscssssssssssscsssssssssssscsssssssssssssssscsssssssscsssscsssssscssccscccsssssssssssscssssssssssssssscsssssssssssssssssssssssssssssssssscsssssssssssssssssssssssssssssssssssssssscssssccsssssssccssssssssssssssssssssssssssscssssccssssssssssssssscssssscssscsssscssssssssssssssscsssssssssssssssssssssssssssssssssssssssssssssssssssssssssssssssssssssssssssssssssssssssssssssssssscsssssssssssscssssssssssssssssssssssssssssssssscssssssssssssssssssssscssssssssssssssssssssssssssssssssssssssssssssssssssscscsssssssscsscssscs" /></svg>
