<?xml version="1.0" encoding="UTF-8" standalone="no"?>
<svg
   width="240"
   height="240"
   version="1.1"
   id="svg40"
   sodipodi:docname="FBCkildare.svg"
   inkscape:version="1.3.2 (091e20e, 2023-11-25, custom)"
   xml:space="preserve"
   xmlns:inkscape="http://www.inkscape.org/namespaces/inkscape"
   xmlns:sodipodi="http://sodipodi.sourceforge.net/DTD/sodipodi-0.dtd"
   xmlns="http://www.w3.org/2000/svg"
   xmlns:svg="http://www.w3.org/2000/svg"><defs
     id="defs40"><filter
       style="color-interpolation-filters:sRGB;"
       inkscape:label="Drop Shadow"
       id="filter3"
       x="-0.17272412"
       y="-0.16174829"
       width="1.3454482"
       height="1.3234966"><feFlood
         result="flood"
         in="SourceGraphic"
         flood-opacity="1.000000"
         flood-color="rgb(58,63,94)"
         id="feFlood2" /><feGaussianBlur
         result="blur"
         in="SourceGraphic"
         stdDeviation="15.000000"
         id="feGaussianBlur2" /><feOffset
         result="offset"
         in="blur"
         dx="0.000000"
         dy="0.000000"
         id="feOffset2" /><feComposite
         result="comp1"
         operator="out"
         in="flood"
         in2="offset"
         id="feComposite2" /><feComposite
         result="comp2"
         operator="atop"
         in="comp1"
         in2="SourceGraphic"
         id="feComposite3" /></filter><filter
       style="color-interpolation-filters:sRGB;"
       inkscape:label="Drop Shadow"
       id="filter6"
       x="-0.080915145"
       y="-0.084299289"
       width="1.1618303"
       height="1.1685986"><feFlood
         result="flood"
         in="SourceGraphic"
         flood-opacity="1.000000"
         flood-color="rgb(58,63,94)"
         id="feFlood5" /><feGaussianBlur
         result="blur"
         in="SourceGraphic"
         stdDeviation="7.000000"
         id="feGaussianBlur5" /><feOffset
         result="offset"
         in="blur"
         dx="0.000000"
         dy="0.000000"
         id="feOffset5" /><feComposite
         result="comp1"
         operator="out"
         in="flood"
         in2="offset"
         id="feComposite5" /><feComposite
         result="comp2"
         operator="atop"
         in="comp1"
         in2="SourceGraphic"
         id="feComposite6" /></filter><filter
       style="color-interpolation-filters:sRGB;"
       inkscape:label="Drop Shadow"
       id="filter10"
       x="-0.079827625"
       y="-0.08183463"
       width="1.1596552"
       height="1.1636693"><feFlood
         result="flood"
         in="SourceGraphic"
         flood-opacity="1.000000"
         flood-color="rgb(58,63,94)"
         id="feFlood9" /><feGaussianBlur
         result="blur"
         in="SourceGraphic"
         stdDeviation="7.000000"
         id="feGaussianBlur9" /><feOffset
         result="offset"
         in="blur"
         dx="0.000000"
         dy="0.000000"
         id="feOffset9" /><feComposite
         result="comp1"
         operator="out"
         in="flood"
         in2="offset"
         id="feComposite9" /><feComposite
         result="comp2"
         operator="atop"
         in="comp1"
         in2="SourceGraphic"
         id="feComposite10" /></filter><filter
       style="color-interpolation-filters:sRGB;"
       inkscape:label="Drop Shadow"
       id="filter12"
       x="-0.0792567"
       y="-0.08483838"
       width="1.1585134"
       height="1.1696768"><feFlood
         result="flood"
         in="SourceGraphic"
         flood-opacity="1.000000"
         flood-color="rgb(58,63,94)"
         id="feFlood10" /><feGaussianBlur
         result="blur"
         in="SourceGraphic"
         stdDeviation="7.000000"
         id="feGaussianBlur10" /><feOffset
         result="offset"
         in="blur"
         dx="0.000000"
         dy="0.000000"
         id="feOffset10" /><feComposite
         result="comp1"
         operator="out"
         in="flood"
         in2="offset"
         id="feComposite11" /><feComposite
         result="comp2"
         operator="atop"
         in="comp1"
         in2="SourceGraphic"
         id="feComposite12" /></filter><filter
       style="color-interpolation-filters:sRGB;"
       inkscape:label="Drop Shadow"
       id="filter7"
       x="-0.08602059"
       y="-0.077572354"
       width="1.1720412"
       height="1.1551447"><feFlood
         result="flood"
         in="SourceGraphic"
         flood-opacity="1.000000"
         flood-color="rgb(58,63,94)"
         id="feFlood3" /><feGaussianBlur
         result="blur"
         in="SourceGraphic"
         stdDeviation="7.000000"
         id="feGaussianBlur3" /><feOffset
         result="offset"
         in="blur"
         dx="0.000000"
         dy="0.000000"
         id="feOffset3" /><feComposite
         result="comp1"
         operator="out"
         in="flood"
         in2="offset"
         id="feComposite4" /><feComposite
         result="comp2"
         operator="atop"
         in="comp1"
         in2="SourceGraphic"
         id="feComposite7" /></filter><filter
       style="color-interpolation-filters:sRGB;"
       inkscape:label="Drop Shadow"
       id="filter14"
       x="-0.11678852"
       y="-0.11994048"
       width="1.233577"
       height="1.239881"><feFlood
         result="flood"
         in="SourceGraphic"
         flood-opacity="1.000000"
         flood-color="rgb(58,63,94)"
         id="feFlood13" /><feGaussianBlur
         result="blur"
         in="SourceGraphic"
         stdDeviation="10.000000"
         id="feGaussianBlur13" /><feOffset
         result="offset"
         in="blur"
         dx="0.000000"
         dy="0.000000"
         id="feOffset13" /><feComposite
         result="comp1"
         operator="out"
         in="flood"
         in2="offset"
         id="feComposite13" /><feComposite
         result="comp2"
         operator="atop"
         in="comp1"
         in2="SourceGraphic"
         id="feComposite14" /></filter></defs><sodipodi:namedview
     id="namedview40"
     pagecolor="#505050"
     bordercolor="#eeeeee"
     borderopacity="1"
     inkscape:showpageshadow="0"
     inkscape:pageopacity="0"
     inkscape:pagecheckerboard="0"
     inkscape:deskcolor="#505050"
     inkscape:zoom="2.8284271"
     inkscape:cx="96.166522"
     inkscape:cy="102.70726"
     inkscape:window-width="1920"
     inkscape:window-height="1017"
     inkscape:window-x="-8"
     inkscape:window-y="-8"
     inkscape:window-maximized="1"
     inkscape:current-layer="svg40" /><path
     style="fill:#1b1f21;stroke:none"
     d="M 0,0 V 240 H 240 V 0 Z"
     id="path1"
     sodipodi:insensitive="true" /><path
     style="fill:#e64539;fill-opacity:1;filter:url(#filter14)"
     d="m 27.748782,221.09032 c 0.985795,-1.90632 1.792355,-4.54959 1.792355,-5.87395 0,-2.54264 1.699962,-3.23466 2.955513,-1.20314 0.409529,0.66263 4.802139,3.27949 9.761354,5.81523 l 9.016756,4.61044 -12.659166,0.0587 -12.659166,0.0587 z m 26.462954,2.29124 c 0.969202,-0.62634 3.232969,-1.1469 5.030592,-1.1568 1.797624,-0.01 5.101722,-0.784 7.342441,-1.72023 4.003195,-1.67264 4.074034,-1.65221 4.074034,1.17479 0,2.80691 -0.221909,2.87659 -9.104626,2.85904 -6.312146,-0.0125 -8.564146,-0.36727 -7.342441,-1.1568 z m 18.251134,-2.64328 c 0.448779,-2.09993 2.88543,-8.11835 5.414779,-13.37425 2.529349,-5.2559 5.408225,-13.43813 6.397503,-18.18273 2.033936,-9.75481 2.063623,-9.81273 4.542236,-8.86159 4.355421,1.67133 0.323743,24.5915 -6.302449,35.82955 -1.997932,3.3885 -3.632603,6.6663 -3.632603,7.284 0,0.6177 -1.627972,1.12309 -3.617715,1.12309 -3.465707,0 -3.58343,-0.16042 -2.801751,-3.81807 z m 13.468209,2.64328 c 0,-0.64613 0.516026,-1.17479 1.146725,-1.17479 0.630699,0 2.130825,-1.91821 3.333615,-4.26269 1.998343,-3.89517 2.684452,-4.3007 7.957901,-4.7036 3.17406,-0.24251 7.02735,-0.7301 8.56288,-1.08355 2.34799,-0.54045 2.64462,-0.30627 1.86575,1.47294 -0.50936,1.16355 -1.16041,4.09801 -1.44677,6.52102 l -0.52066,4.40546 H 96.380798 c -6.183286,0 -10.449719,-0.47964 -10.449719,-1.17479 z m 22.327041,-1.46849 c 0.003,-1.4538 1.24441,-4.68908 2.75799,-7.18951 l 2.75198,-4.54624 0.76638,5.5913 c 1.17418,8.56657 1.10476,8.78773 -2.758,8.78773 -2.87349,0 -3.52326,-0.48816 -3.51835,-2.64328 z m 29.30772,0.52578 c 1.58453,-1.09685 7.07384,-5.43053 12.19846,-9.6304 20.35759,-16.68404 25.18068,-20.19799 33.08699,-24.1061 10.21712,-5.05035 21.73004,-8.04958 26.7799,-6.97644 2.07056,0.44001 6.27523,2.19486 9.34371,3.89968 l 5.57906,3.09965 0.001,17.91556 0.001,17.91555 h -23.49581 c -12.92269,0 -23.49581,-0.30493 -23.49581,-0.67763 0,-1.13635 13.00616,-24.26258 16.53145,-29.39454 3.1653,-4.60791 6.43893,-7.32908 12.83832,-10.67172 1.85812,-0.97056 2.24652,-1.53675 1.05735,-1.54133 -2.84087,-0.0109 -11.20839,6.47838 -14.85687,11.52205 -1.77922,2.4596 -6.40322,10.38751 -10.27556,17.61759 l -7.04062,13.14558 -20.56696,-0.0616 c -19.70293,-0.059 -20.44593,-0.1454 -17.686,-2.05588 z m -18.85487,0.71543 c -0.0628,-0.19806 -0.48004,-6.02262 -0.92712,-12.94346 -0.68606,-10.62015 -1.21044,-13.00653 -3.36108,-15.29578 -2.48825,-2.64862 -8.52025,-16.96011 -8.52025,-20.21509 0,-0.91786 7.60839,-5.58807 17.32816,-10.63641 33.99142,-17.65479 65.24214,-35.32332 70.32072,-39.75792 3.42823,-2.99351 5.15956,-5.45733 5.15956,-7.34244 0,-1.56042 0.46452,-2.83713 1.03227,-2.83713 2.04387,0 3.67492,6.70262 4.85995,19.97144 1.31218,14.69257 1.43994,15.71898 3.36345,27.02018 1.7478,10.26889 1.7101,10.57012 -1.32583,10.59325 -5.20522,0.0396 -20.34443,4.65136 -28.45451,8.66783 -4.54173,2.24926 -13.9891,8.74796 -20.99416,14.44156 -22.25339,18.08721 -38.04349,29.71358 -38.48116,28.33397 z m 27.12029,-29.05505 c 0.47953,-2.05118 2.96113,-4.0604 8.85739,-7.17138 17.12158,-9.03366 51.96491,-32.35667 50.51108,-33.81049 -0.28642,-0.28642 -3.05303,1.59084 -6.14804,4.17169 -4.25845,3.55101 -34.85191,23.79256 -35.9743,23.80166 -0.10864,8.8e-4 -0.0175,-2.88798 0.20247,-6.41969 l 0.40001,-6.4213 7.82353,-4.32464 c 10.38636,-5.74131 33.29097,-20.61141 32.68358,-21.2188 -0.26427,-0.26427 -5.17292,2.64304 -10.90809,6.46069 -18.44339,12.27694 -29.74445,18.36176 -31.26971,16.8365 -2.28292,-2.28293 -4.70081,-1.58562 -14.2904,4.1213 l -9.21288,5.48273 0.62517,6.89457 c 0.34385,3.79201 1.46071,8.16974 2.4819,9.72828 1.1749,1.79311 1.41991,3.10369 0.6672,3.56888 -1.65334,1.02182 -5.18501,-7.63755 -7.67637,-18.82189 -2.13794,-9.59775 -4.03068,-13.79954 -4.03068,-8.94793 0,3.8884 4.42873,20.63642 6.73686,25.47663 1.58524,3.32428 2.55278,4.07063 4.91447,3.79096 1.99736,-0.23652 3.15432,-1.26228 3.60681,-3.19777 z m -4.62326,-5.66768 c -0.6729,-2.42301 -1.21717,-6.25576 -1.20948,-8.51723 0.013,-3.81736 0.5755,-4.44618 7.85648,-8.78224 4.31338,-2.56876 9.19421,-4.68338 10.84629,-4.69916 2.79735,-0.0267 3.02809,0.39273 3.35764,6.10375 0.4381,7.5921 -0.80868,10.02714 -6.4809,12.65758 -2.44534,1.13401 -6.12894,3.31754 -8.18577,4.8523 -2.05682,1.53475 -4.01443,2.79046 -4.35024,2.79046 -0.33581,0 -1.16112,-1.98246 -1.83402,-4.40546 z m -96.394587,26.19939 c -4.199876,-2.16475 -8.917766,-5.31068 -10.484199,-6.99097 -1.566434,-1.68028 -3.536706,-3.05506 -4.378382,-3.05506 -2.316966,0 -4.891024,-4.66546 -5.833459,-10.57311 -0.463845,-2.90761 -1.810227,-6.87252 -2.991961,-8.81093 -2.580955,-4.23355 -2.753459,-8.97296 -0.48317,-13.27473 2.214383,-4.19585 14.259274,-15.7147 25.933356,-24.80077 5.169078,-4.02315 6.755045,-5.03183 3.524372,-2.24151 -12.249708,10.58 -25.121061,23.64014 -26.442462,26.83028 -3.686543,8.90011 0.483098,11.3179 25.561369,14.82191 l 3.818069,0.53347 v 7.42256 c 0,6.75603 1.392887,16.91115 3.035982,22.13444 0.983808,3.12745 -2.527632,2.5051 -11.259515,-1.99558 z M 93.691408,207.387 c 1.118537,-8.29581 1.54347,-9.25069 4.775827,-10.73192 7.711095,-3.53362 15.658815,-0.0971 15.658815,6.77064 0,4.41497 -4.73851,7.04647 -14.239888,7.90802 L 93.076,211.95127 Z m 9.505892,-14.25629 c -0.27187,-0.4846 -0.85683,-2.46706 -1.29991,-4.40547 -0.44309,-1.9384 -1.08046,-4.44952 -1.41639,-5.58025 -0.42862,-1.44275 0.0444,-2.05588 1.58591,-2.05588 1.55668,0 2.77938,1.62576 4.19674,5.58025 2.50684,6.99415 2.49299,7.34244 -0.2918,7.34244 -1.25414,0 -2.50269,-0.39649 -2.77455,-0.88109 z m -4.317404,-15.77353 c 0.01437,-0.85505 0.939515,-2.74121 2.055884,-4.19146 l 2.02976,-2.63684 -0.11178,3.81163 c -0.0748,2.55088 -0.75481,3.93726 -2.05588,4.19146 -1.069258,0.20891 -1.932351,-0.31975 -1.917984,-1.17479 z m -28.944825,-8.86176 c -1.863419,-4.98813 -3.539245,-9.40668 -3.724058,-9.819 -0.184813,-0.41232 2.692775,-1.10566 6.394639,-1.54074 l 6.730662,-0.79106 7.996544,7.93527 c 4.398099,4.3644 7.996544,8.80096 7.996544,9.85903 0,2.01772 -6.918562,3.39395 -17.170798,3.4156 l -4.835499,0.0102 z m 17.973857,-4.81084 c -5.559465,-5.6024 -7.723333,-8.58348 -7.207048,-9.9289 0.949523,-2.47442 8.038309,-4.82015 11.750709,-3.8884 2.250717,0.5649 6.364742,5.36475 9.414851,10.98434 0.0959,0.17675 1.03823,-0.0101 2.09401,-0.41526 2.88352,-1.10652 4.55235,-8.34749 4.10371,-17.80581 -0.33276,-7.01536 -0.0662,-8.59924 1.57673,-9.36894 1.08745,-0.50947 7.65354,-6.46484 14.59132,-13.23416 6.93778,-6.76932 11.07028,-11.34546 9.18333,-10.1692 -1.88695,1.17626 -8.0196,6.94236 -13.62811,12.81355 -7.90906,8.27949 -10.54525,10.38604 -11.74791,9.3876 -1.26814,-1.0528 -1.55061,1.04001 -1.55061,11.48863 0,10.17034 -0.38535,13.16236 -1.88949,14.67073 -1.73757,1.74247 -2.08447,1.56432 -4.31482,-2.21583 -4.959699,-8.40607 -12.642467,-9.87705 -19.900194,-3.81019 -4.23406,3.53932 -7.756329,4.58717 -12.164713,3.61893 -2.927917,-0.64308 -4.083312,-1.96246 -6.506516,-7.42999 -3.145939,-7.09825 -7.502441,-21.68917 -7.502441,-25.12739 0,-1.42491 0.908087,-2.0795 2.884805,-2.0795 1.586643,0 4.890741,-1.3721 7.34244,-3.04911 3.992374,-2.73086 5.070725,-2.94833 10.331588,-2.08354 9.735923,1.6004 26.514341,0.99921 31.131951,-1.1155 7.51667,-3.44238 18.84745,-9.88073 21.30827,-12.10774 4.24409,-3.840859 6.01506,-8.620437 5.43415,-14.666012 -0.7906,-8.227937 -3.25822,-11.21635 -11.15797,-13.512869 -7.06259,-2.053153 -19.03274,-1.851432 -43.192029,0.727872 -5.815213,0.620846 -14.750725,1.482311 -19.856693,1.914368 l -9.283579,0.785556 0.805948,-5.040122 c 1.204178,-7.530515 6.412884,-22.522451 8.986272,-25.864699 l 2.261345,-2.936977 0.02612,4.405465 c 0.01437,2.423005 0.519717,4.405464 1.123,4.405464 0.603283,0 7.343643,-1.054495 14.978579,-2.343323 7.634935,-1.288827 14.250564,-2.346139 14.701398,-2.349581 0.450835,-0.0034 0.979491,-2.7817 1.174791,-6.173908 l 0.355092,-6.16765 6.592913,0.125631 c 5.33752,0.101708 8.94292,1.248201 18.9343,6.020978 l 12.34138,5.895349 -1.81686,6.973611 -1.81686,6.973612 7.12444,7.235906 7.12443,7.235905 -1.14794,5.382321 c -0.63136,2.960277 -0.96709,10.587134 -0.74606,16.948572 0.46523,13.389691 2.12379,16.506471 8.78371,16.506471 4.58898,0 13.35179,-3.25771 13.35179,-4.96374 0,-1.23293 -1.07188,-1.01118 -8.68279,1.79627 -9.04313,3.33576 -11.28865,0.13637 -11.28865,-16.083927 0,-12.088116 3.27824,-27.537931 6.88319,-32.439383 2.60654,-3.543968 7.39728,-4.343826 11.01804,-1.839563 1.46168,1.010959 5.69047,4.841057 9.3973,8.511328 7.93636,7.858076 10.79383,7.521289 3.17275,-0.373947 -7.58545,-7.858327 -13.88572,-12.17177 -17.77825,-12.17177 -4.37841,0 -8.56876,4.186459 -10.43923,10.429541 -0.79801,2.663504 -1.89589,4.842735 -2.43975,4.842735 -0.54386,0 -0.98884,-0.410839 -0.98884,-0.912976 0,-2.149819 -7.22072,-8.670732 -8.89137,-8.029645 -2.66053,1.020941 -3.26376,-2.084641 -1.68402,-8.66973 1.0182,-4.244332 2.38087,-6.580652 4.87341,-8.355494 2.31772,-1.650361 3.34528,-3.293059 3.1125,-4.97576 -0.26987,-1.950908 0.57095,-2.828119 3.76427,-3.927152 2.64388,-0.909935 3.26144,-1.438804 1.72989,-1.48144 -3.75536,-0.104543 -7.48286,3.079543 -6.77481,5.78714 0.44033,1.683825 -0.13517,2.623707 -2.03741,3.327392 -2.02126,0.74771 -5.68068,-0.371159 -15.40314,-4.709513 -16.82722,-7.50864 -20.916611,-8.016336 -32.002489,-3.973091 -8.717773,3.179549 -19.225487,3.852538 -19.835308,1.270394 -0.484842,-2.052949 13.316576,-6.692864 30.268625,-10.176045 29.009122,-5.960577 48.932842,-4.737976 56.197612,3.448516 2.13557,2.40652 2.10605,2.442394 -2.93697,3.569116 l -5.09423,1.138162 6.13748,0.125811 c 6.99055,0.143297 6.54307,-0.394483 14.71931,17.689573 6.70846,14.837653 10.41953,19.129287 22.02306,25.468414 26.37556,14.40924 34.31764,23.392714 26.27435,29.719564 -1.70247,1.33917 -3.68493,2.43478 -4.40546,2.43469 -0.72053,-9e-5 -5.44398,-2.64884 -10.49655,-5.88612 -11.6311,-7.452266 -15.38641,-9.385997 -18.22763,-9.385997 -2.72835,0 -6.06741,4.713437 -6.06741,8.564817 0,1.52544 -1.37018,4.05515 -3.04484,5.62158 -4.06018,3.79777 -4.65679,5.05246 -7.55487,15.88811 -1.36525,5.10453 -3.60613,10.48134 -4.97973,11.94846 -2.39622,2.55935 -20.21205,12.92078 -33.76176,19.63535 l -6.46134,3.20193 4.78492,-5.11625 c 4.47546,-4.78535 8.72517,-10.69033 8.72517,-12.12365 0,-2.1024 -3.70449,-0.0281 -5.69585,3.18934 -3.52499,5.69533 -8.01711,9.46441 -17.79996,14.93493 -4.84601,2.70986 -9.90231,5.94289 -11.236228,7.1845 -1.333913,1.24161 -2.669731,2.25747 -2.968483,2.25747 -0.298752,0 -4.118371,-3.60279 -8.488041,-8.0062 z m 66.544802,-58.66316 c -1.37895,-3.29284 -1.70143,-6.937166 -1.27688,-14.42988 0.60266,-10.636005 2.45967,-15.792414 7.70733,-21.401225 1.66246,-1.776871 2.494,-3.230674 1.84786,-3.230674 -1.98462,0 -7.26358,6.22171 -9.18819,10.829079 -3.30926,7.922132 -2.08941,32.63817 1.61084,32.63817 0.62916,0 0.31373,-1.98246 -0.70096,-4.40547 z m 9.30722,-10.505676 c 4.82939,-1.730945 7.41661,-3.873393 4.69916,-3.891314 -2.06578,-0.01362 -12.0416,4.076457 -12.0416,4.937046 0,1.353339 1.07687,1.199968 7.34244,-1.045732 z m 3.69877,38.865856 c 2.28154,-9.61572 4.43434,-15.72192 6.3978,-18.14669 l 2.18238,-2.69513 0.82973,7.33381 c 0.45635,4.03359 1.08388,7.99612 1.39452,8.80563 0.33208,0.86539 -1.94341,2.83695 -5.52269,4.78504 l -6.08748,3.31322 z M 53.663939,115.3446 c -1.147709,-1.26821 -1.765731,-3.14237 -1.373384,-4.16482 0.948755,-2.47241 7.881581,-5.27726 13.043958,-5.27726 2.282225,0 4.149499,-0.53328 4.149499,-1.18506 0,-1.84479 -13.065154,0.0418 -16.447066,2.37499 -6.10558,4.21217 -7.766787,4.01315 -9.844428,-1.17938 -1.046912,-2.6165 -1.895451,-6.200368 -1.885643,-7.964163 0.02372,-4.265835 2.623943,-12.779941 4.465394,-14.621392 0.81047,-0.810469 6.080676,-1.830655 11.711569,-2.267078 5.630894,-0.436424 16.846185,-1.501526 24.922869,-2.366892 15.96157,-1.710184 36.879683,-2.09476 38.268693,-0.703564 0.47766,0.478408 1.23634,3.293872 1.68597,6.256589 l 0.81751,5.386757 -7.75709,6.123219 C 103.90406,104.8483 94.865293,108.6994 86.644226,108.01765 c -7.313141,-0.60646 -8.966965,0.85631 -2.367848,2.09431 10.730287,2.01301 22.552642,-2.07141 34.921062,-12.064636 7.92833,-6.405795 8.10393,-6.665364 7.50913,-11.099898 -0.65374,-4.873968 0.78,-6.268131 1.9513,-1.89744 2.73748,10.214854 -1.36209,14.688832 -24.19059,26.399894 -3.1354,1.60848 -10.938442,1.96932 -30.443147,1.40784 -7.553342,-0.21744 -9.530096,0.14062 -12.516652,2.26724 -4.362919,3.10667 -5.20936,3.13037 -7.843542,0.21964 z M 186.96306,102.96554 c -2.90761,-1.55694 -4.55597,-2.85469 -3.66304,-2.88389 1.6054,-0.0525 9.53699,4.3797 9.53699,5.32929 0,0.69692 -0.0254,0.68635 -5.87395,-2.4454 z M 62.435269,45.988203 v -4.699162 h 8.767438 c 5.975786,0 10.651618,-0.742674 14.684881,-2.332438 l 5.917443,-2.332438 v 5.176071 c 0,4.703882 -0.29472,5.236109 -3.230674,5.834204 -7.161021,1.458799 -18.723838,3.035689 -22.321019,3.04405 -3.672699,0.0085 -3.818069,-0.170042 -3.818069,-4.690287 z"
     id="path7" /></svg>
