<?xml version="1.0" encoding="UTF-8" standalone="no"?>
<svg
   width="240"
   height="240"
   version="1.1"
   id="svg40"
   sodipodi:docname="FBCsamson.svg"
   inkscape:version="1.3.2 (091e20e, 2023-11-25, custom)"
   xml:space="preserve"
   xmlns:inkscape="http://www.inkscape.org/namespaces/inkscape"
   xmlns:sodipodi="http://sodipodi.sourceforge.net/DTD/sodipodi-0.dtd"
   xmlns="http://www.w3.org/2000/svg"
   xmlns:svg="http://www.w3.org/2000/svg"><defs
     id="defs40"><filter
       style="color-interpolation-filters:sRGB;"
       inkscape:label="Drop Shadow"
       id="filter3"
       x="-0.17272412"
       y="-0.16174829"
       width="1.3454482"
       height="1.3234966"><feFlood
         result="flood"
         in="SourceGraphic"
         flood-opacity="1.000000"
         flood-color="rgb(58,63,94)"
         id="feFlood2" /><feGaussianBlur
         result="blur"
         in="SourceGraphic"
         stdDeviation="15.000000"
         id="feGaussianBlur2" /><feOffset
         result="offset"
         in="blur"
         dx="0.000000"
         dy="0.000000"
         id="feOffset2" /><feComposite
         result="comp1"
         operator="out"
         in="flood"
         in2="offset"
         id="feComposite2" /><feComposite
         result="comp2"
         operator="atop"
         in="comp1"
         in2="SourceGraphic"
         id="feComposite3" /></filter></defs><sodipodi:namedview
     id="namedview40"
     pagecolor="#505050"
     bordercolor="#eeeeee"
     borderopacity="1"
     inkscape:showpageshadow="0"
     inkscape:pageopacity="0"
     inkscape:pagecheckerboard="0"
     inkscape:deskcolor="#505050"
     inkscape:zoom="2.3747003"
     inkscape:cx="86.74779"
     inkscape:cy="99.17041"
     inkscape:window-width="1920"
     inkscape:window-height="1017"
     inkscape:window-x="-8"
     inkscape:window-y="-8"
     inkscape:window-maximized="1"
     inkscape:current-layer="svg40" /><path
     style="fill:#1b1f21;stroke:none"
     d="M0 0v240h240V0H0z"
     id="path1" /><path
     style="fill:#e64539;stroke-width:1.6286;fill-opacity:1;filter:url(#filter3)"
     d="m 19.044765,227.35723 c 0,-2.38547 1.966735,-5.58161 5.010745,-8.14299 2.75591,-2.31894 5.850452,-4.21625 6.876761,-4.21625 1.026307,0 0.23721,1.14086 -1.753553,2.53523 -1.99076,1.39439 -3.619566,3.50326 -3.619566,4.68639 0,1.18312 1.116832,3.07801 2.481848,4.21088 2.017291,1.6742 3.755311,1.55951 9.285204,-0.61268 4.201673,-1.65047 7.383445,-2.09235 8.32028,-1.15552 0.834308,0.83432 1.076179,2.66549 0.53749,4.06929 -0.776779,2.02427 -3.68579,2.55237 -14.059321,2.55237 -12.737553,0 -13.079888,-0.10276 -13.079888,-3.92672 z m 31.987049,-2.99481 c -0.525097,-3.80685 -1.383941,-11.68518 -1.908543,-17.50742 -0.524602,-5.82223 -1.291456,-12.23483 -1.704119,-14.25022 -0.412664,-2.01539 -0.0034,-3.66434 0.909327,-3.66434 0.912794,0 1.659625,1.1223 1.659625,2.494 0,1.37172 1.02404,2.88698 2.275646,3.36727 1.251606,0.48027 6.381686,8.09685 11.400177,16.92571 5.018492,8.82885 9.124531,16.84088 9.124531,17.80451 0,0.9636 -2.086614,1.75202 -4.636918,1.75202 -3.199295,0 -5.18483,-1.13609 -6.404162,-3.66434 l -1.767246,-3.66434 -0.30291,4.07149 c -0.285213,3.8336 -0.37555,3.78603 -1.546135,-0.8143 l -1.243222,-4.88579 -0.192687,4.47864 c -0.113562,2.63962 -1.119861,4.47864 -2.450665,4.47864 -1.420954,0 -2.61189,-2.56579 -3.212699,-6.92153 z m 28.59675,4.96722 c -1.074874,-1.07488 -1.954316,-2.90705 -1.954316,-4.07149 0,-1.16445 -1.352887,-3.47007 -3.006414,-5.1236 -1.653527,-1.65352 -5.353077,-6.41716 -8.221221,-10.58588 -3.27284,-4.7569 -4.410898,-7.57946 -3.056049,-7.57946 1.187319,0 3.787565,1.14087 5.778328,2.53524 1.990761,1.39439 3.619566,3.95943 3.619566,5.70009 0,1.74067 0.709868,3.16485 1.577483,3.16485 0.867617,0 1.106819,-1.22653 0.531561,-2.72564 -0.806408,-2.10146 -0.391249,-2.4744 1.812908,-1.62859 1.572358,0.60338 3.165328,1.09704 3.539931,1.09704 0.374605,0 0.73261,1.64895 0.795567,3.66434 0.104832,3.35618 0.217849,3.40044 1.34381,0.52621 1.131938,-2.88947 1.315517,-2.91354 2.316927,-0.30391 0.59817,1.5588 1.690871,2.46133 2.428221,2.00564 0.737349,-0.45572 4.223653,0.18181 7.747334,1.41674 4.995867,1.75086 14.11741,2.06033 41.42153,1.40527 19.25816,-0.46201 37.01403,-1.46867 39.45748,-2.23701 2.44345,-0.76832 4.80029,-0.81827 5.23742,-0.1109 0.43714,0.70728 -1.44223,4.32785 -4.17639,8.0457 l -4.97116,6.75974 h -45.1341 c -32.932829,0 -45.662416,-0.52832 -47.088416,-1.95432 z m 102.275876,-2.2309 c 0,-2.30186 2.16753,-7.33559 4.81674,-11.18608 2.64921,-3.8505 8.54002,-9.3901 13.09069,-12.31027 4.55069,-2.92016 8.60597,-4.9774 9.01173,-4.57164 0.40576,0.40577 -0.38967,5.08047 -1.76763,10.38825 -1.37797,5.30776 -3.20814,9.89628 -4.06703,10.19673 -0.85889,0.30044 -1.18539,1.15501 -0.72552,1.89907 0.45985,0.74406 0.11612,3.24651 -0.76385,5.56099 -0.87996,2.3145 -2.63898,4.20816 -3.90891,4.20816 -1.26993,0 -2.72584,-1.08638 -3.23537,-2.41421 -0.50954,-1.32781 0.11238,-5.35859 1.38211,-8.95728 1.26969,-3.59868 1.99609,-6.54307 1.6142,-6.54307 -0.38187,0 -2.53804,4.03078 -4.79146,8.95728 -2.98924,6.53514 -4.9839,8.95728 -7.37642,8.95728 -2.43592,0 -3.27928,-1.07634 -3.27928,-4.18521 z M 30.444943,222.9907 c 0,-0.97838 1.30083,-3.43261 2.890733,-5.45385 l 2.890733,-3.67496 2.832729,3.75543 c 2.711648,3.59492 2.697082,3.82804 -0.340771,5.45383 -1.745426,0.93413 -4.320985,1.69842 -5.723464,1.69842 -1.402477,0 -2.54996,-0.80049 -2.54996,-1.77887 z m -14.621158,-4.10444 c 0.01992,-2.58641 1.302438,-6.3104 2.850045,-8.27552 2.400169,-3.04769 3.651804,-3.37147 8.513919,-2.20245 3.135049,0.75377 4.784003,1.53712 3.664343,1.74078 -1.11966,0.20365 -2.703096,0.46188 -3.518746,0.57385 -0.81565,0.11188 -3.747125,3.05261 -6.514387,6.53474 l -5.031387,6.33119 z m 86.130845,-4.88159 c -0.945,-1.13865 -2.763896,-1.66898 -4.041986,-1.17853 -1.278106,0.49045 -2.323828,0.2026 -2.323828,-0.63968 0,-0.84226 -1.019079,-1.5314 -2.264613,-1.5314 -1.245518,0 -4.543427,-0.94392 -7.328679,-2.0976 -2.785246,-1.1537 -5.064082,-3.1372 -5.064082,-4.40782 0,-1.2706 1.570964,-5.38953 3.491032,-9.15318 2.693508,-5.27972 2.881247,-6.33691 0.82179,-4.62771 -1.468084,1.2184 -3.503411,4.99948 -4.522949,8.40239 -1.763433,5.88581 -2.061219,6.09795 -6.114729,4.35605 -2.343564,-1.00709 -7.375714,-3.91345 -11.182559,-6.45855 -4.617408,-3.08703 -6.929837,-5.82128 -6.946475,-8.21359 -0.01949,-2.8032 -0.350336,-3.07178 -1.515437,-1.23019 -1.229175,1.94287 -2.059659,1.65732 -4.73679,-1.6286 -1.78546,-2.19147 -4.360177,-7.87961 -5.721594,-12.64029 -1.361416,-4.76068 -2.186295,-9.52432 -1.833066,-10.58588 0.353232,-1.06155 1.456028,-5.10602 2.450659,-8.98772 1.327445,-5.18055 2.452274,-6.81056 4.229231,-6.12868 2.085246,0.80019 2.071464,0.43019 -0.09941,-2.66917 -1.386125,-1.97898 -2.520228,-6.06871 -2.520228,-9.08831 0,-4.11018 0.814119,-5.70308 3.238877,-6.33718 1.781382,-0.46584 2.837432,-1.49653 2.34678,-2.29042 -0.490654,-0.79389 -0.53012,-1.44344 -0.0877,-1.44344 0.442417,0 2.588402,0.67827 4.768859,1.50728 2.49228,0.94756 4.295652,3.21547 4.856319,6.10724 0.586471,3.02487 -0.22254,6.41232 -2.362675,9.89289 -1.789991,2.91112 -4.04977,5.29294 -5.021731,5.29294 -0.971961,0 -1.207134,0.54965 -0.522607,1.22145 0.684527,0.67179 3.343545,-1.28218 5.908928,-4.34215 l 4.664332,-5.5636 1.542669,4.05754 c 0.848468,2.23163 3.441674,5.3018 5.762682,6.82258 2.321008,1.52078 4.220013,3.30724 4.220013,3.96992 0,0.66267 -1.608892,1.9283 -3.575315,2.8125 -1.966425,0.8842 -6.352272,6.73772 -9.746326,13.00782 -3.394054,6.27009 -6.147124,12.13304 -6.117929,13.02877 0.0292,0.89573 2.296813,-2.76861 5.039153,-8.14298 2.742342,-5.37437 6.499184,-11.42054 8.348537,-13.43593 1.849353,-2.01539 4.665966,-3.66434 6.259137,-3.66434 1.593172,0 4.722864,0.83207 6.954871,1.84904 3.513443,1.60083 4.755298,1.26246 9.251382,-2.52074 2.856249,-2.40338 7.991367,-5.7973 11.411367,-7.54206 4.96683,-2.53389 10.08492,-3.24197 25.43293,-3.51855 l 19.21474,-0.34629 15.06133,7.9548 15.06131,7.95478 3.77251,-3.54409 c 2.07488,-1.94925 5.81307,-3.54408 8.30707,-3.54408 2.89678,0 6.11753,1.69455 8.91731,4.69174 2.41052,2.58046 6.80417,9.46229 9.76365,15.29296 4.35381,8.57769 5.04582,11.22729 3.62544,13.88128 -0.9655,1.80405 -6.96165,6.28168 -13.32479,9.9503 -6.36312,3.66861 -11.87138,6.67022 -12.24056,6.67022 -0.36919,0 -0.67125,-1.14149 -0.67125,-2.53664 0,-1.39514 -1.89969,-5.97557 -4.22153,-10.17873 -2.32184,-4.20315 -4.96432,-8.37496 -5.87218,-9.27069 -0.90785,-0.89573 0.62541,2.93094 3.40723,8.50369 2.78184,5.57276 5.05789,11.53 5.05789,13.23834 0,1.87461 -1.82818,3.86331 -4.6112,5.01608 -2.53616,1.05051 -7.11659,2.24314 -10.17873,2.65031 -3.06213,0.40716 -16.56056,1.14412 -29.99648,1.6377 -13.43593,0.49356 -27.19049,1.09788 -30.56569,1.34292 -3.49335,0.25364 -6.87683,-0.44622 -7.8549,-1.62472 z m 62.03525,-16.94618 c -2.14421,-1.4076 -2.14998,-1.79196 -0.0472,-3.14371 1.31765,-0.84702 1.80738,-2.12838 1.08829,-2.84749 -0.71909,-0.71909 -2.32334,0.0819 -3.56501,1.77997 -1.24166,1.69809 -1.87136,3.71232 -1.39932,4.47609 0.47203,0.76376 2.09751,1.37745 3.61217,1.36374 2.37658,-0.0215 2.4192,-0.24469 0.31103,-1.6286 z m -22.39321,-3.22068 c 2.46326,-0.007 4.47864,-0.78771 4.47864,-1.7363 0,-0.94859 -0.55292,-1.38299 -1.22871,-0.96532 -0.67578,0.41767 -6.97179,1.00026 -13.99112,1.29464 -11.08868,0.46505 -13.06335,0.12361 -15.05724,-2.60315 -1.26217,-1.72612 -2.29486,-4.46405 -2.29486,-6.08431 0,-1.76888 -1.13872,-2.89455 -2.85004,-2.81734 -1.70259,0.0769 -2.03044,0.45928 -0.8143,0.95001 1.11966,0.45179 2.03574,1.81196 2.03574,3.0226 0,1.21063 0.75427,4.18502 1.67614,6.60974 1.65249,4.34635 1.83064,4.39398 12.62162,3.37479 6.02003,-0.56859 12.96088,-1.03899 15.42413,-1.04536 z m 50.73538,-8.34348 c 3.15626,-0.17459 3.17645,-0.24983 0.26592,-0.99139 -1.88213,-0.47956 -4.01208,0.3771 -5.29294,2.12878 -1.17886,1.6122 -2.09379,3.70728 -2.03317,4.65574 0.0606,0.94846 0.90548,0.0756 1.87748,-1.93987 0.97198,-2.01539 3.30421,-3.74936 5.18271,-3.85326 z m -37.79233,-3.79046 c 2.95828,-0.49607 9.04301,-1.13728 13.52165,-1.42493 6.96333,-0.44721 6.56582,-0.56551 -2.74402,-0.81653 -5.98785,-0.16139 -12.76688,0.42117 -15.06452,1.29474 -2.85352,1.0849 -4.1448,2.76241 -4.07428,5.29294 l 0.10325,3.70465 1.43964,-3.57446 c 0.93474,-2.32088 3.32596,-3.89079 6.81829,-4.47641 z m -87.644247,3.08049 c 0.55616,-1.44932 0.28313,-2.10304 -0.640056,-1.53248 -0.885468,0.54724 -1.609943,1.68462 -1.609943,2.52748 0,0.84287 0.288026,1.53248 0.640057,1.53248 0.352031,0 1.076505,-1.13736 1.609942,-2.52748 z m 38.076767,-5.10588 c -1.55709,-0.40762 -4.48856,-0.42241 -6.514391,-0.0329 -2.025827,0.38955 -0.751858,0.72307 2.831051,0.74114 3.58292,0.0181 5.24042,-0.30065 3.68334,-0.70827 z m -49.497658,-9.55091 c 1.67397,-4.07025 2.52697,-7.91507 1.895556,-8.54402 -0.631413,-0.62895 -2.550677,0.58659 -4.265031,2.7012 -1.714352,2.11462 -3.117003,3.36076 -3.117003,2.76917 0,-0.59157 1.129252,-3.25932 2.509451,-5.92833 1.380198,-2.66901 2.062425,-5.57604 1.516062,-6.46008 -0.546362,-0.88403 -1.686718,-1.17882 -2.534126,-0.6551 -0.847406,0.52372 -2.651906,3.61162 -4.010001,6.86199 -1.358093,3.25039 -2.085034,6.91107 -1.615423,8.13486 0.469611,1.22378 1.716425,1.69195 2.770699,1.04038 1.313954,-0.81207 1.572029,-0.28608 0.820516,1.67234 -0.602987,1.57135 -0.684279,3.52375 -0.180645,4.33865 0.503632,0.8149 1.422095,1.47888 2.041029,1.47552 0.618934,-0.003 2.494945,-3.33631 4.168916,-7.40658 z m 17.710877,1.44493 c -1.125239,-0.45365 -1.561658,-1.60834 -0.969814,-2.56596 0.636025,-1.02911 0.307174,-1.26592 -0.804151,-0.57908 -1.034126,0.63913 -1.88023,1.85167 -1.88023,2.69453 0,0.84287 1.28252,1.47462 2.850045,1.4039 1.719388,-0.0775 2.038407,-0.45579 0.80415,-0.95339 z m 142.330301,12.075 c -0.51828,-2.01539 -4.29451,-9.36888 -8.3916,-16.3411 -6.00622,-10.22104 -8.37086,-12.86106 -12.20663,-13.62822 l -4.75737,-0.95148 5.23657,-5.13734 c 2.88013,-2.82554 5.60529,-5.00619 6.05592,-4.84589 0.45065,0.16025 0.94799,-3.03212 1.1052,-7.09428 0.15716,-4.06216 0.97783,-8.07775 1.82361,-8.92352 0.84577,-0.84577 4.01278,-1.30116 7.0378,-1.01198 5.45459,0.52143 5.5079,0.60649 6.45378,10.29735 0.52458,5.37437 2.17353,14.13955 3.66435,19.47818 1.49081,5.33863 2.69448,11.56801 2.6748,13.84308 -0.0197,2.27505 -1.44958,7.25116 -3.17757,11.05801 -1.72799,3.80684 -3.46461,6.92153 -3.85917,6.92153 -0.39454,0 -1.14142,-1.64895 -1.65969,-3.66434 z m 3.84641,-10.28579 c 0,-1.40249 -0.85285,-4.15074 -1.89523,-6.10724 -1.72233,-3.23273 -1.64443,-3.35038 0.85366,-1.28946 1.51189,1.24731 3.13114,1.88557 3.59833,1.41838 0.4672,-0.4672 -0.79586,-4.23598 -2.80677,-8.37506 -2.01092,-4.1391 -4.66322,-7.52562 -5.89402,-7.52562 -1.28293,0 -1.97182,1.21609 -1.61449,2.85005 0.3428,1.56752 1.3388,2.71917 2.21333,2.55922 0.87452,-0.15992 1.59003,1.03467 1.59003,2.65471 0,1.62005 -0.92104,2.81038 -2.04677,2.64515 -1.12572,-0.16522 -2.61763,-0.92769 -3.31536,-1.69437 -0.69772,-0.7667 -0.25743,-0.80805 0.97843,-0.0918 1.51045,0.87525 2.01095,0.59381 1.52681,-0.85855 -0.3961,-1.18837 -1.59049,-2.45076 -2.65417,-2.80531 -1.06367,-0.35456 -1.93396,0.47042 -1.93396,1.83331 0,1.36288 2.01539,5.79799 4.47864,9.85581 2.46325,4.05783 5.02829,7.40103 5.70009,7.42934 0.6718,0.0283 1.22145,-1.096 1.22145,-2.49848 z M 210.298,146.76988 c 0.4948,-0.8006 -0.85736,-1.35025 -3.00481,-1.22145 -2.14743,0.12882 -3.56506,0.78385 -3.15029,1.45564 0.41477,0.6718 1.76693,1.22145 3.00479,1.22145 1.23787,0 2.65551,-0.65504 3.15031,-1.45564 z m -42.34801,-2.73042 c -4.30855,-7.6767 -9.94986,-15.73826 -12.53625,-17.91457 -2.58639,-2.17631 -5.38129,-3.95692 -6.21087,-3.95692 -0.82959,0 1.31597,2.55161 4.76791,5.67022 3.45195,3.11862 8.58414,10.00024 11.40487,15.29249 2.82075,5.29224 5.12862,9.92553 5.12862,10.2962 0,0.37066 -5.3133,-1.898 -11.80733,-5.04148 -11.5567,-5.59408 -12.19762,-5.70844 -30.1957,-5.38789 -13.19613,0.23504 -19.86411,1.07369 -23.61465,2.97003 -2.87446,1.45337 -7.608105,4.42546 -10.519222,6.60462 -2.911117,2.17916 -5.292939,3.45102 -5.292939,2.82635 0,-0.62468 2.506345,-4.91175 5.56967,-9.52683 3.063326,-4.6151 8.848541,-11.41342 12.856031,-15.1074 5.43137,-5.00646 9.09244,-6.95846 14.38064,-7.66745 3.90185,-0.52313 10.75862,-1.2102 15.23726,-1.52681 4.47864,-0.31664 1.44268,-0.4644 -6.74659,-0.32839 -14.62136,0.24284 -15.02268,0.35633 -22.2777,6.30128 -4.06347,3.32972 -10.811298,11.20318 -14.995163,17.49662 l -7.607035,11.44262 -4.421207,-2.90687 c -2.431663,-1.59878 -6.139469,-4.15694 -8.239569,-5.68481 l -3.818364,-2.77793 7.995266,-9.4235 c 5.598456,-6.59854 6.564003,-8.31098 3.220865,-5.71232 -2.62592,2.04117 -5.782168,5.14998 -7.013884,6.90851 -1.231716,1.75852 -2.831229,3.19731 -3.554475,3.19731 -0.723245,0 -2.475331,-3.11469 -3.893525,-6.92154 -1.418193,-3.80684 -2.761115,-10.84256 -2.984272,-15.63494 -0.306335,-6.57868 0.229781,-9.06903 2.188312,-10.16509 1.426725,-0.79844 7.064374,-1.64104 12.528106,-1.87248 5.463732,-0.23143 9.936972,-0.92488 9.940539,-1.54101 0.0033,-0.61613 1.289018,-1.08458 2.856542,-1.041 1.567525,0.0436 8.223274,-0.99957 14.790574,-2.31808 l 11.94053,-2.397313 3.53114,5.453893 c 2.79138,4.31132 4.628,5.45813 8.76678,5.47406 3.45037,0.013 5.78796,-1.01185 6.8554,-3.00639 0.89088,-1.66461 3.38595,-4.1838 5.54461,-5.59821 3.60897,-2.364687 5.21986,-2.300211 20.01645,0.80117 13.68128,2.86764 17.42774,3.09758 25.01197,1.53506 7.87568,-1.62258 9.25709,-1.50108 11.79558,1.03741 1.8995,1.8995 2.94672,5.62716 3.08597,10.98471 0.11595,4.4602 -0.33779,11.56616 -1.00824,15.791 -1.08498,6.83708 -2.43441,8.76171 -12.27488,17.50742 -6.08074,5.40423 -11.39613,9.82589 -11.81198,9.82589 -0.41583,0 -4.28125,-6.28094 -8.58979,-13.95764 z m 20.59214,-9.38807 c 4.85345,0.9707 5.03225,0.83528 3.26278,-2.47103 -1.02965,-1.9239 -3.27048,-3.498 -4.97963,-3.498 -1.70915,0 -4.19311,1.54987 -5.51992,3.44416 -1.32681,1.89428 -1.9777,4.57694 -1.44642,5.96143 0.77634,2.0231 1.21943,1.83207 2.25714,-0.97312 1.07416,-2.90374 2.15426,-3.3178 6.42605,-2.46344 z m -148.071391,0.0323 c -1.035547,-2.52156 -1.87159,-12.04885 -1.857874,-21.17176 0.01368,-9.12289 0.666344,-17.599819 1.450283,-18.837585 1.073332,-1.694701 2.10668,-0.814689 4.184157,3.563272 2.070041,4.362293 2.563035,8.583553 1.974646,16.907863 -0.43129,6.10175 -1.478118,14.02557 -2.326281,17.60849 l -1.542117,6.51438 z m 179.922931,-6.00122 c -0.44887,-1.34359 -1.59746,-6.32652 -2.55242,-11.07318 -0.95494,-4.74666 -1.66322,-12.80822 -1.57394,-17.914567 0.0892,-5.106351 0.6546,-11.042798 1.25625,-13.192108 l 1.0939,-3.907837 2.11017,4.631318 c 1.16059,2.547232 2.53107,12.064002 3.04553,21.148394 0.5943,10.49487 0.29753,17.6535 -0.81401,19.63397 -1.42992,2.54778 -1.89836,2.67085 -2.56548,0.67401 z M 49.704286,116.87966 c 0.33959,-3.80939 1.196561,-7.54371 1.904379,-8.29848 0.707819,-0.75478 2.831359,-0.54578 4.718981,0.46444 2.209747,1.18262 3.423157,3.4114 3.407099,6.25811 -0.01368,2.43174 -0.563367,5.15422 -1.221447,6.04994 -0.65808,0.89573 -3.048246,1.8139 -5.31148,2.04037 -3.903054,0.39059 -4.083173,0.055 -3.497532,-6.51438 z M 204.7048,111.5226 c 0,-5.04844 0.75941,-7.21213 2.80708,-7.99789 1.75906,-0.67501 3.58316,-0.0163 4.88579,1.76563 1.14329,1.56355 2.07705,5.08456 2.07499,7.82447 -0.003,4.40917 -0.56476,5.0016 -4.88579,5.15508 -4.685,0.16641 -4.88207,-0.10602 -4.88207,-6.74729 z M 54.466745,106.34412 c -2.487548,-0.37684 -4.478641,-1.71643 -4.478641,-3.01318 0,-1.2841 1.064818,-2.33473 2.366264,-2.33473 1.301446,0 4.209939,0.84003 6.463319,1.86675 2.253381,1.0267 3.710349,2.49244 3.237709,3.25719 -0.47264,0.76474 -1.365744,1.28065 -1.984678,1.14644 -0.618933,-0.1342 -3.140721,-0.54933 -5.603973,-0.92247 z m 71.367445,-1.39274 c -1.40757,-1.40757 -2.55923,-3.4596 -2.55923,-4.56008 0,-1.100454 0.87944,-2.880282 1.95432,-3.955156 1.07487,-1.074874 3.59053,-1.954316 5.59035,-1.954316 2.18235,0 4.04151,1.277617 4.65028,3.195681 0.55786,1.757614 0.21502,4.689091 -0.76184,6.514391 -0.97687,1.82528 -2.7973,3.3187 -4.04539,3.3187 -1.24811,0 -3.42091,-1.15164 -4.82849,-2.55922 z m 75.2424,-3.24044 c -0.60636,-0.60637 -0.0904,-2.114537 1.14654,-3.351505 1.23696,-1.236952 4.13354,-2.249011 6.43683,-2.249011 2.63678,0 4.18782,0.904784 4.18782,2.442895 0,1.343593 -0.91608,2.452911 -2.03574,2.465141 -1.11967,0.013 -3.52012,0.42109 -5.33436,0.9086 -1.81422,0.4875 -3.79471,0.39024 -4.40109,-0.21612 z M 48.934499,96.49264 c -1.027348,-0.658084 -2.126651,-3.005234 -2.442895,-5.215891 -0.476236,-3.329047 1.048362,-5.13946 8.876712,-10.540791 7.954627,-5.488456 9.720172,-6.141603 11.146657,-4.123597 1.389027,1.965014 1.525205,1.872259 0.754482,-0.513896 -0.567581,-1.757225 0.01723,-3.279199 1.474968,-3.838584 1.32849,-0.50979 2.415438,-2.628305 2.415438,-4.707813 0,-2.079506 1.151651,-4.932571 2.559224,-6.340145 1.407572,-1.407573 4.362689,-2.559224 6.566924,-2.559224 2.204236,0 9.66379,2.192111 16.576793,4.871356 6.912998,2.679247 14.924018,6.316464 17.802268,8.082706 l 5.23319,3.21135 -2.27199,7.549247 c -1.24959,4.152086 -2.66025,7.93751 -3.1348,8.41205 -0.47454,0.474557 -4.03689,-0.629175 -7.91632,-2.452732 C 102.6957,86.503135 96.076597,84.494526 91.866006,83.86311 87.6554,83.231691 81.728138,83.180747 78.694294,83.749906 75.660451,84.319058 68.66858,87.699455 63.156805,91.26188 57.645029,94.824305 52.610472,97.7278 51.968899,97.714087 51.327325,97.701058 49.961846,97.150723 48.934499,96.49264 Z M 61.388281,86.286364 c 0,-0.924592 1.648954,-2.343875 3.664342,-3.153963 l 3.664343,-1.472885 -3.664343,-0.103237 c -2.015388,-0.05677 -3.664342,0.629637 -3.664342,1.525365 0,0.895728 -1.142555,1.628597 -2.53901,1.628597 -1.396455,0 -2.086073,0.732868 -1.532482,1.628596 0.553591,0.895729 1.696144,1.628604 2.53901,1.628604 0.842865,0 1.532482,-0.756492 1.532482,-1.681084 z m 17.914564,9.998304 c 0,-0.799902 1.159242,-1.899205 2.576093,-2.442895 1.416853,-0.543691 5.38769,-0.988542 8.824087,-0.988542 3.436388,0 7.407233,0.444851 8.82408,0.988542 1.416845,0.54369 2.576095,1.642993 2.576095,2.442895 0,0.799901 -5.130077,1.454353 -11.400175,1.454353 -6.2701,0 -11.40018,-0.654452 -11.40018,-1.454353 z m 39.249395,-0.792052 c -1.34994,-1.626593 -1.18612,-3.690889 0.63973,-8.060739 1.34991,-3.230817 2.45439,-7.349519 2.45439,-9.15268 0,-2.138807 1.41535,-3.633701 4.0715,-4.300354 2.23932,-0.562033 5.84529,-0.576686 8.01325,-0.03256 2.82367,0.7087 4.2384,2.491087 4.98762,6.28379 0.57522,2.911962 1.8387,7.350636 2.80773,9.863724 1.31524,3.410933 1.26165,5.062346 -0.21145,6.514387 -1.53254,1.510637 -2.44371,1.308496 -4.079,-0.904914 -1.15811,-1.567524 -3.87719,-2.850044 -6.04237,-2.850044 -2.16521,0 -5.48699,1.08585 -7.38173,2.412978 -2.87061,2.010649 -3.74755,2.0484 -5.25967,0.226407 z m 36.73694,-1.104514 c 0.94729,-0.947273 5.69648,-2.132485 10.55375,-2.633799 6.93793,-0.716062 9.30008,-0.346794 11.01729,1.722322 1.98173,2.387832 0.9961,2.633799 -10.55374,2.633799 -8.95527,0 -12.228,-0.511623 -11.0173,-1.722322 z m 46.39981,-6.567203 c -3.86912,-3.502311 -8.43772,-6.441132 -10.15246,-6.530705 -1.71473,-0.08957 -4.7827,-0.236147 -6.81768,-0.325719 -2.03499,-0.08957 -4.41682,0.256771 -5.29294,0.769652 -0.87613,0.512881 -4.89588,1.410506 -8.9328,1.994723 -4.03692,0.584217 -11.3074,2.900402 -16.15662,5.147087 -6.78215,3.142198 -9.11002,3.610355 -10.08757,2.028645 -0.69894,-1.130914 -1.7532,-4.911401 -2.34276,-8.401072 -0.95381,-5.645483 -0.55871,-6.76461 3.58434,-10.152952 2.56097,-2.094454 7.95421,-5.409839 11.98499,-7.367523 4.03078,-1.957684 10.55373,-4.54747 14.49544,-5.75508 5.00344,-1.532885 7.78191,-1.685127 9.20465,-0.504355 1.12083,0.930216 2.49019,3.49341 3.043,5.69599 0.89467,3.564667 1.8723,4.00469 8.89745,4.00469 5.51843,0 9.18302,1.015267 12.18343,3.375398 2.36013,1.856469 4.29113,2.578564 4.29113,1.604658 0,-0.973905 -2.38183,-3.222963 -5.29294,-4.997906 -2.92283,-1.78208 -8.21,-3.235583 -11.80733,-3.245962 -5.30929,-0.01531 -6.85561,-0.754772 -8.359,-3.997272 -1.01455,-2.188163 -1.44206,-4.381051 -0.95001,-4.873084 0.49203,-0.492033 2.92335,-0.894606 5.40294,-0.894606 2.47958,0 6.36374,0.705423 8.63145,1.567607 2.26772,0.862183 6.35628,4.65039 9.08569,8.418236 3.11863,4.305144 4.60996,7.961612 4.0136,9.840594 -0.59488,1.874279 0.005,3.355836 1.6062,3.97048 1.6192,0.621347 2.55519,2.983687 2.55519,6.449064 0,3.560381 -1.00364,6.005686 -2.87632,7.007909 -2.25573,1.20723 -4.39411,0.165465 -9.91107,-4.828497 z M 185.16164,72.76869 c 1.71646,-0.723558 1.51444,-0.917247 -0.67934,-0.651349 -1.71723,0.208138 -3.42198,1.477733 -3.78833,2.821326 -0.42842,1.571232 -0.18602,1.803643 0.67934,0.651347 0.73998,-0.98535 2.44473,-2.254947 3.78833,-2.821324 z m -14.65737,-4.53664 c 0,-0.895728 -0.73287,-1.175658 -1.6286,-0.622069 -0.89573,0.553591 -1.6286,1.739397 -1.6286,2.635125 0,0.895728 0.73287,1.17566 1.6286,0.622069 0.89573,-0.55359 1.6286,-1.739397 1.6286,-2.635125 z M 45.102313,83.895999 c 0,-0.536855 1.096067,-3.095661 2.435705,-5.686234 1.339638,-2.590575 6.589022,-7.68426 11.6653,-11.319301 5.076276,-3.635043 9.716229,-6.609168 10.311007,-6.609168 0.594777,0 0.779595,2.056423 0.410706,4.569826 -0.513954,3.501789 -3.015739,6.071021 -10.704443,10.993028 -5.518554,3.532762 -10.952757,7.00927 -12.076005,7.725575 -1.123248,0.716305 -2.04227,0.863128 -2.04227,0.326274 z M 120.01777,69.522568 c 0,-1.308122 -1.16544,-2.825622 -2.58986,-3.372225 -1.42442,-0.546602 -3.20094,-0.616152 -3.94784,-0.154553 -0.74687,0.461598 -7.412,-1.822532 -14.811366,-5.075846 -7.399383,-3.253316 -16.066233,-6.251415 -19.259679,-6.662445 -4.264691,-0.54891 -8.330496,0.536211 -15.31363,4.087049 -9.096433,4.625421 -9.46695,4.683764 -8.572372,1.349816 0.514246,-1.916508 0.944998,-4.856816 0.957229,-6.534016 0.01746,-2.393739 0.501066,-2.652066 2.249053,-1.201365 1.674364,1.389596 2.635568,1.33806 3.874407,-0.207736 0.906176,-1.130707 3.202017,-5.141324 5.101871,-8.912486 1.899853,-3.771161 3.454278,-8.207825 3.454278,-9.859253 0,-1.651428 2.381823,-5.305287 5.29294,-8.119688 2.911116,-2.814401 9.330224,-6.961767 14.264686,-9.216369 5.723557,-2.61515 14.567963,-4.746187 24.428953,-5.8860985 8.50147,-0.9827522 21.32015,-1.3326595 28.48598,-0.7775735 7.16583,0.5550861 15.22738,1.763474 17.91456,2.685308 2.68719,0.921833 6.79835,2.690993 9.13593,3.931464 2.33755,1.240471 4.72703,1.778489 5.30992,1.195597 0.58289,-0.582893 3.16723,0.959235 5.74297,3.42695 2.87392,2.753402 4.38845,5.613755 3.92029,7.403972 -0.41957,1.604467 1.5661,7.043902 4.41259,12.087632 2.84651,5.04373 6.12641,9.170417 7.28865,9.170417 1.16227,0 2.55804,1.159243 3.10173,2.576095 0.54371,1.416851 0.98854,2.908374 0.98854,3.314494 0,0.406119 -1.41754,-0.02026 -3.15013,-0.947498 -1.73256,-0.927244 -6.31299,-1.677199 -10.17873,-1.666568 -3.86571,0.01059 -10.86511,1.040691 -15.55422,2.28902 -4.68909,1.248331 -13.48351,5.087193 -19.54316,8.530805 -8.25089,4.688872 -12.85785,6.264474 -18.34622,6.2745 -4.03078,0.0073 -8.97764,0.606401 -10.99303,1.331195 -2.72888,0.981384 -3.66434,0.710625 -3.66434,-1.060594 z m -9.18263,-10.05557 c -0.51559,-1.343593 -1.22546,-2.442896 -1.5775,-2.442896 -0.35202,0 -0.64005,1.099303 -0.64005,2.442896 0,1.343592 0.70987,2.442895 1.57749,2.442895 0.86762,0 1.15564,-1.099303 0.64006,-2.442895 z m 11.92375,-1.119661 c -0.5199,-1.299183 -0.90581,-0.913278 -0.98395,0.983945 -0.0707,1.716813 0.31421,2.678703 0.85537,2.137533 0.54117,-0.54117 0.59903,-1.945834 0.12866,-3.121478 z M 93.174046,50.484288 c -0.133056,-1.805441 -1.217701,-4.187264 -2.410421,-5.292939 -1.761702,-1.633121 -1.97083,-1.45057 -1.114595,0.972925 0.579699,1.640784 1.053995,4.022606 1.053995,5.29294 0,1.270333 0.610382,2.309695 1.356426,2.309695 0.746028,0 1.247603,-1.47718 1.114595,-3.282621 z m 7.707714,0.575437 c -1.119665,-0.451794 -2.035751,-2.251891 -2.035751,-4.000218 0,-1.748328 1.269861,-5.168381 2.821931,-7.600118 2.72517,-4.269719 2.71891,-4.339506 -0.18219,-2.034987 -1.652258,1.312494 -3.568383,3.877534 -4.258078,5.700088 -0.689678,1.822553 -0.581913,4.596254 0.239486,6.163778 0.821399,1.567524 2.383744,2.792187 3.471892,2.721471 1.49121,-0.09692 1.4771,-0.330873 -0.0573,-0.950014 z m 53.33654,-5.4358 c 2.01384,-1.301437 1.85652,-1.5831 -0.89573,-1.603658 -1.83624,-0.01368 -4.21807,-0.904381 -5.29294,-1.979255 -1.08572,-1.08573 -1.95432,-1.230494 -1.95432,-0.325719 0,0.895728 0.87945,2.508039 1.95432,3.582913 1.07487,1.074874 2.35739,1.943095 2.85005,1.929379 0.49265,-0.01368 1.99503,-0.735364 3.33862,-1.60366 z M 90.104858,32.461574 c 3.017513,-1.864924 6.585133,-4.959465 7.928058,-6.87676 1.342924,-1.917293 2.441694,-4.710248 2.441694,-6.206567 0,-1.496319 -1.282524,-3.208842 -2.850048,-3.805606 -2.285166,-0.869973 -2.44656,-0.678556 -0.814299,0.965776 1.11966,1.127942 2.035746,2.490523 2.035746,3.02796 0,0.537437 -2.585332,0.977158 -5.745184,0.977158 -5.50127,0 -5.5877,-0.08742 -2.035746,-2.059464 2.040192,-1.132707 3.123388,-2.085436 2.407115,-2.117176 -0.716274,-0.03174 -3.399826,1.026951 -5.963449,2.352646 -2.563607,1.325696 -6.191556,4.356005 -8.062102,6.734018 -1.870545,2.378014 -3.400992,5.690563 -3.400992,7.361223 0,2.194951 1.189041,3.037563 4.286412,3.037563 2.357525,0 6.755284,-1.525847 9.772795,-3.390771 z m -12.43061,0.84081 c 0,-0.506751 0.848615,-2.507016 1.885811,-4.445035 1.037196,-1.938017 2.81702,-4.454878 3.955163,-5.593021 1.138145,-1.138145 2.615884,-2.069354 3.283866,-2.069354 0.667981,0 -0.471688,1.794883 -2.532606,3.988627 -2.160164,2.299392 -3.33664,5.058321 -2.777894,6.514387 0.604525,1.575373 0.06925,2.52576 -1.422558,2.52576 -1.31548,0 -2.391782,-0.414613 -2.391782,-0.921364 z m 5.791834,-2.187381 c -0.503129,-0.814082 1.342019,-3.379122 4.100331,-5.700089 2.758322,-2.320967 5.69175,-4.21994 6.518752,-4.21994 0.827001,0 1.503651,1.046111 1.503651,2.324692 0,1.27858 -1.931011,3.84362 -4.291125,5.700088 -2.360113,1.856469 -4.881906,3.375397 -5.603975,3.375397 -0.722068,0 -1.724503,-0.666066 -2.227634,-1.480148 z m 98.413428,-3.632369 c 0.013,-1.46829 -1.52046,-4.399764 -3.40929,-6.514387 l -3.43422,-3.844765 2.61992,4.421342 c 1.44097,2.431738 2.61993,5.546429 2.61993,6.921537 0,1.375107 -1.03069,2.500194 -2.29043,2.500194 -1.4764,0 -1.99247,-1.139383 -1.45206,-3.205931 0.55972,-2.140334 -0.80188,-4.84619 -4.09647,-8.140786 -3.08342,-3.083409 -5.8992,-4.564802 -7.50523,-3.948514 -1.4137,0.542489 -2.57038,0.175066 -2.57038,-0.816495 0,-0.991561 -0.73287,-1.802839 -1.62859,-1.802839 -0.89573,0 -1.6286,1.073803 -1.6286,2.386227 0,1.312424 2.19087,4.881479 4.86857,7.931232 2.67773,3.049752 7.2426,6.694775 10.14419,8.10005 3.97909,1.927137 5.57812,2.079233 6.50665,0.618901 0.67709,-1.064879 1.2423,-3.137473 1.25601,-4.605766 z m -13.86538,-4.049652 c -2.17977,-2.35201 -3.58705,-4.885041 -3.12729,-5.628961 0.45977,-0.74392 1.9389,-0.929344 3.28692,-0.412055 1.34804,0.51729 3.542,3.050321 4.87547,5.628961 1.50967,2.91941 1.76486,4.688434 0.67629,4.688434 -0.96149,0 -3.53163,-1.924371 -5.71139,-4.276379 z m -48.5382,-4.951314 c -0.3413,-0.341306 -1.82054,-0.160074 -3.28721,0.40273 -1.46665,0.562805 -2.23915,1.714946 -1.7167,2.56031 0.56638,0.916407 1.89368,0.753793 3.28721,-0.402727 1.28548,-1.066865 2.05801,-2.219006 1.7167,-2.560313 z M 61.394368,46.845373 c 0.0034,-1.11966 1.508578,-4.50022 3.344954,-7.512357 1.836376,-3.012137 3.716933,-5.098545 4.179017,-4.636462 0.462083,0.462084 -0.691607,3.842645 -2.563755,7.512359 -1.872147,3.669713 -3.755445,6.672206 -4.185104,6.672206 -0.42966,0 -0.77846,-0.916086 -0.775112,-2.035746 z M 191.00599,37.726154 c -2.4391,-4.791639 -4.08365,-9.063168 -3.65453,-9.492285 0.42912,-0.429118 2.74118,2.565911 5.1379,6.655618 2.39674,4.08971 4.04127,8.361237 3.65452,9.492286 -0.38672,1.131048 -2.69879,-1.863981 -5.13789,-6.655619 z"
     id="path2" /></svg>
