<?xml version="1.0" encoding="UTF-8" standalone="no"?>
<svg
   width="240"
   height="240"
   version="1.1"
   id="svg40"
   sodipodi:docname="FBCSpyder.svg"
   inkscape:version="1.3.2 (091e20e, 2023-11-25, custom)"
   xml:space="preserve"
   xmlns:inkscape="http://www.inkscape.org/namespaces/inkscape"
   xmlns:sodipodi="http://sodipodi.sourceforge.net/DTD/sodipodi-0.dtd"
   xmlns="http://www.w3.org/2000/svg"
   xmlns:svg="http://www.w3.org/2000/svg"><defs
     id="defs40"><filter
       style="color-interpolation-filters:sRGB;"
       inkscape:label="Drop Shadow"
       id="filter3"
       x="-0.17272412"
       y="-0.16174829"
       width="1.3454482"
       height="1.3234966"><feFlood
         result="flood"
         in="SourceGraphic"
         flood-opacity="1.000000"
         flood-color="rgb(58,63,94)"
         id="feFlood2" /><feGaussianBlur
         result="blur"
         in="SourceGraphic"
         stdDeviation="15.000000"
         id="feGaussianBlur2" /><feOffset
         result="offset"
         in="blur"
         dx="0.000000"
         dy="0.000000"
         id="feOffset2" /><feComposite
         result="comp1"
         operator="out"
         in="flood"
         in2="offset"
         id="feComposite2" /><feComposite
         result="comp2"
         operator="atop"
         in="comp1"
         in2="SourceGraphic"
         id="feComposite3" /></filter><filter
       style="color-interpolation-filters:sRGB;"
       inkscape:label="Drop Shadow"
       id="filter6"
       x="-0.080915145"
       y="-0.084299289"
       width="1.1618303"
       height="1.1685986"><feFlood
         result="flood"
         in="SourceGraphic"
         flood-opacity="1.000000"
         flood-color="rgb(58,63,94)"
         id="feFlood5" /><feGaussianBlur
         result="blur"
         in="SourceGraphic"
         stdDeviation="7.000000"
         id="feGaussianBlur5" /><feOffset
         result="offset"
         in="blur"
         dx="0.000000"
         dy="0.000000"
         id="feOffset5" /><feComposite
         result="comp1"
         operator="out"
         in="flood"
         in2="offset"
         id="feComposite5" /><feComposite
         result="comp2"
         operator="atop"
         in="comp1"
         in2="SourceGraphic"
         id="feComposite6" /></filter><filter
       style="color-interpolation-filters:sRGB;"
       inkscape:label="Drop Shadow"
       id="filter10"
       x="-0.079827625"
       y="-0.08183463"
       width="1.1596552"
       height="1.1636693"><feFlood
         result="flood"
         in="SourceGraphic"
         flood-opacity="1.000000"
         flood-color="rgb(58,63,94)"
         id="feFlood9" /><feGaussianBlur
         result="blur"
         in="SourceGraphic"
         stdDeviation="7.000000"
         id="feGaussianBlur9" /><feOffset
         result="offset"
         in="blur"
         dx="0.000000"
         dy="0.000000"
         id="feOffset9" /><feComposite
         result="comp1"
         operator="out"
         in="flood"
         in2="offset"
         id="feComposite9" /><feComposite
         result="comp2"
         operator="atop"
         in="comp1"
         in2="SourceGraphic"
         id="feComposite10" /></filter><filter
       style="color-interpolation-filters:sRGB;"
       inkscape:label="Drop Shadow"
       id="filter12"
       x="-0.0792567"
       y="-0.08483838"
       width="1.1585134"
       height="1.1696768"><feFlood
         result="flood"
         in="SourceGraphic"
         flood-opacity="1.000000"
         flood-color="rgb(58,63,94)"
         id="feFlood10" /><feGaussianBlur
         result="blur"
         in="SourceGraphic"
         stdDeviation="7.000000"
         id="feGaussianBlur10" /><feOffset
         result="offset"
         in="blur"
         dx="0.000000"
         dy="0.000000"
         id="feOffset10" /><feComposite
         result="comp1"
         operator="out"
         in="flood"
         in2="offset"
         id="feComposite11" /><feComposite
         result="comp2"
         operator="atop"
         in="comp1"
         in2="SourceGraphic"
         id="feComposite12" /></filter><filter
       style="color-interpolation-filters:sRGB;"
       inkscape:label="Drop Shadow"
       id="filter7"
       x="-0.08602059"
       y="-0.077572354"
       width="1.1720412"
       height="1.1551447"><feFlood
         result="flood"
         in="SourceGraphic"
         flood-opacity="1.000000"
         flood-color="rgb(58,63,94)"
         id="feFlood3" /><feGaussianBlur
         result="blur"
         in="SourceGraphic"
         stdDeviation="7.000000"
         id="feGaussianBlur3" /><feOffset
         result="offset"
         in="blur"
         dx="0.000000"
         dy="0.000000"
         id="feOffset3" /><feComposite
         result="comp1"
         operator="out"
         in="flood"
         in2="offset"
         id="feComposite4" /><feComposite
         result="comp2"
         operator="atop"
         in="comp1"
         in2="SourceGraphic"
         id="feComposite7" /></filter><filter
       style="color-interpolation-filters:sRGB;"
       inkscape:label="Drop Shadow"
       id="filter14"
       x="-0.11678852"
       y="-0.11994048"
       width="1.233577"
       height="1.239881"><feFlood
         result="flood"
         in="SourceGraphic"
         flood-opacity="1.000000"
         flood-color="rgb(58,63,94)"
         id="feFlood13" /><feGaussianBlur
         result="blur"
         in="SourceGraphic"
         stdDeviation="10.000000"
         id="feGaussianBlur13" /><feOffset
         result="offset"
         in="blur"
         dx="0.000000"
         dy="0.000000"
         id="feOffset13" /><feComposite
         result="comp1"
         operator="out"
         in="flood"
         in2="offset"
         id="feComposite13" /><feComposite
         result="comp2"
         operator="atop"
         in="comp1"
         in2="SourceGraphic"
         id="feComposite14" /></filter><filter
       style="color-interpolation-filters:sRGB;"
       inkscape:label="Drop Shadow"
       id="filter22"
       x="-0.088949143"
       y="-0.091903855"
       width="1.1778983"
       height="1.1838077"><feFlood
         result="flood"
         in="SourceGraphic"
         flood-opacity="1.000000"
         flood-color="rgb(58,63,94)"
         id="feFlood21" /><feGaussianBlur
         result="blur"
         in="SourceGraphic"
         stdDeviation="8.000000"
         id="feGaussianBlur21" /><feOffset
         result="offset"
         in="blur"
         dx="0.000000"
         dy="0.000000"
         id="feOffset21" /><feComposite
         result="comp1"
         operator="out"
         in="flood"
         in2="offset"
         id="feComposite21" /><feComposite
         result="comp2"
         operator="atop"
         in="comp1"
         in2="SourceGraphic"
         id="feComposite22" /></filter><filter
       style="color-interpolation-filters:sRGB;"
       inkscape:label="Drop Shadow"
       id="filter24"
       x="-0.093525792"
       y="-0.096168423"
       width="1.1870516"
       height="1.1923368"><feFlood
         result="flood"
         in="SourceGraphic"
         flood-opacity="1.000000"
         flood-color="rgb(58,63,94)"
         id="feFlood22" /><feGaussianBlur
         result="blur"
         in="SourceGraphic"
         stdDeviation="8.000000"
         id="feGaussianBlur22" /><feOffset
         result="offset"
         in="blur"
         dx="0.000000"
         dy="0.000000"
         id="feOffset22" /><feComposite
         result="comp1"
         operator="out"
         in="flood"
         in2="offset"
         id="feComposite23" /><feComposite
         result="comp2"
         operator="atop"
         in="comp1"
         in2="SourceGraphic"
         id="feComposite24" /></filter></defs><sodipodi:namedview
     id="namedview40"
     pagecolor="#505050"
     bordercolor="#eeeeee"
     borderopacity="1"
     inkscape:showpageshadow="0"
     inkscape:pageopacity="0"
     inkscape:pagecheckerboard="0"
     inkscape:deskcolor="#505050"
     inkscape:zoom="2"
     inkscape:cx="95"
     inkscape:cy="115.25"
     inkscape:window-width="1920"
     inkscape:window-height="1017"
     inkscape:window-x="-8"
     inkscape:window-y="-8"
     inkscape:window-maximized="1"
     inkscape:current-layer="svg40" /><path
     style="fill:#1b1f21;stroke:none"
     d="M 0,0 V 240 H 240 V 0 Z"
     id="path1"
     sodipodi:insensitive="true" /><path
     style="fill:#e64539;fill-opacity:1;filter:url(#filter24)"
     d="m 52.337607,226.20388 c 0,-0.44169 9.103971,-7.59277 9.666285,-7.59277 0.439779,0 3.684142,6.61321 3.684142,7.50964 0,0.20859 -3.003846,0.37925 -6.675213,0.37925 -3.671368,0 -6.675214,-0.13325 -6.675214,-0.29612 z m 13.191266,-3.51293 c -0.92194,-2.07703 -1.672901,-3.98123 -1.668803,-4.23155 0.0085,-0.51735 11.156502,-0.63371 11.668419,-0.12179 0.294032,0.29403 0.0219,2.0427 -1.05778,6.79701 -0.27787,1.22358 -0.671243,1.36369 -3.787826,1.34907 l -3.477755,-0.0163 z m 10.085784,2.74708 c 0.164454,-0.58408 0.483078,-2.01773 0.708053,-3.18589 0.529294,-2.74831 8.169353,-17.96476 11.57816,-23.05983 1.451445,-2.16945 3.814779,-5.27457 5.251853,-6.90027 l 2.612863,-2.95582 3.109282,1.43873 3.109282,1.43873 -6.800194,6.97863 c -3.740108,3.83825 -8.057831,8.75363 -9.594939,10.92307 -3.221685,4.54703 -7.006212,11.83598 -7.545541,14.53262 -0.2604,1.302 -0.720448,1.852 -1.549113,1.852 -0.831934,0 -1.090745,-0.31243 -0.879706,-1.06197 z m 3.705933,-0.60683 c 0.227535,-0.91785 0.948,-2.88256 1.601031,-4.36604 l 1.187331,-2.69723 2.712618,4.04356 c 1.49194,2.22396 2.712618,4.18868 2.712618,4.36604 0,0.17736 -1.941142,0.32247 -4.313649,0.32247 h -4.31365 z m 6.917276,-3.00496 c -1.734601,-2.57057 -3.15382,-4.97622 -3.15382,-5.3459 0,-1.195 5.042218,-8.13863 8.718833,-12.0067 l 3.577931,-3.76424 0.03293,6.3718 c 0.01811,3.50448 0.428578,9.10256 0.912147,12.44017 0.483568,3.3376 0.887874,6.27318 0.898458,6.5235 0.01058,0.25032 -1.747436,0.45513 -3.906709,0.45513 h -3.925952 z m 12.200156,4.21863 c -0.01058,-0.25032 -0.41489,-3.1859 -0.898458,-6.5235 -0.483568,-3.33761 -0.884524,-9.21903 -0.891014,-13.06982 l -0.0118,-7.00145 2.903323,-2.85966 c 1.596825,-1.57282 3.068355,-2.85967 3.270075,-2.85967 0.20171,0 0.53366,0.8875 0.73767,1.97222 0.57533,3.05911 3.57589,8.92834 6.35072,12.42232 1.3838,1.74243 2.51599,3.30616 2.51599,3.47497 0,0.16881 -2.09991,3.5903 -4.66647,7.60332 -4.62454,7.23083 -4.68726,7.2964 -6.97864,7.2964 -1.271684,0 -2.320814,-0.20481 -2.331398,-0.45513 z m 8.298148,-3.03419 c 1.2363,-1.91912 3.2245,-5.06174 4.41822,-6.9836 2.52178,-4.06 3.77644,-4.27293 4.40183,-0.74704 0.53858,3.03641 0.59813,8.05869 0.11685,9.85458 -0.34476,1.28647 -0.67853,1.36538 -5.77531,1.36538 h -5.40941 z m 11.57488,1.5171 c 0.47094,-4.13195 0.86888,-6.02876 1.19614,-5.7015 0.18655,0.18655 1.23207,-0.34185 2.32337,-1.17423 l 1.98419,-1.51342 2.21421,3.95938 c 1.81122,3.23877 2.09525,4.18166 1.56059,5.18069 -0.56324,1.05242 -1.26548,1.2213 -5.07845,1.2213 h -4.42483 z m 10.18468,1.36538 c 0.20627,-0.33376 0.49547,-0.60684 0.64265,-0.60684 0.14718,0 0.2676,0.27308 0.2676,0.60684 0,0.33376 -0.28919,0.60684 -0.64265,0.60684 -0.35346,0 -0.47388,-0.27308 -0.2676,-0.60684 z m 1.83313,-0.56706 c -0.27676,-0.87199 1.22767,-3.225 5.84972,-9.14932 5.58932,-7.1641 6.30212,-7.86628 7.0069,-6.90243 0.96407,1.31843 0.98063,3.3215 0.0921,11.13552 L 142.58505,226.5 h -5.9418 c -5.34173,0 -5.97943,-0.11855 -6.31439,-1.1739 z m 13.95748,-3.22567 c 0.24169,-2.41977 0.61075,-5.58541 0.82014,-7.03477 l 0.3807,-2.63519 3.78031,5.18671 3.78032,5.18672 -1.04955,1.84421 c -0.98102,1.72382 -1.28136,1.84447 -4.60045,1.84805 l -3.5509,0.004 z m 12.25306,3.60702 c -0.20188,-0.52607 1.3663,-2.25277 4.17361,-4.59552 5.23154,-4.3658 5.70841,-4.60735 7.06044,-3.57617 0.9325,0.71121 0.87917,1.08223 -0.67797,4.71638 l -1.69009,3.94444 -4.27131,0.17679 c -3.2091,0.13283 -4.35173,-0.0328 -4.59468,-0.66592 z m 11.54555,-2.84848 c 0.86406,-2.00256 1.86766,-3.63583 2.23022,-3.62949 1.46063,0.0256 6.43989,3.72021 7.32786,5.43735 L 178.591,226.5 h -6.03854 -6.03853 z m 10.90551,1.35465 c -0.848,-2.11936 -0.8016,-2.86192 0.63519,-10.16453 0.85251,-4.33298 1.62946,-7.97725 1.72656,-8.09836 0.18402,-0.22955 35.30785,19.15352 36.3183,20.04223 0.31708,0.27887 -8.05039,0.50704 -18.59436,0.50704 h -19.17087 z m 34.05639,-2.17183 c -4.64574,-2.62068 -7.67481,-4.69794 -7.65438,-5.24919 0.0186,-0.50174 -2.59769,-6.71404 -5.81395,-13.8051 -3.21626,-7.09106 -5.83551,-13.09875 -5.82056,-13.35042 0.015,-0.25168 1.19097,-1.75545 2.61335,-3.34173 l 2.58616,-2.88413 3.08619,2.88413 c 2.59458,2.42471 3.34811,3.65746 4.73048,7.73884 2.39286,7.06478 5.80841,13.29636 12.50094,22.80762 3.25762,4.62964 6.09546,8.69668 6.30633,9.03786 0.2404,0.38899 -0.59178,0.59772 -2.23149,0.55969 -2.0564,-0.0477 -4.25689,-0.98691 -10.30307,-4.39757 z m -59.63177,3.06665 c 0.22789,-0.59847 0.56721,-0.93527 0.75405,-0.74843 0.18683,0.18684 3.8e-4,0.6765 -0.41434,1.08814 -0.59932,0.59486 -0.66903,0.52516 -0.33971,-0.33971 z m 66.93293,-8.79213 c -3.21672,-4.57867 -6.84224,-10.13573 -8.05672,-12.34901 -2.47474,-4.51004 -6.06561,-13.87756 -5.3197,-13.87756 1.19616,0 2.57027,1.77534 3.75752,4.8547 2.10466,5.45884 5.2853,10.81678 10.71678,18.05294 4.67426,6.22734 5.10756,7.03783 4.93732,9.23511 l -0.18663,2.40867 z m -65.45485,7.16701 c 0,-0.46782 12.78238,-18.0193 16.73918,-22.98456 0.0923,-0.11585 1.81608,0.71822 3.83057,1.85348 l 3.66271,2.06411 -10.99476,9.0696 c -12.78194,10.54385 -13.2377,10.88805 -13.2377,9.99737 z m -28.11305,-4.41607 c -1.17135,-2.08544 -2.08375,-3.82254 -2.02756,-3.86022 0.0562,-0.0377 3.1952,-2.5641 6.97559,-5.61427 3.78039,-3.05016 7.09418,-5.54575 7.36397,-5.54575 0.26979,0 0.9552,0.70917 1.52313,1.57595 1.02729,1.56784 1.01296,1.60139 -2.78676,6.5235 -2.10065,2.72116 -4.7868,6.22912 -5.96922,7.79548 -1.18242,1.56635 -2.32976,2.86347 -2.54965,2.88248 -0.21988,0.019 -1.35816,-1.67172 -2.5295,-3.75717 z m 23.73794,-1.74844 c -1.80302,-2.45996 -4.18103,-5.7479 -5.28447,-7.30652 l -2.00625,-2.83387 1.65708,-2.17254 c 0.91139,-1.1949 1.72793,-2.17255 1.81453,-2.17255 0.12652,0 6.59673,8.41403 9.82486,12.77651 0.58486,0.79038 0.39607,1.46338 -1.00358,3.57757 l -1.72396,2.60406 z m 20.91144,0.94438 c -2.08601,-1.18234 -3.79274,-2.35562 -3.79274,-2.60729 0,-0.52488 3.64181,-3.32566 3.92023,-3.01489 0.34597,0.38617 3.98641,7.79063 3.82569,7.78126 -0.0882,-0.005 -1.86718,-0.97673 -3.95318,-2.15908 z m 3.35923,-2.31151 -2.23901,-4.52496 3.15677,-2.67085 c 1.73622,-1.46896 3.46012,-2.84896 3.83089,-3.06665 0.52555,-0.30857 -1.37758,11.24584 -2.35696,14.30978 -0.084,0.2627 -1.16023,-1.55859 -2.39169,-4.04732 z m -55.30726,0.11596 c 0.4633,-2.47654 1.06523,-3.18743 2.29826,-2.71427 1.48609,0.57026 1.12245,2.01886 -0.86141,3.43149 l -1.81246,1.29059 z m -49.687459,0.87083 -5.906854,-0.19158 4.38976,-3.741 c 2.414368,-2.05755 7.666683,-6.62537 11.671811,-10.15072 9.36177,-8.2403 10.090247,-8.79059 8.062321,-6.09021 -0.877266,1.16816 -3.77371,6.21094 -6.436541,11.20618 -2.662832,4.99524 -5.073742,9.0995 -5.357578,9.12058 -0.283836,0.0211 -3.174149,-0.0479 -6.422919,-0.15325 z M 222.46746,212.3465 c -5.99284,-7.97393 -11.1384,-16.86193 -11.1384,-19.2395 0,-0.32404 1.84327,0.33137 4.09615,1.45646 2.25289,1.12509 5.56377,2.55646 7.35751,3.18082 1.79375,0.62437 3.37178,1.42296 3.50674,1.77465 0.13495,0.3517 0.16927,4.4982 0.0763,9.21445 l -0.16913,8.57501 z m -23.66366,1.65746 c -4.85259,-2.65765 -4.99646,-2.80421 -8.15081,-8.3034 -1.76606,-3.0789 -3.48399,-6.04994 -3.81762,-6.60232 -0.48086,-0.79614 0.0609,-1.77488 2.61373,-4.72161 l 3.22034,-3.71729 5.69116,12.60339 c 3.13013,6.93186 5.62182,12.79311 5.53707,13.025 -0.0847,0.2319 -2.37698,-0.7958 -5.09387,-2.28377 z m -42.88482,-1.06023 -1.54558,-2.02636 4.20433,-1.86806 c 2.31238,-1.02743 4.20432,-1.7076 4.20432,-1.51149 0,0.60604 -4.52799,7.42133 -4.93438,7.42696 -0.21071,0.003 -1.07862,-0.90656 -1.92869,-2.02105 z m -33.48547,-1.35549 -1.61198,-2.75064 3.80734,-5.58119 c 2.09405,-3.06966 4.5313,-6.59043 5.41611,-7.82393 l 1.60877,-2.24274 1.17486,1.6359 c 0.64617,0.89974 2.18162,3.0285 3.41211,4.73056 l 2.23725,3.09467 -7.21624,5.844 -7.21624,5.84401 z m -9.99546,-2.53482 c -3.33682,-3.45124 -6.5997,-9.16389 -7.81821,-13.68813 l -0.62214,-2.30992 2.13491,0.18599 c 1.98677,0.17309 2.21458,0.41304 3.28336,3.4583 0.65381,1.86289 2.98445,5.67259 5.41112,8.84511 2.34446,3.06503 4.26265,5.89345 4.26265,6.28537 0,0.39193 -0.73756,0.7126 -1.63903,0.7126 -1.19963,0 -2.54343,-0.93543 -5.01266,-3.48932 z m 38.31804,-2.94178 c -3.28159,-4.24894 -3.3601,-4.49499 -1.96634,-6.16254 0.84192,-1.0073 20.44881,-10.46619 21.69487,-10.46619 0.10248,0 0.18632,1.35634 0.18632,3.0141 0,2.57616 -0.44198,3.71025 -3.0419,7.80537 -2.95855,4.65999 -3.17613,4.85177 -7.94004,6.99872 -2.69398,1.2141 -5.21647,2.20641 -5.60554,2.20513 -0.38906,-0.001 -1.88638,-1.52883 -3.32737,-3.39459 z m 35.2375,0.81464 c -2.41977,-1.37984 -4.39957,-2.71919 -4.39957,-2.97634 0,-0.25715 0.85611,-1.4426 1.90248,-2.63434 l 1.90248,-2.16681 2.04289,3.3913 c 2.89636,4.80808 3.96568,6.97415 3.422,6.93173 -0.25889,-0.0202 -2.45052,-1.1657 -4.87028,-2.54554 z m -70.92203,-3.05251 c -2.04311,-2.74168 -4.14256,-6.28104 -4.66543,-7.86523 l -0.95067,-2.88034 1.63125,-0.40125 c 3.00956,-0.74028 7.01117,-2.682 10.65972,-5.17248 3.35155,-2.28775 3.67803,-2.3924 4.39682,-1.4094 0.65705,0.89857 0.48522,1.63344 -1.11739,4.7789 -1.52755,2.99815 -1.94637,4.66673 -2.16551,8.6273 -0.24549,4.43689 -0.45496,5.12219 -2.17285,7.10882 l -1.90118,2.19857 z m 22.5846,-4.3181 c -2.53153,-3.47373 -4.72985,-6.6833 -4.88515,-7.13236 -0.1553,-0.44906 1.83224,-4.36647 4.41676,-8.70536 l 4.69912,-7.88889 3.49703,-0.52818 c 1.92337,-0.2905 3.67176,-0.35346 3.88531,-0.13991 0.21355,0.21355 0.50826,5.00009 0.65491,10.63675 l 0.26664,10.24849 -3.46385,4.60238 c -1.90512,2.5313 -3.68978,4.74201 -3.96592,4.91267 -0.27614,0.17067 -2.57333,-2.53185 -5.10485,-6.00559 z m 38.87774,2.10107 c -1.61491,-0.94725 -3.23426,-2.02035 -3.59857,-2.38466 -0.3643,-0.3643 -0.7632,-2.84002 -0.88644,-5.5016 l -0.22408,-4.83924 2.51609,-1.28361 c 1.38385,-0.70598 2.86664,-1.14909 3.2951,-0.98467 0.42846,0.16442 2.19659,2.77609 3.92917,5.80373 l 3.15015,5.50479 -2.24059,2.73435 c -1.23232,1.50389 -2.4125,2.72058 -2.62262,2.70377 -0.21011,-0.0168 -1.70331,-0.8056 -3.31821,-1.75286 z m -52.46872,-3.07127 c 0.14247,-1.84476 0.99888,-4.95621 1.91472,-6.95637 l 1.65696,-3.61877 1.46957,1.79825 c 0.80827,0.98904 1.4794,2.03666 1.4914,2.32803 0.0208,0.50512 -4.98429,7.9069 -6.20728,9.17963 -0.37469,0.38992 -0.49099,-0.5862 -0.32537,-2.73077 z m 58.15176,-7.31137 c -1.74795,-3.02867 -3.08107,-5.59689 -2.96247,-5.70716 0.39564,-0.36787 8.56925,-3.97292 9.00766,-3.97292 0.23752,0 1.18447,1.7708 2.10431,3.93511 l 1.67245,3.93512 -2.47298,2.9537 c -4.15893,4.96739 -3.78872,5.02501 -7.34897,-1.14385 z m -28.50392,2.41952 c 5.16315,-6.44627 10.28271,-13.21658 10.28271,-13.59828 0,-0.22771 1.29496,-2.09693 2.8777,-4.15382 l 2.87771,-3.73979 0.3881,1.81367 c 0.21346,0.99751 0.42041,4.55578 0.4599,7.90725 l 0.0718,6.0936 -8.48842,3.78376 c -11.47251,5.11393 -10.95641,4.99854 -8.4695,1.89361 z m -2.61945,-8.87219 c -0.18459,-5.27957 -0.15616,-9.78689 0.0632,-10.01628 0.48849,-0.51085 14.36847,-2.46494 15.62858,-2.20026 0.66568,0.13982 0.17649,1.18883 -1.85282,3.97315 -1.51651,2.08075 -2.7573,3.93042 -2.7573,4.1104 0,0.30853 -8.44372,11.21135 -10.01532,12.93213 -0.57382,0.62829 -0.80276,-1.26089 -1.06632,-8.79914 z m 70.03978,7.06553 c -12.78053,-5.19107 -20.44387,-12.08084 -27.89557,-25.07964 -2.87904,-5.02222 -6.44161,-13.68277 -7.21552,-17.54078 l -0.33744,-1.68219 11.67608,0.16509 11.67609,0.16509 4.80313,11.80893 c 2.64172,6.49492 4.67661,12.13866 4.52196,12.54166 -0.39213,1.02187 1.01615,1.44001 4.84994,1.44001 H 226.5 v 10.01282 c 0,5.50705 -0.20481,10.00523 -0.45513,9.99594 -0.25032,-0.009 -2.4605,-0.8314 -4.91152,-1.82693 z m -90.94049,-2.75016 c -0.59966,-0.85788 -1.72565,-2.28573 -2.50219,-3.17299 l -1.4119,-1.6132 1.4119,-1.10957 c 0.77654,-0.61026 2.94098,-2.43925 4.80985,-4.06443 2.12502,-1.84791 4.22786,-3.11055 5.61325,-3.37045 1.21841,-0.22857 2.21529,-0.25789 2.21529,-0.0651 0,0.46451 -8.5586,14.95556 -8.83295,14.95556 -0.11712,0 -0.70359,-0.7019 -1.30325,-1.55978 z m 60.98331,-4.52357 -1.64435,-3.66559 2.65348,-1.28916 2.65349,-1.28916 1.55074,1.76406 c 0.85291,0.97023 1.55938,1.94244 1.56993,2.16047 0.0105,0.21803 -1.1414,1.65385 -2.55989,3.1907 l -2.57906,2.79428 z m -19.4002,-2.96324 c -0.10712,-2.97307 -0.0122,-5.29185 0.21094,-5.15285 0.22314,0.13899 1.48653,2.12739 2.80754,4.41865 l 2.40184,4.16593 -2.06959,0.98692 c -1.13827,0.5428 -2.31402,0.98692 -2.61277,0.98692 -0.29875,0 -0.63083,-2.43251 -0.73796,-5.40557 z m -81.662722,1.18299 c -3.674572,-1.73836 -3.792446,-1.86596 -3.783443,-4.09567 0.0161,-3.98631 0.684177,-4.09091 3.980537,-0.62321 5.760552,6.05996 6.092714,6.51417 4.763387,6.51363 -0.64226,-2.7e-4 -2.874477,-0.8079 -4.960481,-1.79475 z m 84.598812,-4.36741 c -2.43085,-4.20961 -3.3225,-6.27499 -2.83821,-6.5743 0.38838,-0.24003 3.48526,-0.7674 6.88196,-1.17192 3.3967,-0.40453 6.79024,-0.88359 7.5412,-1.06458 1.33985,-0.32292 1.36538,-0.22606 1.36538,5.17987 v 5.50895 l -4.63674,2.14231 c -2.55021,1.17827 -4.66656,2.13674 -4.70299,2.12993 -0.0364,-0.007 -1.66121,-2.77443 -3.6106,-6.15026 z m -83.163355,-0.75814 -4.618411,-5.08709 0.920573,-9.0153 c 0.506314,-4.95841 1.009592,-9.42491 1.118394,-9.92555 0.108802,-0.50064 2.314772,3.40162 4.902155,8.67171 l 4.704334,9.58196 -0.767816,5.16091 c -0.422299,2.8385 -0.964241,5.28231 -1.204317,5.43068 -0.240075,0.14838 -2.514785,-2.01942 -5.054912,-4.81732 z m -11.553798,-1.97697 c -2.644682,-2.28209 -5.648528,-4.87695 -6.675214,-5.76636 l -1.866702,-1.61709 2.123932,-2.32066 c 1.168162,-1.27636 2.197214,-2.44246 2.286781,-2.59134 0.225848,-0.3754 4.602571,3.91699 7.522329,7.37738 2.367131,2.80544 2.411783,2.94424 1.920433,5.96978 l -0.503047,3.09756 z m 108.881163,-0.80351 c 0,-2.67457 0.0979,-4.86285 0.2175,-4.86285 0.39894,0 4.6372,6.64704 4.6372,7.27272 0,0.33889 -0.10319,0.61617 -0.22931,0.61617 -0.12612,0 -1.21843,0.41328 -2.42735,0.9184 l -2.19804,0.9184 z m -75.35041,-0.93632 c -3.7796,-2.0526 -3.55748,-7.59762 0.82512,-20.5978 3.13201,-9.29053 4.21277,-11.52267 7.20671,-14.88428 l 2.43209,-2.73077 -0.17428,2.3958 c -0.16697,2.29542 -0.0853,2.41449 1.94966,2.84209 2.46242,0.51742 2.74379,0.31158 3.24605,-2.37473 0.38972,-2.0844 0.4854,-1.99509 -3.72735,-3.479 -0.81829,-0.28824 -0.48779,-1.24118 1.22488,-3.5318 0.80219,-1.07289 0.93646,-1.06296 3.6855,0.27263 1.56913,0.76235 2.84723,1.53648 2.84022,1.72029 -0.007,0.18381 -2.05565,7.98036 -4.55252,17.32566 -2.49688,9.3453 -4.66751,17.81068 -4.82362,18.81196 -0.41673,2.67282 -3.44777,5.16384 -6.24675,5.13383 -1.24634,-0.0134 -2.99491,-0.42011 -3.88571,-0.90388 z m 24.98289,0.0836 c 0,-0.13076 2.45769,-2.48147 5.46154,-5.22378 4.92201,-4.49348 5.46153,-4.835 5.46153,-3.45718 0,1.14042 -1.08802,2.4676 -4.28243,5.22378 -2.35533,2.03222 -4.81303,3.69494 -5.46154,3.69494 -0.6485,0 -1.1791,-0.10699 -1.1791,-0.23776 z m 7.58547,-2.56937 3.03419,-2.83499 0.19197,2.2751 c 0.10558,1.2513 0.10558,2.34925 0,2.43988 -0.10559,0.0906 -1.55736,0.34259 -3.22616,0.55989 l -3.03419,0.39511 z m 4.57903,-1.28903 c 0.0275,-2.85883 0.0718,-2.92084 5.39709,-7.5593 l 5.36934,-4.67682 3.67072,6.34279 c 4.24932,7.34259 4.94362,6.40833 -5.83833,7.85623 -9.30138,1.24907 -8.63122,1.40205 -8.59882,-1.9629 z m -69.24636,-3.23002 -3.884944,-4.38201 4.830403,-4.42569 c 2.656721,-2.43412 4.932411,-4.32367 5.057088,-4.199 0.343443,0.34345 -1.231269,15.66369 -1.704727,16.58515 -0.283701,0.55215 -1.628348,-0.56743 -4.29782,-3.57845 z m 89.85109,3.34052 c 0,-0.17285 1.13485,-1.81738 2.52189,-3.6545 1.54498,-2.04631 2.83787,-3.21158 3.3376,-3.00815 0.44865,0.18264 1.20439,0.48978 1.67944,0.68255 0.50335,0.20425 1.13971,-0.16521 1.52521,-0.88552 0.88247,-1.64892 0.1612,-4.78652 -3.69478,-16.07264 l -3.0825,-9.02221 2.15653,-2.15652 2.15652,-2.15653 0.30781,1.46933 c 0.16929,0.80813 0.85963,4.33664 1.53408,7.84113 1.40488,7.29985 2.90168,12.14802 5.95473,19.28747 1.18229,2.76473 1.99832,5.17807 1.81341,5.36298 -0.1849,0.18491 -3.15683,0.71607 -6.60426,1.18036 -3.44744,0.46428 -7.01904,0.97969 -7.93688,1.14534 -0.91784,0.16566 -1.6688,0.15977 -1.6688,-0.0131 z m -5.31974,-6.81244 -3.80264,-6.49678 3.15966,-2.88247 c 1.73782,-1.58537 3.37554,-2.88248 3.63938,-2.88248 0.90515,0 1.15552,2.74222 0.98101,10.74463 l -0.17477,8.01387 z m -71.73713,-3.13599 c -3.813566,-7.68169 -4.365846,-9.17651 -3.690854,-9.98983 0.436571,-0.52603 1.101675,-0.95615 1.478009,-0.95581 0.376333,3.4e-4 2.893633,1.92905 5.593999,4.28604 l 4.909756,4.28543 -1.60045,5.40109 c -0.88025,2.9706 -1.736668,5.53731 -1.903149,5.70379 -0.16648,0.16648 -2.32077,-3.76234 -4.787311,-8.73071 z m 77.05687,1.67597 c 0,-3.0706 0.21987,-5.32349 0.48861,-5.00641 0.26873,0.31707 1.23998,1.6026 2.15832,2.85674 l 1.66973,2.28025 -1.95779,2.72616 c -1.07678,1.49939 -2.04802,2.72616 -2.15832,2.72616 -0.11031,0 -0.20055,-2.51231 -0.20055,-5.5829 z m -101.807374,3.661 c -0.499697,-0.4997 -0.306359,-1.17453 0.734593,-2.56404 2.095436,-2.79709 3.515698,-5.84482 8.138558,-17.4645 7.732532,-19.43592 11.841006,-27.60927 17.990322,-35.78975 4.205891,-5.59513 13.858971,-15.204512 21.006611,-20.91151 l 4.62253,-3.690844 8.42447,-1.324832 c 4.63346,-0.728657 10.8572,-1.656313 13.83052,-2.061457 l 5.40605,-0.736626 1.73437,-2.818702 1.73436,-2.818702 15.616,-0.410595 c 8.5888,-0.225827 15.93808,-0.513643 16.33174,-0.639592 0.39366,-0.125948 2.5404,-2.634382 4.77053,-5.574297 l 4.0548,-5.3453 -0.25285,6.987716 c -0.1919,5.303546 -0.53727,7.570564 -1.43293,9.405983 -1.6416,3.36403 -5.28847,5.082931 -12.21076,5.755367 -2.94466,0.286047 -8.0847,0.968525 -11.42231,1.516616 -3.33761,0.548092 -8.98685,1.234562 -12.55388,1.525489 -3.56703,0.290927 -7.25357,0.928731 -8.19231,1.417343 -1.75201,0.911914 -8.85302,8.046312 -13.37987,13.442763 l -2.54524,3.03419 -0.0212,-3.71688 c -0.0288,-5.044993 -0.57472,-7.410908 -1.79988,-7.799759 -1.24691,-0.395754 -18.12375,7.814749 -23.78096,11.569319 -5.37932,3.57014 -11.264553,9.9319 -13.989028,15.12172 -1.225492,2.33442 -4.030871,9.52444 -6.234174,15.97782 -4.426143,12.96398 -5.119752,14.50771 -8.935037,19.8863 -4.391263,6.19056 -6.87426,8.79754 -7.645035,8.02676 z m 81.174894,-1.40217 c 0,-1.26032 1.81804,-3.53656 8.0406,-10.06705 4.42233,-4.64117 8.22371,-8.44222 8.44751,-8.44676 0.2238,-0.005 0.60121,0.87638 0.83869,1.95761 0.46544,2.11914 0.026,2.6009 -13.23065,14.50617 -3.93472,3.53361 -4.09615,3.6144 -4.09615,2.05003 z m -24.02677,-1.42921 c 0.24622,-0.83986 6.2865,-23.94548 8.31543,-31.80868 l 0.58718,-2.27564 h 5.99165 5.99164 l 0.33849,2.27564 c 0.18617,1.2516 0.49861,6.73084 0.69432,12.17609 0.19571,5.44525 0.50622,10.29236 0.69003,10.77137 0.20748,0.54068 -0.047,0.87091 -0.67111,0.87091 -2.03951,0 -4.4502,1.83783 -6.70494,5.11161 -1.27329,1.84877 -2.80905,3.51817 -3.41279,3.70979 -1.37727,0.43713 -3.12494,-0.47754 -4.67315,-2.44577 -1.203,-1.52937 -2.53878,-2.02275 -2.53878,-0.93773 0,0.84715 -2.33837,2.89301 -3.71942,3.25416 -0.89145,0.23312 -1.11165,0.0592 -0.88855,-0.70175 z m -61.786534,-2.45491 c -2.648238,-3.60762 -3.998663,-6.69734 -3.998663,-9.14879 0,-1.50499 0.363395,-1.98369 2.03654,-2.68278 2.745501,-1.14714 5.79952,-5.27072 16.460489,-22.2252 14.530407,-23.10815 19.757392,-30.237849 28.395318,-38.731674 3.3004,-3.245349 4.31596,-3.891063 6.57188,-4.178554 1.46754,-0.18702 3.11884,-0.571032 3.66956,-0.853361 0.67898,-0.348083 1.10951,-0.231335 1.33746,0.362679 0.22305,0.581255 -2.15569,2.996985 -7.06968,7.179634 -10.40396,8.855545 -16.73261,15.835376 -22.123835,24.400236 -3.037311,4.82528 -9.391862,18.49833 -13.795714,29.68416 -4.234219,10.75497 -6.42476,15.49529 -8.224095,17.79694 l -1.073928,1.37373 z m 18.095731,-7.99021 3.034832,-6.09584 1.144551,2.23096 1.144552,2.23097 -3.830523,3.86487 c -2.106787,2.12568 -3.98751,3.86488 -4.179383,3.86488 -0.191873,0 1.016814,-2.74313 2.685971,-6.09584 z m 14.933507,0.0106 -4.540475,-4.20661 3.023381,-3.09544 c 1.66286,-1.70249 4.56702,-4.44276 6.45369,-6.08949 l 3.43031,-2.99406 0.43419,6.37004 0.43418,6.37004 -2.04398,3.95288 c -1.12419,2.17409 -2.18052,3.94082 -2.3474,3.92607 -0.16688,-0.0147 -2.34663,-1.91979 -4.843896,-4.23343 z m 52.581646,2.18517 c -0.34646,-0.90285 -0.0593,-1.20495 2.91051,-3.0618 l 1.79784,-1.12408 -2.00054,2.52588 c -2.25576,2.84814 -2.25262,2.84621 -2.70781,1.66 z m -0.40442,-5.10512 c 0,-2.3092 0.20485,-2.59581 3.34507,-4.68017 4.31145,-2.86178 6.38799,-5.33994 11.21903,-13.38886 4.52869,-7.54517 6.94766,-10.5497 8.49367,-10.5497 2.18501,0 2.39283,3.28503 0.52384,8.28035 -1.74604,4.6667 -11.70897,15.61032 -17.71793,19.46197 -5.89476,3.77844 -5.86368,3.7738 -5.86368,0.87641 z m -62.245784,-2.44082 -1.258606,-2.81671 2.472281,-7.58445 2.472281,-7.58445 0.174474,8.49573 c 0.19343,9.41874 -0.0062,10.93453 -1.547023,11.74903 -0.875137,0.4626 -1.269178,0.0778 -2.313407,-2.25915 z m 19.834724,-7.7847 c -0.39009,-4.27546 -0.84092,-8.61091 -1.00184,-9.63434 -0.25893,-1.64673 0.82898,-3.357 9.45737,-14.86752 5.36247,-7.15371 10.03849,-13.27982 10.39114,-13.61358 0.44955,-0.42545 0.54935,2.11387 0.33391,8.49573 -0.49755,14.7385 -2.02468,17.85931 -18.0575,36.90176 -0.22761,0.27032 -0.73299,-3.0066 -1.12308,-7.28205 z m 11.16826,-12.09575 c 0.80752,-1.37592 2.15981,-4.8882 3.00509,-7.80506 1.76093,-6.0766 1.70943,-5.77445 0.98415,-5.77445 -0.30398,0 -1.17606,1.29711 -1.93794,2.88247 -1.54939,3.22405 -6.98221,9.24089 -10.06333,11.14513 -1.10973,0.68585 -1.86245,1.49817 -1.67272,1.80517 0.51703,0.83657 5.18718,-2.61053 8.46766,-6.25008 2.19048,-2.43024 2.78066,-2.84205 2.42747,-1.69381 -1.03457,3.36349 -3.41002,7.2275 -6.0328,9.81323 -1.52339,1.50187 -2.58218,2.91829 -2.35286,3.14761 0.59605,0.59605 5.43777,-4.30972 7.17528,-7.27021 z m 66.47353,18.64669 c -0.33846,-0.63242 -0.76157,-2.61223 -0.94025,-4.39957 l -0.32487,-3.24971 6.22873,-4.94911 c 3.42581,-2.72201 6.2969,-4.88397 6.38022,-4.80436 0.3967,0.37907 3.64973,17.68659 3.40017,18.09039 -0.15712,0.25422 -3.40033,0.46222 -7.20714,0.46222 -6.17236,0 -6.98807,-0.12445 -7.53686,-1.14986 z m 15.73591,-2.33945 c -0.38533,-1.91913 -0.83051,-4.05033 -0.98927,-4.73601 -0.23183,-1.00119 0.92642,-2.18249 5.882,-5.99903 5.8212,-4.48319 6.151,-4.65316 5.82319,-3.00117 -0.19112,0.96314 -0.79224,4.89155 -1.33584,8.7298 -0.54359,3.83824 -1.26972,7.31998 -1.61363,7.73718 -0.35692,0.43299 -2.00739,0.75854 -3.84557,0.75854 h -3.22027 z M 61.805518,145.8908 c -0.203241,-0.32885 -2.621472,-2.10515 -5.373848,-3.94734 -5.326434,-3.56502 -12.126253,-10.09973 -16.186412,-15.55533 -2.227165,-2.99263 -2.471754,-3.67057 -2.471754,-6.8511 0,-4.42839 1.333486,-7.14691 5.347348,-10.90141 9.761244,-9.1305 30.290383,-17.631096 53.150081,-22.008099 4.373207,-0.837349 8.610307,-1.674988 9.415767,-1.86142 1.20305,-0.278457 0.83117,0.344587 -2.08322,3.490201 C 95.861934,96.612046 90.157503,104.56244 78.432529,123.33761 67.10557,141.47544 62.738036,147.39965 61.805518,145.8908 Z m 0.494612,-26.45238 c 3.880693,-4.48088 8.483412,-9.32313 10.228265,-10.76056 1.744853,-1.43744 4.401306,-3.81074 5.903229,-5.27401 l 2.730769,-2.66049 -4.854627,3.25653 c -4.782412,3.20808 -17.955944,15.68014 -21.198842,20.07004 -1.514815,2.0506 -1.669782,3.51554 -0.371888,3.51554 0.279009,0 3.682402,-3.66617 7.563094,-8.14705 z m 30.695596,16.63661 v -10.4436 l 1.898351,-3.56167 c 1.879015,-3.5254 8.008393,-10.84733 8.590643,-10.26207 0.29513,0.29667 2.2546,19.09379 2.2546,21.62836 0,0.84846 -2.15405,3.27646 -6.371799,7.18218 l -6.371795,5.9004 z m 32.162394,2.1301 c 0,-1.65186 0.0514,-1.69213 1.46746,-1.14875 1.42403,0.54645 1.22227,2.66584 -0.25379,2.66584 -0.89002,0 -1.21367,-0.40456 -1.21367,-1.51709 z m 57.97724,-3.12677 c -0.19599,-1.28412 -0.59553,-3.07588 -0.88787,-3.98168 -0.48823,-1.51277 0.1037,-2.40849 7.26681,-10.99628 7.13253,-8.55113 8.84662,-10.07762 11.34681,-10.10493 0.55423,-0.006 0.74225,1.42195 0.69806,5.30154 -0.0776,6.80896 -0.39905,7.83534 -3.06218,9.77639 -1.78591,1.30168 -7.92254,6.33689 -13.9819,11.47239 -0.92767,0.78622 -1.05671,0.64898 -1.37973,-1.46743 z m 15.47184,-3.35886 -0.77167,-4.31802 2.87398,-2.63878 c 3.33337,-3.06056 5.54935,-3.39255 9.43005,-1.41276 2.60377,1.32834 2.79829,1.69693 1.64463,3.11629 -0.70063,0.86199 -10.2273,8.31818 -11.74005,9.18853 -0.43062,0.24776 -0.93744,-1.14025 -1.43694,-3.93526 z m -66.68156,-0.42311 c -0.64056,-0.40595 -0.2527,-1.42386 1.78846,-4.6937 1.43353,-2.29644 3.81786,-5.54072 5.29851,-7.20953 1.48065,-1.6688 4.01886,-4.99844 5.64046,-7.39919 2.56941,-3.80395 4.91245,-6.16443 7.66103,-7.71803 1.4856,-0.83972 0.7123,0.87756 -2.55758,5.6797 l -3.31613,4.87005 1.54859,1.67096 1.54859,1.67096 1.28769,-1.76771 c 2.11688,-2.90601 4.68404,-5.45163 10.37442,-10.28741 4.98121,-4.23311 6.7888,-5.12163 6.31896,-3.1061 -0.10192,0.43722 -4.28146,5.5177 -9.28787,11.28996 l -9.10256,10.495 -0.19068,-2.99078 c -0.21113,-3.31155 -0.74113,-3.90154 -3.51715,-3.91521 -1.60992,-0.008 -2.44742,0.65965 -5.69816,4.54199 -2.09596,2.50321 -4.03475,4.55128 -4.30841,4.55128 -0.27366,0 -0.82483,1.09231 -1.22482,2.42735 -0.76751,2.56171 -0.95585,2.71902 -2.26335,1.89041 z m -3.43476,-1.89826 c -0.20895,-0.33807 0.16248,-2.06434 0.8254,-3.83614 0.66292,-1.7718 1.52716,-5.42267 1.92055,-8.11305 0.69647,-4.76317 0.82824,-5.03287 5.01926,-10.27283 2.36721,-2.95968 6.23184,-7.316798 8.58807,-9.682483 4.51844,-4.536578 5.73333,-5.092378 11.18682,-5.117845 1.54365,-0.0072 5.26432,-0.386691 8.26817,-0.843295 5.53903,-0.841969 6.97863,-0.589772 6.97863,1.222563 0,0.453415 -0.61443,0.947507 -1.36539,1.097982 -12.97015,2.598918 -16.69964,3.965464 -22.34502,8.187608 -4.68331,3.5026 -7.85846,7.89315 -9.66566,13.36548 -1.62637,4.92477 -7.11559,14.565 -8.3082,14.59096 -0.39751,0.009 -0.89369,-0.26087 -1.10263,-0.59895 z m 9.18387,-2.57121 c 0.24833,-0.4172 1.80732,-2.32874 3.46443,-4.24786 2.09615,-2.42759 3.45264,-3.48932 4.45805,-3.48932 1.66931,0 1.80581,0.30739 2.22314,5.00641 l 0.30989,3.48932 h -5.45351 c -4.19905,0 -5.34965,-0.17449 -5.002,-0.75855 z m -31.56609,-3.5778 c -0.18196,-1.45326 -0.4212,-3.66632 -0.53165,-4.91792 l -0.20082,-2.27564 h 3.82259 c 2.10242,0 3.81133,0.2048 3.79758,0.45512 -0.0138,0.25032 -1.49468,2.46339 -3.29095,4.91793 l -3.26593,4.46279 z m -77.083698,-4.04466 c -2.976015,-1.56502 -5.952059,-3.57923 -6.613432,-4.47604 l -1.202495,-1.63055 1.650509,-3.37352 c 2.242861,-4.58424 8.670849,-10.927989 14.677212,-14.484862 14.091427,-8.344718 34.71649,-13.974089 54.248278,-14.806437 7.726061,-0.329246 19.247146,0.190039 18.598886,0.8383 -0.16294,0.162937 -5.02944,1.194216 -10.814444,2.291731 -23.410242,4.441323 -39.212424,10.130294 -52.45194,18.883318 -8.22653,5.43879 -11.732388,10.35604 -11.758055,16.49163 -0.0073,1.75225 -0.218135,3.16925 -0.468455,3.14891 -0.250321,-0.0203 -2.89005,-1.31746 -5.866064,-2.88248 z m 173.808368,-4.04181 v -5.74761 l 1.97223,-0.52609 c 2.25072,-0.60038 2.27743,-0.58441 8.65562,5.17439 2.29819,2.07501 3.99792,3.95334 3.77719,4.17408 -0.67542,0.67541 -9.71146,2.66307 -12.1294,2.6681 l -2.27564,0.005 z m 10.79147,-2.47531 c -2.43082,-2.18628 -4.49546,-4.18864 -4.58809,-4.4497 -0.16144,-0.45496 7.58566,-2.00476 14.27739,-2.85617 l 3.1859,-0.40535 -1e-5,2.96066 c -1e-5,2.936 -0.0324,2.98466 -3.89452,5.84313 -2.14197,1.58537 -4.04447,2.88248 -4.22775,2.88248 -0.18329,0 -2.32211,-1.78877 -4.75292,-3.97505 z m -65.17506,2.49012 c -0.38819,-1.0116 1.53955,-3.92916 2.61487,-3.95754 1.40056,-0.037 1.44187,1.18875 0.10118,3.00212 -1.49857,2.02694 -2.20898,2.27683 -2.71605,0.95542 z m -42.9127,-0.74014 c -0.22251,-0.22251 -0.40456,-1.25092 -0.40456,-2.28536 0,-1.59787 0.47928,-2.19652 3.1859,-3.97942 2.93845,-1.93561 16.8796,-9.108437 17.70322,-9.108437 0.19794,0 -2.30102,3.549997 -5.55324,7.888887 l -5.91315,7.88889 h -4.30681 c -2.36874,0 -4.48886,-0.18205 -4.71136,-0.40456 z m 94.86894,-9.88395 c 0.50064,-0.33879 1.43366,-0.62016 2.07336,-0.62527 1.55257,-0.0124 1.0682,0.33492 -1.1631,0.83403 -1.32953,0.29739 -1.57502,0.24109 -0.91026,-0.20876 z m 4.13408,-1.04911 c 0.43806,-0.17529 0.96146,-0.15373 1.16311,0.0479 0.20165,0.20165 -0.15677,0.34507 -0.79647,0.31873 -0.70694,-0.0291 -0.85073,-0.17292 -0.36664,-0.36664 z m 3.14797,-0.79913 c 0.83441,-0.26722 2.06325,-0.48586 2.73077,-0.48586 0.96103,0 0.89787,0.10114 -0.30342,0.48586 -0.8344,0.26722 -2.06324,0.48586 -2.73076,0.48586 -0.96103,0 -0.89787,-0.10114 0.30341,-0.48586 z m -25.14049,-1.56074 c -0.26495,-1.05566 0.008,-2.208052 0.84447,-3.560949 1.64321,-2.658771 1.55848,-4.354038 -0.34218,-6.845932 -0.86811,-1.138148 -1.48253,-2.138586 -1.36539,-2.223197 0.11715,-0.08461 1.91743,-0.65537 4.00063,-1.268354 8.76898,-2.58028 10.0009,-4.794004 10.30829,-18.523736 l 0.21059,-9.405983 -6.4242,-4.551282 c -5.00814,-3.548063 -6.81032,-4.510445 -8.17591,-4.366017 -2.06729,0.21864 -2.86919,-0.917211 -3.15498,-4.468821 -0.17664,-2.195147 -0.0599,-2.406991 1.42047,-2.578282 1.39078,-0.160921 1.67205,0.08981 2.04229,1.820513 0.48878,2.284799 1.32299,3.524231 2.37203,3.524231 0.39628,0 2.16014,-1.228846 3.91969,-2.730769 l 3.19918,-2.730769 h 10.60643 10.60644 l 3.30409,3.124872 c 5.93834,5.616239 5.85833,9.09532 -0.40339,17.540505 l -3.67295,4.9537 -0.13559,8.581487 c -0.0985,6.231671 -0.39648,9.173156 -1.08834,10.742252 -1.50985,3.424271 -5.2037,6.110526 -11.51089,8.37099 -3.12453,1.119816 -7.81054,2.963085 -10.41335,4.096151 -2.60281,1.13307 -4.96263,2.06013 -5.24405,2.06013 -0.28141,0 -0.68793,-0.70234 -0.90338,-1.56074 z M 31.119907,95.865964 c 0.02777,-0.958728 1.655998,-7.791711 1.909922,-8.015131 2.322435,-2.043431 20.630722,-10.632884 22.66383,-10.632884 0.574975,0 -1.906861,3.285526 -5.221044,6.911771 -2.03461,2.226187 -4.297244,3.901941 -6.935336,5.136453 -2.153535,1.007761 -5.833299,3.072898 -8.177253,4.589195 -2.343955,1.516296 -4.252008,2.421064 -4.240119,2.010596 z M 33.790484,84.18879 c 0.792826,-4.226126 1.442248,-5.170096 4.435688,-6.447508 1.586717,-0.677111 3.977247,-1.723279 5.31229,-2.324818 3.584862,-1.615256 12.999439,-4.873729 14.081471,-4.873729 0.733542,0 0.852215,0.427724 0.54494,1.964095 -0.524917,2.624589 -1.075549,3.032676 -6.737523,4.993356 -5.051299,1.74921 -11.572109,4.839851 -15.671959,7.427972 l -2.386206,1.506346 z m 18.290883,0.09265 c 0.851181,-1.047955 2.584132,-3.270757 3.851001,-4.939561 2.16185,-2.847732 2.611843,-3.119423 7.322707,-4.421212 2.76062,-0.762864 5.139556,-1.266777 5.286526,-1.119808 0.48908,0.48908 -5.445152,8.878627 -6.280176,8.878627 -0.451656,0 -3.275148,0.789149 -6.274427,1.753664 l -5.453234,1.753663 z M 121.23355,79.29079 c -0.23287,-1.863784 -0.3326,-3.455148 -0.22163,-3.536366 0.61674,-0.451397 18.27054,-4.753423 19.4395,-4.737181 0.7671,0.01066 3.36651,0.932294 5.77646,2.048077 l 4.38173,2.028697 -1.18228,1.856702 c -1.17805,1.850063 -1.22736,1.863633 -13.78771,3.794878 -6.93299,1.065997 -12.91531,1.937212 -13.29406,1.936033 -0.38038,-0.0012 -0.87814,-1.518975 -1.11201,-3.39084 z m -55.545516,1.931865 c 0,-0.208025 1.250494,-2.258796 2.778876,-4.55727 1.828462,-2.749752 3.264697,-4.271913 4.199347,-4.450583 1.253673,-0.239655 1.500649,0.05596 2.103265,2.517513 0.375537,1.533979 0.817489,3.242056 0.982117,3.795727 0.234437,0.788451 -0.330589,1.139912 -2.6065,1.621309 -5.561512,1.176362 -7.457105,1.449195 -7.457105,1.073304 z m 49.760686,-1.700221 c -1.50193,-0.289067 -5.93354,-0.857562 -9.84804,-1.263322 l -7.117274,-0.737744 1.476106,-3.185898 1.476108,-3.185897 h 4.33578 c 4.72564,0 6.90205,0.761252 10.38546,3.632576 1.95531,1.611727 3.36316,4.595598 2.39637,5.07899 -0.20556,0.10278 -1.60259,-0.04964 -3.10451,-0.338705 z M 76.652292,77.310869 c -1.455729,-5.556593 -1.455638,-5.554459 -0.237947,-5.554459 0.631665,0 2.612225,1.482155 4.401244,3.293677 l 3.252763,3.293676 -2.363236,0.380798 c -1.29978,0.20944 -2.837718,0.47583 -3.417642,0.59198 -0.774572,0.155134 -1.208541,-0.377161 -1.635182,-2.005672 z m 6.158175,-2.084225 c -1.740842,-1.762738 -3.165168,-3.4012 -3.165168,-3.641025 0,-0.239826 3.140385,-0.436046 6.978633,-0.436046 3.838247,0 6.978632,0.214136 6.978632,0.475858 0,0.695149 -6.301617,6.806193 -7.018444,6.806193 -0.334667,0 -2.032811,-1.442241 -3.773653,-3.20498 z m 10.185259,-0.739465 c 2.426611,-2.457132 3.741854,-3.337606 4.985681,-3.337606 2.037853,0 2.073223,0.391452 0.354936,3.92821 l -1.334597,2.747003 H 93.350662 89.699579 Z M 36.980488,72.211538 c 1.750436,-5.705253 4.674178,-13.265196 6.024574,-15.577788 0.577627,-0.989201 0.772846,-1.118652 0.530382,-0.351699 -1.126484,3.563253 -2.142241,9.168722 -2.49643,13.776591 -0.397035,5.165285 -0.410674,5.199534 -2.459805,6.176696 -1.133306,0.540436 -2.302248,0.982611 -2.59765,0.982611 -0.295401,0 0.154117,-2.252885 0.998929,-5.006411 z m 22.322336,0.303419 c 0.233792,-1.251602 0.530251,-2.382414 0.658799,-2.512916 0.392451,-0.398413 12.648654,-3.055581 12.906157,-2.798079 0.13241,0.132411 -0.355471,1.205447 -1.084182,2.384526 -0.983115,1.590713 -1.979446,2.314554 -3.861955,2.805735 -1.395365,0.364077 -3.883707,1.052201 -5.529648,1.529166 -1.645941,0.476965 -3.109986,0.867209 -3.253433,0.867209 -0.143447,0 -0.06953,-1.024038 0.164262,-2.275641 z M 42.229237,69.617869 c 0.643153,-7.60849 1.339359,-9.193397 6.127945,-13.950224 2.356114,-2.340488 5.171344,-4.885044 6.256066,-5.65457 l 1.972222,-1.399138 0.02132,5.047732 c 0.01172,2.776253 0.411747,6.822733 0.888938,8.992177 1.444655,6.567801 1.821007,6.061595 -6.541944,8.799145 -4.078426,1.335043 -7.799121,2.523819 -8.268209,2.641725 -0.702526,0.17658 -0.782978,-0.612683 -0.456336,-4.476847 z m 71.550673,0.609621 c -2.75352,-1.817232 -5.00641,-3.451481 -5.00641,-3.631663 0,-0.180182 0.78451,-2.057788 1.74334,-4.172457 1.38905,-3.06348 2.129,-3.979295 3.64103,-4.506391 2.09875,-0.731628 2.43373,-1.956505 0.88319,-3.229427 -1.90507,-1.563976 -11.79687,-13.373296 -11.61102,-13.861812 0.10194,-0.267961 1.41419,-1.417873 2.91611,-2.555361 3.38557,-2.564074 3.65354,-3.997103 1.25771,-6.725805 l -1.84511,-2.101469 4.99669,-0.377464 c 9.00691,-0.680405 38.27425,-1.709618 42.79885,-1.505061 l 4.42608,0.200104 -1.9287,2.618745 c -1.07917,1.46526 -1.69226,2.835257 -1.3919,3.11029 0.29525,0.27035 3.26758,0.96884 6.60519,1.5522 6.85068,1.19739 11.81631,2.85692 13.23322,4.422591 0.76625,0.846692 2.5481,10.341058 2.03673,10.852429 -0.0672,0.06718 -6.53424,0.428073 -14.37126,0.801992 -20.15146,0.961466 -17.60708,-0.115453 -20.61853,8.726895 -1.40035,4.111771 -2.74756,7.801925 -2.9938,8.200343 -0.38892,0.629293 -17.52053,5.550069 -19.15816,5.50287 -0.33376,-0.0096 -2.85972,-1.504316 -5.61325,-3.321549 z m 32.72335,0.425799 c -5.85989,-2.587333 -5.71618,-1.941389 -2.40821,-10.82406 l 1.99897,-5.367691 18.20513,-0.961401 18.20512,-0.961402 5.31476,3.908566 5.31476,3.908567 -1.84752,2.514374 c -1.01613,1.382905 -3.03167,4.04018 -4.47898,5.905054 l -2.63146,3.39068 -11.45544,0.40034 c -19.71283,0.688916 -20.44518,0.635478 -26.21713,-1.913027 z m 10.47526,-2.651246 c 1.82867,-2.495155 4.59983,-7.996136 4.20793,-8.35307 -0.29058,-0.264651 -2.05023,-0.649301 -3.91034,-0.854777 l -3.38201,-0.373592 -2.07953,2.775013 c -1.54998,2.068359 -2.09253,3.418638 -2.13059,5.302518 -0.0281,1.390128 0.20783,2.699389 0.52427,2.909469 0.50022,0.332098 6.39344,-0.89138 6.77027,-1.405561 z m -4.80186,-1.59177 c -0.61528,-0.615271 -0.29938,-1.307694 1.56569,-3.431892 1.03586,-1.179776 2.40124,-2.145048 3.03419,-2.145048 1.45051,0 1.43963,0.23112 -0.14351,3.047948 -1.1706,2.082795 -3.55144,3.433924 -4.45637,2.528992 z m 29.85869,-0.136017 c 0,-2.877277 -3.07906,-6.891499 -5.72988,-7.470134 -0.92955,-0.202907 -2.34329,-0.554024 -3.14164,-0.78026 -1.42645,-0.404224 -1.44616,-0.355092 -1.13911,2.840392 0.27407,2.852284 0.60147,3.497882 2.66523,5.255537 2.32578,1.980809 5.35907,3.243692 6.66961,2.776833 0.37169,-0.132409 0.67579,-1.312474 0.67579,-2.622368 z m -5.20498,-1.803703 c -1.38512,-1.003376 -2.5184,-2.206657 -2.5184,-2.673958 0,-1.409158 2.0981,-0.441355 4.60186,2.122723 2.82191,2.889898 1.59359,3.214881 -2.08346,0.551235 z M 72.750637,70.239316 c 0.192114,-0.500641 0.45662,-0.910256 0.587792,-0.910256 0.131172,0 0.238494,0.409615 0.238494,0.910256 0,0.500641 -0.264506,0.910257 -0.587792,0.910257 -0.323286,0 -0.430608,-0.409616 -0.238494,-0.910257 z m 3.975848,-0.138275 c -1.772048,-0.218321 -1.986416,-0.438979 -1.820513,-1.873925 0.160786,-1.390695 0.58978,-1.714602 2.959421,-2.234483 1.774313,-0.38927 3.806596,-1.496324 5.64881,-3.077099 2.870473,-2.463109 2.902524,-2.473034 13.251831,-4.103573 5.705916,-0.89897 10.447076,-1.561817 10.535896,-1.472993 0.0888,0.08882 -2.61734,3.096008 -6.01369,6.682632 l -6.175195,6.521135 -8.189001,-0.09712 c -4.503951,-0.05341 -9.092852,-0.208474 -10.197559,-0.344578 z m 20.517105,-0.03625 c 0,-0.262867 1.365384,-1.822794 3.03419,-3.466504 1.6688,-1.64371 3.03419,-2.784944 3.03419,-2.536075 0,0.24887 -0.6873,1.808797 -1.52732,3.466505 -1.21358,2.39489 -1.836852,3.014014 -3.034189,3.014014 -0.828779,0 -1.506871,-0.215073 -1.506871,-0.47794 z m 5.19679,-0.887445 c 0.97487,-3.140217 4.53127,-9.381919 6.30438,-11.064567 l 1.90762,-1.810293 -1.58547,3.58503 c -0.87201,1.971766 -1.99991,4.38647 -2.50645,5.366008 -0.88076,1.703199 -0.84759,1.857586 0.75956,3.535093 l 1.68055,1.754114 h -3.49203 c -3.34241,0 -3.47387,-0.0585 -3.06816,-1.365385 z M 58.827704,63.363391 c -0.565707,-2.951038 -1.028559,-7.691514 -1.028559,-10.534392 0,-4.671963 0.145801,-5.326191 1.51664,-6.80535 3.098067,-3.342869 8.173227,-4.236885 14.085277,-2.481195 l 3.07861,0.914249 -1.505186,4.698999 c -0.971187,3.031922 -1.625256,6.801879 -1.843627,10.6264 -0.307585,5.386986 -0.454827,5.954132 -1.614992,6.220597 -0.702103,0.161258 -3.188089,0.715314 -5.524414,1.231237 -2.336325,0.515923 -4.672512,1.063352 -5.191527,1.21651 -0.754448,0.222632 -1.1499,-0.797378 -1.972222,-5.087055 z M 74.356391,59.563434 C 74.901347,50.9776 77.408783,43.898495 82.925677,35.37025 l 2.663421,-4.117229 4.158443,-0.399589 c 2.287143,-0.219775 5.179184,-0.551112 6.426757,-0.736305 l 2.268315,-0.336716 -2.758728,7.789282 c -2.794932,7.891505 -4.07168,10.520051 -5.10984,10.520051 -1.091503,0 -5.371928,6.389392 -6.975305,10.412041 -1.971806,4.946988 -2.922535,5.854491 -6.671707,6.368372 l -2.932984,0.40201 z m 10.179837,-0.393691 c 2.226757,-6.387681 7.15213,-11.385716 13.826179,-14.030152 l 3.616763,-1.433058 2.10641,2.343315 c 3.73318,4.153046 7.71302,8.926574 7.56382,9.072248 -0.0798,0.07793 -5.87974,1.033577 -12.888716,2.123662 -7.781414,1.210221 -13.157798,2.331823 -13.807337,2.880439 -0.993737,0.839333 -1.02119,0.776385 -0.417119,-0.956454 z M 45.382691,54.305646 c 0.480371,-1.583063 0.876358,-3.058582 0.879971,-3.278931 0.02629,-1.603497 10.510496,-12.054127 11.300406,-11.264217 0.115318,0.115318 -0.04646,1.783353 -0.359495,3.706745 -0.443926,2.727589 -0.941747,3.786597 -2.262437,4.812858 -0.9313,0.72368 -3.659452,3.022644 -6.062561,5.10881 l -4.369287,3.79303 z M 183.39987,45.814103 c -1.02492,-2.891835 -1.57605,-3.48438 -3.41389,-3.670378 -1.34337,-0.135955 -1.95749,-0.627279 -2.46515,-1.972222 l -0.67609,-1.791161 13.75284,0.0057 13.75285,0.0057 3.18589,1.827093 c 1.75225,1.004902 3.1859,1.974357 3.1859,2.154346 0,0.179988 -4.64127,0.275269 -10.31394,0.211736 l -10.31394,-0.115516 -2.71951,2.506758 c -1.49573,1.378717 -2.86891,2.506758 -3.0515,2.506758 -0.1826,0 -0.59816,-0.750962 -0.92346,-1.668803 z M 94.553614,44.32019 c 0.224155,-0.706252 1.436003,-4.174908 2.692995,-7.708125 1.967235,-5.529605 2.485856,-6.448789 3.724881,-6.601854 1.45971,-0.180326 5.9815,3.304469 5.9815,4.609747 0,0.344965 -0.96971,1.226525 -2.15492,1.959023 -2.48172,1.533787 -4.07329,3.684867 -3.79956,5.13526 0.13638,0.722606 -0.79774,1.408761 -3.331464,2.447107 -3.509567,1.438256 -3.519666,1.438771 -3.113432,0.158842 z M 58.412662,43.690171 c 0.0037,-0.417201 0.173112,-1.765154 0.376532,-2.99545 0.352494,-2.131911 0.587165,-2.323912 4.999732,-4.090634 4.770299,-1.909952 12.173738,-3.898231 17.203291,-4.620143 l 2.864013,-0.411083 -3.006321,5.072544 c -1.653476,2.789899 -3.215359,5.412598 -3.47085,5.82822 -0.365804,0.595075 -1.238342,0.549223 -4.105555,-0.215747 -4.438768,-1.184261 -9.233406,-0.816258 -12.204502,0.936731 -2.487357,1.467577 -2.665191,1.500754 -2.65634,0.495562 z M 172.86283,35.650194 c -1.63143,-0.78141 -5.59105,-1.901411 -8.79915,-2.488891 -3.2081,-0.587479 -5.9341,-1.142858 -6.05778,-1.234176 -0.12367,-0.09132 0.65024,-1.270932 1.7198,-2.621365 l 1.94466,-2.455335 4.53579,0 c 6.72605,0 23.06442,4.378163 32.37932,8.676624 l 3.33761,1.540176 -13.04701,0.0019 c -12.43368,0.0018 -13.18645,-0.06493 -16.01324,-1.41889 z"
     id="path22" /></svg>
