<?xml version="1.0" encoding="UTF-8" standalone="no"?>
<svg
   width="240"
   height="240"
   version="1.1"
   id="svg40"
   sodipodi:docname="FBCSheol.svg"
   inkscape:version="1.3.2 (091e20e, 2023-11-25, custom)"
   xml:space="preserve"
   xmlns:inkscape="http://www.inkscape.org/namespaces/inkscape"
   xmlns:sodipodi="http://sodipodi.sourceforge.net/DTD/sodipodi-0.dtd"
   xmlns="http://www.w3.org/2000/svg"
   xmlns:svg="http://www.w3.org/2000/svg"><defs
     id="defs40"><filter
       style="color-interpolation-filters:sRGB;"
       inkscape:label="Drop Shadow"
       id="filter3"
       x="-0.17272412"
       y="-0.16174829"
       width="1.3454482"
       height="1.3234966"><feFlood
         result="flood"
         in="SourceGraphic"
         flood-opacity="1.000000"
         flood-color="rgb(58,63,94)"
         id="feFlood2" /><feGaussianBlur
         result="blur"
         in="SourceGraphic"
         stdDeviation="15.000000"
         id="feGaussianBlur2" /><feOffset
         result="offset"
         in="blur"
         dx="0.000000"
         dy="0.000000"
         id="feOffset2" /><feComposite
         result="comp1"
         operator="out"
         in="flood"
         in2="offset"
         id="feComposite2" /><feComposite
         result="comp2"
         operator="atop"
         in="comp1"
         in2="SourceGraphic"
         id="feComposite3" /></filter><filter
       style="color-interpolation-filters:sRGB;"
       inkscape:label="Drop Shadow"
       id="filter6"
       x="-0.080915145"
       y="-0.084299289"
       width="1.1618303"
       height="1.1685986"><feFlood
         result="flood"
         in="SourceGraphic"
         flood-opacity="1.000000"
         flood-color="rgb(58,63,94)"
         id="feFlood5" /><feGaussianBlur
         result="blur"
         in="SourceGraphic"
         stdDeviation="7.000000"
         id="feGaussianBlur5" /><feOffset
         result="offset"
         in="blur"
         dx="0.000000"
         dy="0.000000"
         id="feOffset5" /><feComposite
         result="comp1"
         operator="out"
         in="flood"
         in2="offset"
         id="feComposite5" /><feComposite
         result="comp2"
         operator="atop"
         in="comp1"
         in2="SourceGraphic"
         id="feComposite6" /></filter><filter
       style="color-interpolation-filters:sRGB;"
       inkscape:label="Drop Shadow"
       id="filter10"
       x="-0.079827625"
       y="-0.08183463"
       width="1.1596552"
       height="1.1636693"><feFlood
         result="flood"
         in="SourceGraphic"
         flood-opacity="1.000000"
         flood-color="rgb(58,63,94)"
         id="feFlood9" /><feGaussianBlur
         result="blur"
         in="SourceGraphic"
         stdDeviation="7.000000"
         id="feGaussianBlur9" /><feOffset
         result="offset"
         in="blur"
         dx="0.000000"
         dy="0.000000"
         id="feOffset9" /><feComposite
         result="comp1"
         operator="out"
         in="flood"
         in2="offset"
         id="feComposite9" /><feComposite
         result="comp2"
         operator="atop"
         in="comp1"
         in2="SourceGraphic"
         id="feComposite10" /></filter><filter
       style="color-interpolation-filters:sRGB;"
       inkscape:label="Drop Shadow"
       id="filter12"
       x="-0.0792567"
       y="-0.08483838"
       width="1.1585134"
       height="1.1696768"><feFlood
         result="flood"
         in="SourceGraphic"
         flood-opacity="1.000000"
         flood-color="rgb(58,63,94)"
         id="feFlood10" /><feGaussianBlur
         result="blur"
         in="SourceGraphic"
         stdDeviation="7.000000"
         id="feGaussianBlur10" /><feOffset
         result="offset"
         in="blur"
         dx="0.000000"
         dy="0.000000"
         id="feOffset10" /><feComposite
         result="comp1"
         operator="out"
         in="flood"
         in2="offset"
         id="feComposite11" /><feComposite
         result="comp2"
         operator="atop"
         in="comp1"
         in2="SourceGraphic"
         id="feComposite12" /></filter><filter
       style="color-interpolation-filters:sRGB;"
       inkscape:label="Drop Shadow"
       id="filter7"
       x="-0.08602059"
       y="-0.077572354"
       width="1.1720412"
       height="1.1551447"><feFlood
         result="flood"
         in="SourceGraphic"
         flood-opacity="1.000000"
         flood-color="rgb(58,63,94)"
         id="feFlood3" /><feGaussianBlur
         result="blur"
         in="SourceGraphic"
         stdDeviation="7.000000"
         id="feGaussianBlur3" /><feOffset
         result="offset"
         in="blur"
         dx="0.000000"
         dy="0.000000"
         id="feOffset3" /><feComposite
         result="comp1"
         operator="out"
         in="flood"
         in2="offset"
         id="feComposite4" /><feComposite
         result="comp2"
         operator="atop"
         in="comp1"
         in2="SourceGraphic"
         id="feComposite7" /></filter><filter
       style="color-interpolation-filters:sRGB;"
       inkscape:label="Drop Shadow"
       id="filter14"
       x="-0.11678852"
       y="-0.11994048"
       width="1.233577"
       height="1.239881"><feFlood
         result="flood"
         in="SourceGraphic"
         flood-opacity="1.000000"
         flood-color="rgb(58,63,94)"
         id="feFlood13" /><feGaussianBlur
         result="blur"
         in="SourceGraphic"
         stdDeviation="10.000000"
         id="feGaussianBlur13" /><feOffset
         result="offset"
         in="blur"
         dx="0.000000"
         dy="0.000000"
         id="feOffset13" /><feComposite
         result="comp1"
         operator="out"
         in="flood"
         in2="offset"
         id="feComposite13" /><feComposite
         result="comp2"
         operator="atop"
         in="comp1"
         in2="SourceGraphic"
         id="feComposite14" /></filter><filter
       style="color-interpolation-filters:sRGB;"
       inkscape:label="Drop Shadow"
       id="filter22"
       x="-0.088949143"
       y="-0.091903855"
       width="1.1778983"
       height="1.1838077"><feFlood
         result="flood"
         in="SourceGraphic"
         flood-opacity="1.000000"
         flood-color="rgb(58,63,94)"
         id="feFlood21" /><feGaussianBlur
         result="blur"
         in="SourceGraphic"
         stdDeviation="8.000000"
         id="feGaussianBlur21" /><feOffset
         result="offset"
         in="blur"
         dx="0.000000"
         dy="0.000000"
         id="feOffset21" /><feComposite
         result="comp1"
         operator="out"
         in="flood"
         in2="offset"
         id="feComposite21" /><feComposite
         result="comp2"
         operator="atop"
         in="comp1"
         in2="SourceGraphic"
         id="feComposite22" /></filter></defs><sodipodi:namedview
     id="namedview40"
     pagecolor="#505050"
     bordercolor="#eeeeee"
     borderopacity="1"
     inkscape:showpageshadow="0"
     inkscape:pageopacity="0"
     inkscape:pagecheckerboard="0"
     inkscape:deskcolor="#505050"
     inkscape:zoom="2"
     inkscape:cx="84.5"
     inkscape:cy="101.75"
     inkscape:window-width="1920"
     inkscape:window-height="1017"
     inkscape:window-x="-8"
     inkscape:window-y="-8"
     inkscape:window-maximized="1"
     inkscape:current-layer="svg40" /><path
     style="fill:#1b1f21;stroke:none"
     d="M 0,0 V 240 H 240 V 0 Z"
     id="path1"
     sodipodi:insensitive="true" /><path
     style="fill:#e64539;fill-opacity:1;filter:url(#filter22)"
     d="m 12.073158,187.10591 0,-40.82094 2.012448,-0.66202 c 2.520239,-0.82907 4.483095,-1.80401 5.709294,-2.83579 0.522233,-0.43943 0.980902,-0.74873 1.019263,-0.68733 0.03836,0.0614 0.383232,1.38618 0.766379,2.94397 0.383146,1.55778 1.2796,4.44229 1.99212,6.41002 0.712519,1.96772 2.053445,6.59635 2.979836,10.28584 2.768291,11.02514 5.432374,18.72787 8.784392,25.39853 4.758116,9.46887 8.458047,14.05724 22.553094,27.96861 5.067339,5.00131 9.853227,9.93181 10.635308,10.95666 l 1.421964,1.86338 H 41.010207 12.073158 Z m 59.174339,38.65941 c -0.912011,-1.35633 -3.902461,-4.59654 -8.027882,-8.69837 l -6.57446,-6.53685 0.0034,-6.7304 c 0.0028,-5.57949 0.09585,-7.06178 0.543854,-8.66831 1.274479,-4.57023 3.65288,-7.06008 12.215752,-12.78818 l 3.22255,-2.15571 2.549946,2.47809 c 3.118067,3.03021 5.478659,6.01252 8.895132,11.23786 2.458622,3.76035 2.590531,4.04292 2.296432,4.91932 -0.171612,0.51139 -0.932762,2.71907 -1.691444,4.90597 -1.555144,4.48268 -3.546779,12.03152 -4.929067,18.6825 -0.511196,2.45966 -0.997848,4.7069 -1.08145,4.99386 -0.131351,0.45086 -0.547177,0.52174 -3.06069,0.52174 H 72.70092 Z m 10.056224,0.74535 c 0.855529,-4.20927 3.006566,-13.68937 3.175807,-13.99648 0.143257,-0.25996 6.34149,12.86314 7.147439,15.13279 0.05955,0.16769 -2.046997,0.27986 -5.255849,0.27986 h -5.35523 z m 12.291662,-0.29814 c -0.416361,-0.94286 -2.387642,-5.32311 -4.380624,-9.73388 l -3.623604,-8.01957 1.396397,-4.13282 c 0.768017,-2.27305 1.67406,-4.50838 2.013427,-4.9674 0.776834,-1.05072 0.726431,-1.17647 -2.411481,-6.01631 -3.634954,-5.60647 -5.395474,-7.84802 -9.249342,-11.77655 -2.797938,-2.85214 -3.639102,-3.91022 -4.147833,-5.21746 -0.350979,-0.90187 -1.222083,-2.57891 -1.935786,-3.72675 -1.479493,-2.37945 -8.057284,-9.99532 -8.995356,-10.41497 -0.426599,-0.19083 -1.005751,-1.26743 -1.844411,-3.42861 -2.043534,-5.26607 -4.122059,-8.53828 -10.656984,-16.77722 -2.978316,-3.75492 -3.48263,-4.56189 -4.282538,-6.85259 -0.498673,-1.42805 -1.28662,-3.17341 -1.750993,-3.87858 -0.464373,-0.70516 -1.023525,-1.75169 -1.242562,-2.32561 -0.219036,-0.57392 -0.921602,-1.95467 -1.561257,-3.06834 -0.639656,-1.11367 -1.362936,-2.50335 -1.607289,-3.08817 -0.244354,-0.58482 -0.501403,-1.00618 -0.57122,-0.93637 -0.06982,0.0698 1.078429,3.73748 2.551659,8.15035 1.47323,4.41287 2.6786,8.10519 2.6786,8.20517 0,0.1 -1.039765,0.46054 -2.310588,0.80126 -3.669012,0.98369 -5.612058,1.81009 -7.980461,3.39418 -2.586162,1.72973 -4.44023,3.79515 -6.236876,6.94786 l -1.293674,2.2701 -0.767254,-2.1702 c -1.934158,-5.47081 -2.579119,-8.6993 -2.579119,-12.91032 0,-3.63714 0.69368,-6.64639 2.249086,-9.75673 4.228218,-8.45516 11.788804,-13.29266 29.301715,-18.74814 2.547529,-0.79358 4.662397,-1.41121 4.699705,-1.3725 0.03731,0.0387 0.293026,0.87537 0.568259,1.85923 0.382706,1.36804 0.558337,3.85781 0.746609,10.58399 0.263587,9.41691 0.520646,11.45063 2.073316,16.40306 0.483848,1.5433 0.81114,2.87458 0.727316,2.9584 -0.294436,0.29444 -3.410587,-1.55933 -4.273733,-2.5424 -1.281094,-1.45908 -2.367131,-3.43268 -3.229548,-5.86889 -0.633335,-1.78908 -0.759152,-2.6613 -0.740923,-5.13643 0.02019,-2.74152 0.417352,-6.20042 0.86253,-7.51182 0.296922,-0.87467 -0.560594,0.38007 -1.61401,2.36166 -2.21361,4.16404 -2.06361,8.76783 0.452988,13.90308 1.945967,3.97084 4.938746,6.47805 8.964111,7.50972 l 1.463742,0.37515 1.27857,4.35207 c 3.361539,11.4422 7.074334,19.29181 13.246917,28.00668 6.420093,9.06433 14.057203,16.30063 23.587316,22.34942 10.90273,6.91998 17.12718,9.48316 25.46807,10.48752 10.32357,1.2431 27.67897,-1.44728 39.28552,-6.08993 l 3.94805,-1.57923 -0.81758,1.1111 c -0.44966,0.61111 -5.24496,7.09615 -10.65621,14.41121 l -9.83863,13.3001 -28.1035,0.0104 -28.103498,0.0104 z m 60.094487,1.5451 c 0,-0.19085 10.05037,-13.82781 10.5321,-14.2906 0.17069,-0.16398 0.10529,0.0373 -0.14533,0.44721 -0.25062,0.40994 -2.1719,3.73048 -4.26952,7.37898 l -3.81386,6.63362 h -1.15169 c -0.63344,0 -1.1517,-0.0761 -1.1517,-0.16921 z m 5.5784,-0.79974 c 0.3129,-0.53293 4.4858,-7.7442 9.27312,-16.02505 l 8.70421,-15.0561 2.39808,-1.89218 c 5.01585,-3.95771 10.1052,-10.96831 14.10148,-19.42486 1.53951,-3.25774 3.43084,-10.69806 3.46281,-13.62233 0.006,-0.52325 0.12394,-1.02153 0.2627,-1.10729 0.30884,-0.19087 3.00237,3.37767 4.55525,6.03505 1.31095,2.24337 2.80273,6.18752 3.37766,8.9303 0.36271,1.73035 0.35483,1.87088 -0.0932,1.66129 -0.67575,-0.31612 -5.7697,-0.29248 -7.94293,0.0369 l -1.78885,0.2711 2.85449,0.20202 c 3.22364,0.22815 4.84002,0.8181 6.68601,2.44029 l 1.19256,1.04797 -0.0542,5.99212 c -0.0298,3.29566 -0.14137,6.13319 -0.24794,6.30563 -0.11257,0.18214 -0.65209,-0.19609 -1.28746,-0.90257 -0.89175,-0.99156 -1.58911,-1.38445 -3.77695,-2.1279 -3.24903,-1.10407 -6.10261,-1.73408 -7.88581,-1.74104 -1.93753,-0.008 -1.18965,0.49714 1.79191,1.20927 5.1087,1.22017 7.71876,3.00784 9.81521,6.72253 l 0.87824,1.55617 -0.45436,2.6324 c -1.05274,6.09915 -2.61839,10.47145 -4.19324,11.71022 -1.16249,0.91442 -3.49658,0.83237 -5.47164,-0.19233 -1.70959,-0.88696 -2.21874,-1.51094 -2.50647,-3.07175 -0.43845,-2.37841 -2.57009,-4.30727 -5.14814,-4.6584 -1.12994,-0.1539 -1.13277,-0.15167 -0.49538,0.38843 0.35258,0.29877 1.11559,0.91116 1.69558,1.36088 0.87139,0.67565 1.18699,1.25192 1.81723,3.31814 0.6289,2.06186 0.97213,2.68969 1.95663,3.57914 0.65667,0.59325 1.19394,1.17833 1.19394,1.30017 0,0.12183 -1.24101,3.34061 -2.7578,7.15282 l -2.7578,6.93131 -14.86193,0.003 -14.86194,0.003 z m 32.08015,0 c 0.21945,-0.53293 1.39518,-3.48318 2.61273,-6.55611 l 2.21373,-5.58714 2.02203,-0.003 c 2.53777,-0.004 3.68549,-0.47928 5.07513,-2.10277 2.42192,-2.82946 4.52407,-11.30115 5.15693,-20.7825 0.11219,-1.68076 0.26938,-3.05594 0.34931,-3.05594 0.21248,0 9.01458,5.03286 14.45285,8.26383 l 4.69571,2.78981 v 14.00138 14.00138 H 209.43813 190.94942 Z M 52.436665,206.38619 c -3.781776,-3.90869 -6.274817,-6.76997 -8.660831,-9.94007 l -1.710273,-2.27231 0.526294,-3.66671 c 1.571763,-10.95058 3.308137,-15.58318 7.330712,-19.55816 2.004378,-1.98066 2.806221,-2.52076 6.307421,-4.2485 2.206117,-1.08866 4.329568,-1.97937 4.718781,-1.97937 0.488168,0 1.225116,0.57079 2.375989,1.8403 4.740391,5.22903 6.681935,7.99836 8.039893,11.46776 l 0.599451,1.53151 -3.038296,2.01449 c -6.448668,4.27567 -9.938358,7.41948 -11.368487,10.2417 -1.526965,3.01332 -1.789266,4.70355 -1.798285,11.5879 -0.0046,3.48448 -0.0238,6.33545 -0.04275,6.33548 -0.01895,4e-5 -1.494776,-1.50927 -3.279619,-3.35402 z m 74.867775,-2.18633 c -5.76154,-0.88955 -10.16537,-2.5205 -16.42933,-6.08456 C 100.33541,192.11843 93.777458,187.07683 87.8606,180.42227 78.016761,169.35112 72.966877,160.0214 68.399748,144.4681 c -0.646713,-2.20237 -1.364655,-4.21482 -1.595426,-4.47211 -0.230772,-0.25728 -0.649997,-1.04635 -0.931612,-1.75347 -0.510134,-1.28093 -0.509401,-1.2875 0.198597,-1.7784 0.390843,-0.27099 1.328271,-1.06761 2.083174,-1.77026 0.754903,-0.70265 1.45926,-1.27754 1.565237,-1.27754 0.105978,0 0.192687,0.45237 0.192687,1.00526 0,0.5529 0.335408,2.32748 0.745351,3.94353 0.409943,1.61604 0.745351,3.61935 0.745351,4.45179 0,2.1441 1.106456,4.16647 3.886097,7.10297 l 2.32446,2.45563 -0.561351,1.62614 c -1.65591,4.79689 0.190809,8.14452 6.386289,11.57669 2.527384,1.40012 2.871528,1.68718 2.871528,2.3952 0,0.44243 0.355624,1.51807 0.790276,2.3903 0.626436,1.2571 1.046777,1.69934 2.027506,2.13317 2.120413,0.93796 3.61842,0.11592 6.313149,-3.46435 2.891683,-3.84195 4.635959,-10.55255 3.573988,-13.74986 -0.623707,-1.87781 -2.60243,-3.87501 -4.350524,-4.39116 -1.253805,-0.37021 -1.288942,-0.41707 -2.079671,-2.77377 -0.785289,-2.34049 -2.110723,-4.94775 -2.700577,-5.3123 -0.1637,-0.10117 -0.294603,-1.56949 -0.294603,-3.30453 0,-3.44616 -0.410997,-4.93279 -1.643676,-5.94536 -0.527285,-0.43313 -0.830658,-1.10871 -1.063508,-2.3683 -0.529474,-2.86419 -1.402284,-4.84688 -2.503385,-5.68673 -0.915701,-0.69844 -1.007889,-0.92335 -1.19081,-2.90524 -0.422531,-4.57796 -1.388823,-6.93879 -3.13632,-7.66263 -1.201315,-0.4976 -3.308561,-0.23538 -4.409748,0.54873 l -0.88373,0.62927 -0.201529,-3.34738 c -0.110841,-1.84106 -0.608423,-8.31141 -1.105738,-14.378572 -1.098646,-13.403287 -1.093021,-22.586614 0.01781,-29.068694 0.980003,-5.718674 2.402312,-11.673419 3.036757,-12.713909 1.694233,-2.778544 6.512677,-6.183303 10.94006,-7.730353 1.637795,-0.57229 2.605018,-1.291603 7.307721,-5.434668 9.433216,-8.310626 14.987326,-12.570158 21.130956,-16.205657 3.31715,-1.962922 7.94664,-4.28195 8.13401,-4.074525 0.0479,0.05303 0.50977,0.767229 1.02638,1.587115 2.80827,4.456912 2.8814,9.352311 0.42199,28.248808 -0.77915,5.986475 -0.82694,6.186414 -1.47867,6.186414 -0.37043,0 -0.74195,0.110754 -0.82562,0.246121 -0.0837,0.135367 -0.50173,2.312008 -0.92906,4.836982 -0.42732,2.524974 -0.82008,4.633998 -0.87281,4.686722 -0.0527,0.05272 -1.23294,-0.374837 -2.62271,-0.950134 -5.68345,-2.352671 -10.07365,-2.918235 -14.24134,-1.834631 -1.96023,0.509661 -7.539803,3.098843 -10.953725,5.083037 l -1.860438,1.081299 0.172103,-1.878986 c 0.09466,-1.033442 0.428742,-4.19853 0.742412,-7.033529 0.627919,-5.675245 0.69633,-7.218286 0.320023,-7.218286 -0.835675,0 -2.702394,8.592403 -3.044268,14.012601 -0.728105,11.543651 0.07151,22.457072 1.690939,23.078506 0.24999,0.09593 1.461556,-0.290857 2.692367,-0.859527 l 2.23784,-1.033946 1.722561,3.64369 c 4.030046,8.524662 8.405456,15.795552 11.167276,18.557372 1.90094,1.90094 3.92602,2.97499 6.50531,3.45024 1.5758,0.29036 2.87918,0.26548 7.11935,-0.13586 8.93675,-0.84589 18.81185,-1.45044 21.16968,-1.296 3.59022,0.23517 4.55733,0.92887 10.29688,7.38581 3.71833,4.18308 6.89196,6.91452 9.55082,8.22009 1.53209,0.7523 2.05762,0.85223 4.42199,0.84084 3.28606,-0.0158 4.59222,-0.48671 9.5702,-3.45014 1.95139,-1.16168 4.42004,-2.55276 5.4859,-3.09129 2.12217,-1.07224 6.89811,-2.75165 8.23401,-2.89539 0.78351,-0.0843 0.86138,0.004 1.09746,1.25089 0.13977,0.73789 0.31361,1.6435 0.38632,2.01244 0.11287,0.57274 0.32204,0.67082 1.43067,0.67082 1.60707,0 3.65636,-0.69997 4.612,-1.57531 l 0.72135,-0.66074 -0.21865,0.89442 c -2.06829,8.46084 -4.45251,22.01127 -4.64224,26.3836 -0.004,0.083 -0.25422,-0.38576 -0.55695,-1.04166 -1.26773,-2.7468 -3.94338,-3.80005 -6.08643,-2.39586 -0.97349,0.63785 -2.47408,2.71664 -3.63773,5.03941 -0.48195,0.96203 -1.0812,1.81312 -1.33165,1.89133 -2.30927,0.72106 -3.54458,1.79038 -5.15377,4.46121 -0.72974,1.21117 -1.13479,1.58111 -1.88536,1.72192 -1.35451,0.25411 -2.54744,1.79866 -3.70831,4.80137 -0.86211,2.22995 -1.12809,2.62837 -2.07818,3.11308 -0.59924,0.30571 -2.06484,1.59645 -3.25687,2.86832 l -2.16733,2.31249 -1.44671,-0.0768 c -2.38472,-0.12658 -4.58203,1.09359 -6.12456,3.40096 -1.12828,1.68774 -1.84868,8.9381 -1.14236,11.49725 0.24504,0.88784 0.4943,1.82284 0.5539,2.07777 0.25616,1.09571 1.03461,2.60944 1.72506,3.35445 1.03888,1.12097 2.88398,1.11905 4.37463,-0.005 1.24163,-0.93589 1.73639,-1.4873 2.09364,-2.33335 0.21869,-0.5179 0.70909,-0.65896 3.34389,-0.9618 3.87151,-0.44499 5.93134,-1.11005 7.4414,-2.4026 1.57162,-1.34525 2.34014,-2.94038 2.56216,-5.318 0.1782,-1.90829 0.21137,-1.97177 1.25473,-2.40135 5.03859,-2.07452 7.10975,-3.58571 7.99172,-5.83103 0.29511,-0.75131 0.83774,-1.7124 1.20584,-2.13574 0.36809,-0.42335 0.66926,-0.84164 0.66926,-0.92954 0,-0.0879 0.33541,-0.52154 0.74536,-0.96364 0.40994,-0.44211 0.74535,-0.97291 0.74535,-1.17955 0,-0.20665 0.11662,-0.37573 0.25917,-0.37573 0.14254,0 0.61211,-0.81382 1.04349,-1.80849 0.88786,-2.04723 0.9795,-3.72752 0.29975,-5.49595 -0.7381,-1.92021 -0.78839,-2.4112 -0.29727,-2.90232 0.25424,-0.25424 0.83602,-1.37431 1.29286,-2.48905 l 0.83061,-2.0268 0.092,2.96374 c 0.22208,7.15236 -1.72025,13.58022 -6.66529,22.05786 -6.89974,11.82871 -15.55298,17.75503 -31.74302,21.73975 -10.34467,2.54606 -21.85191,3.48508 -29.06345,2.37167 z m 17.31871,-31.30658 c 0.83921,-0.4246 2.23874,-1.31158 3.11008,-1.97107 1.42235,-1.07653 1.71769,-1.18402 2.89011,-1.05187 0.73081,0.0824 2.47281,0.75342 3.9558,1.52385 1.60454,0.83358 3.04301,1.37667 3.64633,1.37667 1.15314,0 2.32163,-0.71099 2.32163,-1.41264 0,-0.61917 -6.27151,-12.54793 -8.52735,-16.21949 -4.79646,-7.80663 -8.60319,-11.32331 -13.50992,-12.48056 -2.30882,-0.54454 -7.74205,-0.20703 -11.80167,0.73311 -4.92519,1.14059 -7.84497,2.00262 -16.89541,4.98816 l -8.24933,2.72127 -0.53312,1.18224 -0.53312,1.18224 0.78822,0.678 c 0.78326,0.67373 1.80716,1.0525 7.55096,2.79336 4.44027,1.34578 6.07724,2.70633 6.50965,5.41042 0.47058,2.94286 2.35927,4.86536 4.12155,4.19534 0.87474,-0.33257 1.72592,-1.75522 2.33833,-3.90823 0.20989,-0.73789 0.47637,-1.45229 0.59217,-1.58754 0.28026,-0.32731 4.84209,0.47734 8.18593,1.44389 3.91141,1.13061 6.57685,2.51431 8.73083,4.53241 l 1.87224,1.75413 -0.19688,1.67512 c -0.29136,2.47905 -0.029,3.21319 1.14815,3.21319 0.52745,0 1.64562,-0.3474 2.48482,-0.772 z m -2.79573,-1.77456 c 0.0902,-1.08734 0.35733,-1.92819 0.78148,-2.45966 1.08112,-1.35465 2.02453,-3.36514 2.84069,-6.05374 0.42791,-1.40963 1.06279,-2.92499 1.41085,-3.36747 0.5821,-0.74002 0.77962,-0.79747 2.46403,-0.71659 l 1.83121,0.0879 0.0918,1.43827 c 0.1143,1.79132 -0.65284,5.59536 -1.46794,7.27913 -0.33779,0.69779 -1.124,1.7051 -1.74714,2.23846 -1.6477,1.41033 -4.79946,3.20581 -5.62744,3.20581 -0.68445,0 -0.70875,-0.0695 -0.57751,-1.65214 z m -24.22445,-5.81328 c -0.72974,-0.72973 -1.02684,-1.46798 -1.61988,-4.02514 -0.39856,-1.71855 -0.39972,-2.31839 -0.0103,-5.28939 0.54243,-4.13786 1.1307,-6.17588 2.12311,-7.35529 1.29222,-1.53571 2.75096,-1.01817 3.4158,1.21188 0.16562,0.55552 0.30588,2.9945 0.3117,5.41996 0.01,3.97007 -0.0686,4.65866 -0.78344,6.90354 -1.12778,3.5418 -2.12251,4.44896 -3.43703,3.13444 z m 25.42731,-13.93048 c 0.15723,-2.29391 0.73897,-4.84046 1.10578,-4.84046 0.10474,0 0.69482,0.51653 1.31129,1.14785 l 1.12084,1.14784 -1.1027,1.9081 c -2.15071,3.72154 -2.6557,3.85356 -2.43521,0.63667 z m -11.25838,-0.37587 c -0.26185,-0.42369 -0.29808,-7.39172 -0.0398,-7.65003 0.0702,-0.0702 0.79619,-0.0865 1.61341,-0.0363 l 1.48585,0.0913 -0.80806,2.68326 c -1.14354,3.79726 -1.90864,5.46644 -2.25143,4.9118 z m 6.91157,-0.19124 c -0.39863,-0.39863 -0.18355,-2.88925 0.42154,-4.88137 0.60549,-1.99345 0.63861,-2.03526 1.38665,-1.75086 1.26006,0.47908 2.46515,1.27282 2.46515,1.6237 0,1.06739 -1.03524,3.5134 -1.81851,4.29667 -0.84602,0.84602 -1.98918,1.17751 -2.45483,0.71186 z m -3.13043,-0.62113 c -0.52073,-1.00854 -0.60468,-2.62918 -0.24325,-4.69571 l 0.36502,-2.08698 1.39843,0.0183 c 0.76914,0.0101 1.47796,0.0978 1.57515,0.19505 0.20779,0.20779 -0.84458,3.86023 -1.66103,5.76495 -0.60809,1.41859 -1.00288,1.63999 -1.43432,0.80437 z m 35.48105,5.72634 c 9.04612,-7.91827 10.91161,-9.43771 15.00402,-12.22077 4.65182,-3.16349 4.30392,-2.58748 3.73213,-6.17926 -0.26733,-1.67927 -0.66299,-3.38863 -0.87925,-3.79857 -0.47494,-0.9003 -1.52621,-2.08698 -1.84884,-2.08698 -0.12851,0 -4.28429,2.55159 -9.23506,5.6702 -4.95078,3.11861 -9.2987,5.74482 -9.66205,5.83601 -1.25807,0.31575 -2.93321,-0.40721 -4.36443,-1.88362 -2.0985,-2.16475 -5.3983,-6.82739 -9.19632,-12.99445 -3.18175,-5.16639 -4.17289,-6.3655 -4.17467,-5.05061 -3.9e-4,0.28696 -0.26917,3.2845 -0.59729,6.66121 l -0.59659,6.13946 6.30736,13.23967 c 3.46904,7.28181 6.45463,13.34012 6.63463,13.4629 0.18001,0.12277 0.48488,0.18985 0.6775,0.14907 0.19262,-0.0408 3.88211,-3.16571 8.19886,-6.94426 z m -71.25795,-6.66353 c 0.25249,-0.67674 32.75698,-14.93879 34.04686,-14.93879 0.5437,0 0.57708,-0.1053 1.51214,-4.77025 0.88237,-4.40208 1.34451,-10.43491 0.79936,-10.43491 -0.19409,0 -1.05278,0.35562 -1.9082,0.79027 -1.81546,0.92244 -5.22815,1.9425 -13.48095,4.02947 -7.50319,1.89741 -10.22436,2.06456 -12.43689,0.76396 -1.6071,-0.94471 -3.44937,-3.36283 -5.16254,-6.77626 -1.46709,-2.92311 -4.313112,-9.77844 -4.316689,-10.39778 -0.0054,-0.94326 -1.785539,-3.59918 -2.757355,-4.11402 -2.974447,-1.57578 -10.152156,0.76576 -11.60149,3.78468 -0.536029,1.11653 -0.514096,1.56604 0.508878,10.42898 1.122765,9.72751 5.30826,19.71407 12.462158,29.73463 1.434905,2.00989 2.0937,2.54603 2.334718,1.90002 z m 59.47487,44.8026 c -1.24031,-1.24031 -2.19524,-4.77218 -2.21389,-8.18822 -0.0165,-3.018 0.51951,-6.26764 1.27462,-7.72786 1.39423,-2.69614 5.00104,-4.04377 7.21304,-2.69503 1.34711,0.82138 1.6139,2.55034 1.17519,7.61568 -0.29987,3.46223 -0.35735,3.83091 -0.92604,5.94049 -0.70587,2.6185 -1.81429,4.45895 -3.13112,5.19905 -1.50102,0.84362 -2.44414,0.80355 -3.3918,-0.14411 z M 39.208825,189.42828 c -4.29989,-7.57647 -7.246314,-15.77178 -10.879732,-30.26137 l -1.629808,-6.49946 1.21041,-2.24659 c 0.665725,-1.23562 1.699191,-2.88852 2.296591,-3.67311 2.32714,-3.05632 6.574593,-5.58601 11.48893,-6.84257 l 2.640348,-0.67512 1.1932,1.34163 c 3.827286,4.30339 9.406817,12.07921 11.11714,15.49321 1.090177,2.17612 3.238441,7.75241 3.056649,7.9342 -0.05039,0.0504 -1.263949,0.63068 -2.696787,1.28952 -9.534768,4.38424 -12.548683,8.89978 -14.81135,22.19082 -0.469941,2.76046 -0.910235,5.07481 -0.978432,5.14301 -0.0682,0.0682 -0.971418,-1.36918 -2.007159,-3.19417 z m 126.908625,1.33545 c -0.10056,-0.10057 -0.0711,-0.39999 0.0656,-0.66539 0.13662,-0.2654 0.35469,-1.0192 0.48459,-1.67511 0.12991,-0.65591 0.28837,-1.3938 0.35214,-1.63977 0.15318,-0.59082 0.35048,-2.78455 0.56311,-6.26095 0.13525,-2.21114 0.0703,-3.07307 -0.29627,-3.92997 -0.25823,-0.6037 -0.6057,-1.18182 -0.77216,-1.2847 -0.58287,-0.36023 -0.28835,-0.93238 1.48687,-2.88854 3.53884,-3.89953 5.71127,-3.95314 7.60259,-0.18761 0.99226,1.97556 1.86457,5.0448 2.17253,7.64413 0.84702,7.14926 -1.30285,9.84342 -8.47839,10.62483 -0.95954,0.1045 -2.02658,0.24758 -2.37118,0.31796 -0.34461,0.0704 -0.70884,0.0457 -0.8094,-0.0549 z m 12.49832,-10.61389 c -0.94993,-4.92988 -1.25972,-5.99101 -2.41414,-8.26915 -0.81647,-1.61122 -1.72706,-2.60329 -2.75995,-3.00691 -0.36895,-0.14417 -0.6688,-0.43315 -0.66633,-0.64218 0.008,-0.6842 0.72297,-2.43548 1.6925,-4.14615 1.46981,-2.59339 2.93475,-2.84555 5.66277,-0.97475 3.79178,2.60032 7.2507,7.69015 7.24801,10.66553 -0.002,2.64946 -1.65867,4.18111 -6.95537,6.43208 -1.76331,0.74936 -1.65113,0.75299 -1.80749,-0.0585 z m 9.08748,-8.44553 c -0.89284,-3.02387 -4.95574,-7.96704 -7.96198,-9.68704 l -1.56954,-0.898 0.65149,-1.10597 c 1.15829,-1.9663 3.22304,-3.84088 4.47935,-4.06678 3.2801,-0.5898 8.98384,4.47583 9.29155,8.25205 0.10847,1.33114 -1.01299,4.71163 -1.83612,5.53476 -0.21827,0.21827 -0.39685,0.49276 -0.39685,0.60997 0,0.11721 -0.50467,0.78759 -1.12148,1.48972 l -1.12148,1.27661 z m -97.964505,0.18306 c -0.814314,-0.33303 -1.832296,-1.47678 -2.216194,-2.49 -0.398154,-1.05084 -0.401086,-4.98253 -0.005,-6.76329 0.164109,-0.73789 0.835976,-3.02689 1.493036,-5.08666 1.474182,-4.6213 2.407603,-5.94453 4.193328,-5.94453 1.47533,0 2.592068,0.56293 3.763497,1.89711 1.912519,2.17824 2.00342,4.87331 0.33416,9.90736 -0.726944,2.19227 -1.368612,3.44599 -2.644236,5.16643 -2.170088,2.92679 -3.565555,3.86691 -4.918547,3.31358 z m -6.175861,-7.27624 c -3.354323,-1.91155 -4.57235,-2.98553 -5.472467,-4.8253 -0.652274,-1.3332 -0.771377,-1.91547 -0.653022,-3.19247 0.292356,-3.15438 2.719983,-7.69997 5.800248,-10.86062 4.192192,-4.3016 6.245875,-3.74274 8.363586,2.27594 l 0.885858,2.51767 -0.919866,0.6199 c -0.505926,0.34094 -1.224263,1.07159 -1.596303,1.62366 -0.918141,1.36243 -3.024372,7.99069 -3.442393,10.83313 -0.186893,1.27082 -0.416359,2.31059 -0.509925,2.31059 -0.09357,0 -1.198638,-0.58613 -2.455716,-1.3025 z m 106.121076,-6.57359 c -0.95268,-0.87937 -2.34993,-1.82236 -3.13048,-2.11275 -0.77539,-0.28847 -1.52598,-0.62974 -1.66798,-0.75838 -0.33479,-0.30328 2.0653,-4.52665 3.2903,-5.78985 1.12526,-1.16034 2.09041,-1.40315 3.39576,-0.85429 2.42022,1.01762 3.4739,3.76623 2.43818,6.36016 -0.16369,0.40995 -0.28794,0.81243 -0.27612,0.89442 0.0396,0.27443 -1.96238,3.87601 -2.14692,3.86239 -0.10013,-0.007 -0.95637,-0.72816 -1.90274,-1.6017 z M 75.656418,149.07191 c -2.651905,-2.87801 -3.476391,-4.48921 -3.289978,-6.42924 0.17334,-1.80399 1.139998,-3.13205 3.618982,-4.97198 2.915542,-2.16396 7.186164,-3.94257 9.490793,-3.95269 2.573923,-0.0113 3.530462,2.089 3.273443,7.18759 -0.0527,1.04536 -0.09597,1.08394 -1.377963,1.22844 -0.905829,0.1021 -1.812309,0.50796 -2.87215,1.28596 -1.654621,1.2146 -4.686283,4.81702 -5.659893,6.72545 -0.325288,0.63762 -0.711669,1.15931 -0.858623,1.15931 -0.146954,0 -1.193029,-1.00478 -2.324611,-2.23284 z m 122.806332,-5.44428 c 0.59675,-3.93956 2.18278,-11.72836 3.80956,-18.70831 0.95543,-4.09943 1.81847,-8.05725 1.91785,-8.79515 0.31451,-2.33512 0.50027,-9.41405 0.23471,-8.94421 -0.13902,0.24597 -0.76414,2.45966 -1.38916,4.91932 -0.62501,2.45966 -1.25045,4.59956 -1.38987,4.75534 -0.14327,0.16007 -0.25448,-0.3585 -0.25575,-1.19256 -0.001,-0.81169 -0.13809,-2.31282 -0.30411,-3.33584 -0.28857,-1.77811 -0.26116,-1.9407 0.62229,-3.6908 1.62049,-3.21016 2.35723,-8.44054 1.56722,-11.126224 -0.16571,-0.56335 -0.17988,-0.563779 -0.5793,-0.01755 -0.22518,0.307961 -0.40943,0.915315 -0.40943,1.349675 0,1.059073 -1.03323,5.04361 -1.71076,6.59732 l -0.54519,1.25024 -0.79536,-2.4141 c -2.13243,-6.472413 -5.17343,-10.346169 -10.42917,-13.285085 -1.63773,-0.915793 -1.69875,-0.99335 -1.57074,-1.996301 0.0733,-0.573921 0.2786,-2.720532 0.45632,-4.770248 0.2627,-3.029624 0.76322,-5.404028 2.67571,-12.693192 1.29391,-4.931539 2.72141,-9.961522 3.17222,-11.177737 1.09419,-2.951965 5.07627,-8.879181 5.57724,-8.301566 0.27684,0.31919 2.02432,5.219291 2.83759,7.95687 1.12034,3.771202 2.49869,10.473727 3.29378,16.016763 0.66038,4.603807 1.78897,15.037364 1.85436,17.143076 0.029,0.93391 0.38715,1.976938 1.1785,3.432146 1.76519,3.246002 2.16444,5.244834 1.96448,9.835104 -0.37746,8.66467 -4.81772,26.6252 -8.40263,33.98801 -1.22746,2.521 -2.88933,4.91932 -3.40874,4.91932 -0.12722,0 -0.11445,-0.77144 0.0284,-1.71431 z M 71.526219,138.33564 c -0.279194,-0.98387 -0.56947,-2.72799 -0.645059,-3.87583 -0.131773,-2.001 -0.08604,-2.18198 1.110012,-4.39282 1.209224,-2.23518 1.315523,-2.33948 3.469251,-3.40391 2.706351,-1.33755 6.170878,-1.72711 7.812073,-0.87842 1.325017,0.68519 2.241122,2.62765 2.842548,6.02717 l 0.164479,0.92971 -1.667226,0.19595 c -3.363496,0.39531 -8.048737,2.77633 -10.871394,5.5248 l -1.707059,1.66219 z m -7.223291,-4.85475 c -1.066558,-3.56652 -1.310861,-5.8346 -1.548414,-14.37531 -0.176672,-6.35186 -0.37625,-9.31821 -0.718427,-10.67804 -0.527863,-2.09775 -2.171099,-6.2214 -3.120144,-7.82991 l -0.618513,-1.048306 1.46802,-3.289901 c 2.817534,-6.314228 5.397147,-12.732518 8.430873,-20.976703 1.680657,-4.567202 3.092091,-8.267652 3.136521,-8.223222 0.04443,0.04443 -0.154724,1.54303 -0.442565,3.330222 -0.87899,5.457594 -0.732486,18.225856 0.341742,29.78394 1.05881,11.3922 1.212844,21.12036 0.386208,24.39141 -0.972975,3.85012 -2.813977,6.72122 -5.853311,9.12842 l -1.130626,0.89547 z m 9.805919,-8.37262 c 0.05681,-2.73841 0.756569,-7.74376 1.148372,-8.21429 1.030182,-1.23716 3.486976,-1.76635 4.839605,-1.04245 0.867572,0.46431 1.645998,2.44818 2.016426,5.139 0.503149,3.65492 0.654744,3.38487 -1.989535,3.54412 -1.521888,0.0917 -2.946637,0.39821 -4.173966,0.89807 l -1.863378,0.75892 z m 121.194033,-1.28642 c -0.068,-0.21628 -0.47665,-1.66779 -0.90801,-3.22557 -1.81972,-6.5715 -4.38733,-9.69304 -8.94115,-10.87005 -2.74042,-0.70831 -8.31663,-0.58769 -15.39066,0.33292 -13.20283,1.7182 -21.26707,0.75616 -30.23672,-3.60717 -3.64715,-1.77417 -6.16932,-3.47892 -12.82004,-8.665165 -10.35168,-8.072256 -14.46803,-10.350449 -19.89708,-11.012054 -3.13322,-0.381825 -8.720371,0.92645 -12.823834,3.0028 -0.778891,0.394119 -1.41635,0.680779 -1.416574,0.637022 -2.24e-4,-0.04376 -0.212313,-1.219945 -0.471308,-2.613751 -0.258994,-1.393807 -0.543758,-4.814968 -0.632807,-7.602582 l -0.161908,-5.068387 2.943804,-1.685796 c 10.631727,-6.088356 14.443427,-6.719839 22.173867,-3.673533 6.19595,2.441617 5.69052,2.095805 8.52264,5.831191 9.49187,12.519197 15.97636,18.192099 23.85961,20.873398 4.20331,1.429655 7.33881,1.847519 12.63695,1.684112 6.50144,-0.200519 9.94683,-1.032538 21.81367,-5.267731 l 2.5836,-0.922072 1.8885,1.246034 c 3.00926,1.985513 4.38159,3.216056 5.794,5.195368 3.02636,4.241066 5.23846,12.293966 5.27525,19.204046 0.0184,3.45378 -0.41719,4.99499 -1.6278,5.7595 -1.11483,0.70403 -2.02413,0.89206 -2.164,0.44747 z m -31.36635,-1.58356 c -2.10647,-0.45813 -3.20352,-0.97287 -4.35839,-2.04497 -0.95536,-0.88689 -1.04434,-1.68661 -0.26604,-2.39097 0.49635,-0.44918 0.85478,-0.46573 3.45261,-0.15935 2.15679,0.25437 3.56554,0.25636 5.50369,0.008 1.43271,-0.18373 3.38562,-0.33406 4.33979,-0.33406 0.95417,0 2.92241,-0.15812 4.37385,-0.35136 1.45145,-0.19325 2.72378,-0.26658 2.8274,-0.16296 0.44624,0.44625 -0.32307,1.88748 -1.79114,3.35555 -2.11549,2.1155 -3.53531,2.53304 -8.50656,2.50159 -2.06095,-0.013 -4.5698,-0.20261 -5.57521,-0.42127 z M 124.0249,108.9995 c -8.47394,-2.68342 -11.97426,-4.81895 -12.50102,-7.62684 -0.33576,-1.78972 0.0181,-1.854282 3.61376,-0.65926 3.86087,1.28319 13.65891,5.94985 13.91983,6.62982 0.36564,0.95282 0.17389,1.89761 -0.47774,2.35403 -0.36444,0.25526 -0.73338,0.45761 -0.81988,0.44965 -0.0865,-0.008 -1.76723,-0.52428 -3.73495,-1.1474 z m 29.91814,-12.720761 c -9.67305,-1.750541 -16.8362,-7.434672 -28.00025,-22.218879 -3.19546,-4.231649 -3.16421,-3.70514 -0.46329,-7.806449 2.26589,-3.440717 4.26646,-5.575894 6.8066,-7.264576 6.01323,-3.997587 15.54305,-4.804988 25.75942,-2.182431 11.86782,3.046485 18.42999,9.293267 23.16347,22.050214 1.37741,3.712164 3.56066,11.304899 3.38346,11.766688 -0.16299,0.424742 -8.02835,3.301766 -12.11973,4.433208 -1.55779,0.430794 -4.02384,0.986947 -5.48012,1.235896 -3.26668,0.558436 -9.92679,0.551458 -13.04956,-0.01367 z m 30.79027,-11.269036 c -0.55366,-1.921591 -0.94052,-3.559937 -0.85969,-3.640769 0.0808,-0.08083 0.68746,-0.06054 1.34806,0.04509 l 1.20109,0.192062 -0.15195,1.830274 c -0.0836,1.006651 -0.2372,2.558569 -0.3414,3.448707 l -0.18945,1.618434 z m -0.82861,-5.1741 c -0.72854,-0.09149 -0.98539,-0.299374 -1.1382,-0.921243 -0.36344,-1.47904 -2.58292,-6.417188 -3.94771,-8.78334 -1.6923,-2.933936 -4.16242,-5.951034 -6.53936,-7.987419 l -1.83306,-1.570427 0.41689,-1.181607 c 0.91187,-2.584505 0.26356,-4.418969 -2.18009,-6.168826 -3.21305,-2.30082 -9.51136,-4.362472 -12.55594,-4.109992 -2.09666,0.173871 -3.2116,1.265543 -3.49801,3.425002 l -0.18889,1.42414 -5.56164,0.0086 c -4.74814,0.0073 -5.94911,0.106035 -8.21058,0.674773 -3.29084,0.827618 -5.89101,2.052186 -8.41683,3.963979 -1.85845,1.406653 -2.00052,1.461353 -3.0568,1.176927 l -1.10776,-0.29829 0.67024,-4.999043 c 1.55852,-11.624193 1.95139,-16.171405 1.82266,-21.096005 -0.13646,-5.220415 -0.48941,-6.655517 -2.30863,-9.38695 -0.48886,-0.733995 -0.79173,-1.421691 -0.67305,-1.528215 0.3995,-0.358553 4.96382,-1.750131 7.66931,-2.338232 8.20861,-1.78433 17.08749,-1.449967 26.81019,1.009624 14.81237,3.747149 27.55897,12.105541 34.58113,22.676066 1.5736,2.36875 3.45423,5.839133 3.45423,6.374187 0,0.153622 -0.63208,1.055257 -1.40462,2.003633 -2.12885,2.613384 -4.06313,6.023331 -4.96556,8.75383 -0.44614,1.34986 -1.75009,6.085634 -2.89768,10.523942 -1.14759,4.438308 -2.15589,8.181886 -2.24067,8.319062 -0.15385,0.24894 -0.92143,0.259129 -2.69957,0.03583 z M 123.45253,65.887509 c 0.0801,-0.491932 0.31066,-1.833564 0.51233,-2.981405 l 0.36667,-2.086983 1.03925,0.103349 c 1.86985,0.185948 1.88416,0.361088 0.21385,2.617729 -0.85785,1.158989 -1.72129,2.362511 -1.91875,2.674492 -0.31695,0.500779 -0.34195,0.462445 -0.21335,-0.327182 z m 43.05738,-7.517979 c -2.62768,-1.340853 -7.80333,-3.098157 -10.84315,-3.681606 l -1.74987,-0.335861 0.14937,-1.325211 c 0.20971,-1.860494 0.87435,-2.493576 2.61787,-2.493576 3.18731,0 10.08909,2.668307 12.09801,4.677228 1.00299,1.002989 1.06539,1.172625 0.93406,2.539366 -0.0774,0.805518 -0.26029,1.56543 -0.40641,1.688694 -0.14613,0.123263 -1.40607,-0.357802 -2.79988,-1.069034 z"
     id="path14" /></svg>
