<?xml version="1.0" encoding="UTF-8" standalone="no"?>
<svg
   width="240"
   height="240"
   version="1.1"
   id="svg40"
   sodipodi:docname="internalhydraulicstuned.svg"
   inkscape:version="1.3.2 (091e20e, 2023-11-25, custom)"
   xmlns:inkscape="http://www.inkscape.org/namespaces/inkscape"
   xmlns:sodipodi="http://sodipodi.sourceforge.net/DTD/sodipodi-0.dtd"
   xmlns="http://www.w3.org/2000/svg"
   xmlns:svg="http://www.w3.org/2000/svg">
  <defs
     id="defs40">
    <filter
       style="color-interpolation-filters:sRGB"
       inkscape:label="Drop Shadow"
       id="filter23"
       x="-0.17103967"
       y="-0.17099555"
       width="1.3420793"
       height="1.3419911">
      <feFlood
         result="flood"
         in="SourceGraphic"
         flood-opacity="1.000000"
         flood-color="rgb(58,63,94)"
         id="feFlood21" />
      <feGaussianBlur
         result="blur"
         in="SourceGraphic"
         stdDeviation="15.000000"
         id="feGaussianBlur21" />
      <feOffset
         result="offset"
         in="blur"
         dx="0.000000"
         dy="0.000000"
         id="feOffset21" />
      <feComposite
         result="comp1"
         operator="out"
         in="flood"
         in2="offset"
         id="feComposite22" />
      <feComposite
         result="comp2"
         operator="atop"
         in="comp1"
         in2="SourceGraphic"
         id="feComposite23" />
    </filter>
  </defs>
  <sodipodi:namedview
     id="namedview40"
     pagecolor="#505050"
     bordercolor="#eeeeee"
     borderopacity="1"
     inkscape:showpageshadow="0"
     inkscape:pageopacity="0"
     inkscape:pagecheckerboard="0"
     inkscape:deskcolor="#505050"
     inkscape:zoom="2.3747003"
     inkscape:cx="90.537742"
     inkscape:cy="124.43676"
     inkscape:window-width="1920"
     inkscape:window-height="1017"
     inkscape:window-x="-8"
     inkscape:window-y="-8"
     inkscape:window-maximized="1"
     inkscape:current-layer="svg40" />
  <path
     style="fill:#1b1f21;stroke:none"
     d="M0 0v240h240V0H0z"
     id="path1" />
  <path
     style="fill:#fff;stroke:none"
     d="M196 184v12h-12v12h12v12h12v-12h12v-12h-12v-12h-12z"
     id="path40"
     inkscape:label="Plus Sign" />
  <path
     d="m 219.53704,55.912569 -9.12649,-9.12649 -5.3e-4,-5.27e-4 -17.16742,-17.167424 c -5.3e-4,-5.26e-4 -0.001,-7.9e-4 -0.001,-0.0014 l -9.17091,-9.171309 c -3.68303,-3.682882 -8.57996,-5.711311 -13.7894,-5.711311 -5.20861,0 -10.10554,2.028429 -13.78945,5.711098 -1.28745,1.287454 -2.01115,3.033393 -2.01115,4.853755 0,1.821187 0.72329,3.567123 2.01115,4.854578 l 13.25325,13.25325 -3.31834,3.318349 -6.64205,-6.641634 c -1.28745,-1.287455 -3.03339,-2.011159 -4.85375,-2.011159 -1.82036,0 -3.56713,0.723704 -4.85376,2.011159 l -8.93488,8.934872 c -2.68099,2.680996 -2.68099,7.027337 0,9.708332 l 6.64205,6.642046 -3.00501,3.005018 -6.64205,-6.642045 c -2.68058,-2.680996 -7.02734,-2.680996 -9.70833,0 l -8.9357,8.935283 c -1.28746,1.287455 -2.01115,3.033392 -2.01115,4.853761 0,1.821184 0.72369,3.566707 2.01115,4.853754 l 6.64205,6.642048 -3.13866,3.138654 -13.68541,-13.685414 c -1.47743,-1.477429 -3.87265,-1.477429 -5.35007,0 L 78.02119,102.40972 c -1.477427,1.47743 -1.477427,3.87265 0,5.34966 l 7.145759,7.14576 c 1.477427,1.47743 3.87223,1.47743 5.349657,0 l 7.313938,-7.31394 3.864416,3.86442 -17.991456,17.99146 c -12.684607,-5.24806 -27.381975,-5.01779 -40.03817,0.92933 l -3.584806,-3.58479 c -1.965926,-1.96593 -5.153105,-1.96593 -7.119442,0 l -16.725388,16.72662 c -1.965925,1.96592 -1.965925,5.15309 0,7.11943 l 3.585217,3.58482 c -8.441437,17.96596 -5.635027,40.64586 9.851839,56.13273 15.326499,15.32651 37.965703,18.38786 56.132331,9.85143 l 3.584804,3.58481 c 1.965927,1.96592 5.153517,1.96592 7.119444,0 L 113.2343,207.06648 c 1.96593,-1.96593 1.96593,-5.1531 0,-7.11944 l -3.58481,-3.5848 c 5.94137,-12.64387 6.18275,-27.34123 0.92931,-40.03772 l 17.99146,-17.99147 3.86442,3.86443 -7.31394,7.31352 c -1.47743,1.47743 -1.47743,3.87264 0,5.34966 l 7.14576,7.14576 c 1.47742,1.47743 3.87264,1.47743 5.34966,0 l 25.93986,-25.93988 c 1.47743,-1.47742 1.47743,-3.87263 0,-5.35006 l -13.68541,-13.68542 3.13865,-3.13866 6.64205,6.64205 c 1.3405,1.34049 3.09754,2.01116 4.85376,2.01116 1.75621,0 3.51408,-0.66984 4.85375,-2.01116 l 8.93487,-8.93488 c 1.28746,-1.28745 2.01116,-3.03338 2.01116,-4.85375 0,-1.82119 -0.72287,-3.56671 -2.01116,-4.85376 l -6.64204,-6.642034 3.00501,-3.005024 6.64205,6.642044 c 1.28746,1.287454 3.0334,2.011164 4.85376,2.011164 1.82036,0 3.56712,-0.72371 4.85375,-2.011164 l 8.93488,-8.934874 c 2.68099,-2.68099 2.68099,-7.027332 0,-9.708333 l -6.64205,-6.642041 3.31876,-3.318761 13.20802,13.20802 c 1.28745,1.287453 3.03339,2.011159 4.85376,2.011159 1.82076,0 3.56712,-0.723706 4.85375,-2.011159 7.60671,-7.603832 7.60671,-19.97548 0.003,-27.578488 z M 84.264335,194.8219 c -10.793889,10.79388 -28.263128,10.7943 -39.058253,0 -10.793476,-10.79307 -10.794707,-28.26355 0,-39.05825 10.793069,-10.79349 28.263131,-10.79472 39.058253,0 10.793065,10.79306 10.794711,28.26394 0,39.05825 z"
     id="path1-8"
     style="fill:#e64539;fill-opacity:1;stroke-width:0.411196;filter:url(#filter23)" />
</svg>
